#define ASSET_main_screen_width 128
#define ASSET_main_screen_height 64
static unsigned char ASSET_main_screen_bits[] = {
   0x00, 0x00, 0x00, 0x00, 0x00, 0x00, 0x00, 0x00, 0x00, 0x00, 0x00, 0x00,
   0x00, 0x00, 0x00, 0x00, 0x00, 0x00, 0x00, 0x80, 0x1f, 0x1c, 0x84, 0x80,
   0x00, 0x00, 0x00, 0x00, 0x00, 0xf0, 0xff, 0x0f, 0x18, 0xa1, 0xcf, 0x43,
   0x20, 0x22, 0x8d, 0xdd, 0x00, 0x00, 0xc2, 0xe3, 0x01, 0x08, 0x00, 0x10,
   0x24, 0x21, 0x22, 0x24, 0x4f, 0x28, 0x16, 0x7f, 0x00, 0x00, 0x23, 0x14,
   0x1a, 0xe9, 0xff, 0x17, 0x42, 0x21, 0x22, 0x84, 0x10, 0x24, 0x0c, 0x7f,
   0x00, 0x80, 0x22, 0x16, 0x9b, 0xe8, 0xff, 0x37, 0x7e, 0x21, 0x22, 0x44,
   0x26, 0x2c, 0x0c, 0x6b, 0x00, 0x00, 0xa2, 0xd5, 0x42, 0xe8, 0xff, 0x37,
   0x42, 0x21, 0x22, 0x04, 0x09, 0x24, 0x16, 0x6b, 0x00, 0x00, 0x62, 0x34,
   0x22, 0xe8, 0xff, 0x17, 0x42, 0x21, 0x22, 0x04, 0x00, 0x10, 0x0d, 0x3e,
   0x00, 0x00, 0x22, 0x14, 0x92, 0x09, 0x00, 0x10, 0x42, 0x1e, 0xc2, 0x03,
   0x06, 0x0c, 0x04, 0x1c, 0x00, 0x80, 0xcf, 0xe3, 0x89, 0xf1, 0xff, 0x0f,
   0x00, 0x00, 0x00, 0x00, 0x00, 0x00, 0x00, 0x00, 0x00, 0x00, 0x00, 0x00,
   0x00, 0x00, 0x00, 0x00, 0x00, 0x00, 0x00, 0x00, 0x00, 0x00, 0x00, 0x00,
   0x00, 0x00, 0x00, 0x00, 0x00, 0x00, 0x00, 0x00, 0x00, 0x00, 0x00, 0x00,
   0x00, 0x00, 0x00, 0x00, 0x00, 0x3c, 0x00, 0x00, 0x00, 0x00, 0x00, 0x00,
   0x00, 0x00, 0xe0, 0xff, 0x1f, 0x00, 0x00, 0x00, 0x00, 0xe0, 0x00, 0x00,
   0x00, 0x00, 0x00, 0x00, 0x00, 0x00, 0x38, 0x00, 0xe0, 0x01, 0x00, 0x00,
   0x00, 0x80, 0x03, 0x00, 0x00, 0x00, 0x00, 0x00, 0x00, 0x00, 0x07, 0x00,
   0xf0, 0x0e, 0x00, 0x00, 0x00, 0x00, 0x06, 0x00, 0x00, 0x00, 0x00, 0x00,
   0x00, 0xc0, 0xff, 0xbf, 0x1e, 0x70, 0x00, 0x00, 0x00, 0x0c, 0x0c, 0x00,
   0x00, 0x00, 0x00, 0x00, 0x00, 0x30, 0x00, 0x54, 0x07, 0xd8, 0x01, 0x00,
   0x00, 0x38, 0x08, 0x00, 0x00, 0x00, 0x00, 0x00, 0x00, 0x18, 0x00, 0xaa,
   0x03, 0x8e, 0x03, 0x00, 0x00, 0x60, 0x18, 0x00, 0x00, 0x00, 0x00, 0x00,
   0x00, 0x04, 0x00, 0x55, 0x03, 0x13, 0x0e, 0x00, 0x00, 0xc0, 0x10, 0x00,
   0x00, 0x00, 0x00, 0x00, 0x00, 0x00, 0x00, 0xaa, 0xc1, 0x61, 0x08, 0x00,
   0x00, 0x8c, 0x31, 0x00, 0x00, 0x00, 0x00, 0x00, 0x00, 0x00, 0x00, 0xd5,
   0x70, 0x84, 0x18, 0x00, 0x00, 0x10, 0x21, 0x00, 0x00, 0x00, 0x00, 0x00,
   0x80, 0x00, 0x00, 0xea, 0x18, 0x08, 0x11, 0xe0, 0x0f, 0x20, 0x23, 0x00,
   0x00, 0x00, 0x00, 0x00, 0x40, 0x00, 0x00, 0x55, 0x8c, 0x10, 0x38, 0x1c,
   0x78, 0x20, 0x22, 0x00, 0x00, 0x00, 0x00, 0x00, 0x20, 0x00, 0x00, 0x6a,
   0x04, 0x21, 0x2c, 0x07, 0xc0, 0x00, 0x00, 0x00, 0x00, 0x00, 0x00, 0x00,
   0x30, 0x80, 0xff, 0x3f, 0x0c, 0x02, 0xe6, 0x01, 0x80, 0x01, 0x00, 0x00,
   0x00, 0x00, 0x00, 0x00, 0x10, 0xc0, 0x00, 0x18, 0x18, 0x84, 0x23, 0x00,
   0xf0, 0x01, 0x00, 0x00, 0x00, 0x00, 0x00, 0x00, 0x08, 0x60, 0xfe, 0x33,
   0x30, 0xe0, 0x10, 0x00, 0xf8, 0x01, 0x00, 0x00, 0x00, 0x00, 0x00, 0x00,
   0x04, 0x30, 0x01, 0x64, 0x20, 0x38, 0x0c, 0x00, 0xfe, 0x00, 0x00, 0x00,
   0x00, 0x00, 0x00, 0x00, 0x02, 0x90, 0x00, 0xc8, 0xe0, 0x0f, 0x02, 0x80,
   0x7f, 0x00, 0x00, 0x00, 0x00, 0x00, 0x00, 0x00, 0x01, 0x48, 0xfc, 0x91,
   0x00, 0x00, 0x01, 0xe0, 0x3f, 0x00, 0x00, 0x00, 0x00, 0x00, 0x70, 0x00,
   0x00, 0x28, 0xfe, 0xa3, 0x01, 0xc0, 0x00, 0xf0, 0x1f, 0xf0, 0x7f, 0xc6,
   0x00, 0x30, 0x53, 0x00, 0x00, 0x24, 0xff, 0x27, 0x01, 0x30, 0x00, 0xfc,
   0x0f, 0xf0, 0x7f, 0xc6, 0x00, 0x38, 0x77, 0x00, 0x00, 0x14, 0xff, 0x47,
   0x01, 0x08, 0x00, 0xfe, 0x07, 0x00, 0x70, 0xc6, 0x00, 0x38, 0x07, 0x00,
   0x00, 0x94, 0xe7, 0x4f, 0x01, 0x06, 0x80, 0xff, 0x03, 0x00, 0x70, 0xe6,
   0x00, 0x1c, 0x0e, 0x3f, 0x00, 0x94, 0xe7, 0x4f, 0x81, 0x01, 0xc0, 0xff,
   0x01, 0x00, 0x38, 0xf0, 0x48, 0x1c, 0x0e, 0x3f, 0x00, 0x94, 0xff, 0x4f,
   0x71, 0x00, 0xe0, 0xff, 0x00, 0x00, 0x3c, 0x78, 0x52, 0x0e, 0x1c, 0x00,
   0x00, 0x94, 0xff, 0x4f, 0x1d, 0x00, 0xf0, 0x7f, 0x00, 0x00, 0x1f, 0x3c,
   0x44, 0x0e, 0x1c, 0x00, 0x00, 0x94, 0xff, 0x4f, 0x07, 0x00, 0xf8, 0x3f,
   0x00, 0xe0, 0x0f, 0x1e, 0x20, 0x07, 0x38, 0x00, 0x80, 0x96, 0xff, 0x7f,
   0x00, 0x00, 0xfc, 0x1f, 0x00, 0xe0, 0x03, 0x0e, 0x1c, 0x03, 0x30, 0x00,
   0x40, 0x25, 0xff, 0x41, 0x00, 0x00, 0xfe, 0x0f, 0x00, 0x00, 0x00, 0x00,
   0x00, 0x00, 0x00, 0x00, 0xa0, 0x2a, 0x7e, 0x00, 0x00, 0x00, 0xff, 0x07,
   0x00, 0x00, 0x00, 0x00, 0x00, 0x00, 0x00, 0x00, 0x50, 0x4d, 0x1e, 0x00,
   0x00, 0x80, 0xff, 0x03, 0x00, 0x00, 0x00, 0x00, 0x00, 0x00, 0x00, 0x00,
   0xa8, 0x9a, 0x02, 0x00, 0x00, 0xc0, 0xff, 0x01, 0x80, 0x07, 0x00, 0x00,
   0x00, 0x00, 0x00, 0x00, 0x50, 0x95, 0x01, 0x00, 0x00, 0xf0, 0xff, 0xff,
   0x7f, 0x0e, 0x00, 0x00, 0x00, 0x00, 0x00, 0x00, 0xa8, 0xea, 0x00, 0x00,
   0x00, 0xf8, 0x01, 0x1f, 0x00, 0x09, 0x00, 0x00, 0x00, 0x00, 0x00, 0x00,
   0x50, 0x55, 0x00, 0x00, 0x00, 0xfc, 0x00, 0x70, 0xc0, 0x08, 0x00, 0x00,
   0x00, 0x00, 0x00, 0x00, 0xa8, 0x2a, 0x00, 0x00, 0x00, 0x3e, 0x00, 0xe0,
   0x39, 0x08, 0x00, 0x00, 0x00, 0x00, 0x00, 0x00, 0x50, 0x15, 0x00, 0x60,
   0x80, 0x1f, 0x00, 0x80, 0x0f, 0x04, 0x00, 0x00, 0x00, 0x00, 0x00, 0x00,
   0xa8, 0x0a, 0x00, 0xc0, 0xf0, 0x3f, 0x00, 0xf0, 0x00, 0x04, 0x00, 0x00,
   0x00, 0x00, 0x00, 0x00, 0x50, 0x05, 0x00, 0x00, 0xff, 0xff, 0xff, 0x1f,
   0x00, 0x02, 0x00, 0x00, 0x00, 0x00, 0x00, 0x00, 0xa8, 0x0a, 0x00, 0x00,
   0x00, 0x00, 0x00, 0x00, 0x00, 0x01, 0x00, 0x00, 0x00, 0x00, 0x00, 0x00,
   0x50, 0x05, 0x00, 0x00, 0x00, 0x00, 0x00, 0x00, 0x80, 0x00, 0x00, 0x00,
   0x00, 0x00, 0x00, 0x00, 0xa0, 0x0a, 0x00, 0x00, 0x00, 0x00, 0x00, 0x00,
   0x40, 0x00, 0x00, 0x00, 0x00, 0x00, 0x00, 0x00, 0x00, 0x00, 0x00, 0x00,
   0x00, 0x00, 0x00, 0x00, 0x3c, 0x00, 0x00, 0x00, 0x00, 0x00, 0x00, 0x00,
   0x00, 0x00, 0x00, 0x00, 0x00, 0x00, 0x00, 0xc0, 0x03, 0x00, 0x00, 0x00,
   0x00, 0x00, 0x00, 0x00, 0x00, 0x00, 0x00, 0x00, 0x00, 0x00, 0x00, 0x30,
   0x00, 0x00, 0x00, 0x00, 0x00, 0x00, 0x00, 0x00, 0x00, 0x00, 0x00, 0x00,
   0x00, 0x00, 0x80, 0x0f, 0x00, 0x00, 0x00, 0x00, 0x00, 0x00, 0x00, 0x00,
   0x00, 0x00, 0x00, 0x00, 0x00, 0x00, 0x70, 0x00, 0x00, 0x00, 0x00, 0x00,
   0x00, 0x00, 0x00, 0x00, 0x00, 0x00, 0x00, 0x00, 0x00, 0x00, 0x0e, 0x00,
   0x00, 0x00, 0x00, 0x00, 0x00, 0x00, 0x00, 0x00, 0x00, 0x00, 0x00, 0x00,
   0x00, 0x00, 0x0e, 0x00, 0x00, 0x00, 0x00, 0x00, 0x00, 0x00, 0x00, 0x00,
   0x00, 0x00, 0x00, 0x00, 0x00, 0x80, 0x0f, 0x00, 0x00, 0x00, 0x00, 0x00,
   0x00, 0x00, 0x00, 0x00, 0x00, 0x00, 0x00, 0x00, 0x00, 0xf0, 0x07, 0x00,
   0x00, 0x00, 0x00, 0x00, 0x00, 0x00, 0x00, 0x00, 0x00, 0x00, 0x00, 0x00,
   0x00, 0xfc, 0x03, 0x00, 0x00, 0x00, 0x00, 0x00, 0x00, 0x00, 0x00, 0x00,
   0x00, 0x00, 0x00, 0x00, 0x00, 0xfe, 0x03, 0x00, 0x00, 0x00, 0x00, 0x00,
   0x00, 0x00, 0x00, 0x00 };
