<svg version="1.1" id="bubble-frame" xmlns="http://www.w3.org/2000/svg" xmlns:xlink="http://www.w3.org/1999/xlink" x="0px" y="0px" viewBox="0 0 279 401.2" style="enable-background:new 0 0 279 401.2;" xml:space="preserve">
    <style type="text/css">
        .frame-color{fill:#000000;}
        .background-color{fill:#ffffff;}
        .text-color{fill:#FFFFFF;}
    </style>
    
    <svg xmlns="http://www.w3.org/2000/svg" xmlns:xlink="http://www.w3.org/1999/xlink" version="1.1" width="259.9" height="259.9" viewBox="0 0 2000 2000" x="9.6" y="131.7" shape-rendering="crispEdges"><defs></defs><rect x="0" y="0" width="2000" height="2000" fill="#ffffff"></rect><rect x="617" y="158" width="51" height="51" fill="#000000"></rect><rect x="872" y="158" width="51" height="51" fill="#000000"></rect><rect x="974" y="158" width="51" height="51" fill="#000000"></rect><rect x="1178" y="158" width="51" height="51" fill="#000000"></rect><rect x="1229" y="158" width="51" height="51" fill="#000000"></rect><rect x="1331" y="158" width="51" height="51" fill="#000000"></rect><rect x="566" y="209" width="51" height="51" fill="#000000"></rect><rect x="617" y="209" width="51" height="51" fill="#000000"></rect><rect x="719" y="209" width="51" height="51" fill="#000000"></rect><rect x="770" y="209" width="51" height="51" fill="#000000"></rect><rect x="1229" y="209" width="51" height="51" fill="#000000"></rect><rect x="1280" y="209" width="51" height="51" fill="#000000"></rect><rect x="1331" y="209" width="51" height="51" fill="#000000"></rect><rect x="1382" y="209" width="51" height="51" fill="#000000"></rect><rect x="617" y="260" width="51" height="51" fill="#000000"></rect><rect x="668" y="260" width="51" height="51" fill="#000000"></rect><rect x="719" y="260" width="51" height="51" fill="#000000"></rect><rect x="1025" y="260" width="51" height="51" fill="#000000"></rect><rect x="1076" y="260" width="51" height="51" fill="#000000"></rect><rect x="1178" y="260" width="51" height="51" fill="#000000"></rect><rect x="1229" y="260" width="51" height="51" fill="#000000"></rect><rect x="1331" y="260" width="51" height="51" fill="#000000"></rect><rect x="566" y="311" width="51" height="51" fill="#000000"></rect><rect x="617" y="311" width="51" height="51" fill="#000000"></rect><rect x="719" y="311" width="51" height="51" fill="#000000"></rect><rect x="923" y="311" width="51" height="51" fill="#000000"></rect><rect x="974" y="311" width="51" height="51" fill="#000000"></rect><rect x="1025" y="311" width="51" height="51" fill="#000000"></rect><rect x="1076" y="311" width="51" height="51" fill="#000000"></rect><rect x="1280" y="311" width="51" height="51" fill="#000000"></rect><rect x="668" y="362" width="51" height="51" fill="#000000"></rect><rect x="770" y="362" width="51" height="51" fill="#000000"></rect><rect x="821" y="362" width="51" height="51" fill="#000000"></rect><rect x="974" y="362" width="51" height="51" fill="#000000"></rect><rect x="1127" y="362" width="51" height="51" fill="#000000"></rect><rect x="1178" y="362" width="51" height="51" fill="#000000"></rect><rect x="1229" y="362" width="51" height="51" fill="#000000"></rect><rect x="1382" y="362" width="51" height="51" fill="#000000"></rect><rect x="566" y="413" width="51" height="51" fill="#000000"></rect><rect x="668" y="413" width="51" height="51" fill="#000000"></rect><rect x="821" y="413" width="51" height="51" fill="#000000"></rect><rect x="872" y="413" width="51" height="51" fill="#000000"></rect><rect x="1178" y="413" width="51" height="51" fill="#000000"></rect><rect x="1280" y="413" width="51" height="51" fill="#000000"></rect><rect x="1382" y="413" width="51" height="51" fill="#000000"></rect><rect x="566" y="464" width="51" height="51" fill="#000000"></rect><rect x="668" y="464" width="51" height="51" fill="#000000"></rect><rect x="770" y="464" width="51" height="51" fill="#000000"></rect><rect x="872" y="464" width="51" height="51" fill="#000000"></rect><rect x="974" y="464" width="51" height="51" fill="#000000"></rect><rect x="1076" y="464" width="51" height="51" fill="#000000"></rect><rect x="1178" y="464" width="51" height="51" fill="#000000"></rect><rect x="1280" y="464" width="51" height="51" fill="#000000"></rect><rect x="1382" y="464" width="51" height="51" fill="#000000"></rect><rect x="770" y="515" width="51" height="51" fill="#000000"></rect><rect x="821" y="515" width="51" height="51" fill="#000000"></rect><rect x="974" y="515" width="51" height="51" fill="#000000"></rect><rect x="1076" y="515" width="51" height="51" fill="#000000"></rect><rect x="1178" y="515" width="51" height="51" fill="#000000"></rect><rect x="1229" y="515" width="51" height="51" fill="#000000"></rect><rect x="1280" y="515" width="51" height="51" fill="#000000"></rect><rect x="1331" y="515" width="51" height="51" fill="#000000"></rect><rect x="158" y="566" width="51" height="51" fill="#000000"></rect><rect x="209" y="566" width="51" height="51" fill="#000000"></rect><rect x="260" y="566" width="51" height="51" fill="#000000"></rect><rect x="311" y="566" width="51" height="51" fill="#000000"></rect><rect x="362" y="566" width="51" height="51" fill="#000000"></rect><rect x="464" y="566" width="51" height="51" fill="#000000"></rect><rect x="515" y="566" width="51" height="51" fill="#000000"></rect><rect x="566" y="566" width="51" height="51" fill="#000000"></rect><rect x="617" y="566" width="51" height="51" fill="#000000"></rect><rect x="668" y="566" width="51" height="51" fill="#000000"></rect><rect x="770" y="566" width="51" height="51" fill="#000000"></rect><rect x="872" y="566" width="51" height="51" fill="#000000"></rect><rect x="923" y="566" width="51" height="51" fill="#000000"></rect><rect x="1229" y="566" width="51" height="51" fill="#000000"></rect><rect x="1280" y="566" width="51" height="51" fill="#000000"></rect><rect x="1382" y="566" width="51" height="51" fill="#000000"></rect><rect x="1433" y="566" width="51" height="51" fill="#000000"></rect><rect x="1535" y="566" width="51" height="51" fill="#000000"></rect><rect x="1637" y="566" width="51" height="51" fill="#000000"></rect><rect x="1739" y="566" width="51" height="51" fill="#000000"></rect><rect x="158" y="617" width="51" height="51" fill="#000000"></rect><rect x="209" y="617" width="51" height="51" fill="#000000"></rect><rect x="260" y="617" width="51" height="51" fill="#000000"></rect><rect x="311" y="617" width="51" height="51" fill="#000000"></rect><rect x="617" y="617" width="51" height="51" fill="#000000"></rect><rect x="1178" y="617" width="51" height="51" fill="#000000"></rect><rect x="1229" y="617" width="51" height="51" fill="#000000"></rect><rect x="1280" y="617" width="51" height="51" fill="#000000"></rect><rect x="1331" y="617" width="51" height="51" fill="#000000"></rect><rect x="1382" y="617" width="51" height="51" fill="#000000"></rect><rect x="1484" y="617" width="51" height="51" fill="#000000"></rect><rect x="1535" y="617" width="51" height="51" fill="#000000"></rect><rect x="1637" y="617" width="51" height="51" fill="#000000"></rect><rect x="1688" y="617" width="51" height="51" fill="#000000"></rect><rect x="158" y="668" width="51" height="51" fill="#000000"></rect><rect x="260" y="668" width="51" height="51" fill="#000000"></rect><rect x="311" y="668" width="51" height="51" fill="#000000"></rect><rect x="413" y="668" width="51" height="51" fill="#000000"></rect><rect x="464" y="668" width="51" height="51" fill="#000000"></rect><rect x="515" y="668" width="51" height="51" fill="#000000"></rect><rect x="566" y="668" width="51" height="51" fill="#000000"></rect><rect x="617" y="668" width="51" height="51" fill="#000000"></rect><rect x="719" y="668" width="51" height="51" fill="#000000"></rect><rect x="770" y="668" width="51" height="51" fill="#000000"></rect><rect x="923" y="668" width="51" height="51" fill="#000000"></rect><rect x="974" y="668" width="51" height="51" fill="#000000"></rect><rect x="1025" y="668" width="51" height="51" fill="#000000"></rect><rect x="1076" y="668" width="51" height="51" fill="#000000"></rect><rect x="1127" y="668" width="51" height="51" fill="#000000"></rect><rect x="1280" y="668" width="51" height="51" fill="#000000"></rect><rect x="1382" y="668" width="51" height="51" fill="#000000"></rect><rect x="1535" y="668" width="51" height="51" fill="#000000"></rect><rect x="1586" y="668" width="51" height="51" fill="#000000"></rect><rect x="1637" y="668" width="51" height="51" fill="#000000"></rect><rect x="1739" y="668" width="51" height="51" fill="#000000"></rect><rect x="209" y="719" width="51" height="51" fill="#000000"></rect><rect x="260" y="719" width="51" height="51" fill="#000000"></rect><rect x="362" y="719" width="51" height="51" fill="#000000"></rect><rect x="413" y="719" width="51" height="51" fill="#000000"></rect><rect x="515" y="719" width="51" height="51" fill="#000000"></rect><rect x="617" y="719" width="51" height="51" fill="#000000"></rect><rect x="668" y="719" width="51" height="51" fill="#000000"></rect><rect x="719" y="719" width="51" height="51" fill="#000000"></rect><rect x="872" y="719" width="51" height="51" fill="#000000"></rect><rect x="974" y="719" width="51" height="51" fill="#000000"></rect><rect x="1025" y="719" width="51" height="51" fill="#000000"></rect><rect x="1076" y="719" width="51" height="51" fill="#000000"></rect><rect x="1178" y="719" width="51" height="51" fill="#000000"></rect><rect x="1229" y="719" width="51" height="51" fill="#000000"></rect><rect x="1331" y="719" width="51" height="51" fill="#000000"></rect><rect x="1484" y="719" width="51" height="51" fill="#000000"></rect><rect x="1688" y="719" width="51" height="51" fill="#000000"></rect><rect x="1739" y="719" width="51" height="51" fill="#000000"></rect><rect x="1790" y="719" width="51" height="51" fill="#000000"></rect><rect x="158" y="770" width="51" height="51" fill="#000000"></rect><rect x="209" y="770" width="51" height="51" fill="#000000"></rect><rect x="260" y="770" width="51" height="51" fill="#000000"></rect><rect x="311" y="770" width="51" height="51" fill="#000000"></rect><rect x="362" y="770" width="51" height="51" fill="#000000"></rect><rect x="413" y="770" width="51" height="51" fill="#000000"></rect><rect x="464" y="770" width="51" height="51" fill="#000000"></rect><rect x="617" y="770" width="51" height="51" fill="#000000"></rect><rect x="719" y="770" width="51" height="51" fill="#000000"></rect><rect x="923" y="770" width="51" height="51" fill="#000000"></rect><rect x="974" y="770" width="51" height="51" fill="#000000"></rect><rect x="1178" y="770" width="51" height="51" fill="#000000"></rect><rect x="1229" y="770" width="51" height="51" fill="#000000"></rect><rect x="1280" y="770" width="51" height="51" fill="#000000"></rect><rect x="1433" y="770" width="51" height="51" fill="#000000"></rect><rect x="1484" y="770" width="51" height="51" fill="#000000"></rect><rect x="1688" y="770" width="51" height="51" fill="#000000"></rect><rect x="1739" y="770" width="51" height="51" fill="#000000"></rect><rect x="311" y="821" width="51" height="51" fill="#000000"></rect><rect x="413" y="821" width="51" height="51" fill="#000000"></rect><rect x="566" y="821" width="51" height="51" fill="#000000"></rect><rect x="617" y="821" width="51" height="51" fill="#000000"></rect><rect x="668" y="821" width="51" height="51" fill="#000000"></rect><rect x="770" y="821" width="51" height="51" fill="#000000"></rect><rect x="821" y="821" width="51" height="51" fill="#000000"></rect><rect x="872" y="821" width="51" height="51" fill="#000000"></rect><rect x="923" y="821" width="51" height="51" fill="#000000"></rect><rect x="974" y="821" width="51" height="51" fill="#000000"></rect><rect x="1229" y="821" width="51" height="51" fill="#000000"></rect><rect x="1280" y="821" width="51" height="51" fill="#000000"></rect><rect x="1484" y="821" width="51" height="51" fill="#000000"></rect><rect x="1637" y="821" width="51" height="51" fill="#000000"></rect><rect x="1688" y="821" width="51" height="51" fill="#000000"></rect><rect x="362" y="872" width="51" height="51" fill="#000000"></rect><rect x="464" y="872" width="51" height="51" fill="#000000"></rect><rect x="668" y="872" width="51" height="51" fill="#000000"></rect><rect x="821" y="872" width="51" height="51" fill="#000000"></rect><rect x="872" y="872" width="51" height="51" fill="#000000"></rect><rect x="923" y="872" width="51" height="51" fill="#000000"></rect><rect x="1280" y="872" width="51" height="51" fill="#000000"></rect><rect x="1382" y="872" width="51" height="51" fill="#000000"></rect><rect x="1433" y="872" width="51" height="51" fill="#000000"></rect><rect x="1586" y="872" width="51" height="51" fill="#000000"></rect><rect x="1637" y="872" width="51" height="51" fill="#000000"></rect><rect x="1739" y="872" width="51" height="51" fill="#000000"></rect><rect x="209" y="923" width="51" height="51" fill="#000000"></rect><rect x="311" y="923" width="51" height="51" fill="#000000"></rect><rect x="362" y="923" width="51" height="51" fill="#000000"></rect><rect x="515" y="923" width="51" height="51" fill="#000000"></rect><rect x="566" y="923" width="51" height="51" fill="#000000"></rect><rect x="617" y="923" width="51" height="51" fill="#000000"></rect><rect x="770" y="923" width="51" height="51" fill="#000000"></rect><rect x="821" y="923" width="51" height="51" fill="#000000"></rect><rect x="974" y="923" width="51" height="51" fill="#000000"></rect><rect x="1076" y="923" width="51" height="51" fill="#000000"></rect><rect x="1178" y="923" width="51" height="51" fill="#000000"></rect><rect x="1331" y="923" width="51" height="51" fill="#000000"></rect><rect x="1484" y="923" width="51" height="51" fill="#000000"></rect><rect x="1688" y="923" width="51" height="51" fill="#000000"></rect><rect x="1739" y="923" width="51" height="51" fill="#000000"></rect><rect x="1790" y="923" width="51" height="51" fill="#000000"></rect><rect x="260" y="974" width="51" height="51" fill="#000000"></rect><rect x="362" y="974" width="51" height="51" fill="#000000"></rect><rect x="413" y="974" width="51" height="51" fill="#000000"></rect><rect x="464" y="974" width="51" height="51" fill="#000000"></rect><rect x="617" y="974" width="51" height="51" fill="#000000"></rect><rect x="668" y="974" width="51" height="51" fill="#000000"></rect><rect x="770" y="974" width="51" height="51" fill="#000000"></rect><rect x="872" y="974" width="51" height="51" fill="#000000"></rect><rect x="923" y="974" width="51" height="51" fill="#000000"></rect><rect x="1025" y="974" width="51" height="51" fill="#000000"></rect><rect x="1178" y="974" width="51" height="51" fill="#000000"></rect><rect x="1280" y="974" width="51" height="51" fill="#000000"></rect><rect x="1382" y="974" width="51" height="51" fill="#000000"></rect><rect x="1535" y="974" width="51" height="51" fill="#000000"></rect><rect x="1637" y="974" width="51" height="51" fill="#000000"></rect><rect x="1739" y="974" width="51" height="51" fill="#000000"></rect><rect x="158" y="1025" width="51" height="51" fill="#000000"></rect><rect x="311" y="1025" width="51" height="51" fill="#000000"></rect><rect x="362" y="1025" width="51" height="51" fill="#000000"></rect><rect x="515" y="1025" width="51" height="51" fill="#000000"></rect><rect x="566" y="1025" width="51" height="51" fill="#000000"></rect><rect x="1076" y="1025" width="51" height="51" fill="#000000"></rect><rect x="1178" y="1025" width="51" height="51" fill="#000000"></rect><rect x="1229" y="1025" width="51" height="51" fill="#000000"></rect><rect x="1433" y="1025" width="51" height="51" fill="#000000"></rect><rect x="1484" y="1025" width="51" height="51" fill="#000000"></rect><rect x="1535" y="1025" width="51" height="51" fill="#000000"></rect><rect x="1586" y="1025" width="51" height="51" fill="#000000"></rect><rect x="1688" y="1025" width="51" height="51" fill="#000000"></rect><rect x="464" y="1076" width="51" height="51" fill="#000000"></rect><rect x="566" y="1076" width="51" height="51" fill="#000000"></rect><rect x="719" y="1076" width="51" height="51" fill="#000000"></rect><rect x="770" y="1076" width="51" height="51" fill="#000000"></rect><rect x="974" y="1076" width="51" height="51" fill="#000000"></rect><rect x="1025" y="1076" width="51" height="51" fill="#000000"></rect><rect x="1127" y="1076" width="51" height="51" fill="#000000"></rect><rect x="1280" y="1076" width="51" height="51" fill="#000000"></rect><rect x="1433" y="1076" width="51" height="51" fill="#000000"></rect><rect x="1535" y="1076" width="51" height="51" fill="#000000"></rect><rect x="1586" y="1076" width="51" height="51" fill="#000000"></rect><rect x="1637" y="1076" width="51" height="51" fill="#000000"></rect><rect x="1790" y="1076" width="51" height="51" fill="#000000"></rect><rect x="158" y="1127" width="51" height="51" fill="#000000"></rect><rect x="413" y="1127" width="51" height="51" fill="#000000"></rect><rect x="617" y="1127" width="51" height="51" fill="#000000"></rect><rect x="668" y="1127" width="51" height="51" fill="#000000"></rect><rect x="719" y="1127" width="51" height="51" fill="#000000"></rect><rect x="872" y="1127" width="51" height="51" fill="#000000"></rect><rect x="923" y="1127" width="51" height="51" fill="#000000"></rect><rect x="974" y="1127" width="51" height="51" fill="#000000"></rect><rect x="1025" y="1127" width="51" height="51" fill="#000000"></rect><rect x="1076" y="1127" width="51" height="51" fill="#000000"></rect><rect x="1178" y="1127" width="51" height="51" fill="#000000"></rect><rect x="1229" y="1127" width="51" height="51" fill="#000000"></rect><rect x="1280" y="1127" width="51" height="51" fill="#000000"></rect><rect x="1331" y="1127" width="51" height="51" fill="#000000"></rect><rect x="1484" y="1127" width="51" height="51" fill="#000000"></rect><rect x="1790" y="1127" width="51" height="51" fill="#000000"></rect><rect x="158" y="1178" width="51" height="51" fill="#000000"></rect><rect x="311" y="1178" width="51" height="51" fill="#000000"></rect><rect x="413" y="1178" width="51" height="51" fill="#000000"></rect><rect x="464" y="1178" width="51" height="51" fill="#000000"></rect><rect x="515" y="1178" width="51" height="51" fill="#000000"></rect><rect x="566" y="1178" width="51" height="51" fill="#000000"></rect><rect x="617" y="1178" width="51" height="51" fill="#000000"></rect><rect x="719" y="1178" width="51" height="51" fill="#000000"></rect><rect x="923" y="1178" width="51" height="51" fill="#000000"></rect><rect x="974" y="1178" width="51" height="51" fill="#000000"></rect><rect x="1178" y="1178" width="51" height="51" fill="#000000"></rect><rect x="1229" y="1178" width="51" height="51" fill="#000000"></rect><rect x="1280" y="1178" width="51" height="51" fill="#000000"></rect><rect x="1433" y="1178" width="51" height="51" fill="#000000"></rect><rect x="1484" y="1178" width="51" height="51" fill="#000000"></rect><rect x="1535" y="1178" width="51" height="51" fill="#000000"></rect><rect x="1739" y="1178" width="51" height="51" fill="#000000"></rect><rect x="158" y="1229" width="51" height="51" fill="#000000"></rect><rect x="209" y="1229" width="51" height="51" fill="#000000"></rect><rect x="260" y="1229" width="51" height="51" fill="#000000"></rect><rect x="311" y="1229" width="51" height="51" fill="#000000"></rect><rect x="362" y="1229" width="51" height="51" fill="#000000"></rect><rect x="668" y="1229" width="51" height="51" fill="#000000"></rect><rect x="770" y="1229" width="51" height="51" fill="#000000"></rect><rect x="821" y="1229" width="51" height="51" fill="#000000"></rect><rect x="872" y="1229" width="51" height="51" fill="#000000"></rect><rect x="923" y="1229" width="51" height="51" fill="#000000"></rect><rect x="974" y="1229" width="51" height="51" fill="#000000"></rect><rect x="1076" y="1229" width="51" height="51" fill="#000000"></rect><rect x="1127" y="1229" width="51" height="51" fill="#000000"></rect><rect x="1178" y="1229" width="51" height="51" fill="#000000"></rect><rect x="1229" y="1229" width="51" height="51" fill="#000000"></rect><rect x="1331" y="1229" width="51" height="51" fill="#000000"></rect><rect x="1382" y="1229" width="51" height="51" fill="#000000"></rect><rect x="1433" y="1229" width="51" height="51" fill="#000000"></rect><rect x="1484" y="1229" width="51" height="51" fill="#000000"></rect><rect x="1688" y="1229" width="51" height="51" fill="#000000"></rect><rect x="1790" y="1229" width="51" height="51" fill="#000000"></rect><rect x="158" y="1280" width="51" height="51" fill="#000000"></rect><rect x="260" y="1280" width="51" height="51" fill="#000000"></rect><rect x="311" y="1280" width="51" height="51" fill="#000000"></rect><rect x="464" y="1280" width="51" height="51" fill="#000000"></rect><rect x="515" y="1280" width="51" height="51" fill="#000000"></rect><rect x="566" y="1280" width="51" height="51" fill="#000000"></rect><rect x="617" y="1280" width="51" height="51" fill="#000000"></rect><rect x="668" y="1280" width="51" height="51" fill="#000000"></rect><rect x="821" y="1280" width="51" height="51" fill="#000000"></rect><rect x="872" y="1280" width="51" height="51" fill="#000000"></rect><rect x="1025" y="1280" width="51" height="51" fill="#000000"></rect><rect x="1127" y="1280" width="51" height="51" fill="#000000"></rect><rect x="1280" y="1280" width="51" height="51" fill="#000000"></rect><rect x="1433" y="1280" width="51" height="51" fill="#000000"></rect><rect x="1586" y="1280" width="51" height="51" fill="#000000"></rect><rect x="1790" y="1280" width="51" height="51" fill="#000000"></rect><rect x="158" y="1331" width="51" height="51" fill="#000000"></rect><rect x="413" y="1331" width="51" height="51" fill="#000000"></rect><rect x="770" y="1331" width="51" height="51" fill="#000000"></rect><rect x="821" y="1331" width="51" height="51" fill="#000000"></rect><rect x="1025" y="1331" width="51" height="51" fill="#000000"></rect><rect x="1076" y="1331" width="51" height="51" fill="#000000"></rect><rect x="1127" y="1331" width="51" height="51" fill="#000000"></rect><rect x="1229" y="1331" width="51" height="51" fill="#000000"></rect><rect x="1331" y="1331" width="51" height="51" fill="#000000"></rect><rect x="1484" y="1331" width="51" height="51" fill="#000000"></rect><rect x="1637" y="1331" width="51" height="51" fill="#000000"></rect><rect x="1739" y="1331" width="51" height="51" fill="#000000"></rect><rect x="1790" y="1331" width="51" height="51" fill="#000000"></rect><rect x="158" y="1382" width="51" height="51" fill="#000000"></rect><rect x="362" y="1382" width="51" height="51" fill="#000000"></rect><rect x="413" y="1382" width="51" height="51" fill="#000000"></rect><rect x="464" y="1382" width="51" height="51" fill="#000000"></rect><rect x="566" y="1382" width="51" height="51" fill="#000000"></rect><rect x="668" y="1382" width="51" height="51" fill="#000000"></rect><rect x="770" y="1382" width="51" height="51" fill="#000000"></rect><rect x="872" y="1382" width="51" height="51" fill="#000000"></rect><rect x="923" y="1382" width="51" height="51" fill="#000000"></rect><rect x="1076" y="1382" width="51" height="51" fill="#000000"></rect><rect x="1178" y="1382" width="51" height="51" fill="#000000"></rect><rect x="1229" y="1382" width="51" height="51" fill="#000000"></rect><rect x="1280" y="1382" width="51" height="51" fill="#000000"></rect><rect x="1382" y="1382" width="51" height="51" fill="#000000"></rect><rect x="1433" y="1382" width="51" height="51" fill="#000000"></rect><rect x="1484" y="1382" width="51" height="51" fill="#000000"></rect><rect x="1535" y="1382" width="51" height="51" fill="#000000"></rect><rect x="1586" y="1382" width="51" height="51" fill="#000000"></rect><rect x="1637" y="1382" width="51" height="51" fill="#000000"></rect><rect x="566" y="1433" width="51" height="51" fill="#000000"></rect><rect x="668" y="1433" width="51" height="51" fill="#000000"></rect><rect x="1229" y="1433" width="51" height="51" fill="#000000"></rect><rect x="1280" y="1433" width="51" height="51" fill="#000000"></rect><rect x="1331" y="1433" width="51" height="51" fill="#000000"></rect><rect x="1382" y="1433" width="51" height="51" fill="#000000"></rect><rect x="1586" y="1433" width="51" height="51" fill="#000000"></rect><rect x="1688" y="1433" width="51" height="51" fill="#000000"></rect><rect x="566" y="1484" width="51" height="51" fill="#000000"></rect><rect x="719" y="1484" width="51" height="51" fill="#000000"></rect><rect x="770" y="1484" width="51" height="51" fill="#000000"></rect><rect x="923" y="1484" width="51" height="51" fill="#000000"></rect><rect x="974" y="1484" width="51" height="51" fill="#000000"></rect><rect x="1025" y="1484" width="51" height="51" fill="#000000"></rect><rect x="1280" y="1484" width="51" height="51" fill="#000000"></rect><rect x="1382" y="1484" width="51" height="51" fill="#000000"></rect><rect x="1484" y="1484" width="51" height="51" fill="#000000"></rect><rect x="1586" y="1484" width="51" height="51" fill="#000000"></rect><rect x="1739" y="1484" width="51" height="51" fill="#000000"></rect><rect x="617" y="1535" width="51" height="51" fill="#000000"></rect><rect x="668" y="1535" width="51" height="51" fill="#000000"></rect><rect x="719" y="1535" width="51" height="51" fill="#000000"></rect><rect x="872" y="1535" width="51" height="51" fill="#000000"></rect><rect x="974" y="1535" width="51" height="51" fill="#000000"></rect><rect x="1127" y="1535" width="51" height="51" fill="#000000"></rect><rect x="1178" y="1535" width="51" height="51" fill="#000000"></rect><rect x="1229" y="1535" width="51" height="51" fill="#000000"></rect><rect x="1331" y="1535" width="51" height="51" fill="#000000"></rect><rect x="1382" y="1535" width="51" height="51" fill="#000000"></rect><rect x="1586" y="1535" width="51" height="51" fill="#000000"></rect><rect x="1637" y="1535" width="51" height="51" fill="#000000"></rect><rect x="1790" y="1535" width="51" height="51" fill="#000000"></rect><rect x="566" y="1586" width="51" height="51" fill="#000000"></rect><rect x="719" y="1586" width="51" height="51" fill="#000000"></rect><rect x="923" y="1586" width="51" height="51" fill="#000000"></rect><rect x="974" y="1586" width="51" height="51" fill="#000000"></rect><rect x="1076" y="1586" width="51" height="51" fill="#000000"></rect><rect x="1229" y="1586" width="51" height="51" fill="#000000"></rect><rect x="1382" y="1586" width="51" height="51" fill="#000000"></rect><rect x="1433" y="1586" width="51" height="51" fill="#000000"></rect><rect x="1484" y="1586" width="51" height="51" fill="#000000"></rect><rect x="1535" y="1586" width="51" height="51" fill="#000000"></rect><rect x="1586" y="1586" width="51" height="51" fill="#000000"></rect><rect x="1637" y="1586" width="51" height="51" fill="#000000"></rect><rect x="1790" y="1586" width="51" height="51" fill="#000000"></rect><rect x="566" y="1637" width="51" height="51" fill="#000000"></rect><rect x="668" y="1637" width="51" height="51" fill="#000000"></rect><rect x="770" y="1637" width="51" height="51" fill="#000000"></rect><rect x="821" y="1637" width="51" height="51" fill="#000000"></rect><rect x="872" y="1637" width="51" height="51" fill="#000000"></rect><rect x="923" y="1637" width="51" height="51" fill="#000000"></rect><rect x="974" y="1637" width="51" height="51" fill="#000000"></rect><rect x="1076" y="1637" width="51" height="51" fill="#000000"></rect><rect x="1127" y="1637" width="51" height="51" fill="#000000"></rect><rect x="1229" y="1637" width="51" height="51" fill="#000000"></rect><rect x="1280" y="1637" width="51" height="51" fill="#000000"></rect><rect x="1382" y="1637" width="51" height="51" fill="#000000"></rect><rect x="1433" y="1637" width="51" height="51" fill="#000000"></rect><rect x="1484" y="1637" width="51" height="51" fill="#000000"></rect><rect x="1637" y="1637" width="51" height="51" fill="#000000"></rect><rect x="1688" y="1637" width="51" height="51" fill="#000000"></rect><rect x="1739" y="1637" width="51" height="51" fill="#000000"></rect><rect x="566" y="1688" width="51" height="51" fill="#000000"></rect><rect x="617" y="1688" width="51" height="51" fill="#000000"></rect><rect x="821" y="1688" width="51" height="51" fill="#000000"></rect><rect x="872" y="1688" width="51" height="51" fill="#000000"></rect><rect x="923" y="1688" width="51" height="51" fill="#000000"></rect><rect x="1025" y="1688" width="51" height="51" fill="#000000"></rect><rect x="1280" y="1688" width="51" height="51" fill="#000000"></rect><rect x="1331" y="1688" width="51" height="51" fill="#000000"></rect><rect x="1382" y="1688" width="51" height="51" fill="#000000"></rect><rect x="1433" y="1688" width="51" height="51" fill="#000000"></rect><rect x="1535" y="1688" width="51" height="51" fill="#000000"></rect><rect x="1586" y="1688" width="51" height="51" fill="#000000"></rect><rect x="566" y="1739" width="51" height="51" fill="#000000"></rect><rect x="770" y="1739" width="51" height="51" fill="#000000"></rect><rect x="821" y="1739" width="51" height="51" fill="#000000"></rect><rect x="974" y="1739" width="51" height="51" fill="#000000"></rect><rect x="1127" y="1739" width="51" height="51" fill="#000000"></rect><rect x="1178" y="1739" width="51" height="51" fill="#000000"></rect><rect x="1331" y="1739" width="51" height="51" fill="#000000"></rect><rect x="1535" y="1739" width="51" height="51" fill="#000000"></rect><rect x="1586" y="1739" width="51" height="51" fill="#000000"></rect><rect x="1637" y="1739" width="51" height="51" fill="#000000"></rect><rect x="1688" y="1739" width="51" height="51" fill="#000000"></rect><rect x="1739" y="1739" width="51" height="51" fill="#000000"></rect><rect x="1790" y="1739" width="51" height="51" fill="#000000"></rect><rect x="566" y="1790" width="51" height="51" fill="#000000"></rect><rect x="668" y="1790" width="51" height="51" fill="#000000"></rect><rect x="770" y="1790" width="51" height="51" fill="#000000"></rect><rect x="872" y="1790" width="51" height="51" fill="#000000"></rect><rect x="923" y="1790" width="51" height="51" fill="#000000"></rect><rect x="1076" y="1790" width="51" height="51" fill="#000000"></rect><rect x="1229" y="1790" width="51" height="51" fill="#000000"></rect><rect x="1280" y="1790" width="51" height="51" fill="#000000"></rect><rect x="1331" y="1790" width="51" height="51" fill="#000000"></rect><rect x="1484" y="1790" width="51" height="51" fill="#000000"></rect><rect x="1637" y="1790" width="51" height="51" fill="#000000"></rect><rect x="1739" y="1790" width="51" height="51" fill="#000000"></rect><svg version="1.1" id="Ebene_1" x="158" y="158" width="357" height="357" viewBox="0 0 699.988 699.986" enable-background="new 0 0 699.988 699.986" xml:space="preserve" shape-rendering="auto">
    <path fill="#000000" d="M600.99,0h-100h-99.997h-0.001h-99.997h-99.998h-99.998H1v99.998v99.998v99.998v99.999v99.997v99.998v99.998  h99.999h99.998h99.998h99.997h0.001h99.997h100h99.998v-99.998V499.99v-99.997v-99.999v-99.998V99.998V0H600.99z M600.99,199.996  v99.998v99.999v99.997v99.998h-100h-99.997h-0.001h-99.997h-99.998h-99.998V499.99v-99.997v-99.999v-99.998V99.998h99.998h99.998  h99.997h0.001h99.997h100V199.996z"></path>
    </svg>
    <svg version="1.0" id="Ebene_1" x="158" y="158" width="357" height="357" viewBox="0 0 699.988 699.988" enable-background="new 0 0 699.988 699.988" xml:space="preserve" shape-rendering="auto">
    <polygon fill="#000000" points="399.994,199.997 399.992,199.997 299.996,199.997 199.998,199.997 199.998,299.994 199.998,399.994   199.998,499.991 299.996,499.991 399.992,499.991 399.994,499.991 499.99,499.991 499.99,399.994 499.99,299.994 499.99,199.997 "></polygon>
    </svg>
    <svg version="1.1" id="Ebene_1" x="1484" y="158" width="357" height="357" viewBox="0 0 699.988 699.986" enable-background="new 0 0 699.988 699.986" xml:space="preserve" shape-rendering="auto">
    <path fill="#000000" d="M600.99,0h-100h-99.997h-0.001h-99.997h-99.998h-99.998H1v99.998v99.998v99.998v99.999v99.997v99.998v99.998  h99.999h99.998h99.998h99.997h0.001h99.997h100h99.998v-99.998V499.99v-99.997v-99.999v-99.998V99.998V0H600.99z M600.99,199.996  v99.998v99.999v99.997v99.998h-100h-99.997h-0.001h-99.997h-99.998h-99.998V499.99v-99.997v-99.999v-99.998V99.998h99.998h99.998  h99.997h0.001h99.997h100V199.996z"></path>
    </svg>
    <svg version="1.0" id="Ebene_1" x="1484" y="158" width="357" height="357" viewBox="0 0 699.988 699.988" enable-background="new 0 0 699.988 699.988" xml:space="preserve" shape-rendering="auto">
    <polygon fill="#000000" points="399.994,199.997 399.992,199.997 299.996,199.997 199.998,199.997 199.998,299.994 199.998,399.994   199.998,499.991 299.996,499.991 399.992,499.991 399.994,499.991 499.99,499.991 499.99,399.994 499.99,299.994 499.99,199.997 "></polygon>
    </svg>
    <svg version="1.1" id="Ebene_1" x="158" y="1484" width="357" height="357" viewBox="0 0 699.988 699.986" enable-background="new 0 0 699.988 699.986" xml:space="preserve" shape-rendering="auto">
    <path fill="#000000" d="M600.99,0h-100h-99.997h-0.001h-99.997h-99.998h-99.998H1v99.998v99.998v99.998v99.999v99.997v99.998v99.998  h99.999h99.998h99.998h99.997h0.001h99.997h100h99.998v-99.998V499.99v-99.997v-99.999v-99.998V99.998V0H600.99z M600.99,199.996  v99.998v99.999v99.997v99.998h-100h-99.997h-0.001h-99.997h-99.998h-99.998V499.99v-99.997v-99.999v-99.998V99.998h99.998h99.998  h99.997h0.001h99.997h100V199.996z"></path>
    </svg>
    <svg version="1.0" id="Ebene_1" x="158" y="1484" width="357" height="357" viewBox="0 0 699.988 699.988" enable-background="new 0 0 699.988 699.988" xml:space="preserve" shape-rendering="auto">
    <polygon fill="#000000" points="399.994,199.997 399.992,199.997 299.996,199.997 199.998,199.997 199.998,299.994 199.998,399.994   199.998,499.991 299.996,499.991 399.992,499.991 399.994,499.991 499.99,499.991 499.99,399.994 499.99,299.994 499.99,199.997 "></polygon>
    </svg>
    </svg>
    
    <path id="FrameBody" class="frame-color" d="M265.4,122.1H13.7c-7.6,0-13.7,6.2-13.7,13.7v251.7c0,7.6,6.2,13.7,13.7,13.7h251.6
        c7.6,0,13.7-6.2,13.8-13.7V135.8C279.1,128.2,272.9,122.1,265.4,122.1z M12.5,0h253.7c6.8,0,12.4,5.5,12.4,12.4v55.7
        c0,6.8-5.5,12.4-12.4,12.4h-37.9l-18.8,28.8c-1.2,1.2-3.2,1.2-4.4,0l-18.8-28.8H12.5c-6.8,0-12.4-5.5-12.4-12.4V12.4
        C0.1,5.5,5.6,0,12.5,0z M268.5,383.3c0,4.1-3.3,7.4-7.4,7.4H17.9c-4.1,0-7.4-3.3-7.4-7.4V140c0-4.1,3.3-7.4,7.4-7.4h243.2
        c4.1,0,7.4,3.3,7.4,7.4V383.3z"></path>
    
    <path id="CallToAction" class="text-color" d="M54.4,51.7c4.6-0.1,7-1.7,7-5c0-2.7-1.5-4.2-4.6-4.8c-1.4-0.2-3-0.4-4.7-0.7
        c-3.1-0.5-5.4-1.6-7-3.4c-1.6-1.8-2.5-4-2.5-6.6c0-3.1,1-5.6,3.1-7.5c2-1.9,4.8-2.8,8.5-2.9c4.4,0.1,8.3,1.3,11.5,3.7l-3,4.4
        c-2.7-1.8-5.6-2.7-8.8-2.7c-1.7,0-3,0.4-4.2,1.2c-1.2,0.9-1.8,2.1-1.8,3.9c0,1,0.4,2,1.2,2.8s2.1,1.4,3.8,1.8c1,0.2,2.3,0.4,4,0.6
        c3.3,0.5,5.8,1.7,7.4,3.6c1.6,1.9,2.4,4.1,2.4,6.6c-0.2,6.8-4.3,10.3-12.5,10.4c-5.3,0-9.8-1.6-13.6-4.9l3.5-4.1
        C47.1,50.5,50.5,51.7,54.4,51.7z M96.5,46.9c-0.8,3.3-2.3,5.8-4.5,7.6c-2.3,1.8-4.9,2.6-8,2.6c-2.8-0.1-5.1-0.7-7-2.1
        c-1.9-1.3-3.3-2.7-4.2-4.3c-0.3-0.5-0.5-1-0.7-1.5s-0.4-1.1-0.5-1.9c-0.2-1.4-0.4-4.2-0.4-8.3s0.1-6.9,0.4-8.3s0.7-2.5,1.2-3.4
        c0.9-1.6,2.2-3.1,4.2-4.4c1.9-1.3,4.2-2,7-2c3.4,0,6.2,1,8.4,3.1c2.2,2,3.5,4.5,4.1,7.5h-5.7c-0.4-1.4-1.2-2.7-2.4-3.7
        c-1.2-1-2.7-1.5-4.4-1.5c-1.3,0-2.4,0.3-3.3,0.8s-1.7,1.1-2.2,1.8c-0.7,0.8-1.2,1.7-1.4,3c-0.3,1.3-0.4,3.7-0.4,7.2s0.1,5.9,0.4,7.1
        c0.2,1.2,0.7,2.2,1.4,3c0.6,0.7,1.3,1.3,2.2,1.8c0.9,0.5,2,0.8,3.3,0.8c3,0,5.3-1.6,6.8-4.9C90.8,46.9,96.5,46.9,96.5,46.9z
         M118.5,48.9H105l-2.7,8h-5.7l12.9-35.6h4.5l13,35.5h-5.7L118.5,48.9z M117,44.1l-5.2-15.6h-0.1l-5.2,15.6H117z M130.8,21.2h5.1
        L152,46.5h0.1V21.2h5.4v35.6h-5.1l-16.1-25.3h-0.1v25.3h-5.4L130.8,21.2L130.8,21.2z M177,21.2h5.1l10.2,23.2l10-23.2h5.1v35.6H202
        V34.6h-0.1l-7.4,17.1H190l-7.4-17.1h-0.1v22.2H177V21.2z M214.9,21.2h22.7v5.1h-17.3v10.2h14.8v4.8h-14.8v10.4h17.3v5.1h-22.7V21.2z
        "></path>
    </svg>