%TF.GenerationSoftware,KiCad,Pcbnew,(6.0.8)*%
%TF.CreationDate,2023-01-02T13:08:22-05:00*%
%TF.ProjectId,WiFi-Devboard-Pro,57694669-2d44-4657-9662-6f6172642d50,rev?*%
%TF.SameCoordinates,Original*%
%TF.FileFunction,Legend,Top*%
%TF.FilePolarity,Positive*%
%FSLAX46Y46*%
G04 Gerber Fmt 4.6, Leading zero omitted, Abs format (unit mm)*
G04 Created by KiCad (PCBNEW (6.0.8)) date 2023-01-02 13:08:22*
%MOMM*%
%LPD*%
G01*
G04 APERTURE LIST*
%ADD10C,0.000000*%
%ADD11C,0.150000*%
%ADD12C,0.200000*%
%ADD13C,0.100000*%
G04 APERTURE END LIST*
D10*
G36*
X122559859Y-108083539D02*
G01*
X122559515Y-108068957D01*
X122559436Y-108055605D01*
X122559624Y-108043385D01*
X122560078Y-108032200D01*
X122560799Y-108021951D01*
X122561787Y-108012540D01*
X122563044Y-108003869D01*
X122564568Y-107995840D01*
X122566361Y-107988355D01*
X122568422Y-107981316D01*
X122570754Y-107974625D01*
X122573355Y-107968184D01*
X122576226Y-107961895D01*
X122579368Y-107955659D01*
X122582781Y-107949379D01*
X122586466Y-107942957D01*
X122594652Y-107929293D01*
X122609810Y-107905417D01*
X122624239Y-107884318D01*
X122638517Y-107865824D01*
X122653224Y-107849765D01*
X122668942Y-107835972D01*
X122686249Y-107824272D01*
X122705725Y-107814496D01*
X122727949Y-107806473D01*
X122753503Y-107800033D01*
X122782965Y-107795004D01*
X122816916Y-107791217D01*
X122855935Y-107788501D01*
X122900602Y-107786686D01*
X122951497Y-107785600D01*
X123074289Y-107784936D01*
X123407241Y-107784936D01*
X123400256Y-107638251D01*
X123393271Y-107493894D01*
X123251242Y-107486909D01*
X123109214Y-107479924D01*
X123092915Y-107372821D01*
X123087786Y-107329092D01*
X123083311Y-107288419D01*
X123081524Y-107270729D01*
X123080146Y-107255604D01*
X123079259Y-107243644D01*
X123078945Y-107235449D01*
X123079973Y-107230863D01*
X123083242Y-107226695D01*
X123089029Y-107222931D01*
X123097608Y-107219551D01*
X123109257Y-107216540D01*
X123124252Y-107213880D01*
X123165385Y-107209547D01*
X123223216Y-107206413D01*
X123299955Y-107204344D01*
X123397814Y-107203203D01*
X123519001Y-107202853D01*
X123956727Y-107202853D01*
X123986996Y-107533476D01*
X124066159Y-108413586D01*
X124115054Y-108960744D01*
X124257083Y-108967729D01*
X124281729Y-108969002D01*
X124303422Y-108970271D01*
X124322373Y-108971643D01*
X124338793Y-108973223D01*
X124346120Y-108974124D01*
X124352893Y-108975116D01*
X124359140Y-108976213D01*
X124364886Y-108977429D01*
X124370158Y-108978776D01*
X124374983Y-108980267D01*
X124379386Y-108981916D01*
X124383395Y-108983736D01*
X124387035Y-108985741D01*
X124390333Y-108987942D01*
X124393316Y-108990355D01*
X124396009Y-108992991D01*
X124398440Y-108995864D01*
X124400635Y-108998987D01*
X124402621Y-109002374D01*
X124404422Y-109006037D01*
X124406067Y-109009991D01*
X124407582Y-109014247D01*
X124408992Y-109018820D01*
X124410325Y-109023723D01*
X124412864Y-109034569D01*
X124415410Y-109046892D01*
X124418015Y-109062631D01*
X124420539Y-109079817D01*
X124422899Y-109097929D01*
X124425013Y-109116451D01*
X124426801Y-109134864D01*
X124428178Y-109152650D01*
X124429065Y-109169289D01*
X124429379Y-109184264D01*
X124429379Y-109251786D01*
X123544612Y-109251786D01*
X123544612Y-109170294D01*
X123544532Y-109162089D01*
X123544298Y-109154091D01*
X123543921Y-109146346D01*
X123543411Y-109138898D01*
X123542779Y-109131791D01*
X123542034Y-109125069D01*
X123541186Y-109118777D01*
X123540247Y-109112959D01*
X123539225Y-109107659D01*
X123538132Y-109102923D01*
X123536978Y-109098793D01*
X123535772Y-109095315D01*
X123535153Y-109093834D01*
X123534526Y-109092532D01*
X123533890Y-109091416D01*
X123533248Y-109090490D01*
X123532601Y-109089760D01*
X123531951Y-109089232D01*
X123531297Y-109088911D01*
X123530643Y-109088803D01*
X123529682Y-109088917D01*
X123528548Y-109089258D01*
X123525786Y-109090594D01*
X123522396Y-109092762D01*
X123518419Y-109095715D01*
X123513896Y-109099404D01*
X123508869Y-109103782D01*
X123497463Y-109114414D01*
X123484530Y-109127229D01*
X123470396Y-109141845D01*
X123455390Y-109157879D01*
X123439837Y-109174951D01*
X123363002Y-109263427D01*
X122843784Y-109263427D01*
X122739009Y-109153996D01*
X122728266Y-109142138D01*
X122717895Y-109130185D01*
X122707939Y-109118205D01*
X122698445Y-109106265D01*
X122689455Y-109094435D01*
X122681014Y-109082782D01*
X122673167Y-109071374D01*
X122665957Y-109060280D01*
X122659430Y-109049569D01*
X122653629Y-109039307D01*
X122648599Y-109029564D01*
X122644384Y-109020408D01*
X122641028Y-109011906D01*
X122638576Y-109004128D01*
X122637073Y-108997140D01*
X122636691Y-108993965D01*
X122636562Y-108991013D01*
X122622301Y-108816096D01*
X122592324Y-108471794D01*
X122577813Y-108318606D01*
X122572121Y-108256259D01*
X122567476Y-108202362D01*
X122563882Y-108156133D01*
X122562480Y-108135649D01*
X122561342Y-108116787D01*
X122561163Y-108113231D01*
X123148795Y-108113231D01*
X123151915Y-108166514D01*
X123160218Y-108266646D01*
X123186048Y-108542517D01*
X123213625Y-108810967D01*
X123224111Y-108901822D01*
X123230287Y-108942118D01*
X123232115Y-108945911D01*
X123234976Y-108949434D01*
X123238866Y-108952692D01*
X123243784Y-108955687D01*
X123249725Y-108958423D01*
X123256685Y-108960903D01*
X123264662Y-108963131D01*
X123273652Y-108965110D01*
X123283652Y-108966843D01*
X123294657Y-108968334D01*
X123306666Y-108969586D01*
X123319673Y-108970603D01*
X123348673Y-108971945D01*
X123381629Y-108972386D01*
X123402383Y-108972299D01*
X123421056Y-108972017D01*
X123437751Y-108971511D01*
X123445389Y-108971164D01*
X123452570Y-108970749D01*
X123459308Y-108970262D01*
X123465616Y-108969700D01*
X123471506Y-108969058D01*
X123476991Y-108968334D01*
X123482083Y-108967522D01*
X123486796Y-108966620D01*
X123491143Y-108965623D01*
X123495135Y-108964528D01*
X123498787Y-108963330D01*
X123502110Y-108962026D01*
X123505118Y-108960612D01*
X123507823Y-108959084D01*
X123510238Y-108957439D01*
X123512376Y-108955672D01*
X123514250Y-108953780D01*
X123515872Y-108951758D01*
X123517255Y-108949604D01*
X123518413Y-108947312D01*
X123519357Y-108944880D01*
X123520101Y-108942304D01*
X123520658Y-108939579D01*
X123521039Y-108936702D01*
X123521259Y-108933669D01*
X123521329Y-108930476D01*
X123518491Y-108886056D01*
X123510851Y-108793395D01*
X123486404Y-108518361D01*
X123461957Y-108246237D01*
X123454317Y-108156560D01*
X123452216Y-108129143D01*
X123451479Y-108115559D01*
X123450930Y-108112176D01*
X123449273Y-108109011D01*
X123446491Y-108106064D01*
X123442566Y-108103335D01*
X123437481Y-108100825D01*
X123431220Y-108098533D01*
X123423764Y-108096460D01*
X123415099Y-108094604D01*
X123405205Y-108092967D01*
X123394066Y-108091548D01*
X123381666Y-108090348D01*
X123367986Y-108089366D01*
X123336722Y-108088056D01*
X123300137Y-108087619D01*
X123282322Y-108087728D01*
X123265558Y-108088051D01*
X123249857Y-108088586D01*
X123235235Y-108089329D01*
X123221704Y-108090277D01*
X123209278Y-108091426D01*
X123197970Y-108092772D01*
X123187795Y-108094313D01*
X123178766Y-108096045D01*
X123174685Y-108096982D01*
X123170896Y-108097965D01*
X123167401Y-108098994D01*
X123164200Y-108100069D01*
X123161296Y-108101189D01*
X123158691Y-108102353D01*
X123156385Y-108103562D01*
X123154382Y-108104815D01*
X123152682Y-108106111D01*
X123151287Y-108107451D01*
X123150199Y-108108833D01*
X123149420Y-108110257D01*
X123148952Y-108111723D01*
X123148795Y-108113231D01*
X122561163Y-108113231D01*
X122560468Y-108099450D01*
X122559859Y-108083539D01*
G37*
G36*
X126240822Y-107789593D02*
G01*
X126513237Y-107796578D01*
X126520221Y-107882726D01*
X126521147Y-107891777D01*
X126522172Y-107900566D01*
X126523286Y-107909047D01*
X126524478Y-107917178D01*
X126525739Y-107924913D01*
X126527057Y-107932207D01*
X126528423Y-107939018D01*
X126529827Y-107945300D01*
X126531257Y-107951009D01*
X126532705Y-107956100D01*
X126534160Y-107960530D01*
X126535611Y-107964254D01*
X126536332Y-107965837D01*
X126537049Y-107967227D01*
X126537759Y-107968419D01*
X126538463Y-107969406D01*
X126539157Y-107970184D01*
X126539842Y-107970746D01*
X126540516Y-107971088D01*
X126541178Y-107971203D01*
X126542888Y-107970719D01*
X126545370Y-107969302D01*
X126548575Y-107966997D01*
X126552455Y-107963854D01*
X126562050Y-107955241D01*
X126573773Y-107943845D01*
X126587243Y-107930047D01*
X126602077Y-107914231D01*
X126617894Y-107896778D01*
X126634310Y-107878069D01*
X126715802Y-107784936D01*
X127425944Y-107784936D01*
X127439913Y-107917651D01*
X127442305Y-107944399D01*
X127444206Y-107970111D01*
X127445562Y-107994186D01*
X127446317Y-108016023D01*
X127446452Y-108025915D01*
X127446417Y-108035022D01*
X127446204Y-108043271D01*
X127445808Y-108050584D01*
X127445220Y-108056888D01*
X127444434Y-108062107D01*
X127443444Y-108066167D01*
X127442870Y-108067739D01*
X127442242Y-108068992D01*
X127439511Y-108070736D01*
X127434034Y-108072467D01*
X127415430Y-108075832D01*
X127387604Y-108078979D01*
X127351728Y-108081798D01*
X127308977Y-108084181D01*
X127260523Y-108086019D01*
X127207540Y-108087201D01*
X127151201Y-108087619D01*
X126874128Y-108087619D01*
X126874128Y-108185409D01*
X126874865Y-108212408D01*
X126876966Y-108250348D01*
X126884606Y-108352176D01*
X126895738Y-108477142D01*
X126909054Y-108611494D01*
X126933501Y-108846365D01*
X126941141Y-108921563D01*
X126943978Y-108953759D01*
X126944168Y-108954632D01*
X126944730Y-108955504D01*
X126946939Y-108957242D01*
X126950532Y-108958967D01*
X126955438Y-108960671D01*
X126961586Y-108962348D01*
X126968903Y-108963991D01*
X126986762Y-108967147D01*
X127008440Y-108970085D01*
X127033365Y-108972750D01*
X127060964Y-108975087D01*
X127090664Y-108977042D01*
X127235020Y-108984027D01*
X127242005Y-109116742D01*
X127248991Y-109251786D01*
X126664578Y-109251786D01*
X126503196Y-109251531D01*
X126434483Y-109251172D01*
X126373246Y-109250622D01*
X126319103Y-109249853D01*
X126271673Y-109248839D01*
X126230572Y-109247552D01*
X126195420Y-109245965D01*
X126165833Y-109244050D01*
X126141431Y-109241781D01*
X126131055Y-109240505D01*
X126121831Y-109239130D01*
X126113713Y-109237653D01*
X126106652Y-109236070D01*
X126100600Y-109234377D01*
X126095510Y-109232573D01*
X126091334Y-109230652D01*
X126088025Y-109228612D01*
X126085534Y-109226449D01*
X126083814Y-109224160D01*
X126082817Y-109221741D01*
X126082495Y-109219189D01*
X126082181Y-109210990D01*
X126081294Y-109198998D01*
X126078130Y-109165928D01*
X126068526Y-109079489D01*
X126052227Y-108972386D01*
X126338611Y-108972386D01*
X126338611Y-108883909D01*
X126336965Y-108835273D01*
X126332427Y-108761999D01*
X126317075Y-108568711D01*
X126297357Y-108358397D01*
X126278076Y-108185409D01*
X126266434Y-108087619D01*
X126143032Y-108087619D01*
X126130794Y-108087485D01*
X126118580Y-108087087D01*
X126106468Y-108086437D01*
X126094537Y-108085546D01*
X126082865Y-108084422D01*
X126071531Y-108083076D01*
X126060613Y-108081519D01*
X126050190Y-108079761D01*
X126040339Y-108077812D01*
X126031140Y-108075682D01*
X126022671Y-108073381D01*
X126015010Y-108070921D01*
X126008236Y-108068310D01*
X126002427Y-108065559D01*
X125997662Y-108062679D01*
X125995695Y-108061193D01*
X125994019Y-108059679D01*
X125991019Y-108056035D01*
X125988139Y-108051266D01*
X125985388Y-108045447D01*
X125982777Y-108038651D01*
X125980316Y-108030956D01*
X125978016Y-108022435D01*
X125975886Y-108013164D01*
X125973937Y-108003217D01*
X125972178Y-107992670D01*
X125970621Y-107981598D01*
X125968152Y-107958178D01*
X125966610Y-107933558D01*
X125966078Y-107908337D01*
X125966078Y-107782608D01*
X126240822Y-107789593D01*
G37*
G36*
X118489668Y-107978448D02*
G01*
X118492129Y-107959561D01*
X118494659Y-107954059D01*
X118497850Y-107948074D01*
X118501655Y-107941665D01*
X118506026Y-107934895D01*
X118510916Y-107927825D01*
X118516277Y-107920516D01*
X118522060Y-107913029D01*
X118528218Y-107905427D01*
X118534704Y-107897770D01*
X118541470Y-107890120D01*
X118548468Y-107882538D01*
X118555649Y-107875086D01*
X118562967Y-107867825D01*
X118570374Y-107860816D01*
X118577822Y-107854121D01*
X118585263Y-107847801D01*
X118659769Y-107784936D01*
X119297732Y-107784936D01*
X119476223Y-107785191D01*
X119552006Y-107785550D01*
X119619406Y-107786100D01*
X119678866Y-107786869D01*
X119730830Y-107787883D01*
X119775740Y-107789170D01*
X119814040Y-107790757D01*
X119846174Y-107792671D01*
X119872585Y-107794940D01*
X119883783Y-107796217D01*
X119893716Y-107797592D01*
X119902440Y-107799069D01*
X119910011Y-107800652D01*
X119916484Y-107802344D01*
X119921913Y-107804149D01*
X119926355Y-107806070D01*
X119929866Y-107808110D01*
X119932499Y-107810273D01*
X119934312Y-107812562D01*
X119935359Y-107814981D01*
X119935696Y-107817533D01*
X119950757Y-108020098D01*
X119984590Y-108397288D01*
X120020170Y-108765746D01*
X120033295Y-108889403D01*
X120040471Y-108942118D01*
X120042297Y-108945911D01*
X120045150Y-108949434D01*
X120049019Y-108952692D01*
X120053895Y-108955687D01*
X120059766Y-108958423D01*
X120066623Y-108960903D01*
X120074456Y-108963131D01*
X120083254Y-108965110D01*
X120093007Y-108966843D01*
X120103704Y-108968334D01*
X120115336Y-108969586D01*
X120127892Y-108970603D01*
X120155737Y-108971945D01*
X120187156Y-108972386D01*
X120324528Y-108972386D01*
X120340825Y-109060863D01*
X120343431Y-109078989D01*
X120345955Y-109098043D01*
X120348316Y-109117425D01*
X120350430Y-109136533D01*
X120352217Y-109154769D01*
X120353595Y-109171531D01*
X120354482Y-109186220D01*
X120354795Y-109198234D01*
X120354795Y-109251786D01*
X119472358Y-109251786D01*
X119456059Y-109167966D01*
X119439761Y-109081817D01*
X119365254Y-109172623D01*
X119288419Y-109263427D01*
X118773857Y-109263427D01*
X118680724Y-109172623D01*
X118670773Y-109162948D01*
X118661033Y-109153177D01*
X118651553Y-109143380D01*
X118642380Y-109133623D01*
X118633561Y-109123975D01*
X118625145Y-109114505D01*
X118617178Y-109105280D01*
X118609710Y-109096370D01*
X118602788Y-109087841D01*
X118596459Y-109079762D01*
X118590771Y-109072202D01*
X118585772Y-109065228D01*
X118581510Y-109058909D01*
X118578032Y-109053314D01*
X118575386Y-109048509D01*
X118573621Y-109044564D01*
X118567897Y-109018310D01*
X118561333Y-108974450D01*
X118546481Y-108844255D01*
X118530647Y-108674659D01*
X118515413Y-108486346D01*
X118502361Y-108299998D01*
X118493075Y-108136296D01*
X118492778Y-108127201D01*
X119074213Y-108127201D01*
X119077050Y-108173804D01*
X119084690Y-108269520D01*
X119109138Y-108553286D01*
X119133585Y-108829484D01*
X119141225Y-108917052D01*
X119144063Y-108953759D01*
X119144266Y-108954837D01*
X119144868Y-108955887D01*
X119147228Y-108957902D01*
X119151061Y-108959801D01*
X119156286Y-108961581D01*
X119162821Y-108963238D01*
X119170584Y-108964769D01*
X119189465Y-108967438D01*
X119212275Y-108969562D01*
X119238360Y-108971112D01*
X119267064Y-108972063D01*
X119297732Y-108972386D01*
X119453731Y-108972386D01*
X119439761Y-108848984D01*
X119422298Y-108669702D01*
X119397851Y-108406601D01*
X119369911Y-108087619D01*
X119223226Y-108087619D01*
X119200832Y-108087706D01*
X119180724Y-108087983D01*
X119162786Y-108088479D01*
X119154593Y-108088817D01*
X119146900Y-108089220D01*
X119139691Y-108089691D01*
X119132952Y-108090234D01*
X119126668Y-108090852D01*
X119120825Y-108091548D01*
X119115408Y-108092326D01*
X119110403Y-108093190D01*
X119105795Y-108094142D01*
X119101570Y-108095186D01*
X119097714Y-108096326D01*
X119094211Y-108097565D01*
X119091048Y-108098906D01*
X119088210Y-108100352D01*
X119085682Y-108101908D01*
X119083450Y-108103576D01*
X119081499Y-108105361D01*
X119079815Y-108107264D01*
X119078384Y-108109291D01*
X119077190Y-108111444D01*
X119076220Y-108113726D01*
X119075459Y-108116141D01*
X119074892Y-108118693D01*
X119074505Y-108121384D01*
X119074283Y-108124219D01*
X119074213Y-108127201D01*
X118492778Y-108127201D01*
X118489137Y-108015923D01*
X118489668Y-107978448D01*
G37*
G36*
X113178873Y-107184226D02*
G01*
X114405904Y-107191211D01*
X114489724Y-107256404D01*
X114498500Y-107263214D01*
X114507323Y-107270502D01*
X114516133Y-107278198D01*
X114524868Y-107286236D01*
X114533466Y-107294547D01*
X114541866Y-107303062D01*
X114550007Y-107311713D01*
X114557828Y-107320433D01*
X114565267Y-107329153D01*
X114572262Y-107337805D01*
X114578752Y-107346320D01*
X114584677Y-107354631D01*
X114589973Y-107362668D01*
X114594581Y-107370365D01*
X114598439Y-107377653D01*
X114601484Y-107384462D01*
X114607864Y-107412612D01*
X114616291Y-107468646D01*
X114637864Y-107651057D01*
X114663367Y-107905063D01*
X114689961Y-108204036D01*
X114755154Y-108960744D01*
X114906496Y-108972386D01*
X115057837Y-108984027D01*
X115064823Y-109116742D01*
X115071808Y-109251786D01*
X114641066Y-109251786D01*
X114499438Y-109251681D01*
X114441952Y-109251433D01*
X114392516Y-109250949D01*
X114370621Y-109250594D01*
X114350502Y-109250152D01*
X114332081Y-109249611D01*
X114315281Y-109248962D01*
X114300022Y-109248195D01*
X114286227Y-109247301D01*
X114273816Y-109246270D01*
X114262712Y-109245092D01*
X114252835Y-109243757D01*
X114244108Y-109242255D01*
X114236451Y-109240576D01*
X114233000Y-109239668D01*
X114229788Y-109238712D01*
X114226803Y-109237706D01*
X114224038Y-109236651D01*
X114221481Y-109235544D01*
X114219124Y-109234384D01*
X114216955Y-109233170D01*
X114214967Y-109231902D01*
X114213148Y-109230576D01*
X114211488Y-109229194D01*
X114209979Y-109227752D01*
X114208610Y-109226250D01*
X114207372Y-109224687D01*
X114206254Y-109223062D01*
X114205247Y-109221373D01*
X114204341Y-109219619D01*
X114202793Y-109215910D01*
X114201532Y-109211928D01*
X114200479Y-109207661D01*
X114199555Y-109203099D01*
X114198683Y-109198234D01*
X114189042Y-109120490D01*
X114172198Y-108946483D01*
X114126504Y-108413586D01*
X114080811Y-107866719D01*
X114063967Y-107677214D01*
X114054326Y-107580043D01*
X114040356Y-107482253D01*
X113891343Y-107482253D01*
X113876240Y-107482333D01*
X113861543Y-107482571D01*
X113847330Y-107482959D01*
X113833680Y-107483490D01*
X113820671Y-107484157D01*
X113808382Y-107484954D01*
X113796891Y-107485874D01*
X113786277Y-107486909D01*
X113776617Y-107488054D01*
X113767991Y-107489301D01*
X113760477Y-107490644D01*
X113754153Y-107492075D01*
X113749098Y-107493588D01*
X113747070Y-107494374D01*
X113745390Y-107495177D01*
X113744065Y-107495997D01*
X113743107Y-107496833D01*
X113742525Y-107497685D01*
X113742329Y-107498551D01*
X113812179Y-108318124D01*
X113839792Y-108634195D01*
X113861947Y-108903118D01*
X113876681Y-109096079D01*
X113882029Y-109184264D01*
X113882029Y-109251786D01*
X113590988Y-109251786D01*
X113544745Y-109251724D01*
X113503611Y-109251513D01*
X113467294Y-109251111D01*
X113450849Y-109250825D01*
X113435499Y-109250476D01*
X113421205Y-109250059D01*
X113407933Y-109249569D01*
X113395644Y-109249000D01*
X113384303Y-109248348D01*
X113373872Y-109247607D01*
X113364315Y-109246772D01*
X113355596Y-109245838D01*
X113347677Y-109244801D01*
X113340522Y-109243654D01*
X113334094Y-109242393D01*
X113328358Y-109241012D01*
X113323275Y-109239507D01*
X113318809Y-109237873D01*
X113316796Y-109237005D01*
X113314924Y-109236104D01*
X113313188Y-109235167D01*
X113311583Y-109234194D01*
X113310106Y-109233186D01*
X113308750Y-109232140D01*
X113307512Y-109231057D01*
X113306387Y-109229936D01*
X113305371Y-109228776D01*
X113304458Y-109227577D01*
X113303645Y-109226338D01*
X113302927Y-109225057D01*
X113302298Y-109223736D01*
X113301756Y-109222372D01*
X113301294Y-109220966D01*
X113300909Y-109219517D01*
X113300350Y-109216486D01*
X113300041Y-109213274D01*
X113299946Y-109209876D01*
X113277608Y-108916142D01*
X113227768Y-108342572D01*
X113176181Y-107777733D01*
X113148604Y-107510193D01*
X113146777Y-107506809D01*
X113143916Y-107503644D01*
X113140025Y-107500697D01*
X113135107Y-107497969D01*
X113129166Y-107495459D01*
X113122206Y-107493167D01*
X113114229Y-107491093D01*
X113105239Y-107489238D01*
X113095240Y-107487600D01*
X113084234Y-107486182D01*
X113072226Y-107484981D01*
X113059218Y-107483999D01*
X113030219Y-107482689D01*
X112997263Y-107482253D01*
X112951151Y-107482384D01*
X112932494Y-107482698D01*
X112916499Y-107483308D01*
X112909434Y-107483755D01*
X112902958Y-107484313D01*
X112897045Y-107484995D01*
X112891669Y-107485813D01*
X112886805Y-107486780D01*
X112882426Y-107487907D01*
X112878508Y-107489207D01*
X112875025Y-107490693D01*
X112871951Y-107492376D01*
X112869261Y-107494270D01*
X112866929Y-107496386D01*
X112864930Y-107498737D01*
X112863237Y-107501336D01*
X112861826Y-107504194D01*
X112860671Y-107507324D01*
X112859745Y-107510738D01*
X112859025Y-107514449D01*
X112858483Y-107518470D01*
X112858096Y-107522811D01*
X112857835Y-107527487D01*
X112857597Y-107537889D01*
X112857563Y-107549774D01*
X112863238Y-107638906D01*
X112878518Y-107831503D01*
X112927413Y-108413586D01*
X112955025Y-108724309D01*
X112977181Y-108981990D01*
X112991915Y-109159780D01*
X112997263Y-109230831D01*
X112995058Y-109232985D01*
X112988572Y-109235074D01*
X112963538Y-109239016D01*
X112923715Y-109242577D01*
X112870659Y-109245674D01*
X112805925Y-109248225D01*
X112731069Y-109250149D01*
X112557208Y-109251786D01*
X112119481Y-109251786D01*
X112105511Y-109133041D01*
X112103873Y-109120447D01*
X112102451Y-109108034D01*
X112101239Y-109095873D01*
X112100236Y-109084037D01*
X112099437Y-109072596D01*
X112098840Y-109061622D01*
X112098440Y-109051187D01*
X112098235Y-109041363D01*
X112098221Y-109032220D01*
X112098394Y-109023832D01*
X112098752Y-109016269D01*
X112099290Y-109009603D01*
X112100006Y-109003905D01*
X112100895Y-108999248D01*
X112101955Y-108995703D01*
X112102548Y-108994369D01*
X112103183Y-108993341D01*
X112105135Y-108991187D01*
X112108326Y-108989098D01*
X112112683Y-108987084D01*
X112118135Y-108985155D01*
X112124610Y-108983322D01*
X112132037Y-108981595D01*
X112140343Y-108979983D01*
X112149458Y-108978498D01*
X112169827Y-108975947D01*
X112192569Y-108974023D01*
X112217112Y-108972809D01*
X112242883Y-108972386D01*
X112368613Y-108972386D01*
X112368613Y-108883909D01*
X112355843Y-108679598D01*
X112325830Y-108297169D01*
X112291014Y-107888547D01*
X112263838Y-107605654D01*
X112249868Y-107484581D01*
X111961154Y-107470611D01*
X111947184Y-107342553D01*
X111944788Y-107316673D01*
X111942855Y-107291802D01*
X111941414Y-107268514D01*
X111940490Y-107247382D01*
X111940113Y-107228978D01*
X111940137Y-107220978D01*
X111940309Y-107213876D01*
X111940630Y-107207742D01*
X111941104Y-107202648D01*
X111941736Y-107198666D01*
X111942528Y-107195868D01*
X111970058Y-107192598D01*
X112044028Y-107189792D01*
X112310986Y-107185681D01*
X112702801Y-107183753D01*
X113178873Y-107184226D01*
G37*
G36*
X115067018Y-107978448D02*
G01*
X115069479Y-107959561D01*
X115072009Y-107954059D01*
X115075200Y-107948074D01*
X115079005Y-107941665D01*
X115083376Y-107934895D01*
X115088266Y-107927825D01*
X115093626Y-107920516D01*
X115099410Y-107913029D01*
X115105568Y-107905427D01*
X115112054Y-107897770D01*
X115118820Y-107890120D01*
X115125817Y-107882538D01*
X115132999Y-107875086D01*
X115140317Y-107867825D01*
X115147724Y-107860816D01*
X115155172Y-107854121D01*
X115162613Y-107847801D01*
X115237119Y-107784936D01*
X115875083Y-107784936D01*
X116053573Y-107785191D01*
X116129356Y-107785550D01*
X116196756Y-107786100D01*
X116256216Y-107786869D01*
X116308180Y-107787883D01*
X116353090Y-107789170D01*
X116391390Y-107790757D01*
X116423524Y-107792671D01*
X116449935Y-107794940D01*
X116461133Y-107796217D01*
X116471066Y-107797592D01*
X116479791Y-107799069D01*
X116487361Y-107800652D01*
X116493834Y-107802344D01*
X116499263Y-107804149D01*
X116503706Y-107806070D01*
X116507216Y-107808110D01*
X116509850Y-107810273D01*
X116511662Y-107812562D01*
X116512709Y-107814981D01*
X116513046Y-107817533D01*
X116528107Y-108020098D01*
X116561941Y-108397288D01*
X116597521Y-108765746D01*
X116610645Y-108889403D01*
X116617821Y-108942118D01*
X116619647Y-108945911D01*
X116622500Y-108949434D01*
X116626370Y-108952692D01*
X116631245Y-108955687D01*
X116637117Y-108958423D01*
X116643974Y-108960903D01*
X116651806Y-108963131D01*
X116660604Y-108965110D01*
X116670357Y-108966843D01*
X116681054Y-108968334D01*
X116692686Y-108969586D01*
X116705242Y-108970603D01*
X116733087Y-108971945D01*
X116764506Y-108972386D01*
X116901877Y-108972386D01*
X116918176Y-109060863D01*
X116920782Y-109078989D01*
X116923305Y-109098043D01*
X116925665Y-109117425D01*
X116927780Y-109136533D01*
X116929567Y-109154769D01*
X116930945Y-109171531D01*
X116931832Y-109186220D01*
X116932146Y-109198234D01*
X116932146Y-109251786D01*
X116049707Y-109251786D01*
X116033409Y-109167966D01*
X116017111Y-109081817D01*
X115942604Y-109172623D01*
X115865769Y-109263427D01*
X115351208Y-109263427D01*
X115258074Y-109172623D01*
X115248123Y-109162948D01*
X115238383Y-109153177D01*
X115228903Y-109143380D01*
X115219729Y-109133623D01*
X115210911Y-109123975D01*
X115202494Y-109114505D01*
X115194528Y-109105280D01*
X115187060Y-109096370D01*
X115180137Y-109087841D01*
X115173808Y-109079762D01*
X115168121Y-109072202D01*
X115163122Y-109065228D01*
X115158860Y-109058909D01*
X115155382Y-109053314D01*
X115152736Y-109048509D01*
X115150971Y-109044564D01*
X115145246Y-109018310D01*
X115138683Y-108974450D01*
X115123831Y-108844255D01*
X115107997Y-108674659D01*
X115092762Y-108486346D01*
X115079711Y-108299998D01*
X115070425Y-108136296D01*
X115070127Y-108127201D01*
X115651563Y-108127201D01*
X115654400Y-108173804D01*
X115662040Y-108269520D01*
X115686487Y-108553286D01*
X115710935Y-108829484D01*
X115718575Y-108917052D01*
X115721412Y-108953759D01*
X115721615Y-108954837D01*
X115722217Y-108955887D01*
X115724577Y-108957902D01*
X115728411Y-108959801D01*
X115733636Y-108961581D01*
X115740171Y-108963238D01*
X115747934Y-108964769D01*
X115766815Y-108967438D01*
X115789625Y-108969562D01*
X115815710Y-108971112D01*
X115844414Y-108972063D01*
X115875083Y-108972386D01*
X116031081Y-108972386D01*
X116017111Y-108848984D01*
X115999648Y-108669702D01*
X115975201Y-108406601D01*
X115947261Y-108087619D01*
X115800576Y-108087619D01*
X115778183Y-108087706D01*
X115758075Y-108087983D01*
X115740136Y-108088479D01*
X115731944Y-108088817D01*
X115724250Y-108089220D01*
X115717041Y-108089691D01*
X115710302Y-108090234D01*
X115704018Y-108090852D01*
X115698175Y-108091548D01*
X115692758Y-108092326D01*
X115687753Y-108093190D01*
X115683145Y-108094142D01*
X115678920Y-108095186D01*
X115675064Y-108096326D01*
X115671561Y-108097565D01*
X115668398Y-108098906D01*
X115665560Y-108100352D01*
X115663032Y-108101908D01*
X115660800Y-108103576D01*
X115658849Y-108105361D01*
X115657165Y-108107264D01*
X115655734Y-108109291D01*
X115654540Y-108111444D01*
X115653570Y-108113726D01*
X115652809Y-108116141D01*
X115652242Y-108118693D01*
X115651855Y-108121384D01*
X115651633Y-108124219D01*
X115651563Y-108127201D01*
X115070127Y-108127201D01*
X115066487Y-108015923D01*
X115067018Y-107978448D01*
G37*
G36*
X117206889Y-107789593D02*
G01*
X117479304Y-107796578D01*
X117486289Y-107882726D01*
X117487215Y-107891777D01*
X117488240Y-107900566D01*
X117489353Y-107909047D01*
X117490545Y-107917178D01*
X117491806Y-107924913D01*
X117493124Y-107932207D01*
X117494490Y-107939018D01*
X117495893Y-107945300D01*
X117497324Y-107951009D01*
X117498772Y-107956100D01*
X117500227Y-107960530D01*
X117501678Y-107964254D01*
X117502399Y-107965837D01*
X117503115Y-107967227D01*
X117503826Y-107968419D01*
X117504529Y-107969406D01*
X117505224Y-107970184D01*
X117505909Y-107970746D01*
X117506582Y-107971088D01*
X117507244Y-107971203D01*
X117508955Y-107970719D01*
X117511437Y-107969302D01*
X117514642Y-107966997D01*
X117518522Y-107963854D01*
X117528117Y-107955241D01*
X117539841Y-107943845D01*
X117553311Y-107930047D01*
X117568145Y-107914231D01*
X117583961Y-107896778D01*
X117600378Y-107878069D01*
X117681869Y-107784936D01*
X118392011Y-107784936D01*
X118405981Y-107917651D01*
X118408373Y-107944399D01*
X118410274Y-107970111D01*
X118411629Y-107994186D01*
X118412384Y-108016023D01*
X118412519Y-108025915D01*
X118412484Y-108035022D01*
X118412271Y-108043271D01*
X118411875Y-108050584D01*
X118411287Y-108056888D01*
X118410501Y-108062107D01*
X118409511Y-108066167D01*
X118408937Y-108067739D01*
X118408309Y-108068992D01*
X118405578Y-108070736D01*
X118400101Y-108072467D01*
X118381497Y-108075832D01*
X118353671Y-108078979D01*
X118317795Y-108081798D01*
X118275044Y-108084181D01*
X118226590Y-108086019D01*
X118173607Y-108087201D01*
X118117267Y-108087619D01*
X117840196Y-108087619D01*
X117840196Y-108185409D01*
X117840933Y-108212408D01*
X117843034Y-108250348D01*
X117850674Y-108352176D01*
X117861806Y-108477142D01*
X117875121Y-108611494D01*
X117899569Y-108846365D01*
X117907208Y-108921563D01*
X117910046Y-108953759D01*
X117910236Y-108954632D01*
X117910798Y-108955504D01*
X117913007Y-108957242D01*
X117916600Y-108958967D01*
X117921506Y-108960671D01*
X117927654Y-108962348D01*
X117934971Y-108963991D01*
X117952829Y-108967147D01*
X117974508Y-108970085D01*
X117999433Y-108972750D01*
X118027031Y-108975087D01*
X118056731Y-108977042D01*
X118201088Y-108984027D01*
X118208073Y-109116742D01*
X118215058Y-109251786D01*
X117630646Y-109251786D01*
X117469263Y-109251531D01*
X117400550Y-109251172D01*
X117339313Y-109250622D01*
X117285170Y-109249853D01*
X117237739Y-109248839D01*
X117196639Y-109247552D01*
X117161486Y-109245965D01*
X117131900Y-109244050D01*
X117107498Y-109241781D01*
X117097122Y-109240505D01*
X117087898Y-109239130D01*
X117079780Y-109237653D01*
X117072719Y-109236070D01*
X117066667Y-109234377D01*
X117061577Y-109232573D01*
X117057401Y-109230652D01*
X117054092Y-109228612D01*
X117051601Y-109226449D01*
X117049881Y-109224160D01*
X117048884Y-109221741D01*
X117048562Y-109219189D01*
X117048248Y-109210990D01*
X117047362Y-109198998D01*
X117044196Y-109165928D01*
X117034592Y-109079489D01*
X117018294Y-108972386D01*
X117304679Y-108972386D01*
X117304679Y-108883909D01*
X117303033Y-108835273D01*
X117298495Y-108761999D01*
X117283142Y-108568711D01*
X117263424Y-108358397D01*
X117244143Y-108185409D01*
X117232501Y-108087619D01*
X117109099Y-108087619D01*
X117096861Y-108087485D01*
X117084647Y-108087087D01*
X117072535Y-108086437D01*
X117060604Y-108085546D01*
X117048933Y-108084422D01*
X117037598Y-108083076D01*
X117026680Y-108081519D01*
X117016257Y-108079761D01*
X117006406Y-108077812D01*
X116997207Y-108075682D01*
X116988738Y-108073381D01*
X116981077Y-108070921D01*
X116974303Y-108068310D01*
X116968494Y-108065559D01*
X116963729Y-108062679D01*
X116961762Y-108061193D01*
X116960086Y-108059679D01*
X116957086Y-108056035D01*
X116954206Y-108051266D01*
X116951455Y-108045447D01*
X116948844Y-108038651D01*
X116946383Y-108030956D01*
X116944083Y-108022435D01*
X116941953Y-108013164D01*
X116940004Y-108003217D01*
X116938246Y-107992670D01*
X116936689Y-107981598D01*
X116934219Y-107958178D01*
X116932678Y-107933558D01*
X116932146Y-107908337D01*
X116932146Y-107782608D01*
X117206889Y-107789593D01*
G37*
G36*
X124426387Y-108015923D02*
G01*
X124426918Y-107978448D01*
X124429379Y-107959561D01*
X124431909Y-107954059D01*
X124435100Y-107948074D01*
X124438905Y-107941665D01*
X124443276Y-107934895D01*
X124448166Y-107927825D01*
X124453526Y-107920516D01*
X124459310Y-107913029D01*
X124465468Y-107905427D01*
X124471954Y-107897770D01*
X124478719Y-107890120D01*
X124485717Y-107882538D01*
X124492899Y-107875086D01*
X124500217Y-107867825D01*
X124507623Y-107860816D01*
X124515071Y-107854121D01*
X124522512Y-107847801D01*
X124597019Y-107784936D01*
X125656410Y-107784936D01*
X125754201Y-107854786D01*
X125764232Y-107862388D01*
X125774201Y-107870307D01*
X125784047Y-107878478D01*
X125793710Y-107886837D01*
X125803126Y-107895319D01*
X125812236Y-107903858D01*
X125820978Y-107912391D01*
X125829289Y-107920852D01*
X125837110Y-107929177D01*
X125844378Y-107937301D01*
X125851032Y-107945158D01*
X125857011Y-107952685D01*
X125862253Y-107959816D01*
X125866697Y-107966487D01*
X125870282Y-107972632D01*
X125872946Y-107978187D01*
X125876416Y-107991112D01*
X125880627Y-108013367D01*
X125890736Y-108081071D01*
X125902209Y-108171694D01*
X125913983Y-108275632D01*
X125924992Y-108383281D01*
X125934174Y-108485037D01*
X125940463Y-108571294D01*
X125942796Y-108632449D01*
X125942226Y-108638239D01*
X125940313Y-108643409D01*
X125936749Y-108647991D01*
X125931227Y-108652022D01*
X125923440Y-108655534D01*
X125913082Y-108658561D01*
X125899845Y-108661138D01*
X125883423Y-108663300D01*
X125839794Y-108666510D01*
X125779739Y-108668466D01*
X125700803Y-108669439D01*
X125600529Y-108669702D01*
X125260594Y-108669702D01*
X125160476Y-108567256D01*
X125141775Y-108547581D01*
X125124919Y-108530457D01*
X125109843Y-108515871D01*
X125096483Y-108503809D01*
X125090426Y-108498720D01*
X125084774Y-108494257D01*
X125079518Y-108490418D01*
X125074650Y-108487201D01*
X125070163Y-108484605D01*
X125066048Y-108482629D01*
X125062297Y-108481269D01*
X125058902Y-108480525D01*
X125055855Y-108480396D01*
X125053148Y-108480878D01*
X125050772Y-108481971D01*
X125048720Y-108483672D01*
X125046984Y-108485981D01*
X125045555Y-108488895D01*
X125044425Y-108492413D01*
X125043586Y-108496533D01*
X125043030Y-108501253D01*
X125042750Y-108506571D01*
X125042736Y-108512487D01*
X125042981Y-108518997D01*
X125044215Y-108533797D01*
X125046387Y-108550957D01*
X125051007Y-108588429D01*
X125057155Y-108646419D01*
X125063740Y-108716633D01*
X125069670Y-108790776D01*
X125085969Y-108970057D01*
X125379338Y-108977042D01*
X125675037Y-108984027D01*
X125675037Y-109263427D01*
X124711108Y-109263427D01*
X124617975Y-109172623D01*
X124608023Y-109162948D01*
X124598283Y-109153177D01*
X124588803Y-109143380D01*
X124579629Y-109133623D01*
X124570810Y-109123975D01*
X124562394Y-109114505D01*
X124554428Y-109105280D01*
X124546959Y-109096370D01*
X124540037Y-109087841D01*
X124533708Y-109079762D01*
X124528020Y-109072202D01*
X124523021Y-109065228D01*
X124518759Y-109058909D01*
X124515282Y-109053314D01*
X124512636Y-109048509D01*
X124510871Y-109044564D01*
X124505147Y-109018310D01*
X124498583Y-108974450D01*
X124483731Y-108844255D01*
X124467896Y-108674659D01*
X124452662Y-108486346D01*
X124439611Y-108299998D01*
X124432450Y-108173768D01*
X125011462Y-108173768D01*
X125011634Y-108205866D01*
X125012290Y-108234213D01*
X125013642Y-108259040D01*
X125015901Y-108280580D01*
X125017436Y-108290189D01*
X125019278Y-108299063D01*
X125021453Y-108307231D01*
X125023986Y-108314723D01*
X125026905Y-108321566D01*
X125030236Y-108327790D01*
X125034004Y-108333424D01*
X125038238Y-108338497D01*
X125042963Y-108343038D01*
X125048205Y-108347076D01*
X125053991Y-108350640D01*
X125060348Y-108353759D01*
X125067302Y-108356461D01*
X125074879Y-108358777D01*
X125083105Y-108360734D01*
X125092008Y-108362362D01*
X125111948Y-108364748D01*
X125134909Y-108366164D01*
X125161104Y-108366844D01*
X125190744Y-108367019D01*
X125344413Y-108367019D01*
X125328116Y-108294841D01*
X125325510Y-108279002D01*
X125322986Y-108261553D01*
X125320626Y-108243067D01*
X125318511Y-108224118D01*
X125316724Y-108205277D01*
X125315346Y-108187119D01*
X125314459Y-108170216D01*
X125314145Y-108155141D01*
X125313850Y-108132854D01*
X125313148Y-108123836D01*
X125311780Y-108116105D01*
X125310778Y-108112691D01*
X125309527Y-108109561D01*
X125307998Y-108106702D01*
X125306164Y-108104104D01*
X125303998Y-108101753D01*
X125301472Y-108099637D01*
X125298557Y-108097743D01*
X125295227Y-108096059D01*
X125291454Y-108094574D01*
X125287210Y-108093274D01*
X125277196Y-108091180D01*
X125264966Y-108089680D01*
X125250298Y-108088674D01*
X125232969Y-108088064D01*
X125212758Y-108087751D01*
X125162803Y-108087619D01*
X125011462Y-108087619D01*
X125011462Y-108173768D01*
X124432450Y-108173768D01*
X124430325Y-108136296D01*
X124426387Y-108015923D01*
G37*
G36*
X121225592Y-107871084D02*
G01*
X121233560Y-107941443D01*
X121245674Y-108067246D01*
X121259972Y-108230593D01*
X121274487Y-108413586D01*
X121290154Y-108613409D01*
X121296542Y-108692544D01*
X121302464Y-108759234D01*
X121308290Y-108814533D01*
X121311283Y-108838239D01*
X121314392Y-108859494D01*
X121317663Y-108878427D01*
X121321142Y-108895171D01*
X121324877Y-108909857D01*
X121328912Y-108922618D01*
X121333296Y-108933584D01*
X121338074Y-108942889D01*
X121343293Y-108950663D01*
X121348999Y-108957038D01*
X121355239Y-108962146D01*
X121362059Y-108966119D01*
X121369505Y-108969088D01*
X121377625Y-108971185D01*
X121386465Y-108972542D01*
X121396071Y-108973291D01*
X121406489Y-108973564D01*
X121417766Y-108973491D01*
X121472395Y-108972386D01*
X121612096Y-108972386D01*
X121612096Y-108860626D01*
X121607439Y-108781244D01*
X121597543Y-108646419D01*
X121583282Y-108474923D01*
X121565529Y-108285527D01*
X121557362Y-108191567D01*
X121550395Y-108103117D01*
X121544738Y-108022199D01*
X121540499Y-107950830D01*
X121537789Y-107891030D01*
X121536716Y-107844818D01*
X121536827Y-107827438D01*
X121537389Y-107814213D01*
X121538414Y-107805394D01*
X121539105Y-107802716D01*
X121539917Y-107801234D01*
X121543085Y-107799543D01*
X121548994Y-107797965D01*
X121568439Y-107795159D01*
X121597052Y-107792844D01*
X121633633Y-107791048D01*
X121676980Y-107789797D01*
X121725893Y-107789120D01*
X121779172Y-107789042D01*
X121835616Y-107789593D01*
X122112687Y-107796578D01*
X122163911Y-108332094D01*
X122183702Y-108543609D01*
X122200000Y-108725000D01*
X122211060Y-108856624D01*
X122214079Y-108897634D01*
X122215134Y-108918834D01*
X122215705Y-108927493D01*
X122216648Y-108935173D01*
X122218117Y-108941933D01*
X122220264Y-108947829D01*
X122221640Y-108950472D01*
X122223243Y-108952921D01*
X122225093Y-108955183D01*
X122227208Y-108957265D01*
X122229608Y-108959176D01*
X122232312Y-108960921D01*
X122235339Y-108962509D01*
X122238709Y-108963946D01*
X122246551Y-108966397D01*
X122255994Y-108968334D01*
X122267189Y-108969814D01*
X122280291Y-108970894D01*
X122295453Y-108971634D01*
X122312828Y-108972090D01*
X122354833Y-108972386D01*
X122369118Y-108972467D01*
X122383106Y-108972709D01*
X122396718Y-108973107D01*
X122409877Y-108973659D01*
X122422504Y-108974361D01*
X122434520Y-108975210D01*
X122445848Y-108976202D01*
X122456408Y-108977334D01*
X122466122Y-108978602D01*
X122474912Y-108980003D01*
X122482699Y-108981534D01*
X122489405Y-108983191D01*
X122494951Y-108984971D01*
X122497265Y-108985905D01*
X122499259Y-108986870D01*
X122500925Y-108987863D01*
X122502251Y-108988885D01*
X122503229Y-108989935D01*
X122503848Y-108991013D01*
X122505210Y-108993374D01*
X122506672Y-108996915D01*
X122509850Y-109007238D01*
X122513302Y-109021381D01*
X122516944Y-109038743D01*
X122520696Y-109058725D01*
X122524475Y-109080726D01*
X122528199Y-109104146D01*
X122531787Y-109128384D01*
X122548086Y-109251786D01*
X122105703Y-109251786D01*
X121949791Y-109251554D01*
X121886785Y-109251003D01*
X121832815Y-109249930D01*
X121808999Y-109249144D01*
X121787180Y-109248162D01*
X121767270Y-109246963D01*
X121749181Y-109245524D01*
X121732827Y-109243824D01*
X121718120Y-109241842D01*
X121704972Y-109239555D01*
X121693297Y-109236943D01*
X121683006Y-109233982D01*
X121674012Y-109230652D01*
X121666229Y-109226930D01*
X121659568Y-109222795D01*
X121656631Y-109220566D01*
X121653942Y-109218226D01*
X121651490Y-109215771D01*
X121649263Y-109213199D01*
X121645446Y-109207695D01*
X121642401Y-109201690D01*
X121640041Y-109195164D01*
X121638280Y-109188094D01*
X121637030Y-109180458D01*
X121636202Y-109172236D01*
X121635711Y-109163405D01*
X121635469Y-109153943D01*
X121635379Y-109133041D01*
X121635285Y-109127352D01*
X121635004Y-109122072D01*
X121634541Y-109117200D01*
X121633901Y-109112736D01*
X121633090Y-109108680D01*
X121632110Y-109105031D01*
X121630968Y-109101789D01*
X121629668Y-109098953D01*
X121628214Y-109096522D01*
X121626611Y-109094498D01*
X121624864Y-109092878D01*
X121622978Y-109091663D01*
X121620957Y-109090852D01*
X121618806Y-109090445D01*
X121616530Y-109090441D01*
X121614133Y-109090840D01*
X121611620Y-109091641D01*
X121608996Y-109092845D01*
X121606265Y-109094450D01*
X121603433Y-109096456D01*
X121600503Y-109098863D01*
X121597481Y-109101670D01*
X121594370Y-109104878D01*
X121591177Y-109108484D01*
X121587905Y-109112490D01*
X121584560Y-109116894D01*
X121581145Y-109121697D01*
X121577666Y-109126897D01*
X121570534Y-109138489D01*
X121563201Y-109151667D01*
X121553750Y-109167250D01*
X121542823Y-109181704D01*
X121530361Y-109195046D01*
X121516307Y-109207293D01*
X121500601Y-109218462D01*
X121483187Y-109228571D01*
X121464006Y-109237636D01*
X121443001Y-109245674D01*
X121420112Y-109252703D01*
X121395283Y-109258739D01*
X121368456Y-109263800D01*
X121339572Y-109267902D01*
X121308573Y-109271063D01*
X121275401Y-109273300D01*
X121239999Y-109274630D01*
X121202309Y-109275069D01*
X121164713Y-109274623D01*
X121129539Y-109273245D01*
X121096643Y-109270879D01*
X121065883Y-109267466D01*
X121037114Y-109262947D01*
X121023432Y-109260255D01*
X121010194Y-109257266D01*
X120997382Y-109253970D01*
X120984979Y-109250363D01*
X120972966Y-109246436D01*
X120961326Y-109242181D01*
X120950041Y-109237593D01*
X120939092Y-109232663D01*
X120928463Y-109227384D01*
X120918134Y-109221749D01*
X120908088Y-109215751D01*
X120898308Y-109209383D01*
X120888775Y-109202637D01*
X120879471Y-109195506D01*
X120870378Y-109187982D01*
X120861480Y-109180059D01*
X120852757Y-109171730D01*
X120844191Y-109162986D01*
X120835766Y-109153822D01*
X120827462Y-109144228D01*
X120811149Y-109123728D01*
X120793009Y-109098052D01*
X120785247Y-109084836D01*
X120778225Y-109070685D01*
X120771844Y-109055088D01*
X120766006Y-109037534D01*
X120760611Y-109017510D01*
X120755560Y-108994505D01*
X120746097Y-108937506D01*
X120736824Y-108862445D01*
X120726952Y-108765228D01*
X120715688Y-108641763D01*
X120698498Y-108443477D01*
X120691520Y-108364963D01*
X120685128Y-108298806D01*
X120678955Y-108243959D01*
X120675835Y-108220450D01*
X120672632Y-108199375D01*
X120669298Y-108180604D01*
X120665790Y-108164006D01*
X120662059Y-108149450D01*
X120658061Y-108136805D01*
X120653749Y-108125941D01*
X120649078Y-108116726D01*
X120644000Y-108109030D01*
X120638470Y-108102722D01*
X120632443Y-108097670D01*
X120625871Y-108093744D01*
X120618710Y-108090814D01*
X120610912Y-108088747D01*
X120602433Y-108087414D01*
X120593225Y-108086683D01*
X120583243Y-108086424D01*
X120572440Y-108086505D01*
X120520108Y-108087619D01*
X120492543Y-108087471D01*
X120468216Y-108086869D01*
X120446924Y-108085578D01*
X120428466Y-108083363D01*
X120420237Y-108081835D01*
X120412641Y-108079988D01*
X120405653Y-108077792D01*
X120399248Y-108075218D01*
X120393400Y-108072237D01*
X120388085Y-108068818D01*
X120383277Y-108064933D01*
X120378952Y-108060552D01*
X120375084Y-108055646D01*
X120371647Y-108050186D01*
X120368617Y-108044141D01*
X120365969Y-108037483D01*
X120363677Y-108030182D01*
X120361716Y-108022208D01*
X120360062Y-108013533D01*
X120358688Y-108004127D01*
X120356683Y-107983003D01*
X120355500Y-107958601D01*
X120354938Y-107930687D01*
X120354795Y-107899024D01*
X120354795Y-107784936D01*
X121211623Y-107784936D01*
X121225592Y-107871084D01*
G37*
G36*
X138293646Y-99757260D02*
G01*
X138293716Y-99589110D01*
X138294038Y-99459938D01*
X138294346Y-99408210D01*
X138294780Y-99364116D01*
X138295361Y-99326952D01*
X138296110Y-99296015D01*
X138297048Y-99270602D01*
X138298196Y-99250009D01*
X138298855Y-99241299D01*
X138299575Y-99233531D01*
X138300358Y-99226616D01*
X138301206Y-99220467D01*
X138302123Y-99214994D01*
X138303110Y-99210111D01*
X138304171Y-99205730D01*
X138305309Y-99201762D01*
X138306524Y-99198119D01*
X138307822Y-99194714D01*
X138310671Y-99188265D01*
X138325608Y-99168877D01*
X138361788Y-99128761D01*
X138498506Y-98985756D01*
X138722086Y-98758074D01*
X139033788Y-98444539D01*
X139739879Y-97736655D01*
X139742568Y-97391674D01*
X139743495Y-97278753D01*
X139743950Y-97232797D01*
X139744444Y-97193113D01*
X139745011Y-97159152D01*
X139745686Y-97130365D01*
X139746503Y-97106203D01*
X139746975Y-97095686D01*
X139747496Y-97086119D01*
X139748069Y-97077434D01*
X139748698Y-97069562D01*
X139749389Y-97062435D01*
X139750145Y-97055985D01*
X139750971Y-97050143D01*
X139751871Y-97044839D01*
X139752848Y-97040006D01*
X139753908Y-97035575D01*
X139755055Y-97031478D01*
X139756292Y-97027645D01*
X139757625Y-97024009D01*
X139759057Y-97020500D01*
X139760593Y-97017050D01*
X139762237Y-97013591D01*
X139765865Y-97006370D01*
X139773984Y-96991835D01*
X139782554Y-96978133D01*
X139791586Y-96965256D01*
X139801091Y-96953194D01*
X139811079Y-96941942D01*
X139821560Y-96931490D01*
X139832546Y-96921830D01*
X139844046Y-96912956D01*
X139856071Y-96904859D01*
X139868631Y-96897530D01*
X139881738Y-96890964D01*
X139895401Y-96885150D01*
X139909631Y-96880082D01*
X139924439Y-96875752D01*
X139939834Y-96872152D01*
X139955829Y-96869273D01*
X139958313Y-96868968D01*
X139961042Y-96868724D01*
X139967127Y-96868405D01*
X139973863Y-96868297D01*
X139981030Y-96868377D01*
X139988407Y-96868626D01*
X139995773Y-96869021D01*
X140002908Y-96869543D01*
X140009592Y-96870169D01*
X140039332Y-96874845D01*
X140054661Y-96880092D01*
X140072610Y-96889434D01*
X140094911Y-96904489D01*
X140123298Y-96926873D01*
X140205268Y-97000097D01*
X140332391Y-97122045D01*
X140518537Y-97305652D01*
X141123389Y-97909594D01*
X141596786Y-98384209D01*
X141771132Y-98560125D01*
X141907885Y-98699131D01*
X142010029Y-98804240D01*
X142080544Y-98878468D01*
X142104873Y-98904942D01*
X142122414Y-98924826D01*
X142133539Y-98938497D01*
X142138620Y-98946330D01*
X142142581Y-98958028D01*
X142145775Y-98971699D01*
X142148275Y-98988479D01*
X142150157Y-99009502D01*
X142151492Y-99035900D01*
X142152355Y-99068809D01*
X142152819Y-99109363D01*
X142152957Y-99158695D01*
X142152812Y-99210789D01*
X142152608Y-99232854D01*
X142152299Y-99252529D01*
X142151869Y-99270008D01*
X142151303Y-99285490D01*
X142150588Y-99299171D01*
X142149709Y-99311248D01*
X142148651Y-99321918D01*
X142147400Y-99331378D01*
X142145942Y-99339825D01*
X142144262Y-99347455D01*
X142142346Y-99354465D01*
X142140179Y-99361053D01*
X142137747Y-99367415D01*
X142135036Y-99373748D01*
X142130234Y-99384094D01*
X142125226Y-99393972D01*
X142119995Y-99403399D01*
X142114524Y-99412391D01*
X142108796Y-99420962D01*
X142102794Y-99429129D01*
X142096499Y-99436907D01*
X142089897Y-99444313D01*
X142082969Y-99451361D01*
X142075698Y-99458069D01*
X142068068Y-99464450D01*
X142060061Y-99470522D01*
X142051660Y-99476300D01*
X142042849Y-99481800D01*
X142033609Y-99487037D01*
X142023924Y-99492028D01*
X141977330Y-99515325D01*
X141277510Y-99515325D01*
X141643997Y-99881812D01*
X142011380Y-100249194D01*
X142351881Y-100251883D01*
X142463412Y-100252812D01*
X142508887Y-100253271D01*
X142548229Y-100253773D01*
X142581985Y-100254353D01*
X142610701Y-100255048D01*
X142634923Y-100255893D01*
X142655196Y-100256923D01*
X142664023Y-100257518D01*
X142672067Y-100258173D01*
X142679397Y-100258892D01*
X142686082Y-100259679D01*
X142692189Y-100260539D01*
X142697787Y-100261477D01*
X142702943Y-100262496D01*
X142707727Y-100263601D01*
X142712207Y-100264797D01*
X142716450Y-100266088D01*
X142720525Y-100267478D01*
X142724500Y-100268972D01*
X142732425Y-100272290D01*
X142740769Y-100276076D01*
X142756169Y-100283629D01*
X142770768Y-100292146D01*
X142784539Y-100301581D01*
X142797459Y-100311890D01*
X142809501Y-100323029D01*
X142820642Y-100334953D01*
X142830857Y-100347618D01*
X142840119Y-100360977D01*
X142848405Y-100374988D01*
X142855690Y-100389606D01*
X142861948Y-100404785D01*
X142867155Y-100420481D01*
X142871286Y-100436650D01*
X142874315Y-100453247D01*
X142876218Y-100470227D01*
X142876970Y-100487545D01*
X142876851Y-100524143D01*
X142874536Y-100541067D01*
X142868793Y-100559230D01*
X142858178Y-100580248D01*
X142841246Y-100605740D01*
X142816555Y-100637323D01*
X142782660Y-100676613D01*
X142681483Y-100784784D01*
X142526164Y-100943189D01*
X142006900Y-101462454D01*
X141183425Y-102285032D01*
X141183425Y-102720516D01*
X141156543Y-102774279D01*
X141148567Y-102789146D01*
X141139775Y-102803160D01*
X141130194Y-102816307D01*
X141119847Y-102828575D01*
X141108760Y-102839950D01*
X141096957Y-102850419D01*
X141084464Y-102859970D01*
X141071306Y-102868589D01*
X141057507Y-102876263D01*
X141043092Y-102882978D01*
X141028087Y-102888723D01*
X141012516Y-102893482D01*
X140996404Y-102897245D01*
X140979777Y-102899996D01*
X140962658Y-102901724D01*
X140945074Y-102902415D01*
X140911498Y-102902656D01*
X140894791Y-102899481D01*
X140875056Y-102891242D01*
X140849981Y-102875789D01*
X140817255Y-102850972D01*
X140719604Y-102764646D01*
X140563612Y-102615064D01*
X140330786Y-102385027D01*
X139560668Y-101614783D01*
X139190079Y-101243732D01*
X138900891Y-100953662D01*
X138683024Y-100734240D01*
X138526396Y-100575135D01*
X138467897Y-100514971D01*
X138420928Y-100466012D01*
X138384228Y-100426965D01*
X138356538Y-100396540D01*
X138336597Y-100373443D01*
X138323146Y-100356385D01*
X138318460Y-100349717D01*
X138314924Y-100344073D01*
X138312380Y-100339293D01*
X138310671Y-100335216D01*
X138305309Y-100318761D01*
X138301206Y-100297329D01*
X138298196Y-100265439D01*
X138296110Y-100217608D01*
X138295226Y-100147044D01*
X138764075Y-100147044D01*
X140721956Y-102104925D01*
X140738981Y-102076251D01*
X140755738Y-102056857D01*
X140797435Y-102012660D01*
X140944514Y-101861198D01*
X141157957Y-101644549D01*
X141415503Y-101385393D01*
X142075000Y-100725000D01*
X141971058Y-100725000D01*
X141916799Y-100725586D01*
X141893892Y-100724521D01*
X141871833Y-100720954D01*
X141849151Y-100713684D01*
X141824369Y-100701515D01*
X141796014Y-100683248D01*
X141762613Y-100657684D01*
X141722690Y-100623624D01*
X141674773Y-100579872D01*
X141549057Y-100458493D01*
X141136830Y-100046686D01*
X140911272Y-99820773D01*
X140820759Y-99729810D01*
X140743658Y-99651847D01*
X140678894Y-99585641D01*
X140650804Y-99556556D01*
X140625396Y-99529944D01*
X140602535Y-99505647D01*
X140582088Y-99483511D01*
X140563920Y-99463379D01*
X140547898Y-99445097D01*
X140533886Y-99428507D01*
X140521750Y-99413455D01*
X140511358Y-99399785D01*
X140502573Y-99387341D01*
X140495263Y-99375968D01*
X140489292Y-99365509D01*
X140484527Y-99355809D01*
X140480833Y-99346713D01*
X140478077Y-99338064D01*
X140476123Y-99329707D01*
X140474839Y-99321486D01*
X140474088Y-99313245D01*
X140473739Y-99304830D01*
X140473655Y-99296083D01*
X140473749Y-99276974D01*
X140473993Y-99264894D01*
X140474734Y-99253164D01*
X140475988Y-99241757D01*
X140477767Y-99230645D01*
X140480088Y-99219802D01*
X140482963Y-99209198D01*
X140486409Y-99198807D01*
X140490438Y-99188601D01*
X140495066Y-99178552D01*
X140500307Y-99168634D01*
X140506175Y-99158818D01*
X140512685Y-99149076D01*
X140519852Y-99139382D01*
X140527689Y-99129708D01*
X140536211Y-99120026D01*
X140545433Y-99110308D01*
X140566730Y-99089002D01*
X140577240Y-99080361D01*
X140588794Y-99072926D01*
X140602243Y-99066592D01*
X140618439Y-99061259D01*
X140638234Y-99056824D01*
X140662480Y-99053184D01*
X140692029Y-99050238D01*
X140727733Y-99047882D01*
X140821012Y-99044532D01*
X141118908Y-99040416D01*
X141577689Y-99035935D01*
X140215685Y-97673931D01*
X140215685Y-97776977D01*
X140215529Y-97807963D01*
X140215301Y-97821212D01*
X140214943Y-97833163D01*
X140214432Y-97843964D01*
X140213747Y-97853763D01*
X140212866Y-97862710D01*
X140211765Y-97870951D01*
X140210422Y-97878636D01*
X140208816Y-97885913D01*
X140206923Y-97892930D01*
X140204722Y-97899835D01*
X140202190Y-97906777D01*
X140199305Y-97913904D01*
X140196045Y-97921365D01*
X140192387Y-97929307D01*
X140180348Y-97948929D01*
X140155719Y-97979598D01*
X140113554Y-98026396D01*
X140048906Y-98094405D01*
X139832383Y-98314387D01*
X139466582Y-98680201D01*
X138764075Y-99381813D01*
X138764075Y-100147044D01*
X138295226Y-100147044D01*
X138294038Y-100052202D01*
X138293646Y-99757260D01*
G37*
D11*
X133878571Y-91160714D02*
X133914285Y-91125000D01*
X133985714Y-91089285D01*
X134164285Y-91089285D01*
X134235714Y-91125000D01*
X134271428Y-91160714D01*
X134307142Y-91232142D01*
X134307142Y-91303571D01*
X134271428Y-91410714D01*
X133842857Y-91839285D01*
X134307142Y-91839285D01*
X134985714Y-91089285D02*
X134628571Y-91089285D01*
X134592857Y-91446428D01*
X134628571Y-91410714D01*
X134700000Y-91375000D01*
X134878571Y-91375000D01*
X134950000Y-91410714D01*
X134985714Y-91446428D01*
X135021428Y-91517857D01*
X135021428Y-91696428D01*
X134985714Y-91767857D01*
X134950000Y-91803571D01*
X134878571Y-91839285D01*
X134700000Y-91839285D01*
X134628571Y-91803571D01*
X134592857Y-91767857D01*
X141957142Y-108739285D02*
X141528571Y-108739285D01*
X141742857Y-108739285D02*
X141742857Y-107989285D01*
X141671428Y-108096428D01*
X141600000Y-108167857D01*
X141528571Y-108203571D01*
X142207142Y-107989285D02*
X142707142Y-107989285D01*
X142385714Y-108739285D01*
X126961428Y-99879285D02*
X127425714Y-99879285D01*
X127175714Y-100165000D01*
X127282857Y-100165000D01*
X127354285Y-100200714D01*
X127390000Y-100236428D01*
X127425714Y-100307857D01*
X127425714Y-100486428D01*
X127390000Y-100557857D01*
X127354285Y-100593571D01*
X127282857Y-100629285D01*
X127068571Y-100629285D01*
X126997142Y-100593571D01*
X126961428Y-100557857D01*
X127640000Y-99879285D02*
X127890000Y-100629285D01*
X128140000Y-99879285D01*
X128318571Y-99879285D02*
X128782857Y-99879285D01*
X128532857Y-100165000D01*
X128640000Y-100165000D01*
X128711428Y-100200714D01*
X128747142Y-100236428D01*
X128782857Y-100307857D01*
X128782857Y-100486428D01*
X128747142Y-100557857D01*
X128711428Y-100593571D01*
X128640000Y-100629285D01*
X128425714Y-100629285D01*
X128354285Y-100593571D01*
X128318571Y-100557857D01*
X128728571Y-108005000D02*
X128657142Y-107969285D01*
X128550000Y-107969285D01*
X128442857Y-108005000D01*
X128371428Y-108076428D01*
X128335714Y-108147857D01*
X128300000Y-108290714D01*
X128300000Y-108397857D01*
X128335714Y-108540714D01*
X128371428Y-108612142D01*
X128442857Y-108683571D01*
X128550000Y-108719285D01*
X128621428Y-108719285D01*
X128728571Y-108683571D01*
X128764285Y-108647857D01*
X128764285Y-108397857D01*
X128621428Y-108397857D01*
X129085714Y-108719285D02*
X129085714Y-107969285D01*
X129514285Y-108719285D01*
X129514285Y-107969285D01*
X129871428Y-108719285D02*
X129871428Y-107969285D01*
X130050000Y-107969285D01*
X130157142Y-108005000D01*
X130228571Y-108076428D01*
X130264285Y-108147857D01*
X130300000Y-108290714D01*
X130300000Y-108397857D01*
X130264285Y-108540714D01*
X130228571Y-108612142D01*
X130157142Y-108683571D01*
X130050000Y-108719285D01*
X129871428Y-108719285D01*
X147007142Y-108739285D02*
X146578571Y-108739285D01*
X146792857Y-108739285D02*
X146792857Y-107989285D01*
X146721428Y-108096428D01*
X146650000Y-108167857D01*
X146578571Y-108203571D01*
X147364285Y-108739285D02*
X147507142Y-108739285D01*
X147578571Y-108703571D01*
X147614285Y-108667857D01*
X147685714Y-108560714D01*
X147721428Y-108417857D01*
X147721428Y-108132142D01*
X147685714Y-108060714D01*
X147650000Y-108025000D01*
X147578571Y-107989285D01*
X147435714Y-107989285D01*
X147364285Y-108025000D01*
X147328571Y-108060714D01*
X147292857Y-108132142D01*
X147292857Y-108310714D01*
X147328571Y-108382142D01*
X147364285Y-108417857D01*
X147435714Y-108453571D01*
X147578571Y-108453571D01*
X147650000Y-108417857D01*
X147685714Y-108382142D01*
X147721428Y-108310714D01*
X143992857Y-91039285D02*
X144457142Y-91039285D01*
X144207142Y-91325000D01*
X144314285Y-91325000D01*
X144385714Y-91360714D01*
X144421428Y-91396428D01*
X144457142Y-91467857D01*
X144457142Y-91646428D01*
X144421428Y-91717857D01*
X144385714Y-91753571D01*
X144314285Y-91789285D01*
X144100000Y-91789285D01*
X144028571Y-91753571D01*
X143992857Y-91717857D01*
X144707142Y-91039285D02*
X145171428Y-91039285D01*
X144921428Y-91325000D01*
X145028571Y-91325000D01*
X145100000Y-91360714D01*
X145135714Y-91396428D01*
X145171428Y-91467857D01*
X145171428Y-91646428D01*
X145135714Y-91717857D01*
X145100000Y-91753571D01*
X145028571Y-91789285D01*
X144814285Y-91789285D01*
X144742857Y-91753571D01*
X144707142Y-91717857D01*
X151307142Y-91396428D02*
X151557142Y-91396428D01*
X151664285Y-91789285D02*
X151307142Y-91789285D01*
X151307142Y-91039285D01*
X151664285Y-91039285D01*
X152414285Y-91789285D02*
X152164285Y-91432142D01*
X151985714Y-91789285D02*
X151985714Y-91039285D01*
X152271428Y-91039285D01*
X152342857Y-91075000D01*
X152378571Y-91110714D01*
X152414285Y-91182142D01*
X152414285Y-91289285D01*
X152378571Y-91360714D01*
X152342857Y-91396428D01*
X152271428Y-91432142D01*
X151985714Y-91432142D01*
X152664285Y-91039285D02*
X153164285Y-91789285D01*
X153164285Y-91039285D02*
X152664285Y-91789285D01*
X154178571Y-108110714D02*
X154214285Y-108075000D01*
X154285714Y-108039285D01*
X154464285Y-108039285D01*
X154535714Y-108075000D01*
X154571428Y-108110714D01*
X154607142Y-108182142D01*
X154607142Y-108253571D01*
X154571428Y-108360714D01*
X154142857Y-108789285D01*
X154607142Y-108789285D01*
X154857142Y-108039285D02*
X155321428Y-108039285D01*
X155071428Y-108325000D01*
X155178571Y-108325000D01*
X155250000Y-108360714D01*
X155285714Y-108396428D01*
X155321428Y-108467857D01*
X155321428Y-108646428D01*
X155285714Y-108717857D01*
X155250000Y-108753571D01*
X155178571Y-108789285D01*
X154964285Y-108789285D01*
X154892857Y-108753571D01*
X154857142Y-108717857D01*
X138978571Y-91160714D02*
X139014285Y-91125000D01*
X139085714Y-91089285D01*
X139264285Y-91089285D01*
X139335714Y-91125000D01*
X139371428Y-91160714D01*
X139407142Y-91232142D01*
X139407142Y-91303571D01*
X139371428Y-91410714D01*
X138942857Y-91839285D01*
X139407142Y-91839285D01*
X139657142Y-91089285D02*
X140157142Y-91089285D01*
X139835714Y-91839285D01*
X146542857Y-91089285D02*
X147007142Y-91089285D01*
X146757142Y-91375000D01*
X146864285Y-91375000D01*
X146935714Y-91410714D01*
X146971428Y-91446428D01*
X147007142Y-91517857D01*
X147007142Y-91696428D01*
X146971428Y-91767857D01*
X146935714Y-91803571D01*
X146864285Y-91839285D01*
X146650000Y-91839285D01*
X146578571Y-91803571D01*
X146542857Y-91767857D01*
X147650000Y-91339285D02*
X147650000Y-91839285D01*
X147471428Y-91053571D02*
X147292857Y-91589285D01*
X147757142Y-91589285D01*
X149092857Y-91039285D02*
X149557142Y-91039285D01*
X149307142Y-91325000D01*
X149414285Y-91325000D01*
X149485714Y-91360714D01*
X149521428Y-91396428D01*
X149557142Y-91467857D01*
X149557142Y-91646428D01*
X149521428Y-91717857D01*
X149485714Y-91753571D01*
X149414285Y-91789285D01*
X149200000Y-91789285D01*
X149128571Y-91753571D01*
X149092857Y-91717857D01*
X150235714Y-91039285D02*
X149878571Y-91039285D01*
X149842857Y-91396428D01*
X149878571Y-91360714D01*
X149950000Y-91325000D01*
X150128571Y-91325000D01*
X150200000Y-91360714D01*
X150235714Y-91396428D01*
X150271428Y-91467857D01*
X150271428Y-91646428D01*
X150235714Y-91717857D01*
X150200000Y-91753571D01*
X150128571Y-91789285D01*
X149950000Y-91789285D01*
X149878571Y-91753571D01*
X149842857Y-91717857D01*
X153132142Y-103271428D02*
X153239285Y-103307142D01*
X153275000Y-103342857D01*
X153310714Y-103414285D01*
X153310714Y-103521428D01*
X153275000Y-103592857D01*
X153239285Y-103628571D01*
X153167857Y-103664285D01*
X152882142Y-103664285D01*
X152882142Y-102914285D01*
X153132142Y-102914285D01*
X153203571Y-102950000D01*
X153239285Y-102985714D01*
X153275000Y-103057142D01*
X153275000Y-103128571D01*
X153239285Y-103200000D01*
X153203571Y-103235714D01*
X153132142Y-103271428D01*
X152882142Y-103271428D01*
X153775000Y-102914285D02*
X153917857Y-102914285D01*
X153989285Y-102950000D01*
X154060714Y-103021428D01*
X154096428Y-103164285D01*
X154096428Y-103414285D01*
X154060714Y-103557142D01*
X153989285Y-103628571D01*
X153917857Y-103664285D01*
X153775000Y-103664285D01*
X153703571Y-103628571D01*
X153632142Y-103557142D01*
X153596428Y-103414285D01*
X153596428Y-103164285D01*
X153632142Y-103021428D01*
X153703571Y-102950000D01*
X153775000Y-102914285D01*
X154560714Y-102914285D02*
X154703571Y-102914285D01*
X154775000Y-102950000D01*
X154846428Y-103021428D01*
X154882142Y-103164285D01*
X154882142Y-103414285D01*
X154846428Y-103557142D01*
X154775000Y-103628571D01*
X154703571Y-103664285D01*
X154560714Y-103664285D01*
X154489285Y-103628571D01*
X154417857Y-103557142D01*
X154382142Y-103414285D01*
X154382142Y-103164285D01*
X154417857Y-103021428D01*
X154489285Y-102950000D01*
X154560714Y-102914285D01*
X155096428Y-102914285D02*
X155525000Y-102914285D01*
X155310714Y-103664285D02*
X155310714Y-102914285D01*
X134089285Y-108739285D02*
X133839285Y-108382142D01*
X133660714Y-108739285D02*
X133660714Y-107989285D01*
X133946428Y-107989285D01*
X134017857Y-108025000D01*
X134053571Y-108060714D01*
X134089285Y-108132142D01*
X134089285Y-108239285D01*
X134053571Y-108310714D01*
X134017857Y-108346428D01*
X133946428Y-108382142D01*
X133660714Y-108382142D01*
X134303571Y-107989285D02*
X134732142Y-107989285D01*
X134517857Y-108739285D02*
X134517857Y-107989285D01*
X134946428Y-108703571D02*
X135053571Y-108739285D01*
X135232142Y-108739285D01*
X135303571Y-108703571D01*
X135339285Y-108667857D01*
X135375000Y-108596428D01*
X135375000Y-108525000D01*
X135339285Y-108453571D01*
X135303571Y-108417857D01*
X135232142Y-108382142D01*
X135089285Y-108346428D01*
X135017857Y-108310714D01*
X134982142Y-108275000D01*
X134946428Y-108203571D01*
X134946428Y-108132142D01*
X134982142Y-108060714D01*
X135017857Y-108025000D01*
X135089285Y-107989285D01*
X135267857Y-107989285D01*
X135375000Y-108025000D01*
X128758571Y-91115000D02*
X128687142Y-91079285D01*
X128580000Y-91079285D01*
X128472857Y-91115000D01*
X128401428Y-91186428D01*
X128365714Y-91257857D01*
X128330000Y-91400714D01*
X128330000Y-91507857D01*
X128365714Y-91650714D01*
X128401428Y-91722142D01*
X128472857Y-91793571D01*
X128580000Y-91829285D01*
X128651428Y-91829285D01*
X128758571Y-91793571D01*
X128794285Y-91757857D01*
X128794285Y-91507857D01*
X128651428Y-91507857D01*
X129115714Y-91829285D02*
X129115714Y-91079285D01*
X129544285Y-91829285D01*
X129544285Y-91079285D01*
X129901428Y-91829285D02*
X129901428Y-91079285D01*
X130080000Y-91079285D01*
X130187142Y-91115000D01*
X130258571Y-91186428D01*
X130294285Y-91257857D01*
X130330000Y-91400714D01*
X130330000Y-91507857D01*
X130294285Y-91650714D01*
X130258571Y-91722142D01*
X130187142Y-91793571D01*
X130080000Y-91829285D01*
X129901428Y-91829285D01*
X137178571Y-107989285D02*
X136821428Y-107989285D01*
X136785714Y-108346428D01*
X136821428Y-108310714D01*
X136892857Y-108275000D01*
X137071428Y-108275000D01*
X137142857Y-108310714D01*
X137178571Y-108346428D01*
X137214285Y-108417857D01*
X137214285Y-108596428D01*
X137178571Y-108667857D01*
X137142857Y-108703571D01*
X137071428Y-108739285D01*
X136892857Y-108739285D01*
X136821428Y-108703571D01*
X136785714Y-108667857D01*
X139335714Y-108060714D02*
X139371428Y-108025000D01*
X139442857Y-107989285D01*
X139621428Y-107989285D01*
X139692857Y-108025000D01*
X139728571Y-108060714D01*
X139764285Y-108132142D01*
X139764285Y-108203571D01*
X139728571Y-108310714D01*
X139300000Y-108739285D01*
X139764285Y-108739285D01*
X149128571Y-108060714D02*
X149164285Y-108025000D01*
X149235714Y-107989285D01*
X149414285Y-107989285D01*
X149485714Y-108025000D01*
X149521428Y-108060714D01*
X149557142Y-108132142D01*
X149557142Y-108203571D01*
X149521428Y-108310714D01*
X149092857Y-108739285D01*
X149557142Y-108739285D01*
X150271428Y-108739285D02*
X149842857Y-108739285D01*
X150057142Y-108739285D02*
X150057142Y-107989285D01*
X149985714Y-108096428D01*
X149914285Y-108167857D01*
X149842857Y-108203571D01*
X130901428Y-107999285D02*
X131365714Y-107999285D01*
X131115714Y-108285000D01*
X131222857Y-108285000D01*
X131294285Y-108320714D01*
X131330000Y-108356428D01*
X131365714Y-108427857D01*
X131365714Y-108606428D01*
X131330000Y-108677857D01*
X131294285Y-108713571D01*
X131222857Y-108749285D01*
X131008571Y-108749285D01*
X130937142Y-108713571D01*
X130901428Y-108677857D01*
X131580000Y-107999285D02*
X131830000Y-108749285D01*
X132080000Y-107999285D01*
X132258571Y-107999285D02*
X132722857Y-107999285D01*
X132472857Y-108285000D01*
X132580000Y-108285000D01*
X132651428Y-108320714D01*
X132687142Y-108356428D01*
X132722857Y-108427857D01*
X132722857Y-108606428D01*
X132687142Y-108677857D01*
X132651428Y-108713571D01*
X132580000Y-108749285D01*
X132365714Y-108749285D01*
X132294285Y-108713571D01*
X132258571Y-108677857D01*
X136428571Y-91160714D02*
X136464285Y-91125000D01*
X136535714Y-91089285D01*
X136714285Y-91089285D01*
X136785714Y-91125000D01*
X136821428Y-91160714D01*
X136857142Y-91232142D01*
X136857142Y-91303571D01*
X136821428Y-91410714D01*
X136392857Y-91839285D01*
X136857142Y-91839285D01*
X137500000Y-91089285D02*
X137357142Y-91089285D01*
X137285714Y-91125000D01*
X137250000Y-91160714D01*
X137178571Y-91267857D01*
X137142857Y-91410714D01*
X137142857Y-91696428D01*
X137178571Y-91767857D01*
X137214285Y-91803571D01*
X137285714Y-91839285D01*
X137428571Y-91839285D01*
X137500000Y-91803571D01*
X137535714Y-91767857D01*
X137571428Y-91696428D01*
X137571428Y-91517857D01*
X137535714Y-91446428D01*
X137500000Y-91410714D01*
X137428571Y-91375000D01*
X137285714Y-91375000D01*
X137214285Y-91410714D01*
X137178571Y-91446428D01*
X137142857Y-91517857D01*
X153996428Y-91396428D02*
X154246428Y-91396428D01*
X154353571Y-91789285D02*
X153996428Y-91789285D01*
X153996428Y-91039285D01*
X154353571Y-91039285D01*
X154567857Y-91039285D02*
X154996428Y-91039285D01*
X154782142Y-91789285D02*
X154782142Y-91039285D01*
X155175000Y-91039285D02*
X155675000Y-91789285D01*
X155675000Y-91039285D02*
X155175000Y-91789285D01*
X151628571Y-108060714D02*
X151664285Y-108025000D01*
X151735714Y-107989285D01*
X151914285Y-107989285D01*
X151985714Y-108025000D01*
X152021428Y-108060714D01*
X152057142Y-108132142D01*
X152057142Y-108203571D01*
X152021428Y-108310714D01*
X151592857Y-108739285D01*
X152057142Y-108739285D01*
X152342857Y-108060714D02*
X152378571Y-108025000D01*
X152450000Y-107989285D01*
X152628571Y-107989285D01*
X152700000Y-108025000D01*
X152735714Y-108060714D01*
X152771428Y-108132142D01*
X152771428Y-108203571D01*
X152735714Y-108310714D01*
X152307142Y-108739285D01*
X152771428Y-108739285D01*
X131757142Y-91089285D02*
X131400000Y-91089285D01*
X131364285Y-91446428D01*
X131400000Y-91410714D01*
X131471428Y-91375000D01*
X131650000Y-91375000D01*
X131721428Y-91410714D01*
X131757142Y-91446428D01*
X131792857Y-91517857D01*
X131792857Y-91696428D01*
X131757142Y-91767857D01*
X131721428Y-91803571D01*
X131650000Y-91839285D01*
X131471428Y-91839285D01*
X131400000Y-91803571D01*
X131364285Y-91767857D01*
X132007142Y-91089285D02*
X132257142Y-91839285D01*
X132507142Y-91089285D01*
X144457142Y-108789285D02*
X144028571Y-108789285D01*
X144242857Y-108789285D02*
X144242857Y-108039285D01*
X144171428Y-108146428D01*
X144100000Y-108217857D01*
X144028571Y-108253571D01*
X144885714Y-108360714D02*
X144814285Y-108325000D01*
X144778571Y-108289285D01*
X144742857Y-108217857D01*
X144742857Y-108182142D01*
X144778571Y-108110714D01*
X144814285Y-108075000D01*
X144885714Y-108039285D01*
X145028571Y-108039285D01*
X145100000Y-108075000D01*
X145135714Y-108110714D01*
X145171428Y-108182142D01*
X145171428Y-108217857D01*
X145135714Y-108289285D01*
X145100000Y-108325000D01*
X145028571Y-108360714D01*
X144885714Y-108360714D01*
X144814285Y-108396428D01*
X144778571Y-108432142D01*
X144742857Y-108503571D01*
X144742857Y-108646428D01*
X144778571Y-108717857D01*
X144814285Y-108753571D01*
X144885714Y-108789285D01*
X145028571Y-108789285D01*
X145100000Y-108753571D01*
X145135714Y-108717857D01*
X145171428Y-108646428D01*
X145171428Y-108503571D01*
X145135714Y-108432142D01*
X145100000Y-108396428D01*
X145028571Y-108360714D01*
X141442857Y-91039285D02*
X141907142Y-91039285D01*
X141657142Y-91325000D01*
X141764285Y-91325000D01*
X141835714Y-91360714D01*
X141871428Y-91396428D01*
X141907142Y-91467857D01*
X141907142Y-91646428D01*
X141871428Y-91717857D01*
X141835714Y-91753571D01*
X141764285Y-91789285D01*
X141550000Y-91789285D01*
X141478571Y-91753571D01*
X141442857Y-91717857D01*
X142192857Y-91110714D02*
X142228571Y-91075000D01*
X142300000Y-91039285D01*
X142478571Y-91039285D01*
X142550000Y-91075000D01*
X142585714Y-91110714D01*
X142621428Y-91182142D01*
X142621428Y-91253571D01*
X142585714Y-91360714D01*
X142157142Y-91789285D01*
X142621428Y-91789285D01*
X153060714Y-96839285D02*
X152810714Y-96482142D01*
X152632142Y-96839285D02*
X152632142Y-96089285D01*
X152917857Y-96089285D01*
X152989285Y-96125000D01*
X153025000Y-96160714D01*
X153060714Y-96232142D01*
X153060714Y-96339285D01*
X153025000Y-96410714D01*
X152989285Y-96446428D01*
X152917857Y-96482142D01*
X152632142Y-96482142D01*
X153382142Y-96446428D02*
X153632142Y-96446428D01*
X153739285Y-96839285D02*
X153382142Y-96839285D01*
X153382142Y-96089285D01*
X153739285Y-96089285D01*
X154025000Y-96803571D02*
X154132142Y-96839285D01*
X154310714Y-96839285D01*
X154382142Y-96803571D01*
X154417857Y-96767857D01*
X154453571Y-96696428D01*
X154453571Y-96625000D01*
X154417857Y-96553571D01*
X154382142Y-96517857D01*
X154310714Y-96482142D01*
X154167857Y-96446428D01*
X154096428Y-96410714D01*
X154060714Y-96375000D01*
X154025000Y-96303571D01*
X154025000Y-96232142D01*
X154060714Y-96160714D01*
X154096428Y-96125000D01*
X154167857Y-96089285D01*
X154346428Y-96089285D01*
X154453571Y-96125000D01*
X154775000Y-96446428D02*
X155025000Y-96446428D01*
X155132142Y-96839285D02*
X154775000Y-96839285D01*
X154775000Y-96089285D01*
X155132142Y-96089285D01*
X155346428Y-96089285D02*
X155775000Y-96089285D01*
X155560714Y-96839285D02*
X155560714Y-96089285D01*
%TO.C,*%
D12*
%TO.C,IC2*%
X126050000Y-93550000D02*
X128950000Y-93550000D01*
X126050000Y-93750000D02*
X126050000Y-93550000D01*
X128950000Y-93550000D02*
X128950000Y-93750000D01*
X128950000Y-93750000D02*
X126050000Y-93750000D01*
X129035000Y-92000000D02*
X129035000Y-93200000D01*
%TO.C,IC4*%
X138700000Y-103525000D02*
X135800000Y-103525000D01*
X135800000Y-103525000D02*
X135800000Y-103325000D01*
X138700000Y-103325000D02*
X138700000Y-103525000D01*
X138785000Y-101775000D02*
X138785000Y-102975000D01*
X135800000Y-103325000D02*
X138700000Y-103325000D01*
%TO.C,J6*%
X114710000Y-93300000D02*
X121710000Y-93300000D01*
X111060000Y-103551000D02*
X113480000Y-102846000D01*
X125110000Y-105660000D02*
X125110000Y-104800000D01*
X111060000Y-106400000D02*
X111060000Y-103551000D01*
X111060000Y-93300000D02*
X111060000Y-93926000D01*
X125110000Y-103250000D02*
X125110000Y-100600000D01*
X113710000Y-106400000D02*
X121708000Y-106400000D01*
X125110000Y-98900000D02*
X125110000Y-94100000D01*
X113480000Y-102846000D02*
X113480000Y-94291000D01*
X111470570Y-102284000D02*
G75*
G03*
X111470570Y-102284000I-54570J0D01*
G01*
D13*
%TO.C,LED1*%
X156700000Y-98400000D02*
X156700000Y-98400000D01*
X156800000Y-98400000D02*
X156800000Y-98400000D01*
X156700000Y-98400000D02*
G75*
G03*
X156800000Y-98400000I50000J0D01*
G01*
X156800000Y-98400000D02*
G75*
G03*
X156700000Y-98400000I-50000J0D01*
G01*
D12*
%TO.C,IC1*%
X158550000Y-93350000D02*
X158550000Y-90850000D01*
X177300000Y-90850000D02*
X184050000Y-90850000D01*
X184050000Y-108850000D02*
X177300000Y-108850000D01*
X159300000Y-108850000D02*
X158550000Y-108850000D01*
D13*
X176560000Y-89750000D02*
X176560000Y-89750000D01*
D12*
X184050000Y-90850000D02*
X184050000Y-108850000D01*
X158550000Y-108850000D02*
X158550000Y-106350000D01*
X158550000Y-90850000D02*
X159300000Y-90850000D01*
D13*
X176560000Y-89850000D02*
X176560000Y-89850000D01*
X176560000Y-89750000D02*
G75*
G03*
X176560000Y-89850000I0J-50000D01*
G01*
X176560000Y-89850000D02*
G75*
G03*
X176560000Y-89750000I0J50000D01*
G01*
%TO.C,LED4*%
X126450000Y-99100000D02*
X126450000Y-99100000D01*
D12*
X127650000Y-99500000D02*
X128050000Y-99500000D01*
X127650000Y-98700000D02*
X128050000Y-98700000D01*
D13*
X126350000Y-99100000D02*
X126350000Y-99100000D01*
X126450000Y-99100000D02*
G75*
G03*
X126350000Y-99100000I-50000J0D01*
G01*
X126350000Y-99100000D02*
G75*
G03*
X126450000Y-99100000I50000J0D01*
G01*
%TO.C,J1*%
X143800000Y-103500000D02*
X143800000Y-103500000D01*
X143900000Y-103500000D02*
X143900000Y-103500000D01*
D12*
X152750000Y-102400000D02*
X149800000Y-102400000D01*
X149800000Y-97400000D02*
X152750000Y-97400000D01*
X152750000Y-97400000D02*
X152750000Y-102400000D01*
D13*
X143900000Y-103500000D02*
G75*
G03*
X143800000Y-103500000I-50000J0D01*
G01*
X143800000Y-103500000D02*
G75*
G03*
X143900000Y-103500000I50000J0D01*
G01*
D12*
%TO.C,IC5*%
X138650000Y-105950000D02*
X141550000Y-105950000D01*
X138650000Y-106150000D02*
X138650000Y-105950000D01*
X141550000Y-105950000D02*
X141550000Y-106150000D01*
X141550000Y-106150000D02*
X138650000Y-106150000D01*
X141635000Y-104400000D02*
X141635000Y-105600000D01*
%TO.C,LED2*%
X141975000Y-92300000D02*
X141975000Y-94650000D01*
X143625000Y-92300000D02*
X141975000Y-92300000D01*
X143625000Y-94650000D02*
X143625000Y-92300000D01*
%TO.C,S2*%
X151150000Y-104950000D02*
X151150000Y-104950000D01*
D13*
X152050000Y-105550000D02*
X152050000Y-106350000D01*
D12*
X150950000Y-104950000D02*
X150950000Y-104950000D01*
D13*
X152950000Y-104350000D02*
X155350000Y-104350000D01*
X151150000Y-104950000D02*
X151150000Y-104950000D01*
X152950000Y-107550000D02*
X155350000Y-107550000D01*
X156250000Y-105550000D02*
X156250000Y-106350000D01*
D12*
X150950000Y-104950000D02*
G75*
G03*
X151150000Y-104950000I100000J0D01*
G01*
X151150000Y-104950000D02*
G75*
G03*
X150950000Y-104950000I-100000J0D01*
G01*
%TO.C,IC3*%
X129350000Y-101150000D02*
X132850000Y-101150000D01*
X132850000Y-107650000D02*
X129350000Y-107650000D01*
X132850000Y-101150000D02*
X132850000Y-107650000D01*
X129350000Y-107650000D02*
X129350000Y-101150000D01*
%TO.C,U3*%
X136600000Y-93750000D02*
X136600000Y-93450000D01*
X138600000Y-93450000D02*
X138600000Y-93750000D01*
X138800000Y-92100000D02*
X138800000Y-93100000D01*
X136600000Y-93450000D02*
X138600000Y-93450000D01*
X138600000Y-93750000D02*
X136600000Y-93750000D01*
%TO.C,S1*%
X151150000Y-92800000D02*
X151150000Y-92800000D01*
D13*
X156250000Y-93400000D02*
X156250000Y-94200000D01*
X152050000Y-93400000D02*
X152050000Y-94200000D01*
D12*
X150950000Y-92800000D02*
X150950000Y-92800000D01*
D13*
X151150000Y-92800000D02*
X151150000Y-92800000D01*
X152950000Y-95400000D02*
X155350000Y-95400000D01*
X152950000Y-92200000D02*
X155350000Y-92200000D01*
D12*
X151150000Y-92800000D02*
G75*
G03*
X150950000Y-92800000I-100000J0D01*
G01*
X150950000Y-92800000D02*
G75*
G03*
X151150000Y-92800000I100000J0D01*
G01*
%TO.C,U2*%
X133150000Y-93750000D02*
X133150000Y-93450000D01*
X133150000Y-93450000D02*
X135150000Y-93450000D01*
X135150000Y-93750000D02*
X133150000Y-93750000D01*
X135150000Y-93450000D02*
X135150000Y-93750000D01*
X135350000Y-92100000D02*
X135350000Y-93100000D01*
%TO.C,U1*%
X132000000Y-92110000D02*
X132000000Y-93110000D01*
X129800000Y-93760000D02*
X129800000Y-93460000D01*
X131800000Y-93460000D02*
X131800000Y-93760000D01*
X129800000Y-93460000D02*
X131800000Y-93460000D01*
X131800000Y-93760000D02*
X129800000Y-93760000D01*
%TO.C,LED3*%
X145075000Y-92300000D02*
X145075000Y-94650000D01*
X146725000Y-94650000D02*
X146725000Y-92300000D01*
X146725000Y-92300000D02*
X145075000Y-92300000D01*
%TD*%
M02*
