%TF.GenerationSoftware,KiCad,Pcbnew,(6.0.8)*%
%TF.CreationDate,2023-01-02T13:08:22-05:00*%
%TF.ProjectId,WiFi-Devboard-Pro,57694669-2d44-4657-9662-6f6172642d50,rev?*%
%TF.SameCoordinates,Original*%
%TF.FileFunction,Soldermask,Bot*%
%TF.FilePolarity,Negative*%
%FSLAX46Y46*%
G04 Gerber Fmt 4.6, Leading zero omitted, Abs format (unit mm)*
G04 Created by KiCad (PCBNEW (6.0.8)) date 2023-01-02 13:08:22*
%MOMM*%
%LPD*%
G01*
G04 APERTURE LIST*
%ADD10C,1.700000*%
%ADD11O,1.700000X1.700000*%
%ADD12C,2.200000*%
%ADD13R,0.960000X5.440000*%
G04 APERTURE END LIST*
D10*
%TO.C,J4*%
X129370000Y-109940000D03*
D11*
X131910000Y-109940000D03*
X134450000Y-109940000D03*
X136990000Y-109940000D03*
X139530000Y-109940000D03*
X142070000Y-109940000D03*
X144610000Y-109940000D03*
X147150000Y-109940000D03*
X149690000Y-109940000D03*
X152230000Y-109940000D03*
X154770000Y-109940000D03*
%TD*%
D12*
%TO.C,*%
X187100000Y-99900000D03*
%TD*%
D10*
%TO.C,J5*%
X129370000Y-89840000D03*
D11*
X131910000Y-89840000D03*
X134450000Y-89840000D03*
X136990000Y-89840000D03*
X139530000Y-89840000D03*
X142070000Y-89840000D03*
X144610000Y-89840000D03*
X147150000Y-89840000D03*
X149690000Y-89840000D03*
X152230000Y-89840000D03*
X154770000Y-89840000D03*
%TD*%
D13*
%TO.C,J3*%
X153970000Y-103140000D03*
X156510000Y-101060000D03*
X159050000Y-103140000D03*
X161590000Y-101060000D03*
X164130000Y-103140000D03*
X166670000Y-101060000D03*
X169210000Y-103140000D03*
X171750000Y-101060000D03*
X174290000Y-103140000D03*
X176830000Y-101060000D03*
%TD*%
%TO.C,J2*%
X118410000Y-103140000D03*
X120950000Y-101060000D03*
X123490000Y-103140000D03*
X126030000Y-101060000D03*
X128570000Y-103140000D03*
X131110000Y-101060000D03*
X133650000Y-103140000D03*
X136190000Y-101060000D03*
%TD*%
M02*
