M48
; DRILL file {KiCad (6.0.8)} date Mon Jan  2 13:07:49 2023
; FORMAT={-:-/ absolute / inch / decimal}
; #@! TF.CreationDate,2023-01-02T13:07:49-05:00
; #@! TF.GenerationSoftware,Kicad,Pcbnew,(6.0.8)
; #@! TF.FileFunction,Plated,1,2,PTH
FMAT,2
INCH
; #@! TA.AperFunction,Plated,PTH,ViaDrill
T1C0.0118
; #@! TA.AperFunction,Plated,PTH,ComponentDrill
T2C0.0394
%
G90
G05
T1
X4.4614Y-3.765
X4.5118Y-3.5965
X4.5709Y-3.6008
X4.6618Y-3.9384
X4.6626Y-3.5972
X4.7831Y-3.5969
X4.8949Y-4.1358
X4.9528Y-3.8169
X4.9618Y-4.1575
X5.0913Y-3.6457
X5.1081Y-3.7541
X5.1299Y-4.1307
X5.154Y-4.2442
X5.1965Y-3.7252
X5.2102Y-3.6665
X5.3067Y-3.6839
X5.3091Y-3.9748
X5.3248Y-3.9185
X5.348Y-3.8756
X5.3622Y-3.7333
X5.3986Y-3.9892
X5.4307Y-3.889
X5.5819Y-4.0693
X5.5823Y-4.1481
X5.6075Y-3.8177
X5.6398Y-4.0679
X5.6827Y-3.6469
X5.7224Y-3.7945
X5.8028Y-3.6441
X5.8382Y-3.7945
X5.8528Y-4.1295
X5.8933Y-3.8638
X5.9689Y-3.6858
X6.0043Y-3.6831
X6.0236Y-3.5787
X6.0335Y-3.9311
X6.1004Y-4.0598
X6.1528Y-3.6961
X6.187Y-3.8358
X6.2461Y-4.2352
X6.2984Y-3.8134
X6.2984Y-4.0606
X6.3012Y-3.7535
X6.3236Y-4.1185
X6.3248Y-3.7756
X6.3492Y-3.7091
X6.3514Y-4.2116
X6.3516Y-3.6752
X6.4012Y-3.6277
X6.4508Y-4.2323
X6.4512Y-3.6277
X6.5004Y-4.2106
X6.5012Y-3.6277
X6.5512Y-3.6277
X6.5512Y-4.2323
X6.6012Y-3.6277
X6.6014Y-4.2323
X6.6276Y-4.1134
X6.6512Y-3.6277
X6.7008Y-4.2323
X6.7012Y-3.6277
X6.7512Y-4.2276
X6.802Y-4.2268
X6.8512Y-3.6362
X6.8512Y-4.2295
X6.9012Y-4.2303
X6.9181Y-3.9774
X6.9882Y-3.5827
X7.0197Y-3.5551
X7.1283Y-3.5831
T2
X5.0933Y-3.537
X5.0933Y-4.3283
X5.1933Y-3.537
X5.1933Y-4.3283
X5.2933Y-3.537
X5.2933Y-4.3283
X5.3933Y-3.537
X5.3933Y-4.3283
X5.4933Y-3.537
X5.4933Y-4.3283
X5.5933Y-3.537
X5.5933Y-4.3283
X5.6933Y-3.537
X5.6933Y-4.3283
X5.7933Y-3.537
X5.7933Y-4.3283
X5.8933Y-3.537
X5.8933Y-4.3283
X5.9933Y-3.537
X5.9933Y-4.3283
X6.0933Y-3.537
X6.0933Y-4.3283
T0
M30
