%TF.GenerationSoftware,KiCad,Pcbnew,(6.0.8)*%
%TF.CreationDate,2023-01-02T13:08:22-05:00*%
%TF.ProjectId,WiFi-Devboard-Pro,57694669-2d44-4657-9662-6f6172642d50,rev?*%
%TF.SameCoordinates,Original*%
%TF.FileFunction,Soldermask,Top*%
%TF.FilePolarity,Negative*%
%FSLAX46Y46*%
G04 Gerber Fmt 4.6, Leading zero omitted, Abs format (unit mm)*
G04 Created by KiCad (PCBNEW (6.0.8)) date 2023-01-02 13:08:22*
%MOMM*%
%LPD*%
G01*
G04 APERTURE LIST*
%ADD10R,0.600000X0.750000*%
%ADD11R,0.750000X0.600000*%
%ADD12R,0.600000X0.620000*%
%ADD13R,0.650000X1.200000*%
%ADD14C,1.700000*%
%ADD15O,1.700000X1.700000*%
%ADD16R,0.620000X0.600000*%
%ADD17R,0.690000X0.720000*%
%ADD18R,1.100000X0.700000*%
%ADD19R,0.930000X0.900000*%
%ADD20R,0.780000X1.050000*%
%ADD21R,3.330000X0.700000*%
%ADD22R,2.800000X0.860000*%
%ADD23R,1.830000X1.140000*%
%ADD24R,0.700000X0.700000*%
%ADD25R,0.720000X0.690000*%
%ADD26R,0.900000X1.500000*%
%ADD27R,1.500000X0.900000*%
%ADD28R,0.900000X0.900000*%
%ADD29R,0.500000X0.900000*%
%ADD30R,0.650000X2.770000*%
%ADD31R,0.950000X0.800000*%
%ADD32R,1.050000X0.650000*%
%ADD33R,1.850000X0.900000*%
%ADD34R,1.850000X3.200000*%
%ADD35C,2.200000*%
%ADD36R,0.400000X1.000000*%
%ADD37R,0.620000X0.640000*%
G04 APERTURE END LIST*
D10*
%TO.C,R10*%
X134960000Y-97140000D03*
X134960000Y-96040000D03*
%TD*%
D11*
%TO.C,R15*%
X126500000Y-96950000D03*
X127600000Y-96950000D03*
%TD*%
%TO.C,R6*%
X150660000Y-104890000D03*
X149560000Y-104890000D03*
%TD*%
D12*
%TO.C,C7*%
X117000000Y-92270000D03*
X116080000Y-92270000D03*
%TD*%
D10*
%TO.C,R5*%
X115300000Y-91350000D03*
X115300000Y-92450000D03*
%TD*%
D13*
%TO.C,IC2*%
X128460000Y-92600000D03*
X126540000Y-92600000D03*
X127500000Y-94700000D03*
%TD*%
%TO.C,IC4*%
X138210000Y-102375000D03*
X136290000Y-102375000D03*
X137250000Y-104475000D03*
%TD*%
D14*
%TO.C,J4*%
X129370000Y-109940000D03*
D15*
X131910000Y-109940000D03*
X134450000Y-109940000D03*
X136990000Y-109940000D03*
X139530000Y-109940000D03*
X142070000Y-109940000D03*
X144610000Y-109940000D03*
X147150000Y-109940000D03*
X149690000Y-109940000D03*
X152230000Y-109940000D03*
X154770000Y-109940000D03*
%TD*%
D16*
%TO.C,C11*%
X136225000Y-97060000D03*
X136225000Y-96140000D03*
%TD*%
D17*
%TO.C,C2*%
X181985000Y-90350000D03*
X181065000Y-90350000D03*
%TD*%
D18*
%TO.C,J6*%
X112460000Y-102230000D03*
X112460000Y-101130000D03*
X112460000Y-100030000D03*
X112460000Y-98930000D03*
X112460000Y-97830000D03*
X112460000Y-96730000D03*
X112460000Y-95630000D03*
X112460000Y-94530000D03*
D19*
X124925000Y-104020000D03*
D20*
X125000000Y-99755000D03*
D21*
X123725000Y-93370000D03*
D22*
X112960000Y-93450000D03*
D23*
X112475000Y-106110000D03*
D21*
X123725000Y-106330000D03*
%TD*%
D24*
%TO.C,LED1*%
X155950000Y-98885000D03*
X154850000Y-98885000D03*
X154850000Y-100715000D03*
X155950000Y-100715000D03*
%TD*%
D10*
%TO.C,R4*%
X117820000Y-91350000D03*
X117820000Y-92450000D03*
%TD*%
D25*
%TO.C,C6*%
X133100000Y-99040000D03*
X133100000Y-99960000D03*
%TD*%
D26*
%TO.C,IC1*%
X176560000Y-91100000D03*
X175290000Y-91100000D03*
X174020000Y-91100000D03*
X172750000Y-91100000D03*
X171480000Y-91100000D03*
X170210000Y-91100000D03*
X168940000Y-91100000D03*
X167670000Y-91100000D03*
X166400000Y-91100000D03*
X165130000Y-91100000D03*
X163860000Y-91100000D03*
X162590000Y-91100000D03*
X161320000Y-91100000D03*
X160050000Y-91100000D03*
D27*
X158800000Y-94135000D03*
X158800000Y-95405000D03*
X158800000Y-96675000D03*
X158800000Y-97945000D03*
X158800000Y-99215000D03*
X158800000Y-100485000D03*
X158800000Y-101755000D03*
X158800000Y-103025000D03*
X158800000Y-104295000D03*
X158800000Y-105565000D03*
D26*
X160050000Y-108600000D03*
X161320000Y-108600000D03*
X162590000Y-108600000D03*
X163860000Y-108600000D03*
X165130000Y-108600000D03*
X166400000Y-108600000D03*
X167670000Y-108600000D03*
X168940000Y-108600000D03*
X170210000Y-108600000D03*
X171480000Y-108600000D03*
X172750000Y-108600000D03*
X174020000Y-108600000D03*
X175290000Y-108600000D03*
X176560000Y-108600000D03*
D28*
X170240000Y-96950000D03*
X168840000Y-96950000D03*
X167440000Y-96950000D03*
X167440000Y-98350000D03*
X167440000Y-99750000D03*
X168840000Y-99750000D03*
X170240000Y-99750000D03*
X170240000Y-98350000D03*
X168840000Y-98350000D03*
%TD*%
D29*
%TO.C,LED4*%
X127200000Y-99100000D03*
X128500000Y-99100000D03*
%TD*%
D11*
%TO.C,R2*%
X155950000Y-97430000D03*
X154850000Y-97430000D03*
%TD*%
D30*
%TO.C,J1*%
X143860000Y-101665000D03*
X143860000Y-98135000D03*
X145130000Y-101665000D03*
X145130000Y-98135000D03*
X146400000Y-101665000D03*
X146400000Y-98135000D03*
X147670000Y-101665000D03*
X147670000Y-98135000D03*
X148940000Y-101665000D03*
X148940000Y-98135000D03*
%TD*%
D25*
%TO.C,C5*%
X126100000Y-101790000D03*
X126100000Y-102710000D03*
%TD*%
D13*
%TO.C,IC5*%
X141060000Y-105000000D03*
X139140000Y-105000000D03*
X140100000Y-107100000D03*
%TD*%
D31*
%TO.C,LED2*%
X142800000Y-93050000D03*
X142800000Y-94650000D03*
%TD*%
D32*
%TO.C,S2*%
X152075000Y-104875000D03*
X156225000Y-104875000D03*
X152075000Y-107025000D03*
X156225000Y-107025000D03*
%TD*%
D12*
%TO.C,C4*%
X154930000Y-102150000D03*
X155850000Y-102150000D03*
%TD*%
D33*
%TO.C,IC3*%
X134200000Y-106700000D03*
X134200000Y-104400000D03*
X134200000Y-102100000D03*
D34*
X128000000Y-104400000D03*
%TD*%
D12*
%TO.C,C3*%
X179065000Y-90300000D03*
X179985000Y-90300000D03*
%TD*%
D35*
%TO.C,*%
X187100000Y-99900000D03*
%TD*%
D16*
%TO.C,C8*%
X129290000Y-97080000D03*
X129290000Y-96160000D03*
%TD*%
D36*
%TO.C,U3*%
X138250000Y-92600000D03*
X137600000Y-92600000D03*
X136950000Y-92600000D03*
X136950000Y-94600000D03*
X137600000Y-94600000D03*
X138250000Y-94600000D03*
%TD*%
D32*
%TO.C,S1*%
X152075000Y-92725000D03*
X156225000Y-92725000D03*
X152075000Y-94875000D03*
X156225000Y-94875000D03*
%TD*%
D11*
%TO.C,R1*%
X149700000Y-93800000D03*
X150800000Y-93800000D03*
%TD*%
D16*
%TO.C,C9*%
X134420000Y-99050000D03*
X134420000Y-99970000D03*
%TD*%
D10*
%TO.C,R8*%
X131610000Y-97150000D03*
X131610000Y-96050000D03*
%TD*%
D14*
%TO.C,J5*%
X129370000Y-89840000D03*
D15*
X131910000Y-89840000D03*
X134450000Y-89840000D03*
X136990000Y-89840000D03*
X139530000Y-89840000D03*
X142070000Y-89840000D03*
X144610000Y-89840000D03*
X147150000Y-89840000D03*
X149690000Y-89840000D03*
X152230000Y-89840000D03*
X154770000Y-89840000D03*
%TD*%
D10*
%TO.C,R12*%
X138400000Y-97150000D03*
X138400000Y-96050000D03*
%TD*%
D37*
%TO.C,C1*%
X150690000Y-94690000D03*
X149770000Y-94690000D03*
%TD*%
D10*
%TO.C,R11*%
X137200000Y-97150000D03*
X137200000Y-96050000D03*
%TD*%
D16*
%TO.C,C10*%
X133000000Y-97085000D03*
X133000000Y-96165000D03*
%TD*%
D10*
%TO.C,R13*%
X144350000Y-93300000D03*
X144350000Y-94400000D03*
%TD*%
%TO.C,R14*%
X147400000Y-93250000D03*
X147400000Y-94350000D03*
%TD*%
D36*
%TO.C,U2*%
X134800000Y-92600000D03*
X134150000Y-92600000D03*
X133500000Y-92600000D03*
X133500000Y-94600000D03*
X134150000Y-94600000D03*
X134800000Y-94600000D03*
%TD*%
D10*
%TO.C,R9*%
X133790000Y-97140000D03*
X133790000Y-96040000D03*
%TD*%
D36*
%TO.C,U1*%
X131450000Y-92610000D03*
X130800000Y-92610000D03*
X130150000Y-92610000D03*
X130150000Y-94610000D03*
X130800000Y-94610000D03*
X131450000Y-94610000D03*
%TD*%
D10*
%TO.C,R3*%
X119900000Y-91360000D03*
X119900000Y-92460000D03*
%TD*%
%TO.C,R7*%
X130410000Y-97160000D03*
X130410000Y-96060000D03*
%TD*%
D31*
%TO.C,LED3*%
X145900000Y-93050000D03*
X145900000Y-94650000D03*
%TD*%
M02*
