%TF.GenerationSoftware,KiCad,Pcbnew,(6.0.8)*%
%TF.CreationDate,2023-01-02T13:08:22-05:00*%
%TF.ProjectId,WiFi-Devboard-Pro,57694669-2d44-4657-9662-6f6172642d50,rev?*%
%TF.SameCoordinates,Original*%
%TF.FileFunction,Copper,L2,Bot*%
%TF.FilePolarity,Positive*%
%FSLAX46Y46*%
G04 Gerber Fmt 4.6, Leading zero omitted, Abs format (unit mm)*
G04 Created by KiCad (PCBNEW (6.0.8)) date 2023-01-02 13:08:22*
%MOMM*%
%LPD*%
G01*
G04 APERTURE LIST*
%TA.AperFunction,ComponentPad*%
%ADD10C,1.700000*%
%TD*%
%TA.AperFunction,ComponentPad*%
%ADD11O,1.700000X1.700000*%
%TD*%
%TA.AperFunction,SMDPad,CuDef*%
%ADD12R,0.960000X5.440000*%
%TD*%
%TA.AperFunction,ViaPad*%
%ADD13C,0.500000*%
%TD*%
%TA.AperFunction,Conductor*%
%ADD14C,0.300000*%
%TD*%
%TA.AperFunction,Conductor*%
%ADD15C,0.400000*%
%TD*%
%TA.AperFunction,Conductor*%
%ADD16C,0.500000*%
%TD*%
%TA.AperFunction,Conductor*%
%ADD17C,0.200000*%
%TD*%
%TA.AperFunction,Conductor*%
%ADD18C,1.000000*%
%TD*%
%TA.AperFunction,Conductor*%
%ADD19C,0.127000*%
%TD*%
G04 APERTURE END LIST*
D10*
%TO.P,J4,1,Pin_1*%
%TO.N,GND*%
X129370000Y-109940000D03*
D11*
%TO.P,J4,2,Pin_2*%
%TO.N,+3V3*%
X131910000Y-109940000D03*
%TO.P,J4,3,Pin_3*%
%TO.N,FLP_GPIO_0*%
X134450000Y-109940000D03*
%TO.P,J4,4,Pin_4*%
%TO.N,GPIO05*%
X136990000Y-109940000D03*
%TO.P,J4,5,Pin_5*%
%TO.N,GPIO02*%
X139530000Y-109940000D03*
%TO.P,J4,6,Pin_6*%
%TO.N,GPIO17*%
X142070000Y-109940000D03*
%TO.P,J4,7,Pin_7*%
%TO.N,GPIO18*%
X144610000Y-109940000D03*
%TO.P,J4,8,Pin_8*%
%TO.N,GPIO19*%
X147150000Y-109940000D03*
%TO.P,J4,9,Pin_9*%
%TO.N,GPIO21*%
X149690000Y-109940000D03*
%TO.P,J4,10,Pin_10*%
%TO.N,GPIO22*%
X152230000Y-109940000D03*
%TO.P,J4,11,Pin_11*%
%TO.N,GPIO23*%
X154770000Y-109940000D03*
%TD*%
D10*
%TO.P,J5,1,Pin_1*%
%TO.N,GND*%
X129370000Y-89840000D03*
D11*
%TO.P,J5,2,Pin_2*%
%TO.N,+5V*%
X131910000Y-89840000D03*
%TO.P,J5,3,Pin_3*%
%TO.N,GPIO25*%
X134450000Y-89840000D03*
%TO.P,J5,4,Pin_4*%
%TO.N,GPIO26*%
X136990000Y-89840000D03*
%TO.P,J5,5,Pin_5*%
%TO.N,GPIO27*%
X139530000Y-89840000D03*
%TO.P,J5,6,Pin_6*%
%TO.N,GPIO32*%
X142070000Y-89840000D03*
%TO.P,J5,7,Pin_7*%
%TO.N,GPIO33*%
X144610000Y-89840000D03*
%TO.P,J5,8,Pin_8*%
%TO.N,GPIO34*%
X147150000Y-89840000D03*
%TO.P,J5,9,Pin_9*%
%TO.N,GPIO35*%
X149690000Y-89840000D03*
%TO.P,J5,10,Pin_10*%
%TO.N,RX*%
X152230000Y-89840000D03*
%TO.P,J5,11,Pin_11*%
%TO.N,TX*%
X154770000Y-89840000D03*
%TD*%
D12*
%TO.P,J3,1,Pin_1*%
%TO.N,+ext_3V3*%
X153970000Y-103140000D03*
%TO.P,J3,2,Pin_2*%
%TO.N,GPIO39*%
X156510000Y-101060000D03*
%TO.P,J3,3,Pin_3*%
%TO.N,GND*%
X159050000Y-103140000D03*
%TO.P,J3,4,Pin_4*%
%TO.N,GPIO36*%
X161590000Y-101060000D03*
%TO.P,J3,5,Pin_5*%
%TO.N,TX*%
X164130000Y-103140000D03*
%TO.P,J3,6,Pin_6*%
%TO.N,RX*%
X166670000Y-101060000D03*
%TO.P,J3,7,Pin_7*%
%TO.N,GPIO18*%
X169210000Y-103140000D03*
%TO.P,J3,8,Pin_8*%
%TO.N,GPIO017*%
X171750000Y-101060000D03*
%TO.P,J3,9,Pin_9*%
%TO.N,unconnected-(J3-Pad9)*%
X174290000Y-103140000D03*
%TO.P,J3,10,Pin_10*%
%TO.N,GND*%
X176830000Y-101060000D03*
%TD*%
%TO.P,J2,1,Pin_1*%
%TO.N,+ext_5V*%
X118410000Y-103140000D03*
%TO.P,J2,2,Pin_2*%
%TO.N,GPIO23*%
X120950000Y-101060000D03*
%TO.P,J2,3,Pin_3*%
%TO.N,GPIO19*%
X123490000Y-103140000D03*
%TO.P,J2,4,Pin_4*%
%TO.N,GPIO18*%
X126030000Y-101060000D03*
%TO.P,J2,5,Pin_5*%
%TO.N,GPIO05*%
X128570000Y-103140000D03*
%TO.P,J2,6,Pin_6*%
%TO.N,FLP_GPIO_0*%
X131110000Y-101060000D03*
%TO.P,J2,7,Pin_7*%
%TO.N,RESET*%
X133650000Y-103140000D03*
%TO.P,J2,8,Pin_8*%
%TO.N,GND*%
X136190000Y-101060000D03*
%TD*%
D13*
%TO.N,GND*%
X175720000Y-101025000D03*
X159980000Y-103140000D03*
X135840000Y-98440000D03*
X178300000Y-90300000D03*
X137940000Y-98780000D03*
X135250000Y-99530000D03*
X177500000Y-91000000D03*
%TO.N,RESET*%
X149690000Y-98140000D03*
X152510000Y-93550000D03*
X174020000Y-92360000D03*
%TO.N,+3V3*%
X141790000Y-105362500D03*
X181060000Y-91010000D03*
X137125000Y-101325000D03*
X148660000Y-104890000D03*
X153250000Y-99850000D03*
X141780000Y-103360000D03*
X143250000Y-103325000D03*
X125800000Y-96950000D03*
X144340000Y-92630000D03*
X154950000Y-103120000D03*
X132340000Y-93130000D03*
X134790000Y-93570000D03*
X147390000Y-92560000D03*
X151610000Y-93620000D03*
X116100000Y-91460000D03*
%TO.N,+5V*%
X134850000Y-100960000D03*
X136200000Y-94825000D03*
%TO.N,GPIO39*%
X159980000Y-96860000D03*
%TO.N,GPIO34*%
X170210000Y-92143500D03*
%TO.N,GPIO35*%
X168940000Y-92143500D03*
%TO.N,GPIO32*%
X167670000Y-92143500D03*
%TO.N,GPIO33*%
X166400000Y-92143500D03*
%TO.N,GPIO25*%
X165130000Y-92143500D03*
%TO.N,GPIO26*%
X163860000Y-92143500D03*
%TO.N,GPIO27*%
X162590000Y-92143500D03*
%TO.N,TMS*%
X142430000Y-96970000D03*
X161330000Y-93350000D03*
%TO.N,TDI*%
X161270000Y-94210000D03*
X148290000Y-96380000D03*
%TO.N,TCK*%
X145349143Y-96379143D03*
X156280000Y-93880000D03*
%TO.N,GPIO02*%
X158650000Y-107575000D03*
%TO.N,GPIO04*%
X161325000Y-106975000D03*
X121490000Y-91360000D03*
%TO.N,GPIO16*%
X157150000Y-97430000D03*
X160620000Y-104610000D03*
%TO.N,GPIO17*%
X163850000Y-107500000D03*
%TO.N,GPIO05*%
X130912240Y-107802240D03*
X165110000Y-106950000D03*
%TO.N,GPIO18*%
X168340000Y-104480000D03*
X114600000Y-91350000D03*
X166400000Y-107500000D03*
X126030000Y-105600000D03*
%TO.N,GPIO19*%
X113320000Y-95630000D03*
X167675000Y-107500000D03*
X124330000Y-105050000D03*
%TO.N,GPIO21*%
X170200000Y-107500000D03*
%TO.N,TX*%
X160650000Y-95900000D03*
X171480000Y-107380000D03*
X153000000Y-90900000D03*
%TO.N,RX*%
X160050000Y-95340000D03*
X172770000Y-107360000D03*
%TO.N,GPIO22*%
X174020000Y-107430000D03*
%TO.N,GPIO23*%
X175290000Y-107450000D03*
X130300000Y-104920000D03*
X118430000Y-91370000D03*
%TO.N,Net-(IC2-Pad1)*%
X131990000Y-94620000D03*
X129320000Y-92600000D03*
%TO.N,+ext_3V3*%
X129745000Y-95355000D03*
%TO.N,+ext_5V*%
X118410000Y-100035000D03*
%TD*%
D14*
%TO.N,GND*%
X135840000Y-98460000D02*
X136190000Y-98810000D01*
D15*
X178300000Y-90300000D02*
X178200000Y-90300000D01*
D14*
X136220000Y-98780000D02*
X136190000Y-98810000D01*
D16*
X136190000Y-101060000D02*
X136190000Y-99720000D01*
D15*
X178200000Y-90300000D02*
X177500000Y-91000000D01*
D16*
X136190000Y-99720000D02*
X136000000Y-99530000D01*
D14*
X175720000Y-101025000D02*
X176795000Y-101025000D01*
D17*
X176795000Y-101025000D02*
X176830000Y-101060000D01*
X136190000Y-101060000D02*
X136190000Y-98865000D01*
D14*
X136190000Y-98810000D02*
X136190000Y-98865000D01*
X135840000Y-98440000D02*
X135840000Y-98460000D01*
D17*
X136190000Y-98810000D02*
X136190000Y-101060000D01*
D16*
X159050000Y-103140000D02*
X159980000Y-103140000D01*
D18*
X137940000Y-98780000D02*
X136220000Y-98780000D01*
D16*
X136000000Y-99530000D02*
X135250000Y-99530000D01*
D17*
X159085000Y-103175000D02*
X159050000Y-103140000D01*
D19*
%TO.N,RESET*%
X152510000Y-93550000D02*
X152822400Y-93237600D01*
X133650000Y-103700000D02*
X133650000Y-103140000D01*
X134150000Y-104200000D02*
X133650000Y-103700000D01*
X170050000Y-93200000D02*
X170890000Y-92360000D01*
X136530000Y-104200000D02*
X134150000Y-104200000D01*
X157071516Y-91924080D02*
X160739977Y-91924080D01*
X152822400Y-93237600D02*
X155757993Y-93237600D01*
X149662500Y-98112500D02*
X142617500Y-98112500D01*
X142617500Y-98112500D02*
X136530000Y-104200000D01*
X155757993Y-93237600D02*
X157071516Y-91924080D01*
X170890000Y-92360000D02*
X174020000Y-92360000D01*
X160739977Y-91924080D02*
X162015897Y-93200000D01*
X149690000Y-98140000D02*
X149662500Y-98112500D01*
X162015897Y-93200000D02*
X170050000Y-93200000D01*
D17*
%TO.N,+3V3*%
X132340000Y-93130000D02*
X132780000Y-93570000D01*
X131665000Y-109840000D02*
X131910000Y-109840000D01*
X132780000Y-93570000D02*
X134790000Y-93570000D01*
%TO.N,+5V*%
X132209520Y-90139520D02*
X131910000Y-90139520D01*
X133810000Y-97215000D02*
X136200000Y-94825000D01*
X133810000Y-98050000D02*
X133810000Y-97215000D01*
X133810000Y-99160000D02*
X133810000Y-98050000D01*
X136200000Y-94825000D02*
X136200000Y-94130000D01*
X136200000Y-94130000D02*
X132209520Y-90139520D01*
X134850000Y-100960000D02*
X134850000Y-100200000D01*
X134850000Y-100200000D02*
X133810000Y-99160000D01*
D19*
%TO.N,GPIO39*%
X157000000Y-96860000D02*
X156610000Y-97250000D01*
X156610000Y-100960000D02*
X156510000Y-101060000D01*
X156610000Y-97250000D02*
X156610000Y-100960000D01*
X159980000Y-96860000D02*
X157000000Y-96860000D01*
%TO.N,GPIO34*%
X170210000Y-92143500D02*
X170196500Y-92143500D01*
X155128532Y-91710000D02*
X149870000Y-91710000D01*
X168670000Y-92780000D02*
X168280000Y-92390000D01*
X147486980Y-90440000D02*
X147150000Y-90103020D01*
X168280000Y-90933520D02*
X167740000Y-90393520D01*
X149870000Y-91710000D02*
X148600000Y-90440000D01*
X170196500Y-92143500D02*
X169560000Y-92780000D01*
X148600000Y-90440000D02*
X147486980Y-90440000D01*
X156445012Y-90393520D02*
X155128532Y-91710000D01*
X169560000Y-92780000D02*
X168670000Y-92780000D01*
X168280000Y-92390000D02*
X168280000Y-90933520D01*
X167740000Y-90393520D02*
X156445012Y-90393520D01*
%TO.N,GPIO35*%
X155050000Y-91430000D02*
X151016980Y-91430000D01*
X168940000Y-91230000D02*
X167850000Y-90140000D01*
X168940000Y-92143500D02*
X168940000Y-91230000D01*
X167850000Y-90140000D02*
X156340000Y-90140000D01*
X156340000Y-90140000D02*
X155050000Y-91430000D01*
X151016980Y-91430000D02*
X149690000Y-90103020D01*
%TO.N,GPIO32*%
X165730000Y-92370000D02*
X165730000Y-91140000D01*
X167160000Y-92770000D02*
X166130000Y-92770000D01*
X167670000Y-92260000D02*
X167160000Y-92770000D01*
X148625734Y-91254266D02*
X144265734Y-91254266D01*
X155336480Y-92223520D02*
X149594988Y-92223520D01*
X143114488Y-90103020D02*
X142070000Y-90103020D01*
X166130000Y-92770000D02*
X165730000Y-92370000D01*
X149594988Y-92223520D02*
X148625734Y-91254266D01*
X156650000Y-90910000D02*
X155336480Y-92223520D01*
X165500000Y-90910000D02*
X156650000Y-90910000D01*
X165730000Y-91140000D02*
X165500000Y-90910000D01*
X167670000Y-92143500D02*
X167670000Y-92260000D01*
X144265734Y-91254266D02*
X143114488Y-90103020D01*
%TO.N,GPIO33*%
X165687040Y-90647040D02*
X156550024Y-90647040D01*
X155227064Y-91970000D02*
X149700000Y-91970000D01*
X166400000Y-92143500D02*
X166400000Y-91360000D01*
X166400000Y-91360000D02*
X165687040Y-90647040D01*
X148730000Y-91000000D02*
X145506980Y-91000000D01*
X145506980Y-91000000D02*
X144610000Y-90103020D01*
X149700000Y-91970000D02*
X148730000Y-91000000D01*
X156550024Y-90647040D02*
X155227064Y-91970000D01*
%TO.N,GPIO25*%
X164646500Y-92143500D02*
X163846480Y-92943520D01*
X163846480Y-92943520D02*
X162117948Y-92943520D01*
X165130000Y-92143500D02*
X164646500Y-92143500D01*
X136300000Y-90900000D02*
X135503020Y-90103020D01*
X149263508Y-92984080D02*
X148300000Y-92020572D01*
X162117948Y-92943520D02*
X161969440Y-92795011D01*
X143928520Y-92020572D02*
X143518974Y-91611026D01*
X160844989Y-91670560D02*
X156966504Y-91670560D01*
X140966456Y-91243520D02*
X139034988Y-91243520D01*
X139034988Y-91243520D02*
X138691468Y-90900000D01*
X148300000Y-92020572D02*
X143928520Y-92020572D01*
X141333963Y-91611026D02*
X140966456Y-91243520D01*
X155652982Y-92984080D02*
X149263508Y-92984080D01*
X143518974Y-91611026D02*
X141333963Y-91611026D01*
X138691468Y-90900000D02*
X136300000Y-90900000D01*
X135503020Y-90103020D02*
X134450000Y-90103020D01*
X156966504Y-91670560D02*
X155652982Y-92984080D01*
X161969440Y-92795011D02*
X160844989Y-91670560D01*
%TO.N,GPIO26*%
X160950000Y-91417040D02*
X156861492Y-91417040D01*
X163860000Y-92150000D02*
X163320000Y-92690000D01*
X156861492Y-91417040D02*
X155547971Y-92730560D01*
X144033532Y-91767052D02*
X143620000Y-91353520D01*
X143620000Y-91353520D02*
X141434988Y-91353520D01*
X155547971Y-92730560D02*
X149384964Y-92730560D01*
X139140000Y-90990000D02*
X138253020Y-90103020D01*
X148421456Y-91767052D02*
X144033532Y-91767052D01*
X141071468Y-90990000D02*
X139140000Y-90990000D01*
X138253020Y-90103020D02*
X136990000Y-90103020D01*
X162222960Y-92690000D02*
X160950000Y-91417040D01*
X141434988Y-91353520D02*
X141071468Y-90990000D01*
X149384964Y-92730560D02*
X148421456Y-91767052D01*
X163860000Y-92143500D02*
X163860000Y-92150000D01*
X163320000Y-92690000D02*
X162222960Y-92690000D01*
%TO.N,GPIO27*%
X148526468Y-91513532D02*
X144166469Y-91513532D01*
X162590000Y-91690000D02*
X162063520Y-91163520D01*
X162063520Y-91163520D02*
X156756480Y-91163520D01*
X162590000Y-92143500D02*
X162590000Y-91690000D01*
X143752937Y-91100000D02*
X141540000Y-91100000D01*
X155442960Y-92477040D02*
X149489976Y-92477040D01*
X140543020Y-90103020D02*
X139530000Y-90103020D01*
X144166469Y-91513532D02*
X143752937Y-91100000D01*
X156756480Y-91163520D02*
X155442960Y-92477040D01*
X141540000Y-91100000D02*
X140543020Y-90103020D01*
X149489976Y-92477040D02*
X148526468Y-91513532D01*
%TO.N,TMS*%
X160160000Y-94520000D02*
X161330000Y-93350000D01*
X142430000Y-96970000D02*
X145660000Y-96970000D01*
X145660000Y-96970000D02*
X148110000Y-94520000D01*
X148110000Y-94520000D02*
X160160000Y-94520000D01*
%TO.N,TDI*%
X149756480Y-94773520D02*
X160706480Y-94773520D01*
X160706480Y-94773520D02*
X161270000Y-94210000D01*
X148290000Y-96380000D02*
X148290000Y-96240000D01*
X148290000Y-96240000D02*
X149756480Y-94773520D01*
%TO.N,TCK*%
X147468286Y-94260000D02*
X145349143Y-96379143D01*
X152118751Y-94266480D02*
X152112271Y-94260000D01*
X156280000Y-93880000D02*
X155893520Y-94266480D01*
X155893520Y-94266480D02*
X152118751Y-94266480D01*
X152112271Y-94260000D02*
X147468286Y-94260000D01*
%TO.N,GPIO02*%
X156599632Y-107575000D02*
X156149632Y-107125000D01*
X156149632Y-107125000D02*
X142295000Y-107125000D01*
X158650000Y-107575000D02*
X156599632Y-107575000D01*
X142295000Y-107125000D02*
X139530000Y-109890000D01*
%TO.N,GPIO04*%
X161060000Y-106710000D02*
X161325000Y-106975000D01*
X131840000Y-98300000D02*
X131840000Y-106855736D01*
X156444264Y-106570000D02*
X156584264Y-106710000D01*
X121490000Y-91360000D02*
X121500000Y-91350000D01*
X131840000Y-106855736D02*
X132959264Y-107975000D01*
X138995000Y-107975000D02*
X140400000Y-106570000D01*
X132959264Y-107975000D02*
X138995000Y-107975000D01*
X124890000Y-91350000D02*
X131840000Y-98300000D01*
X156584264Y-106710000D02*
X161060000Y-106710000D01*
X121500000Y-91350000D02*
X124890000Y-91350000D01*
X140400000Y-106570000D02*
X156444264Y-106570000D01*
%TO.N,GPIO16*%
X159000000Y-97430000D02*
X160620000Y-99050000D01*
X160620000Y-99050000D02*
X160620000Y-104610000D01*
X157150000Y-97430000D02*
X159000000Y-97430000D01*
%TO.N,GPIO17*%
X163299632Y-108050368D02*
X156647424Y-108050368D01*
X156022056Y-107425000D02*
X144535000Y-107425000D01*
X144535000Y-107425000D02*
X142070000Y-109890000D01*
X156647424Y-108050368D02*
X156022056Y-107425000D01*
X163850000Y-107500000D02*
X163299632Y-108050368D01*
%TO.N,GPIO05*%
X130912240Y-107802240D02*
X128570000Y-105460000D01*
X159569338Y-107750368D02*
X158868970Y-107050000D01*
X137683020Y-109676980D02*
X136990000Y-109676980D01*
X163610000Y-106950000D02*
X162809632Y-107750368D01*
X140490000Y-106870000D02*
X137683020Y-109676980D01*
X156500000Y-107050000D02*
X156320000Y-106870000D01*
X158868970Y-107050000D02*
X156500000Y-107050000D01*
X162809632Y-107750368D02*
X159569338Y-107750368D01*
X165110000Y-106950000D02*
X163610000Y-106950000D01*
X128570000Y-105460000D02*
X128570000Y-103140000D01*
X156320000Y-106870000D02*
X140490000Y-106870000D01*
%TO.N,GPIO18*%
X121400000Y-104200000D02*
X121680000Y-103920000D01*
X114600000Y-92574264D02*
X120200000Y-98174264D01*
X123305000Y-97925000D02*
X125775000Y-97925000D01*
X156523160Y-108350368D02*
X155897792Y-107725000D01*
X155897792Y-107725000D02*
X146775000Y-107725000D01*
X146775000Y-107725000D02*
X144610000Y-109890000D01*
X121680000Y-99550000D02*
X123305000Y-97925000D01*
X166400000Y-108125000D02*
X166174632Y-108350368D01*
X120200000Y-103925000D02*
X120475000Y-104200000D01*
X168340000Y-104480000D02*
X169210000Y-103610000D01*
X166174632Y-108350368D02*
X156523160Y-108350368D01*
X114600000Y-91350000D02*
X114600000Y-92574264D01*
X120200000Y-98174264D02*
X120200000Y-103925000D01*
X125775000Y-97925000D02*
X126030000Y-98180000D01*
X166400000Y-107500000D02*
X166400000Y-108125000D01*
X126030000Y-101060000D02*
X126030000Y-105600000D01*
X121680000Y-103920000D02*
X121680000Y-99550000D01*
X126030000Y-98180000D02*
X126030000Y-101060000D01*
X120475000Y-104200000D02*
X121400000Y-104200000D01*
X169210000Y-103610000D02*
X169210000Y-103140000D01*
%TO.N,GPIO19*%
X113320000Y-95630000D02*
X113325000Y-95625000D01*
X122884264Y-103140000D02*
X123490000Y-103140000D01*
X121524264Y-104500000D02*
X122884264Y-103140000D01*
X155773528Y-108025000D02*
X149015000Y-108025000D01*
X166999632Y-108650368D02*
X156398896Y-108650368D01*
X167675000Y-107975000D02*
X166999632Y-108650368D01*
X124330000Y-105050000D02*
X123490000Y-104210000D01*
X119900000Y-104049264D02*
X120350736Y-104500000D01*
X156398896Y-108650368D02*
X155773528Y-108025000D01*
X113325000Y-95625000D02*
X117226472Y-95625000D01*
X149015000Y-108025000D02*
X147150000Y-109890000D01*
X119900000Y-98298528D02*
X119900000Y-104049264D01*
X120350736Y-104500000D02*
X121524264Y-104500000D01*
X123490000Y-104210000D02*
X123490000Y-103140000D01*
X117226472Y-95625000D02*
X119900000Y-98298528D01*
X167675000Y-107500000D02*
X167675000Y-107975000D01*
%TO.N,GPIO21*%
X170200000Y-108075000D02*
X169324632Y-108950368D01*
X156274632Y-108950368D02*
X155649264Y-108325000D01*
X169324632Y-108950368D02*
X156274632Y-108950368D01*
X170200000Y-107500000D02*
X170200000Y-108075000D01*
X151255000Y-108325000D02*
X149690000Y-109890000D01*
X155649264Y-108325000D02*
X151255000Y-108325000D01*
%TO.N,TX*%
X171480000Y-107380000D02*
X171480000Y-107370000D01*
X153796980Y-90103020D02*
X154770000Y-90103020D01*
X170430000Y-106530000D02*
X167520000Y-106530000D01*
X162930000Y-95900000D02*
X164130000Y-97100000D01*
X167520000Y-106530000D02*
X164130000Y-103140000D01*
X160650000Y-95900000D02*
X162930000Y-95900000D01*
X170640000Y-106530000D02*
X170430000Y-106530000D01*
X153000000Y-90900000D02*
X153796980Y-90103020D01*
X171480000Y-107370000D02*
X170640000Y-106530000D01*
X164130000Y-97100000D02*
X164130000Y-103140000D01*
%TO.N,RX*%
X165970000Y-95360000D02*
X166670000Y-96060000D01*
X160050000Y-95340000D02*
X160070000Y-95360000D01*
X168110000Y-106180000D02*
X166670000Y-104740000D01*
X166670000Y-104740000D02*
X166670000Y-101060000D01*
X171590000Y-106180000D02*
X168110000Y-106180000D01*
X160070000Y-95360000D02*
X165970000Y-95360000D01*
X172770000Y-107360000D02*
X171590000Y-106180000D01*
X166670000Y-96060000D02*
X166670000Y-101060000D01*
%TO.N,GPIO22*%
X153495000Y-108625000D02*
X152230000Y-109890000D01*
X174020000Y-108455736D02*
X174020000Y-107430000D01*
X173225368Y-109250368D02*
X156150368Y-109250368D01*
X156150368Y-109250368D02*
X155525000Y-108625000D01*
X174020000Y-108455736D02*
X173225368Y-109250368D01*
X155525000Y-108625000D02*
X153495000Y-108625000D01*
%TO.N,GPIO23*%
X173350000Y-109550000D02*
X175290000Y-107610000D01*
X120950000Y-98825000D02*
X120950000Y-101060000D01*
X155600000Y-109550000D02*
X155310020Y-109839980D01*
X173350000Y-109550000D02*
X155600000Y-109550000D01*
X122150000Y-97625000D02*
X120950000Y-98825000D01*
X155310020Y-109839980D02*
X154770000Y-109839980D01*
X130300000Y-100025000D02*
X127900000Y-97625000D01*
X120950000Y-98500000D02*
X120950000Y-101060000D01*
X127900000Y-97625000D02*
X122150000Y-97625000D01*
X175290000Y-107610000D02*
X175290000Y-107450000D01*
X117825000Y-95375000D02*
X120950000Y-98500000D01*
X117825000Y-91975000D02*
X117825000Y-95375000D01*
X130300000Y-104920000D02*
X130300000Y-100025000D01*
X118430000Y-91370000D02*
X117825000Y-91975000D01*
%TO.N,Net-(IC2-Pad1)*%
X129970000Y-92600000D02*
X131990000Y-94620000D01*
X129320000Y-92600000D02*
X129970000Y-92600000D01*
D17*
%TO.N,+ext_3V3*%
X132150000Y-97760000D02*
X132150000Y-106530000D01*
X129745000Y-95355000D02*
X132150000Y-97760000D01*
X141100000Y-103925000D02*
X143425000Y-103925000D01*
X133210000Y-107590000D02*
X137435000Y-107590000D01*
X132150000Y-106530000D02*
X133210000Y-107590000D01*
X143425000Y-103925000D02*
X144210000Y-103140000D01*
X137435000Y-107590000D02*
X141100000Y-103925000D01*
X144210000Y-103140000D02*
X153970000Y-103140000D01*
%TO.N,+ext_5V*%
X118410000Y-103140000D02*
X118410000Y-100035000D01*
X118410000Y-100035000D02*
X118400000Y-100025000D01*
D19*
%TO.N,FLP_GPIO_0*%
X131110000Y-101060000D02*
X131110000Y-106550000D01*
X131110000Y-106550000D02*
X134450000Y-109890000D01*
%TD*%
%TA.AperFunction,Conductor*%
%TO.N,+3V3*%
G36*
X128394145Y-90059407D02*
G01*
X128431119Y-90112212D01*
X128438675Y-90138562D01*
X128456746Y-90201583D01*
X128483641Y-90253915D01*
X128533439Y-90350812D01*
X128544370Y-90372082D01*
X128663443Y-90522314D01*
X128809428Y-90646557D01*
X128813651Y-90648917D01*
X128813655Y-90648920D01*
X128902683Y-90698676D01*
X128976765Y-90740079D01*
X128981363Y-90741573D01*
X129154476Y-90797821D01*
X129154478Y-90797822D01*
X129159081Y-90799317D01*
X129349430Y-90822015D01*
X129354252Y-90821644D01*
X129354255Y-90821644D01*
X129535734Y-90807680D01*
X129535739Y-90807679D01*
X129540562Y-90807308D01*
X129725199Y-90755756D01*
X129729618Y-90753524D01*
X129891984Y-90671507D01*
X129891986Y-90671506D01*
X129896305Y-90669324D01*
X129911054Y-90657801D01*
X130043550Y-90554284D01*
X130043552Y-90554282D01*
X130047365Y-90551303D01*
X130050521Y-90547647D01*
X130050526Y-90547642D01*
X130143649Y-90439757D01*
X130172624Y-90406189D01*
X130258456Y-90255098D01*
X130264923Y-90243715D01*
X130264924Y-90243712D01*
X130267312Y-90239509D01*
X130270445Y-90230093D01*
X130310976Y-90108251D01*
X130347285Y-90059003D01*
X130404915Y-90040500D01*
X130875954Y-90040500D01*
X130934145Y-90059407D01*
X130971119Y-90112212D01*
X130978675Y-90138562D01*
X130996746Y-90201583D01*
X131023641Y-90253915D01*
X131073439Y-90350812D01*
X131084370Y-90372082D01*
X131203443Y-90522314D01*
X131349428Y-90646557D01*
X131353651Y-90648917D01*
X131353655Y-90648920D01*
X131442683Y-90698676D01*
X131516765Y-90740079D01*
X131521363Y-90741573D01*
X131694476Y-90797821D01*
X131694478Y-90797822D01*
X131699081Y-90799317D01*
X131889430Y-90822015D01*
X131894252Y-90821644D01*
X131894255Y-90821644D01*
X132075734Y-90807680D01*
X132075739Y-90807679D01*
X132080562Y-90807308D01*
X132265199Y-90755756D01*
X132332337Y-90721842D01*
X132359905Y-90707917D01*
X132420371Y-90698557D01*
X132474546Y-90726279D01*
X134209114Y-92460848D01*
X135943504Y-94195238D01*
X135971281Y-94249755D01*
X135972500Y-94265242D01*
X135972500Y-94411159D01*
X135953593Y-94469350D01*
X135943504Y-94481163D01*
X135852292Y-94572375D01*
X135848754Y-94579319D01*
X135848753Y-94579320D01*
X135794782Y-94685243D01*
X135791244Y-94692187D01*
X135770209Y-94825000D01*
X135771428Y-94832697D01*
X135777092Y-94868461D01*
X135767520Y-94928893D01*
X135749315Y-94953951D01*
X133655157Y-97048109D01*
X133651397Y-97051676D01*
X133633169Y-97068089D01*
X133621837Y-97078292D01*
X133612619Y-97098996D01*
X133605207Y-97112647D01*
X133598532Y-97122924D01*
X133598531Y-97122927D01*
X133592866Y-97131650D01*
X133591239Y-97141925D01*
X133588387Y-97149354D01*
X133586733Y-97157136D01*
X133582500Y-97166643D01*
X133582500Y-97189309D01*
X133581281Y-97204796D01*
X133579657Y-97215051D01*
X133577737Y-97227172D01*
X133580430Y-97237221D01*
X133580868Y-97245583D01*
X133582500Y-97257983D01*
X133582500Y-99151471D01*
X133582364Y-99156652D01*
X133580826Y-99185993D01*
X133580826Y-99185995D01*
X133580282Y-99196384D01*
X133584010Y-99206096D01*
X133584010Y-99206097D01*
X133588404Y-99217544D01*
X133592814Y-99232433D01*
X133597526Y-99254600D01*
X133603642Y-99263019D01*
X133606878Y-99270286D01*
X133611211Y-99276958D01*
X133614940Y-99286673D01*
X133630964Y-99302697D01*
X133641053Y-99314510D01*
X133654372Y-99332842D01*
X133663388Y-99338048D01*
X133669614Y-99343653D01*
X133679525Y-99351258D01*
X134593504Y-100265238D01*
X134621281Y-100319755D01*
X134622500Y-100335242D01*
X134622500Y-100546159D01*
X134603593Y-100604350D01*
X134593504Y-100616163D01*
X134502292Y-100707375D01*
X134498754Y-100714319D01*
X134498753Y-100714320D01*
X134444709Y-100820387D01*
X134401445Y-100863652D01*
X134341013Y-100873223D01*
X134286496Y-100845445D01*
X134258719Y-100790929D01*
X134257500Y-100775442D01*
X134257500Y-100407442D01*
X134250102Y-100370252D01*
X134221922Y-100328078D01*
X134179748Y-100299898D01*
X134170187Y-100297996D01*
X134147320Y-100293447D01*
X134147317Y-100293447D01*
X134142558Y-100292500D01*
X133157442Y-100292500D01*
X133152683Y-100293447D01*
X133152680Y-100293447D01*
X133129813Y-100297996D01*
X133120252Y-100299898D01*
X133078078Y-100328078D01*
X133049898Y-100370252D01*
X133042500Y-100407442D01*
X133042500Y-105872558D01*
X133049898Y-105909748D01*
X133078078Y-105951922D01*
X133120252Y-105980102D01*
X133129813Y-105982004D01*
X133152680Y-105986553D01*
X133152683Y-105986553D01*
X133157442Y-105987500D01*
X134142558Y-105987500D01*
X134147317Y-105986553D01*
X134147320Y-105986553D01*
X134170187Y-105982004D01*
X134179748Y-105980102D01*
X134221922Y-105951922D01*
X134250102Y-105909748D01*
X134257500Y-105872558D01*
X134257500Y-104490000D01*
X134276407Y-104431809D01*
X134325907Y-104395845D01*
X134356500Y-104391000D01*
X136492052Y-104391000D01*
X136498460Y-104391364D01*
X136507822Y-104394652D01*
X136535185Y-104391607D01*
X136545828Y-104391017D01*
X136545979Y-104391000D01*
X136551533Y-104391000D01*
X136556951Y-104389764D01*
X136557495Y-104389703D01*
X136567485Y-104388013D01*
X136594429Y-104385014D01*
X136603003Y-104379647D01*
X136604098Y-104379332D01*
X136605095Y-104378783D01*
X136614959Y-104376532D01*
X136636152Y-104359644D01*
X136644632Y-104353640D01*
X136644963Y-104353377D01*
X136649711Y-104350404D01*
X136653671Y-104346444D01*
X136653882Y-104346276D01*
X136661783Y-104339219D01*
X136674391Y-104329172D01*
X136683109Y-104322225D01*
X136687478Y-104313167D01*
X136691945Y-104308170D01*
X139678708Y-101321407D01*
X142667618Y-98332496D01*
X142722135Y-98304719D01*
X142737622Y-98303500D01*
X149236214Y-98303500D01*
X149294405Y-98322407D01*
X149324421Y-98357551D01*
X149342292Y-98392625D01*
X149437375Y-98487708D01*
X149444319Y-98491246D01*
X149444320Y-98491247D01*
X149494117Y-98516620D01*
X149557187Y-98548756D01*
X149564882Y-98549975D01*
X149564883Y-98549975D01*
X149682303Y-98568572D01*
X149690000Y-98569791D01*
X149697697Y-98568572D01*
X149815117Y-98549975D01*
X149815118Y-98549975D01*
X149822813Y-98548756D01*
X149885883Y-98516620D01*
X149935680Y-98491247D01*
X149935681Y-98491246D01*
X149942625Y-98487708D01*
X150037708Y-98392625D01*
X150055578Y-98357555D01*
X150095218Y-98279757D01*
X150095218Y-98279756D01*
X150098756Y-98272813D01*
X150108159Y-98213447D01*
X150118572Y-98147697D01*
X150119791Y-98140000D01*
X150113141Y-98098013D01*
X150099975Y-98014883D01*
X150099975Y-98014882D01*
X150098756Y-98007187D01*
X150067372Y-97945593D01*
X150041247Y-97894320D01*
X150041246Y-97894319D01*
X150037708Y-97887375D01*
X149942625Y-97792292D01*
X149935681Y-97788754D01*
X149935680Y-97788753D01*
X149829757Y-97734782D01*
X149829756Y-97734782D01*
X149822813Y-97731244D01*
X149815118Y-97730025D01*
X149815117Y-97730025D01*
X149697697Y-97711428D01*
X149690000Y-97710209D01*
X149682303Y-97711428D01*
X149564883Y-97730025D01*
X149564882Y-97730025D01*
X149557187Y-97731244D01*
X149550244Y-97734782D01*
X149550243Y-97734782D01*
X149444320Y-97788753D01*
X149444319Y-97788754D01*
X149437375Y-97792292D01*
X149342292Y-97887375D01*
X149341097Y-97886180D01*
X149299160Y-97916653D01*
X149268562Y-97921500D01*
X142655448Y-97921500D01*
X142649040Y-97921136D01*
X142639678Y-97917848D01*
X142612316Y-97920893D01*
X142601672Y-97921483D01*
X142601521Y-97921500D01*
X142595967Y-97921500D01*
X142590549Y-97922736D01*
X142590005Y-97922797D01*
X142580015Y-97924487D01*
X142553071Y-97927486D01*
X142544497Y-97932853D01*
X142543402Y-97933168D01*
X142542405Y-97933717D01*
X142532541Y-97935968D01*
X142523823Y-97942915D01*
X142511351Y-97952854D01*
X142502868Y-97958860D01*
X142502537Y-97959123D01*
X142497789Y-97962096D01*
X142493829Y-97966056D01*
X142493618Y-97966224D01*
X142485718Y-97973280D01*
X142464391Y-97990275D01*
X142460022Y-97999333D01*
X142455555Y-98004330D01*
X136966504Y-103493381D01*
X136911987Y-103521158D01*
X136851555Y-103511587D01*
X136808290Y-103468322D01*
X136797500Y-103423377D01*
X136797500Y-99506500D01*
X136816407Y-99448309D01*
X136865907Y-99412345D01*
X136896500Y-99407500D01*
X137979476Y-99407500D01*
X138067452Y-99396386D01*
X138091112Y-99393397D01*
X138091113Y-99393397D01*
X138097293Y-99392616D01*
X138244703Y-99334253D01*
X138372967Y-99241063D01*
X138474026Y-99118903D01*
X138541531Y-98975449D01*
X138571239Y-98819714D01*
X138561284Y-98661484D01*
X138531095Y-98568572D01*
X138514215Y-98516620D01*
X138514214Y-98516617D01*
X138512291Y-98510700D01*
X138508958Y-98505447D01*
X138508956Y-98505444D01*
X138444047Y-98403164D01*
X138427340Y-98376838D01*
X138422803Y-98372578D01*
X138422801Y-98372575D01*
X138316310Y-98272573D01*
X138316309Y-98272572D01*
X138311767Y-98268307D01*
X138259265Y-98239444D01*
X138178292Y-98194928D01*
X138178288Y-98194927D01*
X138172834Y-98191928D01*
X138019272Y-98152500D01*
X136193841Y-98152500D01*
X136135650Y-98133593D01*
X136123837Y-98123504D01*
X136092625Y-98092292D01*
X136085681Y-98088754D01*
X136085680Y-98088753D01*
X135979757Y-98034782D01*
X135979756Y-98034782D01*
X135972813Y-98031244D01*
X135965118Y-98030025D01*
X135965117Y-98030025D01*
X135847697Y-98011428D01*
X135840000Y-98010209D01*
X135832303Y-98011428D01*
X135714883Y-98030025D01*
X135714882Y-98030025D01*
X135707187Y-98031244D01*
X135700244Y-98034782D01*
X135700243Y-98034782D01*
X135594320Y-98088753D01*
X135594319Y-98088754D01*
X135587375Y-98092292D01*
X135492292Y-98187375D01*
X135488754Y-98194319D01*
X135488753Y-98194320D01*
X135444002Y-98282148D01*
X135431244Y-98307187D01*
X135430025Y-98314882D01*
X135430025Y-98314883D01*
X135423267Y-98357555D01*
X135410209Y-98440000D01*
X135411428Y-98447697D01*
X135421407Y-98510700D01*
X135431244Y-98572813D01*
X135434782Y-98579756D01*
X135434782Y-98579757D01*
X135476425Y-98661484D01*
X135492292Y-98692625D01*
X135553504Y-98753837D01*
X135581281Y-98808354D01*
X135582500Y-98823841D01*
X135582500Y-99053500D01*
X135563593Y-99111691D01*
X135514093Y-99147655D01*
X135483500Y-99152500D01*
X135467925Y-99152500D01*
X135422980Y-99141710D01*
X135389753Y-99124780D01*
X135389752Y-99124780D01*
X135382813Y-99121244D01*
X135375120Y-99120026D01*
X135375118Y-99120025D01*
X135257697Y-99101428D01*
X135250000Y-99100209D01*
X135242303Y-99101428D01*
X135124883Y-99120025D01*
X135124882Y-99120025D01*
X135117187Y-99121244D01*
X135110244Y-99124782D01*
X135110243Y-99124782D01*
X135004320Y-99178753D01*
X135004319Y-99178754D01*
X134997375Y-99182292D01*
X134902292Y-99277375D01*
X134898754Y-99284319D01*
X134898753Y-99284320D01*
X134868521Y-99343653D01*
X134841244Y-99397187D01*
X134820209Y-99530000D01*
X134831315Y-99600119D01*
X134832479Y-99607469D01*
X134822908Y-99667901D01*
X134779643Y-99711166D01*
X134719211Y-99720737D01*
X134664694Y-99692960D01*
X134066496Y-99094762D01*
X134038719Y-99040245D01*
X134037500Y-99024758D01*
X134037500Y-97350241D01*
X134056407Y-97292050D01*
X134066496Y-97280237D01*
X136071049Y-95275685D01*
X136125566Y-95247908D01*
X136156539Y-95247908D01*
X136192303Y-95253572D01*
X136200000Y-95254791D01*
X136207697Y-95253572D01*
X136325117Y-95234975D01*
X136325118Y-95234975D01*
X136332813Y-95233756D01*
X136339757Y-95230218D01*
X136445680Y-95176247D01*
X136445681Y-95176246D01*
X136452625Y-95172708D01*
X136547708Y-95077625D01*
X136561891Y-95049791D01*
X136605218Y-94964757D01*
X136605218Y-94964756D01*
X136608756Y-94957813D01*
X136611086Y-94943105D01*
X136628572Y-94832697D01*
X136629791Y-94825000D01*
X136608756Y-94692187D01*
X136605218Y-94685243D01*
X136551247Y-94579320D01*
X136551246Y-94579319D01*
X136547708Y-94572375D01*
X136456496Y-94481163D01*
X136428719Y-94426646D01*
X136427500Y-94411159D01*
X136427500Y-94138541D01*
X136427636Y-94133359D01*
X136428295Y-94120781D01*
X136429719Y-94093616D01*
X136421595Y-94072452D01*
X136417188Y-94057576D01*
X136412474Y-94035400D01*
X136406357Y-94026980D01*
X136403119Y-94019709D01*
X136398788Y-94013040D01*
X136395060Y-94003327D01*
X136379036Y-93987303D01*
X136368947Y-93975490D01*
X136361745Y-93965578D01*
X136355628Y-93957158D01*
X136346612Y-93951952D01*
X136340386Y-93946347D01*
X136330475Y-93938742D01*
X132796854Y-90405120D01*
X132769077Y-90350603D01*
X132780779Y-90286215D01*
X132783057Y-90282206D01*
X132807312Y-90239509D01*
X132810445Y-90230093D01*
X132850976Y-90108251D01*
X132887285Y-90059003D01*
X132944915Y-90040500D01*
X133415954Y-90040500D01*
X133474145Y-90059407D01*
X133511119Y-90112212D01*
X133518675Y-90138562D01*
X133536746Y-90201583D01*
X133563641Y-90253915D01*
X133613439Y-90350812D01*
X133624370Y-90372082D01*
X133743443Y-90522314D01*
X133889428Y-90646557D01*
X133893651Y-90648917D01*
X133893655Y-90648920D01*
X133982683Y-90698676D01*
X134056765Y-90740079D01*
X134061363Y-90741573D01*
X134234476Y-90797821D01*
X134234478Y-90797822D01*
X134239081Y-90799317D01*
X134429430Y-90822015D01*
X134434252Y-90821644D01*
X134434255Y-90821644D01*
X134615734Y-90807680D01*
X134615739Y-90807679D01*
X134620562Y-90807308D01*
X134805199Y-90755756D01*
X134809618Y-90753524D01*
X134971984Y-90671507D01*
X134971986Y-90671506D01*
X134976305Y-90669324D01*
X134991054Y-90657801D01*
X135123550Y-90554284D01*
X135123552Y-90554282D01*
X135127365Y-90551303D01*
X135130521Y-90547647D01*
X135130526Y-90547642D01*
X135223649Y-90439757D01*
X135252624Y-90406189D01*
X135255019Y-90401974D01*
X135269844Y-90375876D01*
X135287884Y-90344120D01*
X135333067Y-90302862D01*
X135373964Y-90294020D01*
X135382897Y-90294020D01*
X135441088Y-90312927D01*
X135452901Y-90323016D01*
X136138109Y-91008224D01*
X136142383Y-91013013D01*
X136146678Y-91021958D01*
X136155382Y-91028919D01*
X136155383Y-91028920D01*
X136168178Y-91039152D01*
X136176122Y-91046261D01*
X136176241Y-91046356D01*
X136180169Y-91050284D01*
X136184878Y-91053244D01*
X136185311Y-91053589D01*
X136193566Y-91059456D01*
X136206024Y-91069419D01*
X136206026Y-91069420D01*
X136214733Y-91076383D01*
X136224591Y-91078650D01*
X136225590Y-91079203D01*
X136226684Y-91079519D01*
X136235248Y-91084902D01*
X136259230Y-91087613D01*
X136262174Y-91087946D01*
X136272411Y-91089696D01*
X136272837Y-91089744D01*
X136278297Y-91091000D01*
X136283902Y-91091000D01*
X136284184Y-91091032D01*
X136294735Y-91091627D01*
X136321838Y-91094691D01*
X136331335Y-91091374D01*
X136338031Y-91091000D01*
X138571345Y-91091000D01*
X138629536Y-91109907D01*
X138641349Y-91119996D01*
X138873097Y-91351744D01*
X138877371Y-91356533D01*
X138881666Y-91365478D01*
X138890370Y-91372439D01*
X138890371Y-91372440D01*
X138903166Y-91382672D01*
X138911110Y-91389781D01*
X138911229Y-91389876D01*
X138915157Y-91393804D01*
X138919866Y-91396764D01*
X138920299Y-91397109D01*
X138928554Y-91402976D01*
X138941012Y-91412939D01*
X138941014Y-91412940D01*
X138949721Y-91419903D01*
X138959579Y-91422170D01*
X138960578Y-91422723D01*
X138961672Y-91423039D01*
X138970236Y-91428422D01*
X138997186Y-91431469D01*
X139007417Y-91433219D01*
X139007832Y-91433266D01*
X139013285Y-91434520D01*
X139018885Y-91434520D01*
X139019158Y-91434551D01*
X139029724Y-91435147D01*
X139056827Y-91438211D01*
X139066324Y-91434894D01*
X139073020Y-91434520D01*
X140846334Y-91434520D01*
X140904525Y-91453427D01*
X140916337Y-91463516D01*
X141172067Y-91719245D01*
X141176346Y-91724039D01*
X141180641Y-91732984D01*
X141189345Y-91739945D01*
X141189346Y-91739946D01*
X141202141Y-91750178D01*
X141210090Y-91757291D01*
X141210204Y-91757382D01*
X141214132Y-91761310D01*
X141218833Y-91764265D01*
X141219265Y-91764609D01*
X141227532Y-91770484D01*
X141230877Y-91773159D01*
X141248696Y-91787409D01*
X141258554Y-91789676D01*
X141259552Y-91790229D01*
X141260647Y-91790546D01*
X141269212Y-91795928D01*
X141286659Y-91797900D01*
X141296143Y-91798973D01*
X141306403Y-91800726D01*
X141306805Y-91800772D01*
X141312260Y-91802026D01*
X141317859Y-91802026D01*
X141318132Y-91802057D01*
X141328699Y-91802653D01*
X141355802Y-91805717D01*
X141365299Y-91802400D01*
X141371995Y-91802026D01*
X143398851Y-91802026D01*
X143457042Y-91820933D01*
X143468855Y-91831022D01*
X143766629Y-92128796D01*
X143770903Y-92133585D01*
X143775198Y-92142530D01*
X143783902Y-92149491D01*
X143783903Y-92149492D01*
X143796698Y-92159724D01*
X143804642Y-92166833D01*
X143804761Y-92166928D01*
X143808689Y-92170856D01*
X143813398Y-92173816D01*
X143813831Y-92174161D01*
X143822086Y-92180028D01*
X143834544Y-92189991D01*
X143834546Y-92189992D01*
X143843253Y-92196955D01*
X143853111Y-92199222D01*
X143854110Y-92199775D01*
X143855204Y-92200091D01*
X143863768Y-92205474D01*
X143890718Y-92208521D01*
X143900949Y-92210271D01*
X143901364Y-92210318D01*
X143906817Y-92211572D01*
X143912417Y-92211572D01*
X143912690Y-92211603D01*
X143923256Y-92212199D01*
X143950359Y-92215263D01*
X143959856Y-92211946D01*
X143966552Y-92211572D01*
X148179877Y-92211572D01*
X148238068Y-92230479D01*
X148249881Y-92240568D01*
X149101613Y-93092299D01*
X149105890Y-93097092D01*
X149110186Y-93106038D01*
X149118890Y-93112999D01*
X149118891Y-93113000D01*
X149131691Y-93123236D01*
X149139633Y-93130343D01*
X149139752Y-93130438D01*
X149143677Y-93134363D01*
X149148379Y-93137318D01*
X149148816Y-93137667D01*
X149157065Y-93143529D01*
X149169532Y-93153499D01*
X149169534Y-93153500D01*
X149178241Y-93160463D01*
X149188100Y-93162730D01*
X149189097Y-93163282D01*
X149190190Y-93163598D01*
X149198756Y-93168982D01*
X149225682Y-93172025D01*
X149235919Y-93173776D01*
X149236345Y-93173824D01*
X149241805Y-93175080D01*
X149247409Y-93175080D01*
X149247691Y-93175112D01*
X149258240Y-93175706D01*
X149274269Y-93177518D01*
X149274270Y-93177518D01*
X149285346Y-93178770D01*
X149294841Y-93175454D01*
X149301538Y-93175080D01*
X152063052Y-93175080D01*
X152121243Y-93193987D01*
X152157207Y-93243487D01*
X152157207Y-93304673D01*
X152151265Y-93319017D01*
X152101244Y-93417187D01*
X152100025Y-93424882D01*
X152100025Y-93424883D01*
X152099053Y-93431019D01*
X152080209Y-93550000D01*
X152101244Y-93682813D01*
X152104782Y-93689756D01*
X152104782Y-93689757D01*
X152134045Y-93747187D01*
X152162292Y-93802625D01*
X152257375Y-93897708D01*
X152259303Y-93898690D01*
X152293594Y-93945884D01*
X152293596Y-94007069D01*
X152257634Y-94056571D01*
X152199440Y-94075480D01*
X152185977Y-94075480D01*
X152174857Y-94074853D01*
X152150098Y-94072054D01*
X152139860Y-94070304D01*
X152139434Y-94070256D01*
X152133974Y-94069000D01*
X152128369Y-94069000D01*
X152128087Y-94068968D01*
X152117536Y-94068373D01*
X152116783Y-94068288D01*
X152090433Y-94065309D01*
X152080936Y-94068626D01*
X152074240Y-94069000D01*
X147506244Y-94069000D01*
X147499828Y-94068635D01*
X147490464Y-94065347D01*
X147463091Y-94068393D01*
X147452466Y-94068982D01*
X147452306Y-94069000D01*
X147446753Y-94069000D01*
X147441340Y-94070235D01*
X147440786Y-94070297D01*
X147430804Y-94071986D01*
X147403857Y-94074985D01*
X147395283Y-94080353D01*
X147394190Y-94080667D01*
X147393191Y-94081218D01*
X147383327Y-94083468D01*
X147370592Y-94093616D01*
X147362134Y-94100356D01*
X147353645Y-94106367D01*
X147353323Y-94106623D01*
X147348575Y-94109596D01*
X147344618Y-94113553D01*
X147344407Y-94113721D01*
X147336504Y-94120780D01*
X147315177Y-94137775D01*
X147310808Y-94146833D01*
X147306341Y-94151830D01*
X145522655Y-95935516D01*
X145468138Y-95963293D01*
X145437165Y-95963293D01*
X145349143Y-95949352D01*
X145341446Y-95950571D01*
X145224026Y-95969168D01*
X145224025Y-95969168D01*
X145216330Y-95970387D01*
X145209387Y-95973925D01*
X145209386Y-95973925D01*
X145103463Y-96027896D01*
X145103462Y-96027897D01*
X145096518Y-96031435D01*
X145001435Y-96126518D01*
X144997897Y-96133462D01*
X144997896Y-96133463D01*
X144961124Y-96205631D01*
X144940387Y-96246330D01*
X144939168Y-96254025D01*
X144939168Y-96254026D01*
X144939032Y-96254883D01*
X144919352Y-96379143D01*
X144920571Y-96386840D01*
X144921216Y-96390909D01*
X144940387Y-96511956D01*
X144943925Y-96518899D01*
X144943925Y-96518900D01*
X145001435Y-96631768D01*
X144999297Y-96632858D01*
X145014614Y-96680003D01*
X144995705Y-96738193D01*
X144946204Y-96774155D01*
X144915614Y-96779000D01*
X142869775Y-96779000D01*
X142811584Y-96760093D01*
X142786185Y-96730355D01*
X142785823Y-96730618D01*
X142782487Y-96726026D01*
X142781567Y-96724949D01*
X142777708Y-96717375D01*
X142682625Y-96622292D01*
X142675681Y-96618754D01*
X142675680Y-96618753D01*
X142569757Y-96564782D01*
X142569756Y-96564782D01*
X142562813Y-96561244D01*
X142555118Y-96560025D01*
X142555117Y-96560025D01*
X142437697Y-96541428D01*
X142430000Y-96540209D01*
X142422303Y-96541428D01*
X142304883Y-96560025D01*
X142304882Y-96560025D01*
X142297187Y-96561244D01*
X142290244Y-96564782D01*
X142290243Y-96564782D01*
X142184320Y-96618753D01*
X142184319Y-96618754D01*
X142177375Y-96622292D01*
X142082292Y-96717375D01*
X142078754Y-96724319D01*
X142078753Y-96724320D01*
X142068935Y-96743589D01*
X142021244Y-96837187D01*
X142000209Y-96970000D01*
X142001428Y-96977697D01*
X142016258Y-97071329D01*
X142021244Y-97102813D01*
X142024782Y-97109756D01*
X142024782Y-97109757D01*
X142076495Y-97211247D01*
X142082292Y-97222625D01*
X142177375Y-97317708D01*
X142184319Y-97321246D01*
X142184320Y-97321247D01*
X142290243Y-97375218D01*
X142297187Y-97378756D01*
X142304882Y-97379975D01*
X142304883Y-97379975D01*
X142422303Y-97398572D01*
X142430000Y-97399791D01*
X142437697Y-97398572D01*
X142555117Y-97379975D01*
X142555118Y-97379975D01*
X142562813Y-97378756D01*
X142569757Y-97375218D01*
X142675680Y-97321247D01*
X142675681Y-97321246D01*
X142682625Y-97317708D01*
X142777708Y-97222625D01*
X142781567Y-97215051D01*
X142782069Y-97214549D01*
X142785823Y-97209382D01*
X142786642Y-97209977D01*
X142824833Y-97171789D01*
X142869775Y-97161000D01*
X145622052Y-97161000D01*
X145628460Y-97161364D01*
X145637822Y-97164652D01*
X145665185Y-97161607D01*
X145675828Y-97161017D01*
X145675979Y-97161000D01*
X145681533Y-97161000D01*
X145686951Y-97159764D01*
X145687495Y-97159703D01*
X145697485Y-97158013D01*
X145724429Y-97155014D01*
X145733003Y-97149647D01*
X145734098Y-97149332D01*
X145735095Y-97148783D01*
X145744959Y-97146532D01*
X145766152Y-97129644D01*
X145774632Y-97123640D01*
X145774963Y-97123377D01*
X145779711Y-97120404D01*
X145783671Y-97116444D01*
X145783882Y-97116276D01*
X145791783Y-97109219D01*
X145796597Y-97105383D01*
X145813109Y-97092225D01*
X145817478Y-97083167D01*
X145821945Y-97078170D01*
X146984504Y-95915611D01*
X148160118Y-94739996D01*
X148214635Y-94712219D01*
X148230122Y-94711000D01*
X149309877Y-94711000D01*
X149368068Y-94729907D01*
X149404032Y-94779407D01*
X149404032Y-94840593D01*
X149379881Y-94880004D01*
X148336124Y-95923761D01*
X148281607Y-95951538D01*
X148164883Y-95970025D01*
X148164882Y-95970025D01*
X148157187Y-95971244D01*
X148150244Y-95974782D01*
X148150243Y-95974782D01*
X148044320Y-96028753D01*
X148044319Y-96028754D01*
X148037375Y-96032292D01*
X147942292Y-96127375D01*
X147938754Y-96134319D01*
X147938753Y-96134320D01*
X147932965Y-96145680D01*
X147881244Y-96247187D01*
X147880025Y-96254882D01*
X147880025Y-96254883D01*
X147872053Y-96305218D01*
X147860209Y-96380000D01*
X147881244Y-96512813D01*
X147884782Y-96519756D01*
X147884782Y-96519757D01*
X147935224Y-96618753D01*
X147942292Y-96632625D01*
X148037375Y-96727708D01*
X148044319Y-96731246D01*
X148044320Y-96731247D01*
X148100933Y-96760093D01*
X148157187Y-96788756D01*
X148164882Y-96789975D01*
X148164883Y-96789975D01*
X148282303Y-96808572D01*
X148290000Y-96809791D01*
X148297697Y-96808572D01*
X148415117Y-96789975D01*
X148415118Y-96789975D01*
X148422813Y-96788756D01*
X148479067Y-96760093D01*
X148535680Y-96731247D01*
X148535681Y-96731246D01*
X148542625Y-96727708D01*
X148637708Y-96632625D01*
X148644777Y-96618753D01*
X148695218Y-96519757D01*
X148695218Y-96519756D01*
X148698756Y-96512813D01*
X148719791Y-96380000D01*
X148711646Y-96328572D01*
X148699975Y-96254882D01*
X148699974Y-96254880D01*
X148698756Y-96247187D01*
X148695221Y-96240249D01*
X148695220Y-96240246D01*
X148682188Y-96214670D01*
X148672617Y-96154237D01*
X148700394Y-96099721D01*
X149806599Y-94993516D01*
X149861116Y-94965739D01*
X149876603Y-94964520D01*
X159603337Y-94964520D01*
X159661528Y-94983427D01*
X159697492Y-95032927D01*
X159697492Y-95094113D01*
X159691550Y-95108457D01*
X159641244Y-95207187D01*
X159640025Y-95214882D01*
X159640025Y-95214883D01*
X159621428Y-95332303D01*
X159620209Y-95340000D01*
X159621428Y-95347697D01*
X159626536Y-95379945D01*
X159641244Y-95472813D01*
X159644782Y-95479756D01*
X159644782Y-95479757D01*
X159689389Y-95567301D01*
X159702292Y-95592625D01*
X159797375Y-95687708D01*
X159804319Y-95691246D01*
X159804320Y-95691247D01*
X159868505Y-95723951D01*
X159917187Y-95748756D01*
X159924882Y-95749975D01*
X159924883Y-95749975D01*
X160042303Y-95768572D01*
X160050000Y-95769791D01*
X160057697Y-95768572D01*
X160057698Y-95768572D01*
X160111159Y-95760105D01*
X160171591Y-95769677D01*
X160214855Y-95812942D01*
X160224426Y-95873372D01*
X160222088Y-95888134D01*
X160220209Y-95900000D01*
X160221428Y-95907697D01*
X160235346Y-95995571D01*
X160241244Y-96032813D01*
X160244782Y-96039756D01*
X160244782Y-96039757D01*
X160288990Y-96126518D01*
X160302292Y-96152625D01*
X160397375Y-96247708D01*
X160404319Y-96251246D01*
X160404320Y-96251247D01*
X160510243Y-96305218D01*
X160517187Y-96308756D01*
X160524882Y-96309975D01*
X160524883Y-96309975D01*
X160642303Y-96328572D01*
X160650000Y-96329791D01*
X160657697Y-96328572D01*
X160775117Y-96309975D01*
X160775118Y-96309975D01*
X160782813Y-96308756D01*
X160789757Y-96305218D01*
X160895680Y-96251247D01*
X160895681Y-96251246D01*
X160902625Y-96247708D01*
X160997708Y-96152625D01*
X161001567Y-96145051D01*
X161002069Y-96144549D01*
X161005823Y-96139382D01*
X161006642Y-96139977D01*
X161044833Y-96101789D01*
X161089775Y-96091000D01*
X162809877Y-96091000D01*
X162868068Y-96109907D01*
X162879881Y-96119996D01*
X163910004Y-97150118D01*
X163937781Y-97204635D01*
X163939000Y-97220122D01*
X163939000Y-100193500D01*
X163920093Y-100251691D01*
X163870593Y-100287655D01*
X163840000Y-100292500D01*
X163637442Y-100292500D01*
X163632683Y-100293447D01*
X163632680Y-100293447D01*
X163609813Y-100297996D01*
X163600252Y-100299898D01*
X163558078Y-100328078D01*
X163529898Y-100370252D01*
X163522500Y-100407442D01*
X163522500Y-105872558D01*
X163529898Y-105909748D01*
X163558078Y-105951922D01*
X163600252Y-105980102D01*
X163609813Y-105982004D01*
X163632680Y-105986553D01*
X163632683Y-105986553D01*
X163637442Y-105987500D01*
X164622558Y-105987500D01*
X164627317Y-105986553D01*
X164627320Y-105986553D01*
X164650187Y-105982004D01*
X164659748Y-105980102D01*
X164701922Y-105951922D01*
X164730102Y-105909748D01*
X164737500Y-105872558D01*
X164737500Y-104256623D01*
X164756407Y-104198432D01*
X164805907Y-104162468D01*
X164867093Y-104162468D01*
X164906504Y-104186619D01*
X167358109Y-106638224D01*
X167362383Y-106643013D01*
X167366678Y-106651958D01*
X167375382Y-106658919D01*
X167375383Y-106658920D01*
X167388178Y-106669152D01*
X167396122Y-106676261D01*
X167396241Y-106676356D01*
X167400169Y-106680284D01*
X167404878Y-106683244D01*
X167405311Y-106683589D01*
X167413566Y-106689456D01*
X167426024Y-106699419D01*
X167426026Y-106699420D01*
X167434733Y-106706383D01*
X167444591Y-106708650D01*
X167445590Y-106709203D01*
X167446684Y-106709519D01*
X167455248Y-106714902D01*
X167479230Y-106717613D01*
X167482174Y-106717946D01*
X167492411Y-106719696D01*
X167492837Y-106719744D01*
X167498297Y-106721000D01*
X167503902Y-106721000D01*
X167504184Y-106721032D01*
X167514735Y-106721627D01*
X167541838Y-106724691D01*
X167551335Y-106721374D01*
X167558031Y-106721000D01*
X170519877Y-106721000D01*
X170578068Y-106739907D01*
X170589881Y-106749996D01*
X171037740Y-107197855D01*
X171065517Y-107252372D01*
X171065517Y-107283346D01*
X171051451Y-107372159D01*
X171050209Y-107380000D01*
X171051428Y-107387697D01*
X171066840Y-107485004D01*
X171071244Y-107512813D01*
X171074782Y-107519756D01*
X171074782Y-107519757D01*
X171118563Y-107605680D01*
X171132292Y-107632625D01*
X171227375Y-107727708D01*
X171234319Y-107731246D01*
X171234320Y-107731247D01*
X171337853Y-107784000D01*
X171347187Y-107788756D01*
X171354882Y-107789975D01*
X171354883Y-107789975D01*
X171472303Y-107808572D01*
X171480000Y-107809791D01*
X171487697Y-107808572D01*
X171605117Y-107789975D01*
X171605118Y-107789975D01*
X171612813Y-107788756D01*
X171622147Y-107784000D01*
X171725680Y-107731247D01*
X171725681Y-107731246D01*
X171732625Y-107727708D01*
X171827708Y-107632625D01*
X171841438Y-107605680D01*
X171885218Y-107519757D01*
X171885218Y-107519756D01*
X171888756Y-107512813D01*
X171893161Y-107485004D01*
X171908572Y-107387697D01*
X171909791Y-107380000D01*
X171908549Y-107372159D01*
X171889975Y-107254883D01*
X171889975Y-107254882D01*
X171888756Y-107247187D01*
X171878789Y-107227625D01*
X171831247Y-107134320D01*
X171831246Y-107134319D01*
X171827708Y-107127375D01*
X171732625Y-107032292D01*
X171725681Y-107028754D01*
X171725680Y-107028753D01*
X171619757Y-106974782D01*
X171619756Y-106974782D01*
X171612813Y-106971244D01*
X171605118Y-106970025D01*
X171605117Y-106970025D01*
X171487697Y-106951428D01*
X171480000Y-106950209D01*
X171400611Y-106962783D01*
X171340179Y-106953212D01*
X171315120Y-106935005D01*
X170920119Y-106540003D01*
X170892342Y-106485487D01*
X170901913Y-106425055D01*
X170945178Y-106381790D01*
X170990123Y-106371000D01*
X171469877Y-106371000D01*
X171528068Y-106389907D01*
X171539881Y-106399996D01*
X172326373Y-107186488D01*
X172354150Y-107241005D01*
X172354150Y-107271978D01*
X172340209Y-107360000D01*
X172341428Y-107367697D01*
X172356054Y-107460041D01*
X172361244Y-107492813D01*
X172364782Y-107499756D01*
X172364782Y-107499757D01*
X172410639Y-107589754D01*
X172422292Y-107612625D01*
X172517375Y-107707708D01*
X172524319Y-107711246D01*
X172524320Y-107711247D01*
X172629998Y-107765093D01*
X172637187Y-107768756D01*
X172644882Y-107769975D01*
X172644883Y-107769975D01*
X172762303Y-107788572D01*
X172770000Y-107789791D01*
X172777697Y-107788572D01*
X172895117Y-107769975D01*
X172895118Y-107769975D01*
X172902813Y-107768756D01*
X172910002Y-107765093D01*
X173015680Y-107711247D01*
X173015681Y-107711246D01*
X173022625Y-107707708D01*
X173117708Y-107612625D01*
X173129362Y-107589754D01*
X173175218Y-107499757D01*
X173175218Y-107499756D01*
X173178756Y-107492813D01*
X173183947Y-107460041D01*
X173198572Y-107367697D01*
X173199791Y-107360000D01*
X173197415Y-107344996D01*
X173179975Y-107234883D01*
X173179975Y-107234882D01*
X173178756Y-107227187D01*
X173169048Y-107208134D01*
X173121247Y-107114320D01*
X173121246Y-107114319D01*
X173117708Y-107107375D01*
X173022625Y-107012292D01*
X173015681Y-107008754D01*
X173015680Y-107008753D01*
X172909757Y-106954782D01*
X172909756Y-106954782D01*
X172902813Y-106951244D01*
X172895118Y-106950025D01*
X172895117Y-106950025D01*
X172777697Y-106931428D01*
X172770000Y-106930209D01*
X172681978Y-106944150D01*
X172621547Y-106934579D01*
X172596488Y-106916373D01*
X171751891Y-106071776D01*
X171747617Y-106066987D01*
X171743322Y-106058042D01*
X171734618Y-106051081D01*
X171734617Y-106051080D01*
X171721822Y-106040848D01*
X171713878Y-106033739D01*
X171713759Y-106033644D01*
X171709831Y-106029716D01*
X171705122Y-106026756D01*
X171704689Y-106026411D01*
X171696434Y-106020544D01*
X171683976Y-106010581D01*
X171683974Y-106010580D01*
X171675267Y-106003617D01*
X171665409Y-106001350D01*
X171664410Y-106000797D01*
X171663316Y-106000481D01*
X171654752Y-105995098D01*
X171627827Y-105992054D01*
X171617589Y-105990304D01*
X171617163Y-105990256D01*
X171611703Y-105989000D01*
X171606098Y-105989000D01*
X171605816Y-105988968D01*
X171595265Y-105988373D01*
X171594512Y-105988288D01*
X171568162Y-105985309D01*
X171558665Y-105988626D01*
X171551969Y-105989000D01*
X169914782Y-105989000D01*
X169856591Y-105970093D01*
X169820627Y-105920593D01*
X169816259Y-105880296D01*
X169816552Y-105877326D01*
X169817500Y-105872558D01*
X173682500Y-105872558D01*
X173689898Y-105909748D01*
X173718078Y-105951922D01*
X173760252Y-105980102D01*
X173769813Y-105982004D01*
X173792680Y-105986553D01*
X173792683Y-105986553D01*
X173797442Y-105987500D01*
X174782558Y-105987500D01*
X174787317Y-105986553D01*
X174787320Y-105986553D01*
X174810187Y-105982004D01*
X174819748Y-105980102D01*
X174861922Y-105951922D01*
X174890102Y-105909748D01*
X174897500Y-105872558D01*
X174897500Y-100407442D01*
X174890102Y-100370252D01*
X174861922Y-100328078D01*
X174819748Y-100299898D01*
X174810187Y-100297996D01*
X174787320Y-100293447D01*
X174787317Y-100293447D01*
X174782558Y-100292500D01*
X173797442Y-100292500D01*
X173792683Y-100293447D01*
X173792680Y-100293447D01*
X173769813Y-100297996D01*
X173760252Y-100299898D01*
X173718078Y-100328078D01*
X173689898Y-100370252D01*
X173682500Y-100407442D01*
X173682500Y-105872558D01*
X169817500Y-105872558D01*
X169817500Y-103792558D01*
X171142500Y-103792558D01*
X171149898Y-103829748D01*
X171178078Y-103871922D01*
X171220252Y-103900102D01*
X171229813Y-103902004D01*
X171252680Y-103906553D01*
X171252683Y-103906553D01*
X171257442Y-103907500D01*
X172242558Y-103907500D01*
X172247317Y-103906553D01*
X172247320Y-103906553D01*
X172270187Y-103902004D01*
X172279748Y-103900102D01*
X172321922Y-103871922D01*
X172350102Y-103829748D01*
X172357500Y-103792558D01*
X172357500Y-98327442D01*
X172356499Y-98322407D01*
X172352004Y-98299813D01*
X172350102Y-98290252D01*
X172321922Y-98248078D01*
X172279748Y-98219898D01*
X172270187Y-98217996D01*
X172247320Y-98213447D01*
X172247317Y-98213447D01*
X172242558Y-98212500D01*
X171257442Y-98212500D01*
X171252683Y-98213447D01*
X171252680Y-98213447D01*
X171229813Y-98217996D01*
X171220252Y-98219898D01*
X171178078Y-98248078D01*
X171149898Y-98290252D01*
X171147996Y-98299813D01*
X171143502Y-98322407D01*
X171142500Y-98327442D01*
X171142500Y-103792558D01*
X169817500Y-103792558D01*
X169817500Y-100407442D01*
X169810102Y-100370252D01*
X169781922Y-100328078D01*
X169739748Y-100299898D01*
X169730187Y-100297996D01*
X169707320Y-100293447D01*
X169707317Y-100293447D01*
X169702558Y-100292500D01*
X168717442Y-100292500D01*
X168712683Y-100293447D01*
X168712680Y-100293447D01*
X168689813Y-100297996D01*
X168680252Y-100299898D01*
X168638078Y-100328078D01*
X168609898Y-100370252D01*
X168602500Y-100407442D01*
X168602500Y-103906377D01*
X168583593Y-103964568D01*
X168573504Y-103976381D01*
X168513512Y-104036373D01*
X168458995Y-104064150D01*
X168428022Y-104064150D01*
X168340000Y-104050209D01*
X168332303Y-104051428D01*
X168214883Y-104070025D01*
X168214882Y-104070025D01*
X168207187Y-104071244D01*
X168200244Y-104074782D01*
X168200243Y-104074782D01*
X168094320Y-104128753D01*
X168094319Y-104128754D01*
X168087375Y-104132292D01*
X167992292Y-104227375D01*
X167988754Y-104234319D01*
X167988753Y-104234320D01*
X167971694Y-104267800D01*
X167931244Y-104347187D01*
X167930025Y-104354882D01*
X167930025Y-104354883D01*
X167911754Y-104470243D01*
X167910209Y-104480000D01*
X167911428Y-104487697D01*
X167924136Y-104567931D01*
X167931244Y-104612813D01*
X167934782Y-104619756D01*
X167934782Y-104619757D01*
X167972944Y-104694652D01*
X167992292Y-104732625D01*
X168087375Y-104827708D01*
X168094319Y-104831246D01*
X168094320Y-104831247D01*
X168198620Y-104884391D01*
X168207187Y-104888756D01*
X168214882Y-104889975D01*
X168214883Y-104889975D01*
X168332303Y-104908572D01*
X168340000Y-104909791D01*
X168347697Y-104908572D01*
X168465117Y-104889975D01*
X168465118Y-104889975D01*
X168472813Y-104888756D01*
X168475388Y-104887444D01*
X168534091Y-104887443D01*
X168583592Y-104923406D01*
X168602500Y-104981598D01*
X168602500Y-105872558D01*
X168603448Y-105877326D01*
X168603741Y-105880296D01*
X168590629Y-105940060D01*
X168544893Y-105980702D01*
X168505218Y-105989000D01*
X168230123Y-105989000D01*
X168171932Y-105970093D01*
X168160119Y-105960004D01*
X166889996Y-104689881D01*
X166862219Y-104635364D01*
X166861000Y-104619877D01*
X166861000Y-104006500D01*
X166879907Y-103948309D01*
X166929407Y-103912345D01*
X166960000Y-103907500D01*
X167162558Y-103907500D01*
X167167317Y-103906553D01*
X167167320Y-103906553D01*
X167190187Y-103902004D01*
X167199748Y-103900102D01*
X167241922Y-103871922D01*
X167270102Y-103829748D01*
X167277500Y-103792558D01*
X167277500Y-98327442D01*
X167276499Y-98322407D01*
X167272004Y-98299813D01*
X167270102Y-98290252D01*
X167241922Y-98248078D01*
X167199748Y-98219898D01*
X167190187Y-98217996D01*
X167167320Y-98213447D01*
X167167317Y-98213447D01*
X167162558Y-98212500D01*
X166960000Y-98212500D01*
X166901809Y-98193593D01*
X166865845Y-98144093D01*
X166861000Y-98113500D01*
X166861000Y-96097947D01*
X166861364Y-96091539D01*
X166864652Y-96082177D01*
X166861607Y-96054815D01*
X166861017Y-96044170D01*
X166861000Y-96044019D01*
X166861000Y-96038467D01*
X166859764Y-96033050D01*
X166859703Y-96032505D01*
X166858013Y-96022508D01*
X166856248Y-96006655D01*
X166856247Y-96006653D01*
X166855014Y-95995571D01*
X166849647Y-95986997D01*
X166849332Y-95985902D01*
X166848783Y-95984905D01*
X166846532Y-95975041D01*
X166829639Y-95953841D01*
X166823636Y-95945363D01*
X166823372Y-95945032D01*
X166820403Y-95940289D01*
X166816450Y-95936336D01*
X166816278Y-95936120D01*
X166809223Y-95928222D01*
X166799174Y-95915611D01*
X166799173Y-95915610D01*
X166792225Y-95906891D01*
X166783164Y-95902521D01*
X166778165Y-95898051D01*
X166131891Y-95251776D01*
X166127617Y-95246987D01*
X166123322Y-95238042D01*
X166114618Y-95231081D01*
X166114617Y-95231080D01*
X166101822Y-95220848D01*
X166093878Y-95213739D01*
X166093759Y-95213644D01*
X166089831Y-95209716D01*
X166085122Y-95206756D01*
X166084689Y-95206411D01*
X166076434Y-95200544D01*
X166063976Y-95190581D01*
X166063974Y-95190580D01*
X166055267Y-95183617D01*
X166045409Y-95181350D01*
X166044410Y-95180797D01*
X166043316Y-95180481D01*
X166034752Y-95175098D01*
X166007827Y-95172054D01*
X165997589Y-95170304D01*
X165997163Y-95170256D01*
X165991703Y-95169000D01*
X165986098Y-95169000D01*
X165985816Y-95168968D01*
X165975265Y-95168373D01*
X165974512Y-95168288D01*
X165948162Y-95165309D01*
X165938665Y-95168626D01*
X165931969Y-95169000D01*
X160499965Y-95169000D01*
X160441774Y-95150093D01*
X160411753Y-95114940D01*
X160408450Y-95108457D01*
X160398884Y-95048024D01*
X160426667Y-94993510D01*
X160481186Y-94965737D01*
X160496664Y-94964520D01*
X160668532Y-94964520D01*
X160674940Y-94964884D01*
X160684302Y-94968172D01*
X160711665Y-94965127D01*
X160722308Y-94964537D01*
X160722459Y-94964520D01*
X160728013Y-94964520D01*
X160733431Y-94963284D01*
X160733975Y-94963223D01*
X160743965Y-94961533D01*
X160770909Y-94958534D01*
X160779483Y-94953167D01*
X160780578Y-94952852D01*
X160781575Y-94952303D01*
X160791439Y-94950052D01*
X160812632Y-94933164D01*
X160821112Y-94927160D01*
X160821443Y-94926897D01*
X160826191Y-94923924D01*
X160830151Y-94919964D01*
X160830362Y-94919796D01*
X160838263Y-94912739D01*
X160850871Y-94902692D01*
X160859589Y-94895745D01*
X160863958Y-94886687D01*
X160868425Y-94881690D01*
X161096488Y-94653627D01*
X161151005Y-94625850D01*
X161181978Y-94625850D01*
X161270000Y-94639791D01*
X161277697Y-94638572D01*
X161395117Y-94619975D01*
X161395118Y-94619975D01*
X161402813Y-94618756D01*
X161415478Y-94612303D01*
X161515680Y-94561247D01*
X161515681Y-94561246D01*
X161522625Y-94557708D01*
X161617708Y-94462625D01*
X161623632Y-94451000D01*
X161675218Y-94349757D01*
X161675218Y-94349756D01*
X161678756Y-94342813D01*
X161699791Y-94210000D01*
X161696850Y-94191428D01*
X161679975Y-94084883D01*
X161679975Y-94084882D01*
X161678756Y-94077187D01*
X161675218Y-94070243D01*
X161621247Y-93964320D01*
X161621246Y-93964319D01*
X161617708Y-93957375D01*
X161530199Y-93869866D01*
X161502422Y-93815349D01*
X161511993Y-93754917D01*
X161555255Y-93711654D01*
X161582625Y-93697708D01*
X161677708Y-93602625D01*
X161738756Y-93482813D01*
X161748623Y-93420514D01*
X161776400Y-93365997D01*
X161830916Y-93338219D01*
X161891349Y-93347790D01*
X161899082Y-93352179D01*
X161900312Y-93352952D01*
X161909467Y-93359458D01*
X161921924Y-93369421D01*
X161921926Y-93369422D01*
X161930630Y-93376383D01*
X161940487Y-93378650D01*
X161941485Y-93379202D01*
X161942580Y-93379518D01*
X161951145Y-93384902D01*
X161978071Y-93387945D01*
X161988308Y-93389696D01*
X161988734Y-93389744D01*
X161994194Y-93391000D01*
X161999798Y-93391000D01*
X162000080Y-93391032D01*
X162010629Y-93391626D01*
X162026658Y-93393438D01*
X162026659Y-93393438D01*
X162037735Y-93394690D01*
X162047230Y-93391374D01*
X162053927Y-93391000D01*
X170012052Y-93391000D01*
X170018460Y-93391364D01*
X170027822Y-93394652D01*
X170055185Y-93391607D01*
X170065828Y-93391017D01*
X170065979Y-93391000D01*
X170071533Y-93391000D01*
X170076951Y-93389764D01*
X170077495Y-93389703D01*
X170087485Y-93388013D01*
X170114429Y-93385014D01*
X170123003Y-93379647D01*
X170124098Y-93379332D01*
X170125095Y-93378783D01*
X170134959Y-93376532D01*
X170156152Y-93359644D01*
X170164632Y-93353640D01*
X170164963Y-93353377D01*
X170169711Y-93350404D01*
X170173671Y-93346444D01*
X170173882Y-93346276D01*
X170181783Y-93339219D01*
X170194391Y-93329172D01*
X170203109Y-93322225D01*
X170207478Y-93313167D01*
X170211945Y-93308170D01*
X170940119Y-92579996D01*
X170994636Y-92552219D01*
X171010123Y-92551000D01*
X173580225Y-92551000D01*
X173638416Y-92569907D01*
X173663815Y-92599645D01*
X173664177Y-92599382D01*
X173667513Y-92603974D01*
X173668432Y-92605050D01*
X173672292Y-92612625D01*
X173767375Y-92707708D01*
X173774319Y-92711246D01*
X173774320Y-92711247D01*
X173880243Y-92765218D01*
X173887187Y-92768756D01*
X173894882Y-92769975D01*
X173894883Y-92769975D01*
X174012303Y-92788572D01*
X174020000Y-92789791D01*
X174027697Y-92788572D01*
X174145117Y-92769975D01*
X174145118Y-92769975D01*
X174152813Y-92768756D01*
X174159757Y-92765218D01*
X174265680Y-92711247D01*
X174265681Y-92711246D01*
X174272625Y-92707708D01*
X174367708Y-92612625D01*
X174376283Y-92595797D01*
X174425218Y-92499757D01*
X174425218Y-92499756D01*
X174428756Y-92492813D01*
X174431096Y-92478042D01*
X174448572Y-92367697D01*
X174449791Y-92360000D01*
X174447862Y-92347822D01*
X174429975Y-92234883D01*
X174429975Y-92234882D01*
X174428756Y-92227187D01*
X174425026Y-92219867D01*
X174371247Y-92114320D01*
X174371246Y-92114319D01*
X174367708Y-92107375D01*
X174272625Y-92012292D01*
X174265681Y-92008754D01*
X174265680Y-92008753D01*
X174159757Y-91954782D01*
X174159756Y-91954782D01*
X174152813Y-91951244D01*
X174145118Y-91950025D01*
X174145117Y-91950025D01*
X174027697Y-91931428D01*
X174020000Y-91930209D01*
X174012303Y-91931428D01*
X173894883Y-91950025D01*
X173894882Y-91950025D01*
X173887187Y-91951244D01*
X173880244Y-91954782D01*
X173880243Y-91954782D01*
X173774320Y-92008753D01*
X173774319Y-92008754D01*
X173767375Y-92012292D01*
X173672292Y-92107375D01*
X173668433Y-92114949D01*
X173667931Y-92115451D01*
X173664177Y-92120618D01*
X173663358Y-92120023D01*
X173625167Y-92158211D01*
X173580225Y-92169000D01*
X170927947Y-92169000D01*
X170921539Y-92168636D01*
X170912177Y-92165348D01*
X170888044Y-92168034D01*
X170884815Y-92168393D01*
X170874170Y-92168983D01*
X170874019Y-92169000D01*
X170868467Y-92169000D01*
X170863050Y-92170236D01*
X170862505Y-92170297D01*
X170852508Y-92171987D01*
X170836655Y-92173752D01*
X170836653Y-92173753D01*
X170825571Y-92174986D01*
X170816997Y-92180353D01*
X170815902Y-92180668D01*
X170814905Y-92181217D01*
X170805041Y-92183468D01*
X170796323Y-92190415D01*
X170786280Y-92195249D01*
X170785758Y-92194163D01*
X170739532Y-92211492D01*
X170680558Y-92195191D01*
X170642428Y-92147340D01*
X170637348Y-92128076D01*
X170635349Y-92115451D01*
X170618756Y-92010687D01*
X170611896Y-91997224D01*
X170561247Y-91897820D01*
X170561246Y-91897819D01*
X170557708Y-91890875D01*
X170462625Y-91795792D01*
X170455681Y-91792254D01*
X170455680Y-91792253D01*
X170349757Y-91738282D01*
X170349756Y-91738282D01*
X170342813Y-91734744D01*
X170335118Y-91733525D01*
X170335117Y-91733525D01*
X170217697Y-91714928D01*
X170210000Y-91713709D01*
X170202303Y-91714928D01*
X170084883Y-91733525D01*
X170084882Y-91733525D01*
X170077187Y-91734744D01*
X170070244Y-91738282D01*
X170070243Y-91738282D01*
X169964320Y-91792253D01*
X169964319Y-91792254D01*
X169957375Y-91795792D01*
X169862292Y-91890875D01*
X169858754Y-91897819D01*
X169858753Y-91897820D01*
X169808104Y-91997224D01*
X169801244Y-92010687D01*
X169800025Y-92018382D01*
X169800025Y-92018383D01*
X169784731Y-92114949D01*
X169780209Y-92143500D01*
X169781428Y-92151196D01*
X169781428Y-92151197D01*
X169792304Y-92219867D01*
X169782732Y-92280299D01*
X169764527Y-92305358D01*
X169509881Y-92560004D01*
X169455364Y-92587781D01*
X169439877Y-92589000D01*
X169333841Y-92589000D01*
X169275650Y-92570093D01*
X169239686Y-92520593D01*
X169239686Y-92459407D01*
X169263837Y-92419996D01*
X169287708Y-92396125D01*
X169296332Y-92379201D01*
X169345218Y-92283257D01*
X169345219Y-92283254D01*
X169348756Y-92276313D01*
X169352561Y-92252292D01*
X169368572Y-92151197D01*
X169368572Y-92151196D01*
X169369791Y-92143500D01*
X169365269Y-92114949D01*
X169349975Y-92018383D01*
X169349975Y-92018382D01*
X169348756Y-92010687D01*
X169341896Y-91997224D01*
X169291247Y-91897820D01*
X169291246Y-91897819D01*
X169287708Y-91890875D01*
X169192625Y-91795792D01*
X169185051Y-91791933D01*
X169184549Y-91791431D01*
X169179382Y-91787677D01*
X169179977Y-91786858D01*
X169141789Y-91748667D01*
X169131000Y-91703725D01*
X169131000Y-91267958D01*
X169131365Y-91261542D01*
X169134653Y-91252178D01*
X169131607Y-91224805D01*
X169131018Y-91214180D01*
X169131000Y-91214020D01*
X169131000Y-91208467D01*
X169129765Y-91203054D01*
X169129703Y-91202500D01*
X169128014Y-91192518D01*
X169126248Y-91176650D01*
X169125015Y-91165571D01*
X169119647Y-91156997D01*
X169119333Y-91155904D01*
X169118782Y-91154905D01*
X169116532Y-91145041D01*
X169099644Y-91123848D01*
X169093633Y-91115359D01*
X169093377Y-91115037D01*
X169090404Y-91110289D01*
X169086447Y-91106332D01*
X169086279Y-91106121D01*
X169079219Y-91098217D01*
X169073960Y-91091617D01*
X169062225Y-91076891D01*
X169053167Y-91072522D01*
X169048170Y-91068055D01*
X168189619Y-90209504D01*
X168161842Y-90154987D01*
X168171413Y-90094555D01*
X168214678Y-90051290D01*
X168259623Y-90040500D01*
X177757337Y-90040500D01*
X177815528Y-90059407D01*
X177851492Y-90108907D01*
X177851492Y-90170093D01*
X177827341Y-90209504D01*
X177483103Y-90553742D01*
X177428587Y-90581519D01*
X177409640Y-90584520D01*
X177367187Y-90591244D01*
X177360244Y-90594782D01*
X177360243Y-90594782D01*
X177254320Y-90648753D01*
X177254319Y-90648754D01*
X177247375Y-90652292D01*
X177152292Y-90747375D01*
X177148754Y-90754319D01*
X177148753Y-90754320D01*
X177096411Y-90857046D01*
X177091244Y-90867187D01*
X177090025Y-90874882D01*
X177090025Y-90874883D01*
X177081069Y-90931428D01*
X177070209Y-91000000D01*
X177071428Y-91007697D01*
X177087017Y-91106121D01*
X177091244Y-91132813D01*
X177094782Y-91139756D01*
X177094782Y-91139757D01*
X177148590Y-91245359D01*
X177152292Y-91252625D01*
X177247375Y-91347708D01*
X177254319Y-91351246D01*
X177254320Y-91351247D01*
X177360243Y-91405218D01*
X177367187Y-91408756D01*
X177374882Y-91409975D01*
X177374883Y-91409975D01*
X177492303Y-91428572D01*
X177500000Y-91429791D01*
X177507697Y-91428572D01*
X177625117Y-91409975D01*
X177625118Y-91409975D01*
X177632813Y-91408756D01*
X177639757Y-91405218D01*
X177745680Y-91351247D01*
X177745681Y-91351246D01*
X177752625Y-91347708D01*
X177847708Y-91252625D01*
X177851411Y-91245359D01*
X177905218Y-91139757D01*
X177905218Y-91139756D01*
X177908756Y-91132813D01*
X177911201Y-91117375D01*
X177918481Y-91071413D01*
X177946258Y-91016897D01*
X178206807Y-90756348D01*
X178261324Y-90728571D01*
X178292297Y-90728571D01*
X178300000Y-90729791D01*
X178307697Y-90728572D01*
X178425117Y-90709975D01*
X178425118Y-90709975D01*
X178432813Y-90708756D01*
X178439757Y-90705218D01*
X178545680Y-90651247D01*
X178545681Y-90651246D01*
X178552625Y-90647708D01*
X178647708Y-90552625D01*
X178663153Y-90522314D01*
X178705218Y-90439757D01*
X178705218Y-90439756D01*
X178708756Y-90432813D01*
X178713253Y-90404423D01*
X178728572Y-90307697D01*
X178729791Y-90300000D01*
X178708756Y-90167187D01*
X178708418Y-90166524D01*
X178708418Y-90108907D01*
X178744382Y-90059407D01*
X178802573Y-90040500D01*
X182226000Y-90040500D01*
X182284191Y-90059407D01*
X182320155Y-90108907D01*
X182325000Y-90139500D01*
X182325000Y-91571000D01*
X182306093Y-91629191D01*
X182256593Y-91665155D01*
X182226000Y-91670000D01*
X177000000Y-91670000D01*
X177000000Y-98113500D01*
X176981093Y-98171691D01*
X176931593Y-98207655D01*
X176901000Y-98212500D01*
X176337442Y-98212500D01*
X176332683Y-98213447D01*
X176332680Y-98213447D01*
X176309813Y-98217996D01*
X176300252Y-98219898D01*
X176258078Y-98248078D01*
X176229898Y-98290252D01*
X176227996Y-98299813D01*
X176223502Y-98322407D01*
X176222500Y-98327442D01*
X176222500Y-100648500D01*
X176203593Y-100706691D01*
X176154093Y-100742655D01*
X176123500Y-100747500D01*
X176083841Y-100747500D01*
X176025650Y-100728593D01*
X176013837Y-100718504D01*
X175972625Y-100677292D01*
X175965681Y-100673754D01*
X175965680Y-100673753D01*
X175859757Y-100619782D01*
X175859756Y-100619782D01*
X175852813Y-100616244D01*
X175845118Y-100615025D01*
X175845117Y-100615025D01*
X175727697Y-100596428D01*
X175720000Y-100595209D01*
X175712303Y-100596428D01*
X175594883Y-100615025D01*
X175594882Y-100615025D01*
X175587187Y-100616244D01*
X175580244Y-100619782D01*
X175580243Y-100619782D01*
X175474320Y-100673753D01*
X175474319Y-100673754D01*
X175467375Y-100677292D01*
X175372292Y-100772375D01*
X175368754Y-100779319D01*
X175368753Y-100779320D01*
X175325783Y-100863652D01*
X175311244Y-100892187D01*
X175290209Y-101025000D01*
X175311244Y-101157813D01*
X175372292Y-101277625D01*
X175467375Y-101372708D01*
X175474319Y-101376246D01*
X175474320Y-101376247D01*
X175580243Y-101430218D01*
X175587187Y-101433756D01*
X175594882Y-101434975D01*
X175594883Y-101434975D01*
X175712303Y-101453572D01*
X175720000Y-101454791D01*
X175727697Y-101453572D01*
X175845117Y-101434975D01*
X175845118Y-101434975D01*
X175852813Y-101433756D01*
X175859757Y-101430218D01*
X175965680Y-101376247D01*
X175965681Y-101376246D01*
X175972625Y-101372708D01*
X176013837Y-101331496D01*
X176068354Y-101303719D01*
X176083841Y-101302500D01*
X176123500Y-101302500D01*
X176181691Y-101321407D01*
X176217655Y-101370907D01*
X176222500Y-101401500D01*
X176222500Y-103792558D01*
X176229898Y-103829748D01*
X176258078Y-103871922D01*
X176300252Y-103900102D01*
X176309813Y-103902004D01*
X176332680Y-103906553D01*
X176332683Y-103906553D01*
X176337442Y-103907500D01*
X176901000Y-103907500D01*
X176959191Y-103926407D01*
X176995155Y-103975907D01*
X177000000Y-104006500D01*
X177000000Y-109640500D01*
X176981093Y-109698691D01*
X176931593Y-109734655D01*
X176901000Y-109739500D01*
X173669623Y-109739500D01*
X173611432Y-109720593D01*
X173575468Y-109671093D01*
X173575468Y-109609907D01*
X173599619Y-109570496D01*
X175267639Y-107902475D01*
X175322156Y-107874698D01*
X175415117Y-107859975D01*
X175415118Y-107859975D01*
X175422813Y-107858756D01*
X175429757Y-107855218D01*
X175535680Y-107801247D01*
X175535681Y-107801246D01*
X175542625Y-107797708D01*
X175637708Y-107702625D01*
X175651438Y-107675680D01*
X175695218Y-107589757D01*
X175695219Y-107589754D01*
X175698756Y-107582813D01*
X175699994Y-107575000D01*
X175718572Y-107457697D01*
X175719791Y-107450000D01*
X175718572Y-107442303D01*
X175699975Y-107324883D01*
X175699975Y-107324882D01*
X175698756Y-107317187D01*
X175688831Y-107297708D01*
X175641247Y-107204320D01*
X175641246Y-107204319D01*
X175637708Y-107197375D01*
X175542625Y-107102292D01*
X175535681Y-107098754D01*
X175535680Y-107098753D01*
X175429757Y-107044782D01*
X175429756Y-107044782D01*
X175422813Y-107041244D01*
X175415118Y-107040025D01*
X175415117Y-107040025D01*
X175297697Y-107021428D01*
X175290000Y-107020209D01*
X175282303Y-107021428D01*
X175164883Y-107040025D01*
X175164882Y-107040025D01*
X175157187Y-107041244D01*
X175150244Y-107044782D01*
X175150243Y-107044782D01*
X175044320Y-107098753D01*
X175044319Y-107098754D01*
X175037375Y-107102292D01*
X174942292Y-107197375D01*
X174938754Y-107204319D01*
X174938753Y-107204320D01*
X174891169Y-107297708D01*
X174881244Y-107317187D01*
X174880025Y-107324882D01*
X174880025Y-107324883D01*
X174861428Y-107442303D01*
X174860209Y-107450000D01*
X174861428Y-107457697D01*
X174880007Y-107575000D01*
X174881244Y-107582813D01*
X174904563Y-107628579D01*
X174914135Y-107689009D01*
X174886358Y-107743527D01*
X174380004Y-108249881D01*
X174325487Y-108277658D01*
X174265055Y-108268087D01*
X174221790Y-108224822D01*
X174211000Y-108179877D01*
X174211000Y-107869775D01*
X174229907Y-107811584D01*
X174259645Y-107786185D01*
X174259382Y-107785823D01*
X174263974Y-107782487D01*
X174265051Y-107781567D01*
X174272625Y-107777708D01*
X174367708Y-107682625D01*
X174391122Y-107636674D01*
X174425218Y-107569757D01*
X174425218Y-107569756D01*
X174428756Y-107562813D01*
X174441080Y-107485004D01*
X174448572Y-107437697D01*
X174449791Y-107430000D01*
X174442570Y-107384407D01*
X174429975Y-107304883D01*
X174429975Y-107304882D01*
X174428756Y-107297187D01*
X174406914Y-107254320D01*
X174371247Y-107184320D01*
X174371246Y-107184319D01*
X174367708Y-107177375D01*
X174272625Y-107082292D01*
X174265681Y-107078754D01*
X174265680Y-107078753D01*
X174159757Y-107024782D01*
X174159756Y-107024782D01*
X174152813Y-107021244D01*
X174145118Y-107020025D01*
X174145117Y-107020025D01*
X174027697Y-107001428D01*
X174020000Y-107000209D01*
X174012303Y-107001428D01*
X173894883Y-107020025D01*
X173894882Y-107020025D01*
X173887187Y-107021244D01*
X173880244Y-107024782D01*
X173880243Y-107024782D01*
X173774320Y-107078753D01*
X173774319Y-107078754D01*
X173767375Y-107082292D01*
X173672292Y-107177375D01*
X173668754Y-107184319D01*
X173668753Y-107184320D01*
X173633086Y-107254320D01*
X173611244Y-107297187D01*
X173610025Y-107304882D01*
X173610025Y-107304883D01*
X173597430Y-107384407D01*
X173590209Y-107430000D01*
X173591428Y-107437697D01*
X173598921Y-107485004D01*
X173611244Y-107562813D01*
X173614782Y-107569756D01*
X173614782Y-107569757D01*
X173648879Y-107636674D01*
X173672292Y-107682625D01*
X173767375Y-107777708D01*
X173774949Y-107781567D01*
X173775451Y-107782069D01*
X173780618Y-107785823D01*
X173780023Y-107786642D01*
X173818211Y-107824833D01*
X173829000Y-107869775D01*
X173829000Y-108335614D01*
X173810093Y-108393805D01*
X173800004Y-108405618D01*
X173175249Y-109030372D01*
X173120732Y-109058149D01*
X173105245Y-109059368D01*
X169724755Y-109059368D01*
X169666564Y-109040461D01*
X169630600Y-108990961D01*
X169630600Y-108929775D01*
X169654751Y-108890364D01*
X170308219Y-108236895D01*
X170313012Y-108232618D01*
X170321958Y-108228322D01*
X170330838Y-108217219D01*
X170339156Y-108206817D01*
X170346263Y-108198875D01*
X170346358Y-108198756D01*
X170350283Y-108194831D01*
X170353238Y-108190129D01*
X170353587Y-108189692D01*
X170359449Y-108181443D01*
X170369419Y-108168976D01*
X170369420Y-108168974D01*
X170376383Y-108160267D01*
X170378650Y-108150408D01*
X170379202Y-108149411D01*
X170379518Y-108148318D01*
X170384902Y-108139752D01*
X170387945Y-108112826D01*
X170389696Y-108102589D01*
X170389744Y-108102163D01*
X170391000Y-108096703D01*
X170391000Y-108091099D01*
X170391032Y-108090817D01*
X170391626Y-108080268D01*
X170393438Y-108064239D01*
X170393438Y-108064238D01*
X170394690Y-108053162D01*
X170391374Y-108043667D01*
X170391000Y-108036970D01*
X170391000Y-107939775D01*
X170409907Y-107881584D01*
X170439645Y-107856185D01*
X170439382Y-107855823D01*
X170443974Y-107852487D01*
X170445051Y-107851567D01*
X170452625Y-107847708D01*
X170547708Y-107752625D01*
X170568792Y-107711247D01*
X170605218Y-107639757D01*
X170605218Y-107639756D01*
X170608756Y-107632813D01*
X170617913Y-107575000D01*
X170628572Y-107507697D01*
X170629791Y-107500000D01*
X170613481Y-107397022D01*
X170609975Y-107374883D01*
X170609975Y-107374882D01*
X170608756Y-107367187D01*
X170604387Y-107358613D01*
X170551247Y-107254320D01*
X170551246Y-107254319D01*
X170547708Y-107247375D01*
X170452625Y-107152292D01*
X170445681Y-107148754D01*
X170445680Y-107148753D01*
X170339757Y-107094782D01*
X170339756Y-107094782D01*
X170332813Y-107091244D01*
X170325118Y-107090025D01*
X170325117Y-107090025D01*
X170207697Y-107071428D01*
X170200000Y-107070209D01*
X170192303Y-107071428D01*
X170074883Y-107090025D01*
X170074882Y-107090025D01*
X170067187Y-107091244D01*
X170060244Y-107094782D01*
X170060243Y-107094782D01*
X169954320Y-107148753D01*
X169954319Y-107148754D01*
X169947375Y-107152292D01*
X169852292Y-107247375D01*
X169848754Y-107254319D01*
X169848753Y-107254320D01*
X169795613Y-107358613D01*
X169791244Y-107367187D01*
X169790025Y-107374882D01*
X169790025Y-107374883D01*
X169786519Y-107397022D01*
X169770209Y-107500000D01*
X169771428Y-107507697D01*
X169782088Y-107575000D01*
X169791244Y-107632813D01*
X169794782Y-107639756D01*
X169794782Y-107639757D01*
X169831209Y-107711247D01*
X169852292Y-107752625D01*
X169947375Y-107847708D01*
X169954949Y-107851567D01*
X169955451Y-107852069D01*
X169960618Y-107855823D01*
X169960023Y-107856642D01*
X169998211Y-107894833D01*
X170009000Y-107939775D01*
X170009000Y-107954877D01*
X169990093Y-108013068D01*
X169980004Y-108024881D01*
X169274513Y-108730372D01*
X169219996Y-108758149D01*
X169204509Y-108759368D01*
X167399755Y-108759368D01*
X167341564Y-108740461D01*
X167305600Y-108690961D01*
X167305600Y-108629775D01*
X167329751Y-108590364D01*
X167783224Y-108136891D01*
X167788013Y-108132617D01*
X167796958Y-108128322D01*
X167814152Y-108106822D01*
X167821261Y-108098878D01*
X167821356Y-108098759D01*
X167825284Y-108094831D01*
X167828244Y-108090122D01*
X167828589Y-108089689D01*
X167834456Y-108081434D01*
X167844419Y-108068976D01*
X167844420Y-108068974D01*
X167851383Y-108060267D01*
X167853650Y-108050409D01*
X167854203Y-108049410D01*
X167854519Y-108048316D01*
X167859902Y-108039752D01*
X167862949Y-108012802D01*
X167864699Y-108002571D01*
X167864746Y-108002156D01*
X167866000Y-107996703D01*
X167866000Y-107991103D01*
X167866031Y-107990830D01*
X167866627Y-107980265D01*
X167868438Y-107964241D01*
X167869691Y-107953161D01*
X167867619Y-107947228D01*
X167879218Y-107890723D01*
X167914937Y-107856588D01*
X167914382Y-107855823D01*
X167920035Y-107851716D01*
X167920350Y-107851415D01*
X167927625Y-107847708D01*
X168022708Y-107752625D01*
X168043792Y-107711247D01*
X168080218Y-107639757D01*
X168080218Y-107639756D01*
X168083756Y-107632813D01*
X168092913Y-107575000D01*
X168103572Y-107507697D01*
X168104791Y-107500000D01*
X168088481Y-107397022D01*
X168084975Y-107374883D01*
X168084975Y-107374882D01*
X168083756Y-107367187D01*
X168079387Y-107358613D01*
X168026247Y-107254320D01*
X168026246Y-107254319D01*
X168022708Y-107247375D01*
X167927625Y-107152292D01*
X167920681Y-107148754D01*
X167920680Y-107148753D01*
X167814757Y-107094782D01*
X167814756Y-107094782D01*
X167807813Y-107091244D01*
X167800118Y-107090025D01*
X167800117Y-107090025D01*
X167682697Y-107071428D01*
X167675000Y-107070209D01*
X167667303Y-107071428D01*
X167549883Y-107090025D01*
X167549882Y-107090025D01*
X167542187Y-107091244D01*
X167535244Y-107094782D01*
X167535243Y-107094782D01*
X167429320Y-107148753D01*
X167429319Y-107148754D01*
X167422375Y-107152292D01*
X167327292Y-107247375D01*
X167323754Y-107254319D01*
X167323753Y-107254320D01*
X167270613Y-107358613D01*
X167266244Y-107367187D01*
X167265025Y-107374882D01*
X167265025Y-107374883D01*
X167261519Y-107397022D01*
X167245209Y-107500000D01*
X167246428Y-107507697D01*
X167257088Y-107575000D01*
X167266244Y-107632813D01*
X167269782Y-107639756D01*
X167269782Y-107639757D01*
X167306209Y-107711247D01*
X167327292Y-107752625D01*
X167407272Y-107832605D01*
X167435049Y-107887122D01*
X167425478Y-107947554D01*
X167407272Y-107972613D01*
X166949513Y-108430372D01*
X166894996Y-108458149D01*
X166879509Y-108459368D01*
X166574755Y-108459368D01*
X166516564Y-108440461D01*
X166480600Y-108390961D01*
X166480600Y-108329775D01*
X166504751Y-108290364D01*
X166508224Y-108286891D01*
X166513013Y-108282617D01*
X166521958Y-108278322D01*
X166530144Y-108268087D01*
X166539152Y-108256822D01*
X166546264Y-108248875D01*
X166546359Y-108248756D01*
X166550283Y-108244832D01*
X166553238Y-108240130D01*
X166553581Y-108239700D01*
X166559458Y-108231430D01*
X166569421Y-108218973D01*
X166569422Y-108218971D01*
X166576383Y-108210267D01*
X166578650Y-108200410D01*
X166579202Y-108199412D01*
X166579518Y-108198317D01*
X166584902Y-108189752D01*
X166587945Y-108162826D01*
X166589696Y-108152589D01*
X166589744Y-108152163D01*
X166591000Y-108146703D01*
X166591000Y-108141099D01*
X166591032Y-108140817D01*
X166591626Y-108130268D01*
X166593438Y-108114240D01*
X166593438Y-108114239D01*
X166594690Y-108103162D01*
X166591374Y-108093667D01*
X166591000Y-108086974D01*
X166591000Y-107939775D01*
X166609907Y-107881584D01*
X166639645Y-107856185D01*
X166639382Y-107855823D01*
X166643974Y-107852487D01*
X166645051Y-107851567D01*
X166652625Y-107847708D01*
X166747708Y-107752625D01*
X166768792Y-107711247D01*
X166805218Y-107639757D01*
X166805218Y-107639756D01*
X166808756Y-107632813D01*
X166817913Y-107575000D01*
X166828572Y-107507697D01*
X166829791Y-107500000D01*
X166813481Y-107397022D01*
X166809975Y-107374883D01*
X166809975Y-107374882D01*
X166808756Y-107367187D01*
X166804387Y-107358613D01*
X166751247Y-107254320D01*
X166751246Y-107254319D01*
X166747708Y-107247375D01*
X166652625Y-107152292D01*
X166645681Y-107148754D01*
X166645680Y-107148753D01*
X166539757Y-107094782D01*
X166539756Y-107094782D01*
X166532813Y-107091244D01*
X166525118Y-107090025D01*
X166525117Y-107090025D01*
X166407697Y-107071428D01*
X166400000Y-107070209D01*
X166392303Y-107071428D01*
X166274883Y-107090025D01*
X166274882Y-107090025D01*
X166267187Y-107091244D01*
X166260244Y-107094782D01*
X166260243Y-107094782D01*
X166154320Y-107148753D01*
X166154319Y-107148754D01*
X166147375Y-107152292D01*
X166052292Y-107247375D01*
X166048754Y-107254319D01*
X166048753Y-107254320D01*
X165995613Y-107358613D01*
X165991244Y-107367187D01*
X165990025Y-107374882D01*
X165990025Y-107374883D01*
X165986519Y-107397022D01*
X165970209Y-107500000D01*
X165971428Y-107507697D01*
X165982088Y-107575000D01*
X165991244Y-107632813D01*
X165994782Y-107639756D01*
X165994782Y-107639757D01*
X166031209Y-107711247D01*
X166052292Y-107752625D01*
X166147375Y-107847708D01*
X166154949Y-107851567D01*
X166155451Y-107852069D01*
X166160618Y-107855823D01*
X166160023Y-107856642D01*
X166198211Y-107894833D01*
X166209000Y-107939775D01*
X166209000Y-108004879D01*
X166190093Y-108063070D01*
X166180003Y-108074883D01*
X166124513Y-108130372D01*
X166069996Y-108158149D01*
X166054510Y-108159368D01*
X163699755Y-108159368D01*
X163641564Y-108140461D01*
X163605600Y-108090961D01*
X163605600Y-108029775D01*
X163629751Y-107990364D01*
X163676488Y-107943627D01*
X163731005Y-107915850D01*
X163761978Y-107915850D01*
X163850000Y-107929791D01*
X163857697Y-107928572D01*
X163975117Y-107909975D01*
X163975118Y-107909975D01*
X163982813Y-107908756D01*
X163995140Y-107902475D01*
X164095680Y-107851247D01*
X164095681Y-107851246D01*
X164102625Y-107847708D01*
X164197708Y-107752625D01*
X164218792Y-107711247D01*
X164255218Y-107639757D01*
X164255218Y-107639756D01*
X164258756Y-107632813D01*
X164267913Y-107575000D01*
X164278572Y-107507697D01*
X164279791Y-107500000D01*
X164263481Y-107397022D01*
X164259975Y-107374883D01*
X164259975Y-107374882D01*
X164258756Y-107367187D01*
X164216851Y-107284944D01*
X164207279Y-107224514D01*
X164235056Y-107169997D01*
X164289572Y-107142219D01*
X164305060Y-107141000D01*
X164670225Y-107141000D01*
X164728416Y-107159907D01*
X164753815Y-107189645D01*
X164754177Y-107189382D01*
X164757513Y-107193974D01*
X164758432Y-107195050D01*
X164762292Y-107202625D01*
X164857375Y-107297708D01*
X164864319Y-107301246D01*
X164864320Y-107301247D01*
X164964522Y-107352303D01*
X164977187Y-107358756D01*
X164984882Y-107359975D01*
X164984883Y-107359975D01*
X165102303Y-107378572D01*
X165110000Y-107379791D01*
X165117697Y-107378572D01*
X165235117Y-107359975D01*
X165235118Y-107359975D01*
X165242813Y-107358756D01*
X165255478Y-107352303D01*
X165355680Y-107301247D01*
X165355681Y-107301246D01*
X165362625Y-107297708D01*
X165457708Y-107202625D01*
X165465931Y-107186488D01*
X165515218Y-107089757D01*
X165515218Y-107089756D01*
X165518756Y-107082813D01*
X165535832Y-106975000D01*
X165538572Y-106957697D01*
X165539791Y-106950000D01*
X165536850Y-106931428D01*
X165519975Y-106824883D01*
X165519975Y-106824882D01*
X165518756Y-106817187D01*
X165500020Y-106780415D01*
X165461247Y-106704320D01*
X165461246Y-106704319D01*
X165457708Y-106697375D01*
X165362625Y-106602292D01*
X165355681Y-106598754D01*
X165355680Y-106598753D01*
X165249757Y-106544782D01*
X165249756Y-106544782D01*
X165242813Y-106541244D01*
X165235118Y-106540025D01*
X165235117Y-106540025D01*
X165117697Y-106521428D01*
X165110000Y-106520209D01*
X165102303Y-106521428D01*
X164984883Y-106540025D01*
X164984882Y-106540025D01*
X164977187Y-106541244D01*
X164970244Y-106544782D01*
X164970243Y-106544782D01*
X164864320Y-106598753D01*
X164864319Y-106598754D01*
X164857375Y-106602292D01*
X164762292Y-106697375D01*
X164758622Y-106704578D01*
X164758433Y-106704949D01*
X164757931Y-106705451D01*
X164754177Y-106710618D01*
X164753358Y-106710023D01*
X164715167Y-106748211D01*
X164670225Y-106759000D01*
X163647947Y-106759000D01*
X163641539Y-106758636D01*
X163632177Y-106755348D01*
X163608044Y-106758034D01*
X163604815Y-106758393D01*
X163594170Y-106758983D01*
X163594019Y-106759000D01*
X163588467Y-106759000D01*
X163583050Y-106760236D01*
X163582505Y-106760297D01*
X163572508Y-106761987D01*
X163556655Y-106763752D01*
X163556653Y-106763753D01*
X163545571Y-106764986D01*
X163536997Y-106770353D01*
X163535902Y-106770668D01*
X163534905Y-106771217D01*
X163525041Y-106773468D01*
X163516323Y-106780415D01*
X163503851Y-106790354D01*
X163495368Y-106796360D01*
X163495037Y-106796623D01*
X163490289Y-106799596D01*
X163486329Y-106803556D01*
X163486118Y-106803724D01*
X163478218Y-106810780D01*
X163456891Y-106827775D01*
X163452522Y-106836833D01*
X163448055Y-106841830D01*
X162759513Y-107530372D01*
X162704996Y-107558149D01*
X162689509Y-107559368D01*
X161525518Y-107559368D01*
X161467327Y-107540461D01*
X161431363Y-107490961D01*
X161431363Y-107429775D01*
X161467327Y-107380275D01*
X161480573Y-107372159D01*
X161570680Y-107326247D01*
X161570681Y-107326246D01*
X161577625Y-107322708D01*
X161672708Y-107227625D01*
X161676470Y-107220243D01*
X161730218Y-107114757D01*
X161730218Y-107114756D01*
X161733756Y-107107813D01*
X161738935Y-107075117D01*
X161753572Y-106982697D01*
X161754791Y-106975000D01*
X161750865Y-106950209D01*
X161734975Y-106849883D01*
X161734975Y-106849882D01*
X161733756Y-106842187D01*
X161717480Y-106810243D01*
X161676247Y-106729320D01*
X161676246Y-106729319D01*
X161672708Y-106722375D01*
X161577625Y-106627292D01*
X161570681Y-106623754D01*
X161570680Y-106623753D01*
X161464757Y-106569782D01*
X161464756Y-106569782D01*
X161457813Y-106566244D01*
X161450118Y-106565025D01*
X161450117Y-106565025D01*
X161332697Y-106546428D01*
X161325000Y-106545209D01*
X161230255Y-106560215D01*
X161169824Y-106550644D01*
X161154965Y-106541059D01*
X161153973Y-106540580D01*
X161145267Y-106533617D01*
X161135409Y-106531350D01*
X161134410Y-106530797D01*
X161133316Y-106530481D01*
X161124752Y-106525098D01*
X161097827Y-106522054D01*
X161087589Y-106520304D01*
X161087163Y-106520256D01*
X161081703Y-106519000D01*
X161076098Y-106519000D01*
X161075816Y-106518968D01*
X161065265Y-106518373D01*
X161064512Y-106518288D01*
X161038162Y-106515309D01*
X161028665Y-106518626D01*
X161021969Y-106519000D01*
X156704387Y-106519000D01*
X156646196Y-106500093D01*
X156634383Y-106490004D01*
X156606155Y-106461776D01*
X156601881Y-106456987D01*
X156597586Y-106448042D01*
X156588882Y-106441081D01*
X156588881Y-106441080D01*
X156576086Y-106430848D01*
X156568142Y-106423739D01*
X156568023Y-106423644D01*
X156564095Y-106419716D01*
X156559386Y-106416756D01*
X156558953Y-106416411D01*
X156550698Y-106410544D01*
X156538240Y-106400581D01*
X156538238Y-106400580D01*
X156529531Y-106393617D01*
X156519673Y-106391350D01*
X156518674Y-106390797D01*
X156517580Y-106390481D01*
X156509016Y-106385098D01*
X156482091Y-106382054D01*
X156471853Y-106380304D01*
X156471427Y-106380256D01*
X156465967Y-106379000D01*
X156460362Y-106379000D01*
X156460080Y-106378968D01*
X156449529Y-106378373D01*
X156448776Y-106378288D01*
X156422426Y-106375309D01*
X156412929Y-106378626D01*
X156406233Y-106379000D01*
X140437948Y-106379000D01*
X140431540Y-106378636D01*
X140422178Y-106375348D01*
X140394816Y-106378393D01*
X140384172Y-106378983D01*
X140384021Y-106379000D01*
X140378467Y-106379000D01*
X140373049Y-106380236D01*
X140372505Y-106380297D01*
X140362515Y-106381987D01*
X140335571Y-106384986D01*
X140326997Y-106390353D01*
X140325902Y-106390668D01*
X140324905Y-106391217D01*
X140315041Y-106393468D01*
X140293988Y-106410245D01*
X140293851Y-106410354D01*
X140285368Y-106416360D01*
X140285037Y-106416623D01*
X140280289Y-106419596D01*
X140276329Y-106423556D01*
X140276118Y-106423724D01*
X140268218Y-106430780D01*
X140246891Y-106447775D01*
X140242522Y-106456833D01*
X140238055Y-106461830D01*
X138944881Y-107755004D01*
X138890364Y-107782781D01*
X138874877Y-107784000D01*
X137801741Y-107784000D01*
X137743550Y-107765093D01*
X137707586Y-107715593D01*
X137707586Y-107654407D01*
X137731737Y-107614996D01*
X141165237Y-104181496D01*
X141219754Y-104153719D01*
X141235241Y-104152500D01*
X143416471Y-104152500D01*
X143421652Y-104152636D01*
X143450993Y-104154174D01*
X143450995Y-104154174D01*
X143461384Y-104154718D01*
X143471096Y-104150990D01*
X143471097Y-104150990D01*
X143482544Y-104146596D01*
X143497433Y-104142186D01*
X143519600Y-104137474D01*
X143528019Y-104131358D01*
X143535286Y-104128122D01*
X143541958Y-104123789D01*
X143551673Y-104120060D01*
X143567697Y-104104036D01*
X143579510Y-104093947D01*
X143581273Y-104092666D01*
X143597842Y-104080628D01*
X143603048Y-104071612D01*
X143608653Y-104065386D01*
X143616258Y-104055475D01*
X144275237Y-103396496D01*
X144329754Y-103368719D01*
X144345241Y-103367500D01*
X153263500Y-103367500D01*
X153321691Y-103386407D01*
X153357655Y-103435907D01*
X153362500Y-103466500D01*
X153362500Y-105872558D01*
X153369898Y-105909748D01*
X153398078Y-105951922D01*
X153440252Y-105980102D01*
X153449813Y-105982004D01*
X153472680Y-105986553D01*
X153472683Y-105986553D01*
X153477442Y-105987500D01*
X154462558Y-105987500D01*
X154467317Y-105986553D01*
X154467320Y-105986553D01*
X154490187Y-105982004D01*
X154499748Y-105980102D01*
X154541922Y-105951922D01*
X154570102Y-105909748D01*
X154577500Y-105872558D01*
X154577500Y-103792558D01*
X155902500Y-103792558D01*
X155909898Y-103829748D01*
X155938078Y-103871922D01*
X155980252Y-103900102D01*
X155989813Y-103902004D01*
X156012680Y-103906553D01*
X156012683Y-103906553D01*
X156017442Y-103907500D01*
X157002558Y-103907500D01*
X157007317Y-103906553D01*
X157007320Y-103906553D01*
X157030187Y-103902004D01*
X157039748Y-103900102D01*
X157081922Y-103871922D01*
X157110102Y-103829748D01*
X157117500Y-103792558D01*
X157117500Y-98327442D01*
X157116499Y-98322407D01*
X157112004Y-98299813D01*
X157110102Y-98290252D01*
X157081922Y-98248078D01*
X157039748Y-98219898D01*
X157030187Y-98217996D01*
X157007320Y-98213447D01*
X157007317Y-98213447D01*
X157002558Y-98212500D01*
X156900000Y-98212500D01*
X156841809Y-98193593D01*
X156805845Y-98144093D01*
X156801000Y-98113500D01*
X156801000Y-97890155D01*
X156819907Y-97831964D01*
X156869407Y-97796000D01*
X156930593Y-97796000D01*
X156944936Y-97801942D01*
X157017187Y-97838756D01*
X157024882Y-97839975D01*
X157024883Y-97839975D01*
X157142303Y-97858572D01*
X157150000Y-97859791D01*
X157157697Y-97858572D01*
X157275117Y-97839975D01*
X157275118Y-97839975D01*
X157282813Y-97838756D01*
X157296143Y-97831964D01*
X157395680Y-97781247D01*
X157395681Y-97781246D01*
X157402625Y-97777708D01*
X157497708Y-97682625D01*
X157501567Y-97675051D01*
X157502069Y-97674549D01*
X157505823Y-97669382D01*
X157506642Y-97669977D01*
X157544833Y-97631789D01*
X157589775Y-97621000D01*
X158879877Y-97621000D01*
X158938068Y-97639907D01*
X158949881Y-97649996D01*
X160400004Y-99100119D01*
X160427781Y-99154636D01*
X160429000Y-99170123D01*
X160429000Y-102749659D01*
X160410093Y-102807850D01*
X160360593Y-102843814D01*
X160299407Y-102843814D01*
X160259996Y-102819663D01*
X160232625Y-102792292D01*
X160225681Y-102788754D01*
X160225680Y-102788753D01*
X160119757Y-102734782D01*
X160119756Y-102734782D01*
X160112813Y-102731244D01*
X160105118Y-102730025D01*
X160105117Y-102730025D01*
X159987697Y-102711428D01*
X159980000Y-102710209D01*
X159972303Y-102711428D01*
X159854882Y-102730025D01*
X159854880Y-102730026D01*
X159847187Y-102731244D01*
X159840248Y-102734780D01*
X159840247Y-102734780D01*
X159807020Y-102751710D01*
X159762075Y-102762500D01*
X159756500Y-102762500D01*
X159698309Y-102743593D01*
X159662345Y-102694093D01*
X159657500Y-102663500D01*
X159657500Y-100407442D01*
X159650102Y-100370252D01*
X159621922Y-100328078D01*
X159579748Y-100299898D01*
X159570187Y-100297996D01*
X159547320Y-100293447D01*
X159547317Y-100293447D01*
X159542558Y-100292500D01*
X158557442Y-100292500D01*
X158552683Y-100293447D01*
X158552680Y-100293447D01*
X158529813Y-100297996D01*
X158520252Y-100299898D01*
X158478078Y-100328078D01*
X158449898Y-100370252D01*
X158442500Y-100407442D01*
X158442500Y-105872558D01*
X158449898Y-105909748D01*
X158478078Y-105951922D01*
X158520252Y-105980102D01*
X158529813Y-105982004D01*
X158552680Y-105986553D01*
X158552683Y-105986553D01*
X158557442Y-105987500D01*
X159542558Y-105987500D01*
X159547317Y-105986553D01*
X159547320Y-105986553D01*
X159570187Y-105982004D01*
X159579748Y-105980102D01*
X159621922Y-105951922D01*
X159650102Y-105909748D01*
X159657500Y-105872558D01*
X159657500Y-103616500D01*
X159676407Y-103558309D01*
X159725907Y-103522345D01*
X159756500Y-103517500D01*
X159762075Y-103517500D01*
X159807020Y-103528290D01*
X159840243Y-103545218D01*
X159847187Y-103548756D01*
X159854880Y-103549974D01*
X159854882Y-103549975D01*
X159972303Y-103568572D01*
X159980000Y-103569791D01*
X159987697Y-103568572D01*
X160105117Y-103549975D01*
X160105118Y-103549975D01*
X160112813Y-103548756D01*
X160148954Y-103530341D01*
X160225680Y-103491247D01*
X160225681Y-103491246D01*
X160232625Y-103487708D01*
X160259996Y-103460337D01*
X160314513Y-103432560D01*
X160374945Y-103442131D01*
X160418210Y-103485396D01*
X160429000Y-103530341D01*
X160429000Y-104170225D01*
X160410093Y-104228416D01*
X160380355Y-104253815D01*
X160380618Y-104254177D01*
X160376026Y-104257513D01*
X160374950Y-104258432D01*
X160367375Y-104262292D01*
X160272292Y-104357375D01*
X160268754Y-104364319D01*
X160268753Y-104364320D01*
X160214782Y-104470243D01*
X160211244Y-104477187D01*
X160210025Y-104484882D01*
X160210025Y-104484883D01*
X160201154Y-104540892D01*
X160190209Y-104610000D01*
X160191428Y-104617697D01*
X160206564Y-104713261D01*
X160211244Y-104742813D01*
X160214782Y-104749756D01*
X160214782Y-104749757D01*
X160254501Y-104827708D01*
X160272292Y-104862625D01*
X160367375Y-104957708D01*
X160374319Y-104961246D01*
X160374320Y-104961247D01*
X160480243Y-105015218D01*
X160487187Y-105018756D01*
X160494882Y-105019975D01*
X160494883Y-105019975D01*
X160612303Y-105038572D01*
X160620000Y-105039791D01*
X160627697Y-105038572D01*
X160745117Y-105019975D01*
X160745118Y-105019975D01*
X160752813Y-105018756D01*
X160759757Y-105015218D01*
X160865680Y-104961247D01*
X160865681Y-104961246D01*
X160872625Y-104957708D01*
X160967708Y-104862625D01*
X160985500Y-104827708D01*
X161025218Y-104749757D01*
X161025218Y-104749756D01*
X161028756Y-104742813D01*
X161033437Y-104713261D01*
X161048572Y-104617697D01*
X161049791Y-104610000D01*
X161038846Y-104540892D01*
X161029975Y-104484883D01*
X161029975Y-104484882D01*
X161028756Y-104477187D01*
X161025218Y-104470243D01*
X160971247Y-104364320D01*
X160971246Y-104364319D01*
X160967708Y-104357375D01*
X160872625Y-104262292D01*
X160865051Y-104258433D01*
X160864549Y-104257931D01*
X160859382Y-104254177D01*
X160859977Y-104253358D01*
X160821789Y-104215167D01*
X160811000Y-104170225D01*
X160811000Y-103888367D01*
X160829907Y-103830176D01*
X160879407Y-103794212D01*
X160940593Y-103794212D01*
X160992315Y-103833365D01*
X161018078Y-103871922D01*
X161060252Y-103900102D01*
X161069813Y-103902004D01*
X161092680Y-103906553D01*
X161092683Y-103906553D01*
X161097442Y-103907500D01*
X162082558Y-103907500D01*
X162087317Y-103906553D01*
X162087320Y-103906553D01*
X162110187Y-103902004D01*
X162119748Y-103900102D01*
X162161922Y-103871922D01*
X162190102Y-103829748D01*
X162197500Y-103792558D01*
X162197500Y-98327442D01*
X162196499Y-98322407D01*
X162192004Y-98299813D01*
X162190102Y-98290252D01*
X162161922Y-98248078D01*
X162119748Y-98219898D01*
X162110187Y-98217996D01*
X162087320Y-98213447D01*
X162087317Y-98213447D01*
X162082558Y-98212500D01*
X161097442Y-98212500D01*
X161092683Y-98213447D01*
X161092680Y-98213447D01*
X161069813Y-98217996D01*
X161060252Y-98219898D01*
X161018078Y-98248078D01*
X160989898Y-98290252D01*
X160987996Y-98299813D01*
X160983502Y-98322407D01*
X160982500Y-98327442D01*
X160982500Y-98923175D01*
X160963593Y-98981366D01*
X160914093Y-99017330D01*
X160852907Y-99017330D01*
X160803407Y-98981366D01*
X160798309Y-98972830D01*
X160796532Y-98965041D01*
X160789585Y-98956323D01*
X160789584Y-98956321D01*
X160779644Y-98943848D01*
X160773633Y-98935359D01*
X160773377Y-98935037D01*
X160770404Y-98930289D01*
X160766447Y-98926332D01*
X160766279Y-98926121D01*
X160759219Y-98918217D01*
X160749172Y-98905609D01*
X160742225Y-98896891D01*
X160733167Y-98892522D01*
X160728170Y-98888055D01*
X159161891Y-97321776D01*
X159157617Y-97316987D01*
X159153322Y-97308042D01*
X159144618Y-97301081D01*
X159144617Y-97301080D01*
X159131822Y-97290848D01*
X159123878Y-97283739D01*
X159123759Y-97283644D01*
X159119831Y-97279716D01*
X159115122Y-97276756D01*
X159114689Y-97276411D01*
X159106434Y-97270544D01*
X159093976Y-97260581D01*
X159093974Y-97260580D01*
X159085267Y-97253617D01*
X159075409Y-97251350D01*
X159074412Y-97250798D01*
X159073317Y-97250482D01*
X159064752Y-97245098D01*
X159053671Y-97243845D01*
X159052505Y-97243437D01*
X159003833Y-97206359D01*
X158986250Y-97147755D01*
X159006473Y-97090008D01*
X159056776Y-97055176D01*
X159085225Y-97051000D01*
X159540225Y-97051000D01*
X159598416Y-97069907D01*
X159623815Y-97099645D01*
X159624177Y-97099382D01*
X159627513Y-97103974D01*
X159628432Y-97105050D01*
X159632292Y-97112625D01*
X159727375Y-97207708D01*
X159734319Y-97211246D01*
X159734320Y-97211247D01*
X159831490Y-97260758D01*
X159847187Y-97268756D01*
X159854882Y-97269975D01*
X159854883Y-97269975D01*
X159972303Y-97288572D01*
X159980000Y-97289791D01*
X159987697Y-97288572D01*
X160105117Y-97269975D01*
X160105118Y-97269975D01*
X160112813Y-97268756D01*
X160128510Y-97260758D01*
X160225680Y-97211247D01*
X160225681Y-97211246D01*
X160232625Y-97207708D01*
X160327708Y-97112625D01*
X160336783Y-97094816D01*
X160385218Y-96999757D01*
X160385218Y-96999756D01*
X160388756Y-96992813D01*
X160409791Y-96860000D01*
X160388756Y-96727187D01*
X160385218Y-96720243D01*
X160331247Y-96614320D01*
X160331246Y-96614319D01*
X160327708Y-96607375D01*
X160232625Y-96512292D01*
X160225681Y-96508754D01*
X160225680Y-96508753D01*
X160119757Y-96454782D01*
X160119756Y-96454782D01*
X160112813Y-96451244D01*
X160105118Y-96450025D01*
X160105117Y-96450025D01*
X159987697Y-96431428D01*
X159980000Y-96430209D01*
X159972303Y-96431428D01*
X159854883Y-96450025D01*
X159854882Y-96450025D01*
X159847187Y-96451244D01*
X159840244Y-96454782D01*
X159840243Y-96454782D01*
X159734320Y-96508753D01*
X159734319Y-96508754D01*
X159727375Y-96512292D01*
X159632292Y-96607375D01*
X159628433Y-96614949D01*
X159627931Y-96615451D01*
X159624177Y-96620618D01*
X159623358Y-96620023D01*
X159585167Y-96658211D01*
X159540225Y-96669000D01*
X157037947Y-96669000D01*
X157031539Y-96668636D01*
X157022177Y-96665348D01*
X156998044Y-96668034D01*
X156994815Y-96668393D01*
X156984170Y-96668983D01*
X156984019Y-96669000D01*
X156978467Y-96669000D01*
X156973050Y-96670236D01*
X156972505Y-96670297D01*
X156962508Y-96671987D01*
X156946655Y-96673752D01*
X156946653Y-96673753D01*
X156935571Y-96674986D01*
X156926997Y-96680353D01*
X156925902Y-96680668D01*
X156924905Y-96681217D01*
X156915041Y-96683468D01*
X156906323Y-96690415D01*
X156893851Y-96700354D01*
X156885368Y-96706360D01*
X156885037Y-96706623D01*
X156880289Y-96709596D01*
X156876329Y-96713556D01*
X156876118Y-96713724D01*
X156868218Y-96720780D01*
X156846891Y-96737775D01*
X156842522Y-96746833D01*
X156838055Y-96751830D01*
X156501776Y-97088109D01*
X156496987Y-97092383D01*
X156488042Y-97096678D01*
X156481081Y-97105382D01*
X156481080Y-97105383D01*
X156470848Y-97118178D01*
X156463739Y-97126122D01*
X156463644Y-97126241D01*
X156459716Y-97130169D01*
X156456756Y-97134878D01*
X156456411Y-97135311D01*
X156450544Y-97143566D01*
X156440581Y-97156024D01*
X156440580Y-97156026D01*
X156433617Y-97164733D01*
X156431350Y-97174591D01*
X156430797Y-97175590D01*
X156430481Y-97176684D01*
X156425098Y-97185248D01*
X156423846Y-97196325D01*
X156422054Y-97212174D01*
X156420304Y-97222411D01*
X156420256Y-97222837D01*
X156419000Y-97228297D01*
X156419000Y-97233902D01*
X156418968Y-97234184D01*
X156418373Y-97244735D01*
X156415309Y-97271838D01*
X156418626Y-97281335D01*
X156419000Y-97288031D01*
X156419000Y-98113500D01*
X156400093Y-98171691D01*
X156350593Y-98207655D01*
X156320000Y-98212500D01*
X156017442Y-98212500D01*
X156012683Y-98213447D01*
X156012680Y-98213447D01*
X155989813Y-98217996D01*
X155980252Y-98219898D01*
X155938078Y-98248078D01*
X155909898Y-98290252D01*
X155907996Y-98299813D01*
X155903502Y-98322407D01*
X155902500Y-98327442D01*
X155902500Y-103792558D01*
X154577500Y-103792558D01*
X154577500Y-100407442D01*
X154570102Y-100370252D01*
X154541922Y-100328078D01*
X154499748Y-100299898D01*
X154490187Y-100297996D01*
X154467320Y-100293447D01*
X154467317Y-100293447D01*
X154462558Y-100292500D01*
X153477442Y-100292500D01*
X153472683Y-100293447D01*
X153472680Y-100293447D01*
X153449813Y-100297996D01*
X153440252Y-100299898D01*
X153398078Y-100328078D01*
X153369898Y-100370252D01*
X153362500Y-100407442D01*
X153362500Y-102813500D01*
X153343593Y-102871691D01*
X153294093Y-102907655D01*
X153263500Y-102912500D01*
X144218541Y-102912500D01*
X144213359Y-102912364D01*
X144173616Y-102910281D01*
X144152447Y-102918407D01*
X144137560Y-102922816D01*
X144133759Y-102923624D01*
X144115400Y-102927526D01*
X144106980Y-102933643D01*
X144099708Y-102936881D01*
X144093042Y-102941210D01*
X144083327Y-102944939D01*
X144067299Y-102960967D01*
X144055487Y-102971055D01*
X144037158Y-102984372D01*
X144031954Y-102993385D01*
X144026347Y-102999612D01*
X144018742Y-103009524D01*
X143359762Y-103668504D01*
X143305245Y-103696281D01*
X143289758Y-103697500D01*
X141108541Y-103697500D01*
X141103359Y-103697364D01*
X141063616Y-103695281D01*
X141042447Y-103703407D01*
X141027560Y-103707816D01*
X141005400Y-103712526D01*
X140996980Y-103718643D01*
X140989708Y-103721881D01*
X140983042Y-103726210D01*
X140973327Y-103729939D01*
X140957299Y-103745967D01*
X140945487Y-103756055D01*
X140927158Y-103769372D01*
X140921954Y-103778385D01*
X140916347Y-103784612D01*
X140908742Y-103794524D01*
X137369762Y-107333504D01*
X137315245Y-107361281D01*
X137299758Y-107362500D01*
X133345241Y-107362500D01*
X133287050Y-107343593D01*
X133275237Y-107333504D01*
X132406496Y-106464762D01*
X132378719Y-106410245D01*
X132377500Y-106394758D01*
X132377500Y-97768541D01*
X132377636Y-97763359D01*
X132379719Y-97723616D01*
X132371593Y-97702447D01*
X132367184Y-97687560D01*
X132364638Y-97675581D01*
X132362474Y-97665400D01*
X132356357Y-97656980D01*
X132353119Y-97649708D01*
X132348790Y-97643042D01*
X132345061Y-97633327D01*
X132329033Y-97617299D01*
X132318944Y-97605486D01*
X132305628Y-97587158D01*
X132296615Y-97581954D01*
X132290388Y-97576347D01*
X132280476Y-97568742D01*
X130195685Y-95483951D01*
X130167908Y-95429434D01*
X130167908Y-95398461D01*
X130173572Y-95362697D01*
X130174791Y-95355000D01*
X130164148Y-95287801D01*
X130154975Y-95229883D01*
X130154975Y-95229882D01*
X130153756Y-95222187D01*
X130150218Y-95215243D01*
X130096247Y-95109320D01*
X130096246Y-95109319D01*
X130092708Y-95102375D01*
X129997625Y-95007292D01*
X129990681Y-95003754D01*
X129990680Y-95003753D01*
X129884757Y-94949782D01*
X129884756Y-94949782D01*
X129877813Y-94946244D01*
X129870118Y-94945025D01*
X129870117Y-94945025D01*
X129752697Y-94926428D01*
X129745000Y-94925209D01*
X129737303Y-94926428D01*
X129619883Y-94945025D01*
X129619882Y-94945025D01*
X129612187Y-94946244D01*
X129605244Y-94949782D01*
X129605243Y-94949782D01*
X129499320Y-95003753D01*
X129499319Y-95003754D01*
X129492375Y-95007292D01*
X129397292Y-95102375D01*
X129393754Y-95109319D01*
X129393753Y-95109320D01*
X129339782Y-95215243D01*
X129336244Y-95222187D01*
X129335025Y-95229883D01*
X129335025Y-95229884D01*
X129325082Y-95292664D01*
X129297305Y-95347181D01*
X129242789Y-95374959D01*
X129182357Y-95365388D01*
X129157297Y-95347182D01*
X126410115Y-92600000D01*
X128890209Y-92600000D01*
X128891428Y-92607697D01*
X128900970Y-92667941D01*
X128911244Y-92732813D01*
X128914782Y-92739756D01*
X128914782Y-92739757D01*
X128955028Y-92818742D01*
X128972292Y-92852625D01*
X129067375Y-92947708D01*
X129074319Y-92951246D01*
X129074320Y-92951247D01*
X129180243Y-93005218D01*
X129187187Y-93008756D01*
X129194882Y-93009975D01*
X129194883Y-93009975D01*
X129312303Y-93028572D01*
X129320000Y-93029791D01*
X129327697Y-93028572D01*
X129445117Y-93009975D01*
X129445118Y-93009975D01*
X129452813Y-93008756D01*
X129459757Y-93005218D01*
X129565680Y-92951247D01*
X129565681Y-92951246D01*
X129572625Y-92947708D01*
X129667708Y-92852625D01*
X129671567Y-92845051D01*
X129672069Y-92844549D01*
X129675823Y-92839382D01*
X129676642Y-92839977D01*
X129714833Y-92801789D01*
X129759775Y-92791000D01*
X129849877Y-92791000D01*
X129908068Y-92809907D01*
X129919881Y-92819996D01*
X131546373Y-94446488D01*
X131574150Y-94501005D01*
X131574150Y-94531978D01*
X131560209Y-94620000D01*
X131561428Y-94627697D01*
X131563344Y-94639791D01*
X131581244Y-94752813D01*
X131584782Y-94759756D01*
X131584782Y-94759757D01*
X131625971Y-94840593D01*
X131642292Y-94872625D01*
X131737375Y-94967708D01*
X131744319Y-94971246D01*
X131744320Y-94971247D01*
X131788025Y-94993516D01*
X131857187Y-95028756D01*
X131864882Y-95029975D01*
X131864883Y-95029975D01*
X131982303Y-95048572D01*
X131990000Y-95049791D01*
X131997697Y-95048572D01*
X132115117Y-95029975D01*
X132115118Y-95029975D01*
X132122813Y-95028756D01*
X132191975Y-94993516D01*
X132235680Y-94971247D01*
X132235681Y-94971246D01*
X132242625Y-94967708D01*
X132337708Y-94872625D01*
X132354030Y-94840593D01*
X132395218Y-94759757D01*
X132395218Y-94759756D01*
X132398756Y-94752813D01*
X132416657Y-94639791D01*
X132418572Y-94627697D01*
X132419791Y-94620000D01*
X132398756Y-94487187D01*
X132389951Y-94469907D01*
X132341247Y-94374320D01*
X132341246Y-94374319D01*
X132337708Y-94367375D01*
X132242625Y-94272292D01*
X132235681Y-94268754D01*
X132235680Y-94268753D01*
X132129757Y-94214782D01*
X132129756Y-94214782D01*
X132122813Y-94211244D01*
X132115118Y-94210025D01*
X132115117Y-94210025D01*
X131997697Y-94191428D01*
X131990000Y-94190209D01*
X131901978Y-94204150D01*
X131841547Y-94194579D01*
X131816488Y-94176373D01*
X130131891Y-92491776D01*
X130127617Y-92486987D01*
X130123322Y-92478042D01*
X130114618Y-92471081D01*
X130114617Y-92471080D01*
X130101822Y-92460848D01*
X130093878Y-92453739D01*
X130093759Y-92453644D01*
X130089831Y-92449716D01*
X130085122Y-92446756D01*
X130084689Y-92446411D01*
X130076434Y-92440544D01*
X130063976Y-92430581D01*
X130063974Y-92430580D01*
X130055267Y-92423617D01*
X130045409Y-92421350D01*
X130044410Y-92420797D01*
X130043316Y-92420481D01*
X130034752Y-92415098D01*
X130007827Y-92412054D01*
X129997589Y-92410304D01*
X129997163Y-92410256D01*
X129991703Y-92409000D01*
X129986098Y-92409000D01*
X129985816Y-92408968D01*
X129975265Y-92408373D01*
X129973832Y-92408211D01*
X129948162Y-92405309D01*
X129938665Y-92408626D01*
X129931969Y-92409000D01*
X129759775Y-92409000D01*
X129701584Y-92390093D01*
X129676185Y-92360355D01*
X129675823Y-92360618D01*
X129672487Y-92356026D01*
X129671567Y-92354949D01*
X129667708Y-92347375D01*
X129572625Y-92252292D01*
X129565681Y-92248754D01*
X129565680Y-92248753D01*
X129459757Y-92194782D01*
X129459756Y-92194782D01*
X129452813Y-92191244D01*
X129445118Y-92190025D01*
X129445117Y-92190025D01*
X129327697Y-92171428D01*
X129320000Y-92170209D01*
X129312303Y-92171428D01*
X129194883Y-92190025D01*
X129194882Y-92190025D01*
X129187187Y-92191244D01*
X129180244Y-92194782D01*
X129180243Y-92194782D01*
X129074320Y-92248753D01*
X129074319Y-92248754D01*
X129067375Y-92252292D01*
X128972292Y-92347375D01*
X128968754Y-92354319D01*
X128968753Y-92354320D01*
X128915208Y-92459407D01*
X128911244Y-92467187D01*
X128910025Y-92474882D01*
X128910025Y-92474883D01*
X128896544Y-92560004D01*
X128890209Y-92600000D01*
X126410115Y-92600000D01*
X125051891Y-91241776D01*
X125047617Y-91236987D01*
X125043322Y-91228042D01*
X125034618Y-91221081D01*
X125034617Y-91221080D01*
X125021822Y-91210848D01*
X125013878Y-91203739D01*
X125013759Y-91203644D01*
X125009831Y-91199716D01*
X125005122Y-91196756D01*
X125004689Y-91196411D01*
X124996434Y-91190544D01*
X124983976Y-91180581D01*
X124983974Y-91180580D01*
X124975267Y-91173617D01*
X124965409Y-91171350D01*
X124964410Y-91170797D01*
X124963316Y-91170481D01*
X124954752Y-91165098D01*
X124930770Y-91162387D01*
X124927826Y-91162054D01*
X124917589Y-91160304D01*
X124917163Y-91160256D01*
X124911703Y-91159000D01*
X124906098Y-91159000D01*
X124905816Y-91158968D01*
X124895265Y-91158373D01*
X124894512Y-91158288D01*
X124868162Y-91155309D01*
X124858665Y-91158626D01*
X124851969Y-91159000D01*
X121924152Y-91159000D01*
X121865961Y-91140093D01*
X121844058Y-91118189D01*
X121841246Y-91114318D01*
X121837708Y-91107375D01*
X121742625Y-91012292D01*
X121735681Y-91008754D01*
X121735680Y-91008753D01*
X121629757Y-90954782D01*
X121629756Y-90954782D01*
X121622813Y-90951244D01*
X121615118Y-90950025D01*
X121615117Y-90950025D01*
X121497697Y-90931428D01*
X121490000Y-90930209D01*
X121482303Y-90931428D01*
X121364883Y-90950025D01*
X121364882Y-90950025D01*
X121357187Y-90951244D01*
X121350244Y-90954782D01*
X121350243Y-90954782D01*
X121244320Y-91008753D01*
X121244319Y-91008754D01*
X121237375Y-91012292D01*
X121142292Y-91107375D01*
X121138754Y-91114319D01*
X121138753Y-91114320D01*
X121084782Y-91220243D01*
X121081244Y-91227187D01*
X121080025Y-91234882D01*
X121080025Y-91234883D01*
X121071140Y-91290983D01*
X121060209Y-91360000D01*
X121061428Y-91367697D01*
X121077474Y-91469007D01*
X121081244Y-91492813D01*
X121084782Y-91499756D01*
X121084782Y-91499757D01*
X121138428Y-91605041D01*
X121142292Y-91612625D01*
X121237375Y-91707708D01*
X121244319Y-91711246D01*
X121244320Y-91711247D01*
X121343763Y-91761916D01*
X121357187Y-91768756D01*
X121364882Y-91769975D01*
X121364883Y-91769975D01*
X121482303Y-91788572D01*
X121490000Y-91789791D01*
X121497697Y-91788572D01*
X121615117Y-91769975D01*
X121615118Y-91769975D01*
X121622813Y-91768756D01*
X121636237Y-91761916D01*
X121735680Y-91711247D01*
X121735681Y-91711246D01*
X121742625Y-91707708D01*
X121837708Y-91612625D01*
X121841573Y-91605041D01*
X121846660Y-91595056D01*
X121889923Y-91551791D01*
X121934870Y-91541000D01*
X124769877Y-91541000D01*
X124828068Y-91559907D01*
X124839881Y-91569996D01*
X128142511Y-94872625D01*
X131313382Y-98043496D01*
X131341159Y-98098013D01*
X131331588Y-98158445D01*
X131288323Y-98201710D01*
X131243378Y-98212500D01*
X130617442Y-98212500D01*
X130612683Y-98213447D01*
X130612680Y-98213447D01*
X130589813Y-98217996D01*
X130580252Y-98219898D01*
X130538078Y-98248078D01*
X130509898Y-98290252D01*
X130507996Y-98299813D01*
X130503502Y-98322407D01*
X130502500Y-98327442D01*
X130502500Y-99718377D01*
X130483593Y-99776568D01*
X130434093Y-99812532D01*
X130372907Y-99812532D01*
X130333496Y-99788381D01*
X128061891Y-97516776D01*
X128057617Y-97511987D01*
X128053322Y-97503042D01*
X128044618Y-97496081D01*
X128044617Y-97496080D01*
X128031822Y-97485848D01*
X128023878Y-97478739D01*
X128023759Y-97478644D01*
X128019831Y-97474716D01*
X128015122Y-97471756D01*
X128014689Y-97471411D01*
X128006434Y-97465544D01*
X127993976Y-97455581D01*
X127993974Y-97455580D01*
X127985267Y-97448617D01*
X127975409Y-97446350D01*
X127974410Y-97445797D01*
X127973316Y-97445481D01*
X127964752Y-97440098D01*
X127937827Y-97437054D01*
X127927589Y-97435304D01*
X127927163Y-97435256D01*
X127921703Y-97434000D01*
X127916098Y-97434000D01*
X127915816Y-97433968D01*
X127905265Y-97433373D01*
X127904512Y-97433288D01*
X127878162Y-97430309D01*
X127868665Y-97433626D01*
X127861969Y-97434000D01*
X122187948Y-97434000D01*
X122181540Y-97433636D01*
X122172178Y-97430348D01*
X122144816Y-97433393D01*
X122134172Y-97433983D01*
X122134021Y-97434000D01*
X122128467Y-97434000D01*
X122123049Y-97435236D01*
X122122505Y-97435297D01*
X122112515Y-97436987D01*
X122085571Y-97439986D01*
X122076997Y-97445353D01*
X122075902Y-97445668D01*
X122074905Y-97446217D01*
X122065041Y-97448468D01*
X122056323Y-97455415D01*
X122043851Y-97465354D01*
X122035368Y-97471360D01*
X122035037Y-97471623D01*
X122030289Y-97474596D01*
X122026329Y-97478556D01*
X122026118Y-97478724D01*
X122018218Y-97485780D01*
X121996891Y-97502775D01*
X121992522Y-97511833D01*
X121988055Y-97516830D01*
X121321381Y-98183504D01*
X121266864Y-98211281D01*
X121251377Y-98212500D01*
X120973622Y-98212500D01*
X120915431Y-98193593D01*
X120903618Y-98183504D01*
X118044996Y-95324881D01*
X118017219Y-95270364D01*
X118016000Y-95254877D01*
X118016000Y-92095123D01*
X118034907Y-92036932D01*
X118044996Y-92025119D01*
X118256488Y-91813627D01*
X118311005Y-91785850D01*
X118341978Y-91785850D01*
X118382406Y-91792253D01*
X118410541Y-91796709D01*
X118430000Y-91799791D01*
X118437697Y-91798572D01*
X118555117Y-91779975D01*
X118555118Y-91779975D01*
X118562813Y-91778756D01*
X118569757Y-91775218D01*
X118675680Y-91721247D01*
X118675681Y-91721246D01*
X118682625Y-91717708D01*
X118777708Y-91622625D01*
X118782804Y-91612625D01*
X118835218Y-91509757D01*
X118835218Y-91509756D01*
X118838756Y-91502813D01*
X118844803Y-91464636D01*
X118858572Y-91377697D01*
X118859791Y-91370000D01*
X118858207Y-91360000D01*
X118839975Y-91244883D01*
X118839975Y-91244882D01*
X118838756Y-91237187D01*
X118834186Y-91228217D01*
X118781247Y-91124320D01*
X118781246Y-91124319D01*
X118777708Y-91117375D01*
X118682625Y-91022292D01*
X118675681Y-91018754D01*
X118675680Y-91018753D01*
X118569757Y-90964782D01*
X118569756Y-90964782D01*
X118562813Y-90961244D01*
X118555118Y-90960025D01*
X118555117Y-90960025D01*
X118437697Y-90941428D01*
X118430000Y-90940209D01*
X118422303Y-90941428D01*
X118304883Y-90960025D01*
X118304882Y-90960025D01*
X118297187Y-90961244D01*
X118290244Y-90964782D01*
X118290243Y-90964782D01*
X118184320Y-91018753D01*
X118184319Y-91018754D01*
X118177375Y-91022292D01*
X118082292Y-91117375D01*
X118078754Y-91124319D01*
X118078753Y-91124320D01*
X118025814Y-91228217D01*
X118021244Y-91237187D01*
X118020025Y-91244882D01*
X118020025Y-91244883D01*
X118001793Y-91360000D01*
X118000209Y-91370000D01*
X118011156Y-91439115D01*
X118014150Y-91458021D01*
X118004579Y-91518453D01*
X117986373Y-91543512D01*
X117716776Y-91813109D01*
X117711987Y-91817383D01*
X117703042Y-91821678D01*
X117696081Y-91830382D01*
X117696080Y-91830383D01*
X117685848Y-91843178D01*
X117678739Y-91851122D01*
X117678644Y-91851241D01*
X117674716Y-91855169D01*
X117671756Y-91859878D01*
X117671411Y-91860311D01*
X117665544Y-91868566D01*
X117655581Y-91881024D01*
X117655580Y-91881026D01*
X117648617Y-91889733D01*
X117646350Y-91899591D01*
X117645797Y-91900590D01*
X117645481Y-91901684D01*
X117640098Y-91910248D01*
X117637704Y-91931428D01*
X117637054Y-91937174D01*
X117635304Y-91947411D01*
X117635256Y-91947837D01*
X117634000Y-91953297D01*
X117634000Y-91958902D01*
X117633968Y-91959184D01*
X117633373Y-91969735D01*
X117630309Y-91996838D01*
X117633626Y-92006335D01*
X117634000Y-92013031D01*
X117634000Y-95099141D01*
X117615093Y-95157332D01*
X117565593Y-95193296D01*
X117504407Y-95193296D01*
X117464996Y-95169145D01*
X114819996Y-92524145D01*
X114792219Y-92469628D01*
X114791000Y-92454141D01*
X114791000Y-91789775D01*
X114809907Y-91731584D01*
X114839645Y-91706185D01*
X114839382Y-91705823D01*
X114843974Y-91702487D01*
X114845051Y-91701567D01*
X114852625Y-91697708D01*
X114947708Y-91602625D01*
X114961597Y-91575368D01*
X115005218Y-91489757D01*
X115005218Y-91489756D01*
X115008756Y-91482813D01*
X115017371Y-91428422D01*
X115028572Y-91357697D01*
X115029791Y-91350000D01*
X115028572Y-91342303D01*
X115009975Y-91224883D01*
X115009975Y-91224882D01*
X115008756Y-91217187D01*
X115004313Y-91208467D01*
X114951247Y-91104320D01*
X114951246Y-91104319D01*
X114947708Y-91097375D01*
X114852625Y-91002292D01*
X114845681Y-90998754D01*
X114845680Y-90998753D01*
X114739757Y-90944782D01*
X114739756Y-90944782D01*
X114732813Y-90941244D01*
X114725118Y-90940025D01*
X114725117Y-90940025D01*
X114607697Y-90921428D01*
X114600000Y-90920209D01*
X114592303Y-90921428D01*
X114474883Y-90940025D01*
X114474882Y-90940025D01*
X114467187Y-90941244D01*
X114460244Y-90944782D01*
X114460243Y-90944782D01*
X114354320Y-90998753D01*
X114354319Y-90998754D01*
X114347375Y-91002292D01*
X114252292Y-91097375D01*
X114248754Y-91104319D01*
X114248753Y-91104320D01*
X114195687Y-91208467D01*
X114191244Y-91217187D01*
X114190025Y-91224882D01*
X114190025Y-91224883D01*
X114171428Y-91342303D01*
X114170209Y-91350000D01*
X114171428Y-91357697D01*
X114182630Y-91428422D01*
X114191244Y-91482813D01*
X114194782Y-91489756D01*
X114194782Y-91489757D01*
X114238404Y-91575368D01*
X114252292Y-91602625D01*
X114347375Y-91697708D01*
X114354949Y-91701567D01*
X114355451Y-91702069D01*
X114360618Y-91705823D01*
X114360023Y-91706642D01*
X114398211Y-91744833D01*
X114409000Y-91789775D01*
X114409000Y-92536316D01*
X114408636Y-92542724D01*
X114405348Y-92552086D01*
X114408343Y-92579000D01*
X114408393Y-92579448D01*
X114408983Y-92590092D01*
X114409000Y-92590243D01*
X114409000Y-92595797D01*
X114410236Y-92601215D01*
X114410297Y-92601759D01*
X114411987Y-92611749D01*
X114414986Y-92638693D01*
X114420353Y-92647267D01*
X114420668Y-92648362D01*
X114421217Y-92649359D01*
X114423468Y-92659223D01*
X114430415Y-92667941D01*
X114440354Y-92680413D01*
X114446360Y-92688896D01*
X114446623Y-92689227D01*
X114449596Y-92693975D01*
X114453556Y-92697935D01*
X114453724Y-92698146D01*
X114460780Y-92706046D01*
X114477775Y-92727373D01*
X114486833Y-92731742D01*
X114491830Y-92736209D01*
X117020617Y-95264996D01*
X117048394Y-95319513D01*
X117038823Y-95379945D01*
X116995558Y-95423210D01*
X116950613Y-95434000D01*
X113757227Y-95434000D01*
X113699036Y-95415093D01*
X113677252Y-95389583D01*
X113675825Y-95390620D01*
X113671244Y-95384314D01*
X113667708Y-95377375D01*
X113572625Y-95282292D01*
X113565681Y-95278754D01*
X113565680Y-95278753D01*
X113459757Y-95224782D01*
X113459756Y-95224782D01*
X113452813Y-95221244D01*
X113445118Y-95220025D01*
X113445117Y-95220025D01*
X113327697Y-95201428D01*
X113320000Y-95200209D01*
X113312303Y-95201428D01*
X113194883Y-95220025D01*
X113194882Y-95220025D01*
X113187187Y-95221244D01*
X113180244Y-95224782D01*
X113180243Y-95224782D01*
X113074320Y-95278753D01*
X113074319Y-95278754D01*
X113067375Y-95282292D01*
X112972292Y-95377375D01*
X112968754Y-95384319D01*
X112968753Y-95384320D01*
X112923663Y-95472813D01*
X112911244Y-95497187D01*
X112910025Y-95504882D01*
X112910025Y-95504883D01*
X112898129Y-95579996D01*
X112890209Y-95630000D01*
X112911244Y-95762813D01*
X112914782Y-95769756D01*
X112914782Y-95769757D01*
X112965888Y-95870056D01*
X112972292Y-95882625D01*
X113067375Y-95977708D01*
X113074319Y-95981246D01*
X113074320Y-95981247D01*
X113175523Y-96032813D01*
X113187187Y-96038756D01*
X113194882Y-96039975D01*
X113194883Y-96039975D01*
X113312303Y-96058572D01*
X113320000Y-96059791D01*
X113327697Y-96058572D01*
X113445117Y-96039975D01*
X113445118Y-96039975D01*
X113452813Y-96038756D01*
X113464477Y-96032813D01*
X113565680Y-95981247D01*
X113565681Y-95981246D01*
X113572625Y-95977708D01*
X113667708Y-95882625D01*
X113674113Y-95870055D01*
X113717376Y-95826791D01*
X113762322Y-95816000D01*
X117106349Y-95816000D01*
X117164540Y-95834907D01*
X117176353Y-95844996D01*
X119680004Y-98348647D01*
X119707781Y-98403164D01*
X119709000Y-98418651D01*
X119709000Y-104011316D01*
X119708636Y-104017724D01*
X119705348Y-104027086D01*
X119706581Y-104038164D01*
X119708393Y-104054448D01*
X119708983Y-104065092D01*
X119709000Y-104065243D01*
X119709000Y-104070797D01*
X119710236Y-104076215D01*
X119710297Y-104076759D01*
X119711987Y-104086745D01*
X119714986Y-104113693D01*
X119720353Y-104122267D01*
X119720668Y-104123362D01*
X119721217Y-104124359D01*
X119723468Y-104134223D01*
X119739367Y-104154174D01*
X119740354Y-104155413D01*
X119746360Y-104163896D01*
X119746623Y-104164227D01*
X119749596Y-104168975D01*
X119753556Y-104172935D01*
X119753724Y-104173146D01*
X119760780Y-104181046D01*
X119777775Y-104202373D01*
X119786833Y-104206742D01*
X119791830Y-104211209D01*
X120188845Y-104608224D01*
X120193119Y-104613013D01*
X120197414Y-104621958D01*
X120206118Y-104628919D01*
X120206119Y-104628920D01*
X120218914Y-104639152D01*
X120226858Y-104646261D01*
X120226977Y-104646356D01*
X120230905Y-104650284D01*
X120235614Y-104653244D01*
X120236047Y-104653589D01*
X120244302Y-104659456D01*
X120256760Y-104669419D01*
X120256762Y-104669420D01*
X120265469Y-104676383D01*
X120275327Y-104678650D01*
X120276326Y-104679203D01*
X120277420Y-104679519D01*
X120285984Y-104684902D01*
X120309966Y-104687613D01*
X120312910Y-104687946D01*
X120323147Y-104689696D01*
X120323573Y-104689744D01*
X120329033Y-104691000D01*
X120334638Y-104691000D01*
X120334920Y-104691032D01*
X120345471Y-104691627D01*
X120346224Y-104691712D01*
X120372574Y-104694691D01*
X120382071Y-104691374D01*
X120388767Y-104691000D01*
X121486316Y-104691000D01*
X121492724Y-104691364D01*
X121502086Y-104694652D01*
X121529449Y-104691607D01*
X121540092Y-104691017D01*
X121540243Y-104691000D01*
X121545797Y-104691000D01*
X121551215Y-104689764D01*
X121551759Y-104689703D01*
X121561749Y-104688013D01*
X121588693Y-104685014D01*
X121597267Y-104679647D01*
X121598362Y-104679332D01*
X121599359Y-104678783D01*
X121609223Y-104676532D01*
X121630416Y-104659644D01*
X121638896Y-104653640D01*
X121639227Y-104653377D01*
X121643975Y-104650404D01*
X121647935Y-104646444D01*
X121648146Y-104646276D01*
X121656047Y-104639219D01*
X121668655Y-104629172D01*
X121677373Y-104622225D01*
X121681742Y-104613167D01*
X121686209Y-104608170D01*
X122713496Y-103580883D01*
X122768013Y-103553106D01*
X122828445Y-103562677D01*
X122871710Y-103605942D01*
X122882500Y-103650887D01*
X122882500Y-105872558D01*
X122889898Y-105909748D01*
X122918078Y-105951922D01*
X122960252Y-105980102D01*
X122969813Y-105982004D01*
X122992680Y-105986553D01*
X122992683Y-105986553D01*
X122997442Y-105987500D01*
X123982558Y-105987500D01*
X123987317Y-105986553D01*
X123987320Y-105986553D01*
X124010187Y-105982004D01*
X124019748Y-105980102D01*
X124061922Y-105951922D01*
X124090102Y-105909748D01*
X124097500Y-105872558D01*
X124097500Y-105558881D01*
X124116407Y-105500690D01*
X124165907Y-105464726D01*
X124211987Y-105461100D01*
X124330000Y-105479791D01*
X124337697Y-105478572D01*
X124455117Y-105459975D01*
X124455118Y-105459975D01*
X124462813Y-105458756D01*
X124562501Y-105407962D01*
X124575680Y-105401247D01*
X124575681Y-105401246D01*
X124582625Y-105397708D01*
X124677708Y-105302625D01*
X124695500Y-105267708D01*
X124735218Y-105189757D01*
X124735218Y-105189756D01*
X124738756Y-105182813D01*
X124759791Y-105050000D01*
X124749226Y-104983296D01*
X124739975Y-104924883D01*
X124739975Y-104924882D01*
X124738756Y-104917187D01*
X124734988Y-104909791D01*
X124681247Y-104804320D01*
X124681246Y-104804319D01*
X124677708Y-104797375D01*
X124582625Y-104702292D01*
X124575681Y-104698754D01*
X124575680Y-104698753D01*
X124469757Y-104644782D01*
X124469756Y-104644782D01*
X124462813Y-104641244D01*
X124455118Y-104640025D01*
X124455117Y-104640025D01*
X124337697Y-104621428D01*
X124330000Y-104620209D01*
X124322303Y-104621428D01*
X124275000Y-104628920D01*
X124241978Y-104634150D01*
X124181546Y-104624578D01*
X124156489Y-104606374D01*
X124126498Y-104576384D01*
X124098719Y-104521868D01*
X124097500Y-104506379D01*
X124097500Y-100407442D01*
X124090102Y-100370252D01*
X124061922Y-100328078D01*
X124019748Y-100299898D01*
X124010187Y-100297996D01*
X123987320Y-100293447D01*
X123987317Y-100293447D01*
X123982558Y-100292500D01*
X122997442Y-100292500D01*
X122992683Y-100293447D01*
X122992680Y-100293447D01*
X122969813Y-100297996D01*
X122960252Y-100299898D01*
X122918078Y-100328078D01*
X122889898Y-100370252D01*
X122882500Y-100407442D01*
X122882500Y-102865433D01*
X122863593Y-102923624D01*
X122821611Y-102954788D01*
X122819835Y-102954986D01*
X122811258Y-102960356D01*
X122810162Y-102960670D01*
X122809169Y-102961218D01*
X122799305Y-102963468D01*
X122780748Y-102978256D01*
X122778106Y-102980361D01*
X122769627Y-102986364D01*
X122769296Y-102986628D01*
X122764553Y-102989597D01*
X122760600Y-102993550D01*
X122760384Y-102993722D01*
X122752487Y-103000776D01*
X122731155Y-103017775D01*
X122726785Y-103026836D01*
X122722315Y-103031835D01*
X122040004Y-103714145D01*
X121985487Y-103741922D01*
X121925055Y-103732351D01*
X121881790Y-103689086D01*
X121871000Y-103644141D01*
X121871000Y-99670123D01*
X121889907Y-99611932D01*
X121899996Y-99600119D01*
X123355118Y-98144996D01*
X123409635Y-98117219D01*
X123425122Y-98116000D01*
X125361114Y-98116000D01*
X125419305Y-98134907D01*
X125455269Y-98184407D01*
X125455269Y-98245593D01*
X125443431Y-98269998D01*
X125429898Y-98290252D01*
X125427996Y-98299813D01*
X125423502Y-98322407D01*
X125422500Y-98327442D01*
X125422500Y-103792558D01*
X125429898Y-103829748D01*
X125458078Y-103871922D01*
X125500252Y-103900102D01*
X125509813Y-103902004D01*
X125532680Y-103906553D01*
X125532683Y-103906553D01*
X125537442Y-103907500D01*
X125740000Y-103907500D01*
X125798191Y-103926407D01*
X125834155Y-103975907D01*
X125839000Y-104006500D01*
X125839000Y-105160225D01*
X125820093Y-105218416D01*
X125790355Y-105243815D01*
X125790618Y-105244177D01*
X125786026Y-105247513D01*
X125784950Y-105248432D01*
X125777375Y-105252292D01*
X125682292Y-105347375D01*
X125678754Y-105354319D01*
X125678753Y-105354320D01*
X125625540Y-105458756D01*
X125621244Y-105467187D01*
X125600209Y-105600000D01*
X125621244Y-105732813D01*
X125624782Y-105739756D01*
X125624782Y-105739757D01*
X125641142Y-105771864D01*
X125682292Y-105852625D01*
X125777375Y-105947708D01*
X125784319Y-105951246D01*
X125784320Y-105951247D01*
X125887101Y-106003617D01*
X125897187Y-106008756D01*
X125904882Y-106009975D01*
X125904883Y-106009975D01*
X126022303Y-106028572D01*
X126030000Y-106029791D01*
X126037697Y-106028572D01*
X126155117Y-106009975D01*
X126155118Y-106009975D01*
X126162813Y-106008756D01*
X126172899Y-106003617D01*
X126275680Y-105951247D01*
X126275681Y-105951246D01*
X126282625Y-105947708D01*
X126357775Y-105872558D01*
X127962500Y-105872558D01*
X127969898Y-105909748D01*
X127998078Y-105951922D01*
X128040252Y-105980102D01*
X128049813Y-105982004D01*
X128072680Y-105986553D01*
X128072683Y-105986553D01*
X128077442Y-105987500D01*
X128786377Y-105987500D01*
X128844568Y-106006407D01*
X128856381Y-106016496D01*
X130468613Y-107628728D01*
X130496390Y-107683245D01*
X130496390Y-107714218D01*
X130493940Y-107729688D01*
X130484392Y-107789975D01*
X130482449Y-107802240D01*
X130483668Y-107809937D01*
X130499008Y-107906789D01*
X130503484Y-107935053D01*
X130507022Y-107941996D01*
X130507022Y-107941997D01*
X130559808Y-108045593D01*
X130564532Y-108054865D01*
X130659615Y-108149948D01*
X130666559Y-108153486D01*
X130666560Y-108153487D01*
X130765773Y-108204039D01*
X130779427Y-108210996D01*
X130787122Y-108212215D01*
X130787123Y-108212215D01*
X130904543Y-108230812D01*
X130912240Y-108232031D01*
X130919937Y-108230812D01*
X131037357Y-108212215D01*
X131037358Y-108212215D01*
X131045053Y-108210996D01*
X131058707Y-108204039D01*
X131157920Y-108153487D01*
X131157921Y-108153486D01*
X131164865Y-108149948D01*
X131259948Y-108054865D01*
X131264673Y-108045593D01*
X131317458Y-107941997D01*
X131317458Y-107941996D01*
X131320996Y-107935053D01*
X131325473Y-107906789D01*
X131340812Y-107809937D01*
X131342031Y-107802240D01*
X131340441Y-107792199D01*
X131322215Y-107677123D01*
X131322215Y-107677122D01*
X131320996Y-107669427D01*
X131305051Y-107638134D01*
X131263487Y-107556560D01*
X131263486Y-107556559D01*
X131259948Y-107549615D01*
X131164865Y-107454532D01*
X131157921Y-107450994D01*
X131157920Y-107450993D01*
X131051997Y-107397022D01*
X131051996Y-107397022D01*
X131045053Y-107393484D01*
X131037358Y-107392265D01*
X131037357Y-107392265D01*
X130919937Y-107373668D01*
X130912240Y-107372449D01*
X130824218Y-107386390D01*
X130763787Y-107376819D01*
X130738728Y-107358613D01*
X129206496Y-105826381D01*
X129178719Y-105771864D01*
X129177500Y-105756377D01*
X129177500Y-100407442D01*
X129170102Y-100370252D01*
X129141922Y-100328078D01*
X129099748Y-100299898D01*
X129090187Y-100297996D01*
X129067320Y-100293447D01*
X129067317Y-100293447D01*
X129062558Y-100292500D01*
X128077442Y-100292500D01*
X128072683Y-100293447D01*
X128072680Y-100293447D01*
X128049813Y-100297996D01*
X128040252Y-100299898D01*
X127998078Y-100328078D01*
X127969898Y-100370252D01*
X127962500Y-100407442D01*
X127962500Y-105872558D01*
X126357775Y-105872558D01*
X126377708Y-105852625D01*
X126418859Y-105771864D01*
X126435218Y-105739757D01*
X126435218Y-105739756D01*
X126438756Y-105732813D01*
X126459791Y-105600000D01*
X126438756Y-105467187D01*
X126434460Y-105458756D01*
X126381247Y-105354320D01*
X126381246Y-105354319D01*
X126377708Y-105347375D01*
X126282625Y-105252292D01*
X126275051Y-105248433D01*
X126274549Y-105247931D01*
X126269382Y-105244177D01*
X126269977Y-105243358D01*
X126231789Y-105205167D01*
X126221000Y-105160225D01*
X126221000Y-104006500D01*
X126239907Y-103948309D01*
X126289407Y-103912345D01*
X126320000Y-103907500D01*
X126522558Y-103907500D01*
X126527317Y-103906553D01*
X126527320Y-103906553D01*
X126550187Y-103902004D01*
X126559748Y-103900102D01*
X126601922Y-103871922D01*
X126630102Y-103829748D01*
X126637500Y-103792558D01*
X126637500Y-98327442D01*
X126636499Y-98322407D01*
X126632004Y-98299813D01*
X126630102Y-98290252D01*
X126601922Y-98248078D01*
X126559748Y-98219898D01*
X126550187Y-98217996D01*
X126527320Y-98213447D01*
X126527317Y-98213447D01*
X126522558Y-98212500D01*
X126314395Y-98212500D01*
X126256204Y-98193593D01*
X126220240Y-98144093D01*
X126216851Y-98128386D01*
X126216247Y-98126652D01*
X126215014Y-98115571D01*
X126209647Y-98106997D01*
X126209332Y-98105902D01*
X126208783Y-98104905D01*
X126206532Y-98095041D01*
X126189639Y-98073841D01*
X126183636Y-98065363D01*
X126183372Y-98065032D01*
X126180403Y-98060289D01*
X126176450Y-98056336D01*
X126176278Y-98056120D01*
X126169223Y-98048222D01*
X126159174Y-98035611D01*
X126159173Y-98035610D01*
X126152225Y-98026891D01*
X126143163Y-98022520D01*
X126138170Y-98018056D01*
X126105116Y-97985002D01*
X126077340Y-97930487D01*
X126086911Y-97870055D01*
X126130176Y-97826790D01*
X126175121Y-97816000D01*
X127779877Y-97816000D01*
X127838068Y-97834907D01*
X127849881Y-97844996D01*
X130080004Y-100075119D01*
X130107781Y-100129636D01*
X130109000Y-100145123D01*
X130109000Y-104480225D01*
X130090093Y-104538416D01*
X130060355Y-104563815D01*
X130060618Y-104564177D01*
X130056026Y-104567513D01*
X130054950Y-104568432D01*
X130047375Y-104572292D01*
X129952292Y-104667375D01*
X129948754Y-104674319D01*
X129948753Y-104674320D01*
X129896185Y-104777489D01*
X129891244Y-104787187D01*
X129890025Y-104794882D01*
X129890025Y-104794883D01*
X129877846Y-104871783D01*
X129870209Y-104920000D01*
X129871428Y-104927697D01*
X129889182Y-105039791D01*
X129891244Y-105052813D01*
X129952292Y-105172625D01*
X130047375Y-105267708D01*
X130054319Y-105271246D01*
X130054320Y-105271247D01*
X130160243Y-105325218D01*
X130167187Y-105328756D01*
X130174882Y-105329975D01*
X130174883Y-105329975D01*
X130292303Y-105348572D01*
X130300000Y-105349791D01*
X130307697Y-105348572D01*
X130425117Y-105329975D01*
X130425118Y-105329975D01*
X130432813Y-105328756D01*
X130439757Y-105325218D01*
X130545680Y-105271247D01*
X130545681Y-105271246D01*
X130552625Y-105267708D01*
X130647708Y-105172625D01*
X130708756Y-105052813D01*
X130710819Y-105039791D01*
X130722219Y-104967809D01*
X130746674Y-104919812D01*
X130739907Y-104914895D01*
X130722219Y-104872191D01*
X130709975Y-104794883D01*
X130709975Y-104794882D01*
X130708756Y-104787187D01*
X130703815Y-104777489D01*
X130651247Y-104674320D01*
X130651246Y-104674319D01*
X130647708Y-104667375D01*
X130552625Y-104572292D01*
X130545051Y-104568433D01*
X130544549Y-104567931D01*
X130539382Y-104564177D01*
X130539977Y-104563358D01*
X130501789Y-104525167D01*
X130491000Y-104480225D01*
X130491000Y-104002981D01*
X130509907Y-103944790D01*
X130559407Y-103908826D01*
X130609318Y-103905884D01*
X130610427Y-103906104D01*
X130612680Y-103906553D01*
X130612683Y-103906553D01*
X130617442Y-103907500D01*
X130820000Y-103907500D01*
X130878191Y-103926407D01*
X130914155Y-103975907D01*
X130919000Y-104006500D01*
X130919000Y-104856704D01*
X130900093Y-104914895D01*
X130891208Y-104921350D01*
X130908209Y-104938351D01*
X130919000Y-104983296D01*
X130919000Y-106512052D01*
X130918636Y-106518460D01*
X130915348Y-106527822D01*
X130917283Y-106545209D01*
X130918393Y-106555184D01*
X130918983Y-106565828D01*
X130919000Y-106565979D01*
X130919000Y-106571533D01*
X130920236Y-106576951D01*
X130920297Y-106577495D01*
X130921987Y-106587485D01*
X130924986Y-106614429D01*
X130930353Y-106623003D01*
X130930668Y-106624098D01*
X130931217Y-106625095D01*
X130933468Y-106634959D01*
X130940415Y-106643677D01*
X130950354Y-106656149D01*
X130956360Y-106664632D01*
X130956623Y-106664963D01*
X130959596Y-106669711D01*
X130963556Y-106673671D01*
X130963724Y-106673882D01*
X130970780Y-106681782D01*
X130987775Y-106703109D01*
X130996833Y-106707478D01*
X131001830Y-106711945D01*
X133599550Y-109309665D01*
X133627327Y-109364182D01*
X133616300Y-109427361D01*
X133547198Y-109553058D01*
X133545734Y-109557674D01*
X133545732Y-109557678D01*
X133509964Y-109670434D01*
X133474347Y-109720184D01*
X133415598Y-109739500D01*
X133337105Y-109739500D01*
X133278914Y-109720593D01*
X133242950Y-109671093D01*
X133241088Y-109664618D01*
X133200946Y-109504809D01*
X133198333Y-109497133D01*
X133112534Y-109299807D01*
X133108701Y-109292660D01*
X132991826Y-109111997D01*
X132986880Y-109105575D01*
X132842065Y-108946426D01*
X132836139Y-108940899D01*
X132667269Y-108807534D01*
X132660525Y-108803054D01*
X132472141Y-108699060D01*
X132464749Y-108695738D01*
X132261920Y-108623912D01*
X132254081Y-108621841D01*
X132179436Y-108608545D01*
X132166226Y-108610378D01*
X132165805Y-108610782D01*
X132164000Y-108617996D01*
X132164000Y-109640500D01*
X132145093Y-109698691D01*
X132095593Y-109734655D01*
X132065000Y-109739500D01*
X131755000Y-109739500D01*
X131696809Y-109720593D01*
X131660845Y-109671093D01*
X131656000Y-109640500D01*
X131656000Y-108620667D01*
X131651878Y-108607982D01*
X131650877Y-108607254D01*
X131644549Y-108606739D01*
X131598220Y-108613829D01*
X131590348Y-108615705D01*
X131385807Y-108682558D01*
X131378350Y-108685693D01*
X131187479Y-108785054D01*
X131180627Y-108789369D01*
X131008544Y-108918573D01*
X131002491Y-108923947D01*
X130853830Y-109079513D01*
X130848727Y-109085814D01*
X130727466Y-109263575D01*
X130723468Y-109270613D01*
X130632871Y-109465790D01*
X130630073Y-109473394D01*
X130576393Y-109666957D01*
X130542623Y-109717978D01*
X130480994Y-109739500D01*
X130404114Y-109739500D01*
X130345923Y-109720593D01*
X130309339Y-109669114D01*
X130307982Y-109664618D01*
X130278117Y-109565701D01*
X130204561Y-109427363D01*
X130190393Y-109400716D01*
X130190391Y-109400713D01*
X130188120Y-109396442D01*
X130182313Y-109389321D01*
X130070023Y-109251640D01*
X130070022Y-109251639D01*
X130066962Y-109247887D01*
X129919256Y-109125694D01*
X129794334Y-109058149D01*
X129754883Y-109036818D01*
X129754882Y-109036818D01*
X129750629Y-109034518D01*
X129623267Y-108995093D01*
X129572126Y-108979262D01*
X129572122Y-108979261D01*
X129567505Y-108977832D01*
X129562697Y-108977327D01*
X129562694Y-108977326D01*
X129381673Y-108958300D01*
X129381671Y-108958300D01*
X129376857Y-108957794D01*
X129313540Y-108963556D01*
X129190768Y-108974729D01*
X129190765Y-108974730D01*
X129185948Y-108975168D01*
X129181306Y-108976534D01*
X129181302Y-108976535D01*
X129006697Y-109027924D01*
X129006694Y-109027925D01*
X129002050Y-109029292D01*
X128832167Y-109118105D01*
X128828398Y-109121135D01*
X128828397Y-109121136D01*
X128686543Y-109235189D01*
X128686541Y-109235191D01*
X128682770Y-109238223D01*
X128679656Y-109241934D01*
X128679655Y-109241935D01*
X128578706Y-109362241D01*
X128559549Y-109385072D01*
X128467198Y-109553058D01*
X128465734Y-109557674D01*
X128465732Y-109557678D01*
X128429964Y-109670434D01*
X128394347Y-109720184D01*
X128335598Y-109739500D01*
X112164017Y-109739500D01*
X112141831Y-109736982D01*
X112141813Y-109736978D01*
X112130359Y-109734344D01*
X112119484Y-109736805D01*
X112108337Y-109736785D01*
X112108339Y-109735781D01*
X112098438Y-109736391D01*
X112012302Y-109727908D01*
X111983728Y-109725094D01*
X111964699Y-109721309D01*
X111833373Y-109681472D01*
X111815445Y-109674045D01*
X111694423Y-109609357D01*
X111678287Y-109598576D01*
X111628452Y-109557678D01*
X111572202Y-109511515D01*
X111558485Y-109497798D01*
X111475305Y-109396442D01*
X111471424Y-109391713D01*
X111460643Y-109375577D01*
X111395955Y-109254555D01*
X111388528Y-109236626D01*
X111354179Y-109123393D01*
X111348691Y-109105301D01*
X111344906Y-109086270D01*
X111333658Y-108972058D01*
X111333830Y-108951037D01*
X111334389Y-108946180D01*
X111335655Y-108940718D01*
X111335656Y-108940000D01*
X111333324Y-108929775D01*
X111332980Y-108928266D01*
X111330500Y-108906248D01*
X111330500Y-105872558D01*
X117802500Y-105872558D01*
X117809898Y-105909748D01*
X117838078Y-105951922D01*
X117880252Y-105980102D01*
X117889813Y-105982004D01*
X117912680Y-105986553D01*
X117912683Y-105986553D01*
X117917442Y-105987500D01*
X118902558Y-105987500D01*
X118907317Y-105986553D01*
X118907320Y-105986553D01*
X118930187Y-105982004D01*
X118939748Y-105980102D01*
X118981922Y-105951922D01*
X119010102Y-105909748D01*
X119017500Y-105872558D01*
X119017500Y-100407442D01*
X119010102Y-100370252D01*
X118981922Y-100328078D01*
X118939748Y-100299898D01*
X118902558Y-100292500D01*
X118901955Y-100292500D01*
X118847136Y-100268525D01*
X118816193Y-100215740D01*
X118818525Y-100168267D01*
X118818756Y-100167813D01*
X118823924Y-100135188D01*
X118838572Y-100042697D01*
X118839791Y-100035000D01*
X118825490Y-99944705D01*
X118819975Y-99909883D01*
X118819975Y-99909882D01*
X118818756Y-99902187D01*
X118803319Y-99871891D01*
X118761247Y-99789320D01*
X118761246Y-99789319D01*
X118757708Y-99782375D01*
X118662625Y-99687292D01*
X118655681Y-99683754D01*
X118655680Y-99683753D01*
X118549757Y-99629782D01*
X118549756Y-99629782D01*
X118542813Y-99626244D01*
X118535118Y-99625025D01*
X118535117Y-99625025D01*
X118417697Y-99606428D01*
X118410000Y-99605209D01*
X118402303Y-99606428D01*
X118284883Y-99625025D01*
X118284882Y-99625025D01*
X118277187Y-99626244D01*
X118270244Y-99629782D01*
X118270243Y-99629782D01*
X118164320Y-99683753D01*
X118164319Y-99683754D01*
X118157375Y-99687292D01*
X118062292Y-99782375D01*
X118058754Y-99789319D01*
X118058753Y-99789320D01*
X118016681Y-99871891D01*
X118001244Y-99902187D01*
X118000025Y-99909882D01*
X118000025Y-99909883D01*
X117994510Y-99944705D01*
X117980209Y-100035000D01*
X117981428Y-100042697D01*
X117996077Y-100135188D01*
X118001244Y-100167813D01*
X118001262Y-100167848D01*
X118001263Y-100225110D01*
X117965299Y-100274610D01*
X117918232Y-100292500D01*
X117917442Y-100292500D01*
X117880252Y-100299898D01*
X117838078Y-100328078D01*
X117809898Y-100370252D01*
X117802500Y-100407442D01*
X117802500Y-105872558D01*
X111330500Y-105872558D01*
X111330500Y-90874281D01*
X111333057Y-90851926D01*
X111334388Y-90846183D01*
X111335655Y-90840718D01*
X111335656Y-90840000D01*
X111334413Y-90834551D01*
X111333791Y-90828993D01*
X111334964Y-90828862D01*
X111333633Y-90808190D01*
X111333848Y-90806006D01*
X111344906Y-90693728D01*
X111348691Y-90674699D01*
X111388528Y-90543373D01*
X111395955Y-90525445D01*
X111460643Y-90404423D01*
X111471424Y-90388287D01*
X111501374Y-90351792D01*
X111558485Y-90282202D01*
X111572202Y-90268485D01*
X111678287Y-90181424D01*
X111694423Y-90170643D01*
X111815445Y-90105955D01*
X111833374Y-90098528D01*
X111846471Y-90094555D01*
X111964699Y-90058691D01*
X111983728Y-90054906D01*
X112098363Y-90043616D01*
X112108239Y-90043139D01*
X112118774Y-90043157D01*
X112129641Y-90045656D01*
X112141641Y-90042941D01*
X112163488Y-90040500D01*
X128335954Y-90040500D01*
X128394145Y-90059407D01*
G37*
%TD.AperFunction*%
%TA.AperFunction,Conductor*%
G36*
X165908068Y-95569907D02*
G01*
X165919881Y-95579996D01*
X166450004Y-96110119D01*
X166477781Y-96164636D01*
X166479000Y-96180123D01*
X166479000Y-98113500D01*
X166460093Y-98171691D01*
X166410593Y-98207655D01*
X166380000Y-98212500D01*
X166177442Y-98212500D01*
X166172683Y-98213447D01*
X166172680Y-98213447D01*
X166149813Y-98217996D01*
X166140252Y-98219898D01*
X166098078Y-98248078D01*
X166069898Y-98290252D01*
X166067996Y-98299813D01*
X166063502Y-98322407D01*
X166062500Y-98327442D01*
X166062500Y-103792558D01*
X166069898Y-103829748D01*
X166098078Y-103871922D01*
X166140252Y-103900102D01*
X166149813Y-103902004D01*
X166172680Y-103906553D01*
X166172683Y-103906553D01*
X166177442Y-103907500D01*
X166380000Y-103907500D01*
X166438191Y-103926407D01*
X166474155Y-103975907D01*
X166479000Y-104006500D01*
X166479000Y-104702052D01*
X166478636Y-104708460D01*
X166475348Y-104717822D01*
X166478129Y-104742813D01*
X166478393Y-104745184D01*
X166478983Y-104755828D01*
X166479000Y-104755979D01*
X166479000Y-104761533D01*
X166480236Y-104766951D01*
X166480297Y-104767495D01*
X166481987Y-104777485D01*
X166484986Y-104804429D01*
X166490353Y-104813003D01*
X166490668Y-104814098D01*
X166491217Y-104815095D01*
X166493468Y-104824959D01*
X166500415Y-104833677D01*
X166510354Y-104846149D01*
X166516360Y-104854632D01*
X166516623Y-104854963D01*
X166519596Y-104859711D01*
X166523556Y-104863671D01*
X166523724Y-104863882D01*
X166530780Y-104871782D01*
X166547775Y-104893109D01*
X166556833Y-104897478D01*
X166561830Y-104901945D01*
X167829881Y-106169996D01*
X167857658Y-106224513D01*
X167848087Y-106284945D01*
X167804822Y-106328210D01*
X167759877Y-106339000D01*
X167640123Y-106339000D01*
X167581932Y-106320093D01*
X167570119Y-106310004D01*
X164766496Y-103506381D01*
X164738719Y-103451864D01*
X164737500Y-103436377D01*
X164737500Y-100407442D01*
X164730102Y-100370252D01*
X164701922Y-100328078D01*
X164659748Y-100299898D01*
X164650187Y-100297996D01*
X164627320Y-100293447D01*
X164627317Y-100293447D01*
X164622558Y-100292500D01*
X164420000Y-100292500D01*
X164361809Y-100273593D01*
X164325845Y-100224093D01*
X164321000Y-100193500D01*
X164321000Y-97137948D01*
X164321364Y-97131540D01*
X164324652Y-97122178D01*
X164321607Y-97094815D01*
X164321017Y-97084172D01*
X164321000Y-97084021D01*
X164321000Y-97078467D01*
X164319764Y-97073049D01*
X164319703Y-97072505D01*
X164318012Y-97062511D01*
X164316247Y-97046650D01*
X164315014Y-97035571D01*
X164309647Y-97026997D01*
X164309332Y-97025902D01*
X164308783Y-97024905D01*
X164306532Y-97015041D01*
X164289644Y-96993848D01*
X164283640Y-96985368D01*
X164283377Y-96985037D01*
X164280404Y-96980289D01*
X164276444Y-96976329D01*
X164276276Y-96976118D01*
X164269219Y-96968217D01*
X164259172Y-96955609D01*
X164252225Y-96946891D01*
X164243167Y-96942522D01*
X164238170Y-96938055D01*
X163091891Y-95791776D01*
X163087617Y-95786987D01*
X163083322Y-95778042D01*
X163074618Y-95771081D01*
X163074617Y-95771080D01*
X163061822Y-95760848D01*
X163053878Y-95753739D01*
X163053759Y-95753644D01*
X163049831Y-95749716D01*
X163045127Y-95746760D01*
X163044689Y-95746410D01*
X163036433Y-95740543D01*
X163019893Y-95727315D01*
X162986257Y-95676204D01*
X162989087Y-95615085D01*
X163027303Y-95567301D01*
X163081726Y-95551000D01*
X165849877Y-95551000D01*
X165908068Y-95569907D01*
G37*
%TD.AperFunction*%
%TA.AperFunction,Conductor*%
G36*
X160678045Y-92133987D02*
G01*
X160689858Y-92144076D01*
X161310007Y-92764225D01*
X161337784Y-92818742D01*
X161328213Y-92879174D01*
X161284948Y-92922439D01*
X161255490Y-92932010D01*
X161204883Y-92940025D01*
X161204882Y-92940025D01*
X161197187Y-92941244D01*
X161190244Y-92944782D01*
X161190243Y-92944782D01*
X161084320Y-92998753D01*
X161084319Y-92998754D01*
X161077375Y-93002292D01*
X160982292Y-93097375D01*
X160978754Y-93104319D01*
X160978753Y-93104320D01*
X160933065Y-93193987D01*
X160921244Y-93217187D01*
X160920025Y-93224882D01*
X160920025Y-93224883D01*
X160901428Y-93342303D01*
X160900209Y-93350000D01*
X160912661Y-93428617D01*
X160914150Y-93438021D01*
X160904579Y-93498453D01*
X160886373Y-93523512D01*
X160109881Y-94300004D01*
X160055364Y-94327781D01*
X160039877Y-94329000D01*
X156670341Y-94329000D01*
X156612150Y-94310093D01*
X156576186Y-94260593D01*
X156576186Y-94199407D01*
X156600337Y-94159996D01*
X156627708Y-94132625D01*
X156641088Y-94106367D01*
X156685218Y-94019757D01*
X156685218Y-94019756D01*
X156688756Y-94012813D01*
X156690259Y-94003327D01*
X156708572Y-93887697D01*
X156708572Y-93887696D01*
X156709791Y-93880000D01*
X156688756Y-93747187D01*
X156685218Y-93740243D01*
X156631247Y-93634320D01*
X156631246Y-93634319D01*
X156627708Y-93627375D01*
X156532625Y-93532292D01*
X156525681Y-93528754D01*
X156525680Y-93528753D01*
X156419757Y-93474782D01*
X156419756Y-93474782D01*
X156412813Y-93471244D01*
X156405118Y-93470025D01*
X156405117Y-93470025D01*
X156287697Y-93451428D01*
X156280000Y-93450209D01*
X156272303Y-93451428D01*
X156154883Y-93470025D01*
X156154882Y-93470025D01*
X156147187Y-93471244D01*
X156140244Y-93474782D01*
X156140243Y-93474782D01*
X156034320Y-93528753D01*
X156034319Y-93528754D01*
X156027375Y-93532292D01*
X155932292Y-93627375D01*
X155928754Y-93634319D01*
X155928753Y-93634320D01*
X155874782Y-93740243D01*
X155871244Y-93747187D01*
X155850209Y-93880000D01*
X155862683Y-93958756D01*
X155863037Y-93960993D01*
X155853466Y-94021425D01*
X155810201Y-94064690D01*
X155765256Y-94075480D01*
X152820560Y-94075480D01*
X152762369Y-94056573D01*
X152726405Y-94007073D01*
X152726405Y-93945887D01*
X152760697Y-93898690D01*
X152762625Y-93897708D01*
X152857708Y-93802625D01*
X152885956Y-93747187D01*
X152915218Y-93689757D01*
X152915218Y-93689756D01*
X152918756Y-93682813D01*
X152939791Y-93550000D01*
X152938572Y-93542303D01*
X152938572Y-93534514D01*
X152940054Y-93534514D01*
X152948268Y-93482654D01*
X152991533Y-93439390D01*
X153036477Y-93428600D01*
X155720044Y-93428600D01*
X155726453Y-93428964D01*
X155735815Y-93432252D01*
X155763180Y-93429207D01*
X155773825Y-93428617D01*
X155773976Y-93428600D01*
X155779526Y-93428600D01*
X155784935Y-93427366D01*
X155785487Y-93427304D01*
X155795488Y-93425612D01*
X155802039Y-93424883D01*
X155822422Y-93422615D01*
X155830999Y-93417245D01*
X155832092Y-93416931D01*
X155833087Y-93416382D01*
X155842952Y-93414132D01*
X155864145Y-93397244D01*
X155872634Y-93391233D01*
X155872956Y-93390977D01*
X155877704Y-93388004D01*
X155881661Y-93384047D01*
X155881872Y-93383879D01*
X155889776Y-93376819D01*
X155902384Y-93366772D01*
X155911102Y-93359825D01*
X155915471Y-93350767D01*
X155919938Y-93345770D01*
X157121634Y-92144076D01*
X157176151Y-92116299D01*
X157191638Y-92115080D01*
X160619854Y-92115080D01*
X160678045Y-92133987D01*
G37*
%TD.AperFunction*%
%TD*%
M02*
