<?xml version="1.0" standalone="no"?>
<!DOCTYPE svg PUBLIC "-//W3C//DTD SVG 20010904//EN"
 "http://www.w3.org/TR/2001/REC-SVG-20010904/DTD/svg10.dtd">
<svg version="1.0" xmlns="http://www.w3.org/2000/svg"
 width="926.000000pt" height="825.000000pt" viewBox="0 0 926.000000 825.000000"
 preserveAspectRatio="xMidYMid meet">

<g transform="translate(0.000000,825.000000) scale(0.100000,-0.100000)"
fill="#000000" stroke="none">
<path d="M4030 7363 c-97 -15 -165 -64 -212 -153 -23 -45 -23 -49 -26 -430
l-3 -385 -788 -790 c-530 -531 -794 -803 -807 -830 -18 -38 -19 -71 -19 -635
0 -557 1 -598 19 -645 16 -45 161 -193 1395 -1428 1503 -1505 1431 -1438 1545
-1437 106 1 191 52 236 143 l30 60 0 243 0 243 919 918 c1014 1012 971 964
971 1088 -1 104 -58 194 -152 236 -52 24 -58 24 -434 27 l-380 3 -410 410
-409 409 391 0 390 0 52 26 c59 29 96 69 124 132 17 38 20 68 20 240 0 161 -3
204 -16 237 -13 30 -296 320 -1133 1157 -1172 1172 -1146 1148 -1243 1160 -19
2 -46 3 -60 1z m1298 -2423 c-574 -6 -571 -6 -640 -78 -57 -58 -80 -113 -80
-186 0 -122 -26 -92 740 -859 808 -809 744 -757 931 -757 l116 0 -736 -737
c-405 -406 -745 -753 -755 -771 l-19 -32 -1092 1092 -1093 1093 0 427 0 427
784 783 c675 673 788 791 810 838 23 49 26 68 26 170 l0 115 760 -760 760
-760 -512 -5z"/>
</g>
</svg>
