<?xml version="1.0" encoding="UTF-8" standalone="yes"?>
<!-- Created with sK1/UniConvertor (http://sk1project.org/) -->
<svg xmlns="http://www.w3.org/2000/svg" xmlns:xlink="http://www.w3.org/1999/xlink"
  width="595.276pt" height="841.89pt" viewBox="0 0 595.276 841.89"
  fill-rule="evenodd">
<g>
<path style="stroke:#000000; stroke-width:0.850394; stroke-linejoin:round; stroke-linecap:round; fill:none" d="M 0.168096 841.598L 0.168271 841.599L 0.168456 841.6L 0.168653 841.6L 0.168865 841.601L 0.169094 841.601L 0.169342 841.601L 0.169611 841.602L 0.169903 841.602L 0.170221 841.602L 0.170566 841.602L 0.170941 841.602L 0.171348 841.602L 0.171789 841.602L 0.172782 841.602L 0.173338 841.602L 0.173936 841.602L 0.179437 841.602L 0.17997 841.607L 0.180129 841.609L 0.18017 841.611L 0.180095 841.612L 0.179905 841.613L 0.179759 841.613L 0.179452 841.613L 0.178991 841.613L 0.178386 841.613L 0.177644 841.613L 0.176775 841.613L 0.175788 841.613L 0.174691 841.613L 0.173492 841.613L 0.172201 841.613L 0.170825 841.613L 0.169375 841.613L 0.167858 841.613L 0.166282 841.613L 0.164658 841.613L 0.162993 841.613L 0.146678 841.613L 0.143835 841.58L 0.143255 841.574L 0.142696 841.567L 0.142172 841.562L 0.141696 841.557L 0.141281 841.553L 0.140942 841.549L 0.140691 841.547L 0.140543 841.546L 0.13998 841.546L 0.138793 841.546L 0.137185 841.545L 0.135362 841.545L 0.133528 841.545L 0.13189 841.545L 0.130651 841.545L 0.130016 841.546L 0.129991 841.546L 0.129997 841.547L 0.130031 841.548L 0.130092 841.549L 0.130179 841.55L 0.130291 841.552L 0.130427 841.554L 0.130627 841.557L 0.130811 841.559L 0.131014 841.562L 0.131236 841.564L 0.131474 841.567L 0.131728 841.57L 0.131996 841.573L 0.132277 841.577L 0.132495 841.579L 0.133063 841.586L 0.133578 841.592L 0.134031 841.598L 0.13441 841.603L 0.134706 841.607L 0.134908 841.61L 0.135007 841.612L 0.134991 841.613L 0.134664 841.613L 0.133922 841.613L 0.132824 841.613L 0.131429 841.613L 0.129796 841.613L 0.127984 841.613L 0.126054 841.613L 0.124063 841.613L 0.122072 841.613L 0.120139 841.613L 0.118324 841.613L 0.116686 841.613L 0.115284 841.613L 0.114177 841.613L 0.113426 841.613L 0.113088 841.613L 0.113024 841.612L 0.112934 841.612L 0.11282 841.611L 0.112647 841.609L 0.112441 841.608L 0.112207 841.605L 0.111948 841.603L 0.111666 841.6L 0.111366 841.597L 0.111049 841.593L 0.11072 841.59L 0.11045 841.587L 0.110175 841.584L 0.109898 841.58L 0.109621 841.577L 0.109347 841.574L 0.109079 841.571L 0.108817 841.568L 0.108564 841.565L 0.10832 841.563L 0.108088 841.56L 0.107869 841.558L 0.107665 841.556L 0.107477 841.554L 0.107307 841.552L 0.107156 841.55L 0.107026 841.549L 0.106919 841.548L 0.106837 841.548L 0.10678 841.547L 0.106706 841.547L 0.106622 841.547L 0.106521 841.546L 0.106399 841.546L 0.106249 841.546L 0.106064 841.546L 0.105841 841.546L 0.105571 841.545L 0.10525 841.545L 0.104872 841.545L 0.10443 841.545L 0.103919 841.545L 0.103333 841.545L 0.102666 841.545L 0.101911 841.545L 0.101064 841.545L 0.098375 841.545L 0.0967617 841.545L 0.0959759 841.546L 0.0957691 841.547L 0.0958252 841.548L 0.0959858 841.55L 0.0962399 841.553L 0.096576 841.557L 0.0969829 841.562L 0.0974494 841.567L 0.0979642 841.573L 0.0985161 841.579L 0.0990579 841.586L 0.0995434 841.592L 0.0999632 841.597L 0.100308 841.602L 0.10057 841.606L 0.100738 841.609L 0.100804 841.611L 0.100758 841.612L 0.10065 841.612L 0.100476 841.612L 0.100224 841.613L 0.0998822 841.613L 0.0994382 841.613L 0.0990307 841.613L 0.0985539 841.613L 0.0980025 841.613L 0.0973715 841.613L 0.0966557 841.613L 0.0958499 841.613L 0.0949492 841.613L 0.0935916 841.613L 0.0920438 841.613L 0.0902938 841.613L 0.0883293 841.613L 0.0861383 841.613L 0.0843391 841.613L 0.0807975 841.613L 0.0776293 841.613L 0.0748595 841.613L 0.0725133 841.613L 0.0706158 841.613L 0.0691918 841.613L 0.0682666 841.613L 0.0678651 841.612L 0.067742 841.612L 0.0676075 841.612L 0.0674658 841.611L 0.0673213 841.61L 0.0671785 841.61L 0.0670416 841.609L 0.066915 841.608L 0.0668031 841.607L 0.0663031 841.602L 0.0717391 841.602L 0.073441 841.602L 0.0747459 841.602L 0.0757064 841.602L 0.0763748 841.602L 0.0768035 841.601L 0.0770449 841.601L 0.0771513 841.6L 0.0771751 841.6L 0.0771249 841.598L 0.0769827 841.596L 0.0767607 841.593L 0.0764714 841.59L 0.0761271 841.586L 0.0757402 841.581L 0.0753231 841.576L 0.0748881 841.572L 0.0744476 841.567L 0.0740141 841.562L 0.0735998 841.558L 0.0732171 841.554L 0.0728784 841.551L 0.0725961 841.548L 0.0723825 841.547L 0.0722501 841.546L 0.0721734 841.546L 0.0720466 841.546L 0.0718725 841.546L 0.0716541 841.546L 0.0713941 841.546L 0.0710956 841.546L 0.0707613 841.545L 0.0703942 841.545L 0.0699972 841.545L 0.0695731 841.545L 0.0691248 841.545L 0.0686553 841.545L 0.0681674 841.545L 0.0676639 841.545L 0.0671479 841.545L 0.0666221 841.545L 0.0614861 841.545L 0.0609671 841.54L 0.0608006 841.538L 0.0607316 841.536L 0.0607623 841.535L 0.0608951 841.534L 0.061181 841.534L 0.0619303 841.534L 0.0631188 841.534L 0.0647227 841.534L 0.0667179 841.534L 0.0690806 841.534L 0.0717867 841.534L 0.0748123 841.534L 0.0781335 841.534L 0.0817262 841.534L 0.0855665 841.534L 0.0896304 841.534L 0.093894 841.534L 0.0983333 841.534L 0.102924 841.534L 0.107643 841.534L 0.153942 841.534L 0.157408 841.536L 0.158273 841.537L 0.158833 841.537L 0.159348 841.537L 0.15973 841.538L 0.160087 841.538L 0.16042 841.539L 0.160731 841.539L 0.161021 841.539L 0.161293 841.54L 0.161547 841.54L 0.161727 841.541L 0.161898 841.541L 0.162062 841.542L 0.162219 841.542L 0.16237 841.543L 0.162515 841.543L 0.162655 841.544L 0.16279 841.545L 0.162922 841.546L 0.16305 841.546L 0.163218 841.548L 0.163383 841.549L 0.163546 841.55L 0.16371 841.552L 0.163876 841.553L 0.164045 841.555L 0.164218 841.557L 0.164445 841.559L 0.164734 841.563L 0.165271 841.569L 0.165547 841.572L 0.165801 841.575L 0.166252 841.581L 0.166453 841.583L 0.166642 841.586L 0.166819 841.588L 0.166987 841.59L 0.167149 841.591L 0.167306 841.593L 0.16746 841.594L 0.167614 841.595L 0.16777 841.597L 0.16793 841.598L 0.168096 841.598z"/>
<path style="stroke:#000000; stroke-width:0.850394; stroke-linejoin:round; stroke-linecap:round; fill:none" d="M 0.328381 841.613L 0.327606 841.613L 0.326866 841.613L 0.32616 841.613L 0.325486 841.613L 0.324843 841.613L 0.324229 841.613L 0.323643 841.613L 0.323084 841.613L 0.32255 841.613L 0.32204 841.613L 0.321552 841.613L 0.321085 841.612L 0.320638 841.612L 0.320209 841.612L 0.319796 841.612L 0.319398 841.612L 0.319014 841.612L 0.318643 841.611L 0.318282 841.611L 0.317932 841.611L 0.317589 841.611L 0.317253 841.61L 0.316922 841.61L 0.316595 841.61L 0.31627 841.609L 0.315946 841.609L 0.315622 841.609L 0.315296 841.608L 0.314871 841.608L 0.314513 841.607L 0.314268 841.607L 0.31404 841.606L 0.313829 841.606L 0.313632 841.605L 0.313448 841.605L 0.313273 841.604L 0.313107 841.604L 0.312948 841.603L 0.312792 841.602L 0.31264 841.601L 0.312487 841.6L 0.312334 841.599L 0.312177 841.598L 0.312015 841.597L 0.311846 841.595L 0.311668 841.593L 0.311478 841.591L 0.311276 841.589L 0.310982 841.586L 0.310904 841.585L 0.310547 841.581L 0.310233 841.578L 0.309966 841.574L 0.309754 841.571L 0.3096 841.568L 0.30951 841.566L 0.309491 841.565L 0.309548 841.564L 0.309706 841.564L 0.309977 841.563L 0.310347 841.563L 0.3108 841.562L 0.311322 841.561L 0.311898 841.561L 0.312513 841.56L 0.313153 841.559L 0.316291 841.557L 0.340608 841.557L 0.347061 841.557L 0.352355 841.557L 0.356585 841.557L 0.359841 841.557L 0.362216 841.557L 0.363803 841.557L 0.364695 841.557L 0.364982 841.558L 0.365177 841.56L 0.365695 841.566L 0.366397 841.574L 0.366974 841.58L 0.368909 841.601L 0.374437 841.602L 0.375003 841.602L 0.375536 841.602L 0.376038 841.602L 0.37651 841.602L 0.376953 841.602L 0.377367 841.602L 0.377753 841.602L 0.378111 841.602L 0.378444 841.602L 0.378751 841.602L 0.379033 841.602L 0.379292 841.602L 0.379527 841.603L 0.37974 841.603L 0.379932 841.603L 0.380103 841.603L 0.380255 841.603L 0.380387 841.604L 0.380502 841.604L 0.380598 841.604L 0.380679 841.604L 0.380743 841.605L 0.380793 841.605L 0.380829 841.605L 0.380851 841.606L 0.380861 841.606L 0.380859 841.607L 0.380846 841.607L 0.380823 841.608L 0.380791 841.608L 0.38075 841.609L 0.380702 841.609L 0.380419 841.613L 0.364598 841.613L 0.361559 841.613L 0.358875 841.613L 0.356526 841.613L 0.354488 841.613L 0.35274 841.613L 0.35126 841.613L 0.350026 841.613L 0.349015 841.613L 0.348206 841.612L 0.347577 841.612L 0.347104 841.612L 0.346768 841.611L 0.346544 841.611L 0.346411 841.61L 0.346348 841.61L 0.346332 841.609L 0.346332 841.606L 0.342928 841.61L 0.339523 841.613L 0.330931 841.613L 0.330042 841.613L 0.329193 841.613L 0.328381 841.613z"/>
<path style="stroke:#000000; stroke-width:0.850394; stroke-linejoin:round; stroke-linecap:round; fill:none" d="M 0.285632 841.613L 0.281702 841.613L 0.277646 841.613L 0.27359 841.613L 0.269656 841.613L 0.265969 841.613L 0.262652 841.613L 0.25983 841.613L 0.257625 841.613L 0.256163 841.613L 0.255566 841.612L 0.255443 841.612L 0.255309 841.612L 0.255168 841.611L 0.255023 841.61L 0.25488 841.61L 0.254744 841.609L 0.254617 841.608L 0.254505 841.607L 0.254005 841.602L 0.264877 841.602L 0.264851 841.599L 0.264832 841.598L 0.264785 841.598L 0.264712 841.596L 0.264616 841.595L 0.264499 841.594L 0.264362 841.592L 0.264209 841.591L 0.264041 841.589L 0.263862 841.587L 0.263672 841.585L 0.263283 841.581L 0.263041 841.579L 0.262821 841.577L 0.262629 841.575L 0.262469 841.573L 0.262347 841.571L 0.262269 841.57L 0.262224 841.57L 0.262181 841.569L 0.262108 841.569L 0.261999 841.569L 0.261853 841.569L 0.261665 841.569L 0.261431 841.569L 0.261148 841.569L 0.260813 841.568L 0.260421 841.568L 0.25997 841.568L 0.259455 841.568L 0.258872 841.568L 0.25822 841.568L 0.257492 841.568L 0.256687 841.568L 0.251153 841.568L 0.250627 841.563L 0.250451 841.561L 0.25036 841.559L 0.250361 841.558L 0.250458 841.557L 0.250549 841.557L 0.250745 841.557L 0.251041 841.557L 0.251431 841.557L 0.251909 841.557L 0.252469 841.557L 0.253107 841.557L 0.253816 841.557L 0.254591 841.557L 0.255426 841.557L 0.256316 841.557L 0.257255 841.557L 0.258237 841.557L 0.259257 841.557L 0.260309 841.557L 0.261388 841.557L 0.27196 841.557L 0.27196 841.56L 0.272007 841.561L 0.272136 841.562L 0.272328 841.563L 0.272561 841.563L 0.27274 841.563L 0.273019 841.563L 0.273383 841.562L 0.27382 841.562L 0.274314 841.562L 0.274852 841.561L 0.275419 841.56L 0.276001 841.56L 0.278839 841.557L 0.306363 841.557L 0.306963 841.561L 0.30715 841.563L 0.307214 841.565L 0.307155 841.567L 0.306974 841.567L 0.306861 841.567L 0.306659 841.567L 0.306372 841.568L 0.306002 841.568L 0.30555 841.568L 0.305019 841.568L 0.30441 841.568L 0.303727 841.568L 0.30297 841.568L 0.302143 841.568L 0.301247 841.568L 0.300285 841.568L 0.299258 841.568L 0.298169 841.568L 0.29702 841.568L 0.295813 841.568L 0.29238 841.568L 0.289784 841.568L 0.287909 841.568L 0.286637 841.568L 0.285851 841.569L 0.285435 841.569L 0.285272 841.57L 0.285244 841.57L 0.285277 841.571L 0.285367 841.573L 0.285507 841.575L 0.28569 841.577L 0.28591 841.579L 0.286157 841.582L 0.286426 841.585L 0.286708 841.587L 0.286998 841.59L 0.287286 841.592L 0.287567 841.595L 0.287832 841.597L 0.288075 841.598L 0.288288 841.6L 0.288464 841.601L 0.288595 841.601L 0.288821 841.601L 0.289224 841.601L 0.289781 841.602L 0.290471 841.602L 0.291269 841.602L 0.292154 841.602L 0.293104 841.602L 0.294095 841.602L 0.298964 841.602L 0.299491 841.607L 0.299668 841.609L 0.299758 841.611L 0.299758 841.612L 0.29966 841.613L 0.299079 841.613L 0.29763 841.613L 0.295437 841.613L 0.292624 841.613L 0.289314 841.613L 0.285632 841.613z"/>
<path style="stroke:#000000; stroke-width:0.850394; stroke-linejoin:round; stroke-linecap:round; fill:none" d="M 0.613185 841.613L 0.609498 841.613L 0.606181 841.613L 0.603359 841.613L 0.601154 841.613L 0.599692 841.613L 0.599095 841.612L 0.598972 841.612L 0.598838 841.612L 0.598697 841.611L 0.598552 841.61L 0.598409 841.61L 0.598273 841.609L 0.598146 841.608L 0.598034 841.607L 0.597534 841.602L 0.608406 841.602L 0.60838 841.599L 0.608361 841.598L 0.608314 841.598L 0.608241 841.596L 0.608145 841.595L 0.608028 841.594L 0.607891 841.592L 0.607738 841.591L 0.60757 841.589L 0.607391 841.587L 0.607201 841.585L 0.606812 841.581L 0.60657 841.579L 0.60635 841.577L 0.606158 841.575L 0.605998 841.573L 0.605877 841.571L 0.605798 841.57L 0.605753 841.57L 0.60571 841.569L 0.605637 841.569L 0.605528 841.569L 0.605382 841.569L 0.605194 841.569L 0.60496 841.569L 0.604677 841.569L 0.604342 841.568L 0.60395 841.568L 0.603499 841.568L 0.602984 841.568L 0.602401 841.568L 0.601749 841.568L 0.601021 841.568L 0.600216 841.568L 0.594682 841.568L 0.594156 841.563L 0.59398 841.561L 0.593889 841.559L 0.59389 841.558L 0.593987 841.557L 0.594078 841.557L 0.594274 841.557L 0.59457 841.557L 0.59496 841.557L 0.595438 841.557L 0.595998 841.557L 0.596636 841.557L 0.597345 841.557L 0.59812 841.557L 0.598955 841.557L 0.599845 841.557L 0.600784 841.557L 0.601766 841.557L 0.602786 841.557L 0.603838 841.557L 0.604917 841.557L 0.615489 841.557L 0.615489 841.56L 0.615537 841.561L 0.615665 841.562L 0.615857 841.563L 0.61609 841.563L 0.616269 841.563L 0.616548 841.563L 0.616912 841.562L 0.617349 841.562L 0.617843 841.562L 0.618381 841.561L 0.618948 841.56L 0.61953 841.56L 0.622368 841.557L 0.649892 841.557L 0.650492 841.561L 0.650679 841.563L 0.650743 841.565L 0.650684 841.567L 0.650503 841.567L 0.65039 841.567L 0.650188 841.567L 0.649902 841.568L 0.649531 841.568L 0.649079 841.568L 0.648548 841.568L 0.647939 841.568L 0.647256 841.568L 0.646499 841.568L 0.645672 841.568L 0.644776 841.568L 0.643814 841.568L 0.642787 841.568L 0.641698 841.568L 0.640549 841.568L 0.639342 841.568L 0.635909 841.568L 0.633314 841.568L 0.631438 841.568L 0.630166 841.568L 0.62938 841.569L 0.628964 841.569L 0.628801 841.57L 0.628773 841.57L 0.628806 841.571L 0.628896 841.573L 0.629036 841.575L 0.629219 841.577L 0.629439 841.579L 0.629686 841.582L 0.629955 841.585L 0.630237 841.587L 0.630527 841.59L 0.630815 841.592L 0.631096 841.595L 0.631361 841.597L 0.631604 841.598L 0.631817 841.6L 0.631993 841.601L 0.632124 841.601L 0.63235 841.601L 0.632753 841.601L 0.63331 841.602L 0.634 841.602L 0.634798 841.602L 0.635683 841.602L 0.636633 841.602L 0.637624 841.602L 0.642493 841.602L 0.64302 841.607L 0.643197 841.609L 0.643287 841.611L 0.643287 841.612L 0.643189 841.613L 0.642608 841.613L 0.641159 841.613L 0.638966 841.613L 0.636153 841.613L 0.632843 841.613L 0.629161 841.613L 0.625231 841.613L 0.621175 841.613L 0.617119 841.613L 0.613185 841.613z"/>
<path style="stroke:#000000; stroke-width:0.850394; stroke-linejoin:round; stroke-linecap:round; fill:none" d="M 0.452455 841.601L 0.452643 841.601L 0.452869 841.601L 0.453134 841.601L 0.453437 841.602L 0.453777 841.602L 0.454155 841.602L 0.454569 841.602L 0.455019 841.602L 0.455505 841.602L 0.456027 841.602L 0.456583 841.602L 0.457174 841.602L 0.457799 841.602L 0.463075 841.602L 0.463692 841.607L 0.463874 841.609L 0.463894 841.611L 0.463757 841.612L 0.46347 841.613L 0.463301 841.613L 0.462981 841.613L 0.462516 841.613L 0.461914 841.613L 0.461179 841.613L 0.460321 841.613L 0.459343 841.613L 0.458255 841.613L 0.457061 841.613L 0.455768 841.613L 0.454384 841.613L 0.452915 841.613L 0.451367 841.613L 0.449746 841.613L 0.448061 841.613L 0.446316 841.613L 0.430001 841.613L 0.429727 841.61L 0.429454 841.606L 0.426101 841.61L 0.422749 841.613L 0.413889 841.613L 0.412511 841.613L 0.411268 841.613L 0.41015 841.613L 0.409145 841.613L 0.408244 841.613L 0.407436 841.613L 0.40671 841.613L 0.406055 841.613L 0.40546 841.613L 0.404916 841.613L 0.404411 841.613L 0.403934 841.612L 0.403476 841.612L 0.403025 841.612L 0.40257 841.612L 0.402102 841.611L 0.401302 841.611L 0.400808 841.61L 0.400343 841.61L 0.399906 841.61L 0.399496 841.609L 0.399111 841.609L 0.398751 841.609L 0.398414 841.608L 0.398099 841.608L 0.397804 841.608L 0.397529 841.607L 0.397272 841.607L 0.397031 841.606L 0.396806 841.606L 0.396699 841.605L 0.396595 841.605L 0.396494 841.605L 0.396397 841.605L 0.396302 841.604L 0.396121 841.604L 0.39595 841.603L 0.395787 841.602L 0.395631 841.601L 0.395482 841.6L 0.395337 841.599L 0.395195 841.598L 0.395056 841.597L 0.394917 841.596L 0.394778 841.595L 0.394637 841.593L 0.394494 841.592L 0.394346 841.59L 0.394113 841.588L 0.39371 841.583L 0.393408 841.58L 0.393133 841.577L 0.392892 841.575L 0.392692 841.572L 0.392539 841.571L 0.39244 841.569L 3.82541 838.558L 0.392369 841.569L 0.392282 841.569L 0.392143 841.569L 0.391953 841.569L 0.391717 841.569L 0.391437 841.569L 0.391115 841.568L 0.390755 841.568L 0.39036 841.568L 0.389932 841.568L 0.389474 841.568L 0.38899 841.568L 0.388481 841.568L 0.387951 841.568L 0.387403 841.568L 0.386839 841.568L 0.381305 841.568L 0.380778 841.563L 0.380603 841.561L 0.380515 841.559L 0.380519 841.558L 0.380621 841.557L 0.380744 841.557L 0.381033 841.557L 0.381477 841.557L 0.382069 841.557L 0.3828 841.557L 0.383661 841.557L 0.384644 841.557L 0.38574 841.557L 0.386939 841.557L 0.388235 841.557L 0.389617 841.557L 0.391077 841.557L 0.392607 841.557L 0.394198 841.557L 0.395841 841.557L 0.397527 841.557L 0.414064 841.557L 0.415986 841.578L 0.416373 841.583L 0.416737 841.587L 0.41707 841.59L 0.417363 841.594L 0.417609 841.596L 0.417799 841.599L 0.417925 841.6L 0.417978 841.601L 0.418007 841.601L 0.418075 841.601L 0.418182 841.601L 0.41833 841.601L 0.418518 841.601L 0.418747 841.601L 0.419018 841.602L 0.419329 841.602L 0.419683 841.602L 0.420079 841.602L 0.420517 841.602L 0.420999 841.602L 0.421523 841.602L 0.422092 841.602L 0.422704 841.602L 0.423937 841.602L 0.425656 841.602L 0.426257 841.602L 0.426699 841.602L 0.427088 841.602L 0.427363 841.602L 0.427607 841.602L 0.427821 841.601L 0.428004 841.601L 0.42816 841.601L 0.428287 841.601L 0.428387 841.6L 0.428461 841.6L 0.428509 841.599L 0.428534 841.598L 0.428534 841.598L 0.428512 841.597L 0.428468 841.596L 0.428403 841.595L 0.428318 841.594L 0.428184 841.592L 0.427987 841.59L 0.427665 841.586L 0.427177 841.581L 0.426902 841.578L 0.426552 841.574L 0.426224 841.57L 0.425926 841.567L 0.425666 841.564L 0.425451 841.562L 0.425287 841.56L 0.425183 841.558L 0.425144 841.558L 0.425177 841.558L 0.425282 841.557L 0.425463 841.557L 0.425724 841.557L 0.42607 841.557L 0.426504 841.557L 0.427031 841.557L 0.427655 841.557L 0.42838 841.557L 0.429211 841.557L 0.430151 841.557L 0.431205 841.557L 0.432377 841.557L 0.433671 841.557L 0.435091 841.557L 0.436641 841.557L 0.442377 841.557L 0.445896 841.557L 0.447665 841.557L 0.448151 841.558L 0.448192 841.559L 0.448307 841.561L 0.448487 841.563L 0.448722 841.566L 0.449001 841.569L 0.449315 841.572L 0.449653 841.576L 0.450006 841.58L 0.450362 841.584L 0.450713 841.588L 0.451048 841.591L 0.451357 841.594L 0.45163 841.597L 0.451856 841.599L 0.452027 841.6L 0.452131 841.601L 0.452199 841.601L 0.452307 841.601L 0.452455 841.601z"/>
<path style="stroke:#000000; stroke-width:0.850394; stroke-linejoin:round; stroke-linecap:round; fill:none" d="M 0.226434 841.557L 0.22969 841.557L 0.232065 841.557L 0.233652 841.557L 0.234543 841.557L 0.23483 841.558L 0.235025 841.56L 0.235544 841.566L 0.236292 841.574L 0.236822 841.58L 0.238758 841.601L 0.244285 841.602L 0.244851 841.602L 0.245384 841.602L 0.245887 841.602L 0.246359 841.602L 0.246801 841.602L 0.247215 841.602L 0.247601 841.602L 0.24796 841.602L 0.248292 841.602L 0.248599 841.602L 0.248882 841.602L 0.24914 841.602L 0.249376 841.603L 0.249589 841.603L 0.249781 841.603L 0.249952 841.603L 0.250103 841.603L 0.250236 841.604L 0.25035 841.604L 0.250447 841.604L 0.250527 841.604L 0.250592 841.605L 0.250642 841.605L 0.250677 841.605L 0.250699 841.606L 0.250709 841.606L 0.250707 841.607L 0.250695 841.607L 0.250672 841.608L 0.25064 841.608L 0.250599 841.609L 0.250551 841.609L 0.250268 841.613L 0.234447 841.613L 0.231407 841.613L 0.228724 841.613L 0.226374 841.613L 0.224337 841.613L 0.222589 841.613L 0.221109 841.613L 0.219875 841.613L 0.218864 841.613L 0.218055 841.612L 0.217425 841.612L 0.216953 841.612L 0.216616 841.611L 0.216393 841.611L 0.21626 841.61L 0.216197 841.61L 0.216181 841.609L 0.216181 841.606L 0.212776 841.61L 0.209372 841.613L 0.20078 841.613L 0.199891 841.613L 0.199041 841.613L 0.19823 841.613L 0.197455 841.613L 0.196715 841.613L 0.196008 841.613L 0.195334 841.613L 0.194691 841.613L 0.194077 841.613L 0.193492 841.613L 0.192933 841.613L 0.192399 841.613L 0.191888 841.613L 0.191401 841.613L 0.190934 841.612L 0.190486 841.612L 0.190057 841.612L 0.189644 841.612L 0.189246 841.612L 0.188863 841.612L 0.188491 841.611L 0.188131 841.611L 0.18778 841.611L 0.187437 841.611L 0.187101 841.61L 0.18677 841.61L 0.186443 841.61L 0.186119 841.609L 0.185795 841.609L 0.185471 841.609L 0.185145 841.608L 0.184627 841.607L 0.184278 841.607L 0.184039 841.607L 0.183817 841.606L 0.183611 841.606L 0.183418 841.605L 0.183237 841.605L 0.183066 841.604L 0.182902 841.604L 0.182744 841.603L 0.18259 841.602L 0.182438 841.601L 0.182285 841.6L 0.182131 841.599L 0.181972 841.598L 0.181808 841.596L 0.181636 841.594L 0.181454 841.593L 0.181261 841.591L 0.180981 841.588L 0.180753 841.585L 0.180396 841.581L 0.180082 841.578L 0.179815 841.574L 0.179602 841.571L 0.179448 841.568L 0.179359 841.566L 0.179339 841.565L 0.179396 841.564L 0.179554 841.564L 0.179826 841.563L 0.180195 841.563L 0.180649 841.562L 0.181171 841.561L 0.181747 841.561L 0.182362 841.56L 0.183002 841.559L 0.186139 841.557L 0.210457 841.557L 0.21691 841.557L 0.222204 841.557L 0.226434 841.557z"/>
<path style="stroke:#000000; stroke-width:0.850394; stroke-linejoin:round; stroke-linecap:round; fill:none" d="M 0.502024 841.61L 0.501798 841.609L 0.501289 841.606L 0.497844 841.61L 0.4944 841.613L 0.485768 841.613L 0.484481 841.613L 0.483308 841.613L 0.482241 841.613L 0.481272 841.613L 0.480391 841.613L 0.479592 841.613L 0.478864 841.613L 0.4782 841.613L 0.477591 841.613L 0.47703 841.613L 0.476506 841.613L 0.476013 841.612L 0.475541 841.612L 0.475082 841.612L 0.474627 841.612L 0.474169 841.612L 0.473366 841.611L 0.47287 841.611L 0.472403 841.61L 0.471964 841.61L 0.471551 841.61L 0.471164 841.609L 0.470801 841.609L 0.470461 841.609L 0.470143 841.608L 0.469991 841.608L 0.469845 841.608L 0.469703 841.608L 0.469566 841.607L 0.469433 841.607L 0.469304 841.607L 0.469179 841.607L 0.469059 841.606L 0.468942 841.606L 0.468828 841.606L 0.468718 841.606L 0.468612 841.605L 0.468508 841.605L 0.468408 841.605L 0.46831 841.604L 0.468215 841.604L 0.468122 841.604L 0.468031 841.603L 0.467943 841.603L 0.467857 841.602L 0.467772 841.602L 0.467689 841.601L 0.467608 841.601L 0.467528 841.6L 0.467449 841.6L 0.467294 841.599L 0.467142 841.598L 0.466991 841.596L 0.46684 841.595L 0.466688 841.594L 0.466533 841.592L 0.466374 841.591L 0.466211 841.589L 0.466041 841.587L 0.465863 841.585L 0.465688 841.583L 0.465525 841.581L 0.465375 841.58L 0.465238 841.578L 0.465114 841.576L 0.465005 841.575L 0.46491 841.574L 0.46483 841.573L 0.464766 841.571L 0.464718 841.57L 0.464686 841.569L 0.464671 841.568L 0.464674 841.568L 0.464695 841.567L 0.464734 841.566L 0.464792 841.565L 0.464869 841.565L 0.464967 841.564L 0.465084 841.564L 0.465223 841.563L 0.465382 841.563L 0.465564 841.562L 0.465767 841.562L 0.465994 841.562L 0.466244 841.561L 0.466517 841.561L 0.466815 841.561L 0.467137 841.56L 0.467484 841.56L 0.467857 841.56L 0.468256 841.559L 0.468862 841.559L 0.469217 841.558L 0.469579 841.558L 0.469963 841.558L 0.470277 841.558L 0.470621 841.557L 0.471001 841.557L 0.471425 841.557L 0.4719 841.557L 0.472433 841.557L 0.473031 841.557L 0.473702 841.557L 0.474452 841.557L 0.475288 841.557L 0.476218 841.557L 0.477615 841.557L 0.479209 841.557L 0.481015 841.557L 0.483597 841.557L 0.496405 841.556L 0.496698 841.554L 0.496746 841.553L 0.496769 841.552L 0.496767 841.552L 0.496743 841.551L 0.496696 841.55L 0.496629 841.549L 0.496542 841.549L 0.496437 841.548L 0.496338 841.548L 0.496244 841.547L 0.496145 841.547L 0.496035 841.546L 0.495903 841.546L 0.495743 841.546L 0.495546 841.546L 0.495303 841.546L 0.495006 841.545L 0.494647 841.545L 0.494217 841.545L 0.493709 841.545L 0.493113 841.545L 0.492422 841.545L 0.491627 841.545L 0.49072 841.545L 0.489041 841.545L 0.487764 841.545L 0.486826 841.545L 0.486165 841.545L 0.485715 841.544L 0.485414 841.544L 0.485199 841.543L 0.485005 841.542L 0.484769 841.541L 0.484602 841.54L 0.484504 841.538L 0.484475 841.537L 0.484514 841.536L 0.484622 841.535L 0.484798 841.535L 0.485042 841.534L 0.48555 841.534L 0.486676 841.534L 0.488332 841.534L 0.490429 841.534L 0.492878 841.534L 0.49559 841.534L 0.498476 841.534L 0.501446 841.534L 0.504413 841.534L 0.507287 841.534L 0.509979 841.534L 0.5124 841.534L 0.514461 841.534L 0.516074 841.534L 0.517149 841.534L 0.517597 841.534L 0.517661 841.535L 0.517751 841.535L 0.517897 841.536L 0.518077 841.538L 0.518289 841.54L 0.518529 841.542L 0.518793 841.545L 0.51908 841.548L 0.519385 841.551L 0.519705 841.554L 0.520037 841.558L 0.52031 841.561L 0.520586 841.564L 0.521073 841.57L 0.521347 841.573L 0.521616 841.576L 0.521878 841.579L 0.522132 841.582L 0.522375 841.584L 0.522607 841.587L 0.522825 841.589L 0.523029 841.591L 0.523216 841.593L 0.523385 841.595L 0.523535 841.597L 0.523663 841.598L 0.523769 841.599L 0.52385 841.599L 0.523905 841.6L 0.523977 841.6L 0.524062 841.6L 0.524166 841.601L 0.524295 841.601L 0.524455 841.601L 0.52465 841.601L 0.524888 841.601L 0.525173 841.602L 0.525511 841.602L 0.525907 841.602L 0.526368 841.602L 0.526899 841.602L 0.527505 841.602L 0.528193 841.602L 0.528967 841.602L 0.529834 841.602L 0.535362 841.602L 0.535362 841.613L 0.519183 841.613L 0.514898 841.613L 0.511369 841.613L 0.508536 841.613L 0.506337 841.613L 0.50471 841.613L 0.503596 841.613L 0.502931 841.613L 0.502656 841.612L 0.502481 841.612L 0.502261 841.611L 0.502024 841.61z"/>
<path style="stroke:#000000; stroke-width:0.850394; stroke-linejoin:round; stroke-linecap:round; fill:none" d="M 0.552123 841.613L 0.551193 841.613L 0.550327 841.613L 0.549522 841.613L 0.548774 841.613L 0.548079 841.613L 0.547434 841.613L 0.546834 841.612L 0.546276 841.612L 0.545756 841.612L 0.545271 841.612L 0.544816 841.612L 0.544388 841.611L 0.543982 841.611L 0.543596 841.611L 0.543225 841.611L 0.542866 841.61L 0.542514 841.61L 0.542166 841.609L 0.541819 841.609L 0.541468 841.609L 0.54111 841.608L 0.540551 841.607L 0.540202 841.607L 0.539963 841.607L 0.539741 841.606L 0.539535 841.606L 0.539343 841.605L 0.539162 841.605L 0.53899 841.604L 0.538826 841.604L 0.538668 841.603L 0.538514 841.602L 0.538362 841.601L 0.53821 841.6L 0.538055 841.599L 0.537897 841.598L 0.537733 841.596L 0.537561 841.594L 0.537379 841.593L 0.537185 841.591L 0.536906 841.588L 0.536677 841.585L 0.53632 841.581L 0.536006 841.578L 0.535739 841.574L 0.535527 841.571L 0.535373 841.568L 0.535284 841.566L 0.535264 841.565L 0.535321 841.564L 0.535479 841.564L 0.53575 841.563L 0.53612 841.563L 0.536573 841.562L 0.537095 841.561L 0.537671 841.561L 0.538287 841.56L 0.538926 841.559L 0.542064 841.557L 0.583584 841.557L 0.588036 841.561L 0.588713 841.562L 0.589162 841.562L 0.589437 841.562L 0.589692 841.563L 0.58993 841.563L 0.59015 841.563L 0.590355 841.564L 0.590545 841.564L 0.590721 841.564L 0.590884 841.565L 0.591036 841.565L 0.591177 841.566L 0.591309 841.566L 0.591433 841.567L 0.591549 841.567L 0.591659 841.568L 0.591764 841.569L 0.591865 841.569L 0.591962 841.57L 0.592058 841.571L 0.592153 841.572L 0.592248 841.573L 0.592345 841.574L 0.592494 841.576L 0.592653 841.578L 0.593011 841.583L 0.593598 841.59L 0.566521 841.59L 0.563115 841.587L 0.55971 841.583L 0.559797 841.587L 0.559809 841.588L 0.559826 841.588L 0.559877 841.589L 0.559945 841.591L 0.560028 841.592L 0.560124 841.593L 0.56023 841.594L 0.560344 841.595L 0.560402 841.596L 0.560461 841.597L 0.561038 841.601L 0.572105 841.602L 0.583172 841.602L 0.583699 841.607L 0.583876 841.609L 0.583966 841.611L 0.583966 841.612L 0.583868 841.613L 0.58374 841.613L 0.583435 841.613L 0.582963 841.613L 0.582333 841.613L 0.581554 841.613L 0.580635 841.613L 0.579587 841.613L 0.578417 841.613L 0.577135 841.613L 0.575751 841.613L 0.574273 841.613L 0.572712 841.613L 0.571076 841.613L 0.569374 841.613L 0.567616 841.613L 0.565811 841.613L 0.564027 841.613L 0.562345 841.613L 0.560762 841.613L 0.559273 841.613L 0.557876 841.613L 0.556566 841.613L 0.555339 841.613L 0.554193 841.613L 0.553122 841.613L 0.552123 841.613z"/>
<path style="stroke:#000000; stroke-width:0.850394; stroke-linejoin:round; stroke-linecap:round; fill:none" d="M 0.48804 841.578L 0.488516 841.583L 0.48902 841.589L 0.489182 841.59L 0.490207 841.601L 0.500832 841.601L 0.500522 841.595L 0.500463 841.594L 0.500385 841.593L 0.500288 841.591L 0.500175 841.59L 0.500049 841.588L 0.499912 841.587L 0.499767 841.585L 0.499614 841.583L 0.499458 841.582L 0.4993 841.58L 0.499194 841.579L 0.498176 841.569L 0.492613 841.568L 0.48705 841.568L 0.487666 841.574L 0.48804 841.578z"/>
<path style="stroke:#000000; stroke-width:0.850394; stroke-linejoin:round; stroke-linecap:round; fill:none" d="M 0.215625 841.6L 0.215598 841.599L 0.215558 841.598L 0.215504 841.597L 0.215439 841.596L 0.215361 841.595L 0.215272 841.594L 0.215173 841.592L 0.215063 841.591L 0.214943 841.589L 0.214814 841.588L 0.214677 841.586L 0.214531 841.585L 0.213082 841.569L 0.201836 841.568L 0.202349 841.572L 0.202473 841.573L 0.202627 841.575L 0.202806 841.577L 0.203003 841.579L 0.203213 841.581L 0.203429 841.584L 0.203645 841.586L 0.203854 841.589L 0.204061 841.591L 0.204271 841.593L 0.204477 841.595L 0.204674 841.597L 0.204856 841.599L 0.205017 841.6L 0.205151 841.601L 0.205253 841.601L 0.205432 841.601L 0.205787 841.601L 0.206297 841.602L 0.206941 841.602L 0.207697 841.602L 0.208544 841.602L 0.20946 841.602L 0.210426 841.602L 0.212308 841.602L 0.213908 841.602L 0.215057 841.601L 0.215586 841.601L 0.215619 841.601L 0.215636 841.601L 0.215638 841.6L 0.215625 841.6z"/>
<path style="stroke:#000000; stroke-width:0.850394; stroke-linejoin:round; stroke-linecap:round; fill:none" d="M 0.345737 841.601L 0.34577 841.601L 0.345787 841.601L 0.345789 841.6L 0.345776 841.6L 0.345749 841.599L 0.345709 841.598L 0.345656 841.597L 0.34559 841.596L 0.345513 841.595L 0.345424 841.594L 0.345324 841.592L 0.345214 841.591L 0.345095 841.589L 0.344966 841.588L 0.344829 841.586L 0.344683 841.585L 0.343233 841.569L 0.331988 841.568L 0.332501 841.572L 0.332624 841.573L 0.332778 841.575L 0.332957 841.577L 0.333154 841.579L 0.333364 841.581L 0.33358 841.584L 0.333796 841.586L 0.334005 841.589L 0.334213 841.591L 0.334422 841.593L 0.334629 841.595L 0.334825 841.597L 0.335007 841.599L 0.335168 841.6L 0.335302 841.601L 0.335404 841.601L 0.335583 841.601L 0.335939 841.601L 0.336449 841.602L 0.337092 841.602L 0.337848 841.602L 0.338695 841.602L 0.339611 841.602L 0.340577 841.602L 0.342459 841.602L 0.344059 841.602L 0.345208 841.601L 0.345737 841.601z"/>
<path style="stroke:#000000; stroke-width:0.850394; stroke-linejoin:round; stroke-linecap:round; fill:none" d="M 1.06322 841.828L 1.06235 841.827L 1.06125 841.826L 1.05992 841.825L 1.05837 841.823L 1.05659 841.822L 1.0546 841.82L 1.05238 841.818L 1.04995 841.815L 1.0473 841.813L 1.04444 841.81L 1.04137 841.807L 1.03809 841.804L 1.03459 841.801L 1.0309 841.797L 1.027 841.793L 1.0229 841.789L 1.01859 841.785L 1.01409 841.78L 1.0094 841.776L 1.00819 841.774L 1.00075 841.767L 0.993982 841.76L 0.98785 841.754L 0.982331 841.748L 0.977398 841.743L 0.973023 841.739L 0.96918 841.735L 0.96584 841.732L 0.962977 841.729L 0.960563 841.726L 0.958571 841.724L 0.956974 841.722L 0.955743 841.72L 0.954853 841.719L 0.954275 841.718L 0.953983 841.717L 0.953825 841.717L 0.95368 841.716L 0.953546 841.715L 0.953424 841.714L 0.953315 841.713L 0.953217 841.711L 0.953131 841.71L 0.953056 841.708L 0.952993 841.706L 0.952941 841.705L 0.9529 841.703L 0.952871 841.701L 0.952852 841.699L 0.952845 841.697L 0.952848 841.695L 0.952861 841.693L 0.952886 841.691L 0.952921 841.689L 0.952966 841.687L 0.953021 841.686L 0.953087 841.684L 0.953162 841.682L 0.953247 841.68L 0.953343 841.679L 0.953447 841.677L 0.953562 841.676L 0.953685 841.675L 0.953819 841.673L 0.953961 841.672L 0.954112 841.672L 0.954273 841.671L 0.954442 841.67L 0.954648 841.67L 0.955021 841.67L 0.955553 841.669L 0.956239 841.668L 0.957072 841.667L 0.958044 841.666L 0.959149 841.665L 0.960381 841.663L 0.961732 841.662L 0.963196 841.66L 0.964766 841.659L 0.966436 841.657L 0.968198 841.655L 0.970046 841.653L 0.971973 841.651L 0.973973 841.649L 0.976038 841.647L 0.978163 841.645L 0.980339 841.643L 0.982561 841.64L 0.984822 841.638L 0.985583 841.637L 1.01517 841.608L 1.01517 841.594L 1.01518 841.591L 1.01523 841.588L 1.01531 841.586L 1.01543 841.584L 1.0156 841.582L 1.01581 841.581L 1.01606 841.579L 1.01637 841.578L 1.01673 841.576L 1.01715 841.576L 1.01763 841.575L 1.01818 841.574L 1.01879 841.573L 1.01947 841.573L 1.02023 841.572L 1.02106 841.572L 1.02172 841.572L 1.02236 841.571L 1.02298 841.571L 1.02358 841.571L 1.02416 841.571L 1.02474 841.571L 1.02531 841.571L 1.02587 841.571L 1.02643 841.571L 1.02699 841.571L 1.02755 841.571L 1.02812 841.571L 1.0287 841.571L 1.02929 841.572L 1.02989 841.572L 1.03051 841.572L 1.03123 841.573L 1.03236 841.574L 1.03388 841.575L 1.03576 841.577L 1.03797 841.579L 1.04049 841.581L 1.04328 841.584L 1.04631 841.587L 1.04956 841.59L 1.053 841.593L 1.0566 841.597L 1.06033 841.601L 1.06416 841.604L 1.06806 841.608L 1.07201 841.612L 1.07598 841.616L 1.07993 841.62L 1.08383 841.624L 1.08767 841.628L 1.09141 841.632L 1.09502 841.636L 1.09848 841.64L 1.10175 841.643L 1.1048 841.646L 1.10762 841.649L 1.11016 841.652L 1.1124 841.654L 1.11431 841.656L 1.11587 841.658L 1.11703 841.66L 1.11779 841.661L 1.1181 841.661L 1.11817 841.661L 1.11824 841.662L 1.1183 841.662L 1.11835 841.663L 1.1184 841.663L 1.11844 841.664L 1.11847 841.665L 1.11849 841.665L 1.11851 841.666L 1.11852 841.667L 1.11852 841.668L 1.11851 841.668L 1.11849 841.669L 1.11846 841.67L 1.11843 841.671L 1.11838 841.672L 1.11831 841.673L 1.11822 841.674L 1.11813 841.675L 1.11803 841.675L 1.11792 841.676L 1.11779 841.677L 1.11763 841.677L 1.11746 841.678L 1.11726 841.679L 1.11703 841.679L 1.11676 841.679L 1.11646 841.68L 1.11613 841.68L 1.11575 841.681L 1.11533 841.681L 1.11472 841.682L 1.11421 841.682L 1.11383 841.682L 1.11346 841.683L 1.11307 841.683L 1.11267 841.683L 1.11224 841.683L 1.11177 841.683L 1.11125 841.683L 1.11087 841.684L 1.11047 841.684L 1.11003 841.684L 1.10957 841.684L 1.10906 841.684L 1.10852 841.684L 1.10762 841.684L 1.10662 841.684L 1.1055 841.684L 1.10427 841.684L 1.1029 841.684L 1.10138 841.684L 1.09913 841.684L 1.09658 841.684L 1.08137 841.684L 1.09691 841.7L 1.11245 841.715L 1.12657 841.715L 1.12947 841.715L 1.13228 841.715L 1.13493 841.715L 1.13737 841.716L 1.13951 841.716L 1.14129 841.716L 1.14264 841.716L 1.14349 841.716L 1.14417 841.717L 1.14483 841.717L 1.14546 841.718L 1.14606 841.718L 1.14662 841.719L 1.14715 841.719L 1.14763 841.72L 1.14807 841.721L 1.14845 841.722L 1.14877 841.723L 1.14903 841.723L 1.14922 841.724L 1.14933 841.725L 1.14937 841.726L 1.14933 841.727L 1.1492 841.727L 1.14909 841.728L 1.14886 841.728L 1.14851 841.728L 1.14805 841.729L 1.14748 841.73L 1.14679 841.731L 1.146 841.732L 1.14509 841.733L 1.14408 841.734L 1.14297 841.735L 1.14174 841.736L 1.14042 841.738L 1.139 841.739L 1.13747 841.741L 1.13585 841.742L 1.13413 841.744L 1.13231 841.746L 1.1304 841.748L 1.1284 841.75L 1.1263 841.752L 1.12412 841.755L 1.12185 841.757L 1.11949 841.759L 1.11705 841.762L 1.11452 841.764L 1.11296 841.766L 1.07745 841.801L 1.07745 841.81L 1.07742 841.812L 1.07735 841.813L 1.07724 841.815L 1.0771 841.817L 1.07692 841.818L 1.07672 841.82L 1.0765 841.821L 1.07626 841.822L 1.07593 841.823L 1.0755 841.823L 1.07499 841.824L 1.07439 841.825L 1.07371 841.825L 1.07298 841.826L 1.07219 841.826L 1.07136 841.827L 1.0705 841.827L 1.06961 841.828L 1.0687 841.828L 1.06779 841.828L 1.06689 841.828L 1.06599 841.828L 1.06512 841.828L 1.06426 841.828L 1.06385 841.828L 1.06322 841.828z"/>
<path style="stroke:#000000; stroke-width:0.850394; stroke-linejoin:round; stroke-linecap:round; fill:none" d="M 1.06082 841.789L 1.06329 841.787L 1.0662 841.784L 1.06949 841.78L 1.07281 841.777L 1.07637 841.774L 1.08014 841.77L 1.08408 841.766L 1.08555 841.764L 1.11414 841.736L 1.10296 841.735L 1.07516 841.707L 1.0723 841.704L 1.06962 841.701L 1.0671 841.699L 1.06476 841.696L 1.06258 841.694L 1.06055 841.692L 1.05869 841.69L 1.05697 841.688L 1.0554 841.687L 1.05396 841.685L 1.05267 841.684L 1.05151 841.682L 1.05048 841.681L 1.04957 841.68L 1.04878 841.679L 1.04811 841.678L 1.04754 841.677L 1.04709 841.676L 1.04673 841.675L 1.04648 841.675L 1.04631 841.674L 1.04624 841.673L 1.04625 841.673L 1.04634 841.672L 1.04651 841.671L 1.04675 841.671L 1.04705 841.67L 1.04742 841.67L 1.04784 841.669L 1.04832 841.669L 1.04885 841.668L 1.04943 841.667L 1.05279 841.664L 1.07235 841.663L 1.07628 841.663L 1.07994 841.663L 1.08326 841.663L 1.08616 841.663L 1.08855 841.663L 1.09036 841.662L 1.09151 841.662L 1.09191 841.662L 1.09168 841.662L 1.09103 841.661L 1.08999 841.66L 1.08857 841.658L 1.08661 841.656L 1.08428 841.654L 1.0816 841.651L 1.07862 841.648L 1.07568 841.645L 1.07254 841.642L 1.06923 841.639L 1.06578 841.635L 1.06437 841.634L 1.05882 841.628L 1.05361 841.623L 1.04886 841.618L 1.04468 841.614L 1.04119 841.611L 1.0385 841.608L 1.03674 841.607L 4.46902 838.595L 1.03593 841.606L 1.03585 841.606L 1.03577 841.607L 1.03569 841.607L 1.03562 841.607L 1.03555 841.607L 1.03549 841.607L 1.03543 841.608L 1.03537 841.608L 1.03533 841.609L 1.03529 841.609L 1.03525 841.609L 1.03522 841.61L 1.0352 841.61L 1.03519 841.611L 1.03519 841.612L 1.03519 841.617L 0.974017 841.678L 0.974017 841.711L 1.01488 841.752L 1.01905 841.756L 1.0231 841.76L 1.02703 841.764L 1.0308 841.768L 1.03439 841.772L 1.0378 841.775L 1.04098 841.778L 1.04392 841.781L 1.04661 841.784L 1.04901 841.786L 1.05112 841.788L 1.0529 841.79L 1.05433 841.791L 1.0554 841.792L 1.05608 841.793L 1.05636 841.793L 1.05672 841.793L 1.05761 841.792L 1.05899 841.791L 1.06082 841.789z"/>
<path style="stroke:#000000; stroke-width:0.850394; stroke-linejoin:round; stroke-linecap:round; fill:none" d="M 0.558042 841.57L 0.558014 841.57L 0.558001 841.57L 0.558002 841.57L 0.558017 841.571L 0.558045 841.571L 0.558084 841.572L 0.558134 841.572L 0.55826 841.573L 0.558502 841.575L 0.559065 841.579L 0.569537 841.579L 0.569272 841.574L 0.569006 841.569L 0.563473 841.568L 0.561911 841.568L 0.561042 841.568L 0.560656 841.568L 0.560301 841.568L 0.559976 841.568L 0.55968 841.568L 0.559412 841.568L 0.559171 841.568L 0.558956 841.568L 0.558766 841.568L 0.558599 841.569L 0.558455 841.569L 0.558333 841.569L 0.558232 841.569L 0.55815 841.569L 0.558088 841.569L 0.558042 841.57z"/>
</g>
</svg>