<?xml version="1.0" standalone="no"?>
<!DOCTYPE svg PUBLIC "-//W3C//DTD SVG 20010904//EN"
 "http://www.w3.org/TR/2001/REC-SVG-20010904/DTD/svg10.dtd">
<svg version="1.0" xmlns="http://www.w3.org/2000/svg"
 width="700.000000pt" height="122.000000pt" viewBox="0 0 700.000000 122.000000"
 preserveAspectRatio="xMidYMid meet">

<g transform="translate(0.000000,122.000000) scale(0.100000,-0.100000)"
fill="#000000" stroke="none">
<path d="M167 1053 c-2 -5 -1 -33 2 -63 l6 -55 62 -3 62 -3 6 -52 c11 -97 45
-512 45 -549 l0 -38 -54 0 c-30 0 -57 -4 -60 -9 -3 -4 -3 -31 1 -60 l6 -51
188 0 c107 0 189 4 189 9 0 5 -13 163 -30 351 -16 188 -30 355 -30 371 0 29 0
29 60 29 40 0 62 -4 65 -12 4 -13 65 -697 65 -730 0 -16 13 -18 125 -18 l125
0 0 29 c0 15 -13 183 -30 372 -16 189 -30 347 -30 352 0 4 29 7 64 7 l64 0 6
-42 c3 -24 17 -185 31 -358 14 -173 28 -325 31 -337 4 -23 6 -23 190 -23 l185
0 -3 58 -3 57 -65 5 -65 5 -28 325 c-15 179 -32 337 -38 352 -6 15 -28 40 -48
55 l-36 28 -527 3 c-289 1 -528 -1 -531 -5z"/>
<path d="M4950 1036 c0 -7 3 -34 6 -59 l7 -46 61 -3 61 -3 3 -62 3 -63 -143 0
c-158 0 -170 -4 -206 -62 -20 -33 -20 -34 -1 -233 10 -110 18 -210 19 -223 0
-13 19 -43 44 -70 l45 -47 111 0 112 0 33 38 c18 20 35 37 39 37 3 0 6 -16 6
-35 l0 -35 190 0 190 0 0 29 c0 16 -3 42 -6 59 -6 30 -8 31 -68 34 l-61 3 -21
235 c-12 129 -27 299 -34 378 l-13 142 -188 0 c-153 0 -189 -3 -189 -14z m160
-378 c0 -7 7 -85 15 -173 8 -88 15 -168 15 -177 0 -15 -10 -18 -60 -18 -40 0
-62 4 -65 13 -4 11 -35 328 -35 356 0 7 23 11 65 11 45 0 65 -4 65 -12z"/>
<path d="M1550 773 c-17 -14 -35 -36 -40 -48 -8 -20 23 -428 35 -466 3 -8 23
-33 46 -55 l40 -39 111 0 110 0 33 39 32 39 7 -37 7 -36 189 0 190 0 0 23 c0
12 -3 39 -6 59 l-7 38 -59 0 c-38 0 -60 4 -63 13 -4 11 -45 452 -45 483 0 12
-48 14 -274 14 l-274 0 -32 -27z m349 -240 c7 -76 15 -162 18 -190 l6 -53 -67
0 c-36 0 -66 3 -66 8 0 4 -7 81 -15 172 -8 91 -15 173 -15 183 0 14 10 17 64
17 l63 0 12 -137z"/>
<path d="M2310 747 c0 -29 5 -58 12 -65 7 -7 36 -12 64 -12 l53 0 5 -42 c10
-78 26 -261 26 -300 l0 -38 -61 0 -62 0 7 -46 c3 -26 6 -53 6 -60 0 -12 46
-14 250 -14 l251 0 -3 58 -3 57 -62 3 c-35 2 -63 6 -63 10 0 4 -7 70 -15 147
-8 77 -15 159 -15 183 l0 42 119 0 c66 0 122 4 125 8 3 5 2 34 -1 65 l-6 57
-153 0 -152 0 -35 -40 c-19 -22 -37 -40 -40 -40 -3 0 -7 17 -9 38 l-3 37 -117
3 -118 3 0 -54z"/>
<path d="M3020 773 c-17 -14 -35 -36 -40 -48 -8 -20 23 -428 35 -466 3 -8 23
-33 46 -55 l40 -39 111 0 110 0 33 39 32 39 7 -37 7 -36 189 0 190 0 0 23 c0
12 -3 39 -6 59 l-7 38 -59 0 c-38 0 -60 4 -63 13 -4 11 -45 452 -45 483 0 12
-48 14 -274 14 l-274 0 -32 -27z m349 -240 c7 -76 15 -162 18 -190 l6 -53 -67
0 c-36 0 -66 3 -66 8 0 4 -7 81 -15 172 -8 91 -15 173 -15 183 0 14 10 17 64
17 l63 0 12 -137z"/>
<path d="M3780 751 c0 -77 4 -81 71 -81 69 0 61 23 84 -238 14 -158 18 -177
41 -207 37 -49 79 -65 168 -65 89 0 135 16 155 53 17 32 31 35 31 8 0 -51 -1
-51 202 -51 l190 0 -7 53 c-4 28 -9 55 -12 59 -2 5 -31 8 -64 8 -54 0 -59 2
-60 23 0 12 -10 126 -22 252 l-22 230 -119 3 c-66 1 -123 -1 -127 -5 -4 -4 1
-98 11 -208 11 -110 19 -221 20 -247 l0 -48 -60 0 c-72 0 -64 -23 -85 240 -8
107 -18 212 -21 233 l-6 37 -184 0 -184 0 0 -49z"/>
<path d="M5570 773 c-17 -14 -35 -36 -40 -48 -8 -20 23 -428 35 -466 3 -8 23
-33 46 -55 l40 -39 207 0 207 0 0 60 0 60 -127 3 -126 3 -7 77 c-3 42 -8 89
-10 103 -6 42 4 41 49 -7 l43 -44 146 0 c128 0 147 2 147 16 0 52 -23 263 -30
281 -5 12 -28 36 -51 53 l-42 30 -228 0 -227 0 -32 -27z m340 -132 c0 -16 3
-43 6 -60 l7 -31 -66 0 c-72 0 -77 5 -77 83 l0 37 65 0 c65 0 65 0 65 -29z"/>
<path d="M6190 747 c0 -29 5 -58 12 -65 7 -7 36 -12 64 -12 l53 0 5 -42 c10
-78 26 -261 26 -300 l0 -38 -61 0 -62 0 7 -46 c3 -26 6 -53 6 -60 0 -12 46
-14 250 -14 l251 0 -3 58 -3 57 -62 3 c-35 2 -63 6 -63 10 0 4 -7 70 -15 147
-8 77 -15 159 -15 183 l0 42 119 0 c66 0 122 4 125 8 3 5 2 34 -1 65 l-6 57
-153 0 -152 0 -35 -40 c-19 -22 -37 -40 -40 -40 -3 0 -7 17 -9 38 l-3 37 -117
3 -118 3 0 -54z"/>
</g>
</svg>
