0
SECTION
2
HEADER
9
$INSUNITS
70
4
9
$ACADVER
1
AC1014
9
$HANDSEED
5
FFFF
0
ENDSEC
0
SECTION
2
TABLES
0
TABLE
2
VPORT
5
8
100
AcDbSymbolTable
0
ENDTAB
0
TABLE
2
LTYPE
5
5
100
AcDbSymbolTable
0
LTYPE
5
14
100
AcDbSymbolTableRecord
100
AcDbLinetypeTableRecord
2
BYBLOCK
70
0
0
LTYPE
5
15
100
AcDbSymbolTableRecord
100
AcDbLinetypeTableRecord
2
BYLAYER
70
0
0
ENDTAB
0
TABLE
2
LAYER
5
2
100
AcDbSymbolTable
70
2
0
LAYER
5
50
100
AcDbSymbolTableRecord
100
AcDbLayerTableRecord
2
0
70
0
6
CONTINUOUS
0
ENDTAB
0
TABLE
2
STYLE
5
3
100
AcDbSymbolTable
70
1
0
STYLE
5
11
100
AcDbSymbolTableRecord
100
AcDbTextStyleTableRecord
2
STANDARD
70
0
0
ENDTAB
0
TABLE
2
VIEW
5
6
100
AcDbSymbolTable
70
0
0
ENDTAB
0
TABLE
2
UCS
5
7
100
AcDbSymbolTable
70
0
0
ENDTAB
0
TABLE
2
APPID
5
9
100
AcDbSymbolTable
70
2
0
APPID
5
12
100
AcDbSymbolTableRecord
100
AcDbRegAppTableRecord
2
ACAD
70
0
0
ENDTAB
0
TABLE
2
DIMSTYLE
5
A
100
AcDbSymbolTable
70
1
0
ENDTAB
0
TABLE
2
BLOCK_RECORD
5
1
100
AcDbSymbolTable
70
1
0
BLOCK_RECORD
5
1F
100
AcDbSymbolTableRecord
100
AcDbBlockTableRecord
2
*MODEL_SPACE
0
BLOCK_RECORD
5
1B
100
AcDbSymbolTableRecord
100
AcDbBlockTableRecord
2
*PAPER_SPACE
0
ENDTAB
0
ENDSEC
0
SECTION
2
BLOCKS
0
BLOCK
5
20
100
AcDbEntity
100
AcDbBlockBegin
2
*MODEL_SPACE
0
ENDBLK
5
21
100
AcDbEntity
100
AcDbBlockEnd
0
BLOCK
5
1C
100
AcDbEntity
100
AcDbBlockBegin
2
*PAPER_SPACE
0
ENDBLK
5
1D
100
AcDbEntity
100
AcDbBlockEnd
0
ENDSEC
0
SECTION
2
ENTITIES
0
LWPOLYLINE
5
100
100
AcDbEntity
8
0
100
AcDbPolyline
90
306
70
1
43
0.0
10
0.16809648203467698
20
0.29138422187965474
10
0.16827078203467682
20
0.29064862187965501
10
0.16845558203467725
20
0.290019021879655
10
0.16865288203467721
20
0.28948722187965514
10
0.16886498203467715
20
0.28904522187965465
10
0.16909388203467712
20
0.2886846218796546
10
0.16934168203467714
20
0.28839742187965478
10
0.16961078203467705
20
0.2881754218796545
10
0.16990308203467697
20
0.2880105218796547
10
0.17022078203467683
20
0.28789442187965475
10
0.17056618203467711
20
0.28781902187965447
10
0.17094118203467734
20
0.28777632187965529
10
0.17134818203467683
20
0.28775792187965499
10
0.1717890820346768
20
0.28775582187965498
10
0.17278168203467725
20
0.28776762187965488
10
0.1733375820346772
20
0.28776532187965498
10
0.17393608203467692
20
0.28774662187965483
10
0.1794370820346769
20
0.28748462187965451
10
0.17997008203467724
20
0.28261462187965491
10
0.18012928203467726
20
0.28066992187965489
10
0.18017008203467688
20
0.27897432187965476
10
0.18009468203467716
20
0.277710421879655
10
0.17990508203467703
20
0.27706062187965508
10
0.17975948203467706
20
0.27699202187965455
10
0.17945198203467683
20
0.27692792187965498
10
0.17899108203467684
20
0.27686832187965471
10
0.17838558203467691
20
0.27681362187965464
10
0.17764418203467691
20
0.27676402187965465
10
0.17677538203467735
20
0.27671972187965466
10
0.17578798203467749
20
0.27668092187965454
10
0.17469058203467724
20
0.2766479218796547
10
0.17349188203467703
20
0.27662082187965453
10
0.17220058203467725
20
0.27659992187965443
10
0.17082538203467723
20
0.27658552187965479
10
0.16937478203467693
20
0.27657772187965501
10
0.16785758203467727
20
0.27657682187965493
10
0.16628248203467699
20
0.276583021879655
10
0.16465808203467713
20
0.27659652187965511
10
0.16299308203467699
20
0.27661762187965455
10
0.14667808203467692
20
0.27685962187965429
10
0.14383508203467732
20
0.30955362187965463
10
0.14325498203467735
20
0.31614522187965455
10
0.14269608203467732
20
0.32234082187965474
10
0.14217178203467684
20
0.32800152187965503
10
0.14169558203467714
20
0.33298832187965477
10
0.14128108203467715
20
0.33716252187965479
10
0.14094188203467695
20
0.34038512187965497
10
0.14069138203467668
20
0.34251712187965522
10
0.14054308203467702
20
0.3434196218796548
10
0.13998038203467678
20
0.34385412187965481
10
0.13879258203467748
20
0.34420242187965466
10
0.13718478203467721
20
0.34445452187965464
10
0.13536168203467702
20
0.3446006218796549
10
0.13352838203467721
20
0.34463082187965455
10
0.1318896820346771
20
0.3445353218796543
10
0.130650682034677
20
0.34430422187965493
10
0.13001608203467685
20
0.34392762187965498
10
0.12999148203467703
20
0.34369002187965458
10
0.12999678203467702
20
0.34312562187965467
10
0.13003068203467694
20
0.34225162187965452
10
0.13009198203467687
20
0.34108492187965467
10
0.13017918203467704
20
0.33964292187965484
10
0.13029128203467688
20
0.33794252187965501
10
0.13042688203467712
20
0.33600112187965492
10
0.130627482034677
20
0.3332612218796549
10
0.13081128203467685
20
0.33083992187965483
10
0.13101448203467703
20
0.3282331218796547
10
0.13123578203467712
20
0.32545802187965489
10
0.13147398203467719
20
0.32253172187965473
10
0.13172768203467689
20
0.31947152187965455
10
0.13199558203467687
20
0.31629432187965434
10
0.13227658203467663
20
0.31301742187965498
10
0.13249508203467708
20
0.31050462187965477
10
0.13306318203467726
20
0.30391032187965461
10
0.13357848203467748
20
0.29773222187965465
10
0.13403098203467689
20
0.29210752187965483
10
0.13441018203467714
20
0.28717312187965471
10
0.13470608203467738
20
0.2830662218796548
10
0.13490838203467692
20
0.27992372187965464
10
0.13500678203467731
20
0.27788282187965474
10
0.13499108203467725
20
0.27708062187965454
10
0.13466438203467712
20
0.27691502187965455
10
0.13392238203467688
20
0.27677432187965478
10
0.1328240820346771
20
0.27665812187965488
10
0.13142878203467712
20
0.27656602187965507
10
0.12979588203467729
20
0.27649772187965493
10
0.12798448203467705
20
0.27645292187965465
10
0.12605378203467688
20
0.27643112187965502
10
0.12406318203467714
20
0.2764320218796551
10
0.12207188203467723
20
0.27645522187965454
10
0.1201389820346771
20
0.27650052187965457
10
0.11832388203467714
20
0.27656732187965438
10
0.11668578203467728
20
0.27665552187965514
10
0.11528388203467688
20
0.27676452187965495
10
0.11417748203467692
20
0.27689422187965496
10
0.11342578203467679
20
0.27704402187965493
10
0.11308808203467691
20
0.27721362187965448
10
0.11302388203467684
20
0.27745712187965454
10
0.11293408203467692
20
0.2780124218796548
10
0.11282018203467692
20
0.27886302187965506
10
0.11264668203467665
20
0.28031652187965439
10
0.11244128203467707
20
0.282173621879655
10
0.112207282034677
20
0.28440222187965492
10
0.11194798203467693
20
0.28697012187965498
10
0.11166638203467694
20
0.28984522187965489
10
0.11136578203467695
20
0.29299532187965494
10
0.11104938203467696
20
0.2963883218796548
10
0.11072028203467699
20
0.29999202187965479
10
0.1104500820346771
20
0.30300522187965473
10
0.11017548203467731
20
0.30611622187965482
10
0.10989808203467732
20
0.3093086218796548
10
0.10962108203467713
20
0.31250722187965485
10
0.10934748203467737
20
0.31563642187965479
10
0.10907908203467709
20
0.31867922187965469
10
0.10881728203467722
20
0.32161832187965478
10
0.10856388203467737
20
0.324436921879655
10
0.10832028203467736
20
0.32711782187965499
10
0.10808818203467685
20
0.3296440218796548
10
0.10786918203467666
20
0.33199842187965456
10
0.10766488203467706
20
0.33416382187965443
10
0.1074768820346772
20
0.33612332187965499
10
0.10730668203467686
20
0.33785982187965469
10
0.10715608203467675
20
0.33935622187965475
10
0.10702648203467724
20
0.34059552187965469
10
0.10691948203467749
20
0.34156052187965469
10
0.10683688203467712
20
0.3422342218796548
10
0.10678008203467704
20
0.34259962187965454
10
0.10670588203467724
20
0.34291812187965454
10
0.1066215820346772
20
0.3432011218796549
10
0.10652118203467731
20
0.34345072187965453
10
0.10639878203467734
20
0.34366902187965453
10
0.10624858203467757
20
0.34385792187965447
10
0.10606448203467733
20
0.34401962187965485
10
0.10584078203467684
20
0.34415612187965461
10
0.10557128203467658
20
0.34426952187965487
10
0.10525038203467729
20
0.34436182187965514
10
0.10487198203467718
20
0.34443512187965486
10
0.10443028203467708
20
0.34449152187965459
10
0.10391918203467687
20
0.34453312187965435
10
0.10333298203467733
20
0.34456182187965478
10
0.10266568203467719
20
0.3445797218796548
10
0.10191138203467731
20
0.3445890218796549
10
0.10106408203467698
20
0.34459162187965464
10
0.098374982034676872
20
0.34453232187965477
10
0.096761682034677277
20
0.34430692187965461
10
0.095975882034677329
20
0.34384402187965457
10
0.095769082034677377
20
0.34307262187965482
10
0.09582518203467727
20
0.34212952187965495
10
0.095985782034677114
20
0.34001682187965454
10
0.096239882034677149
20
0.336868921879655
10
0.096575982034677321
20
0.33282022187965499
10
0.096982882034676865
20
0.3280051218796548
10
0.097449382034676679
20
0.32255782187965487
10
0.097964182034677161
20
0.31661292187965484
10
0.098516082034676988
20
0.31030462187965457
10
0.099057882034677136
20
0.30400072187965477
10
0.099543382034676942
20
0.29806762187965463
10
0.099963182034676912
20
0.2926389218796549
10
0.10030828203467734
20
0.28784812187965469
10
0.10056958203467747
20
0.28382892187965469
10
0.10073768203467726
20
0.28071492187965452
10
0.10080358203467699
20
0.27863962187965441
10
0.10075808203467707
20
0.27773662187965453
10
0.10064988203467684
20
0.27754022187965466
10
0.10047598203467734
20
0.27736352187965496
10
0.10022408203467725
20
0.27720562187965481
10
0.099882182034677358
20
0.27706542187965477
10
0.099438182034677358
20
0.27694212187965472
10
0.09903068203467702
20
0.27686012187965459
10
0.098553882034677076
20
0.27678662187965442
10
0.098002482034676985
20
0.27672112187965503
10
0.097371482034677159
20
0.27666342187965487
10
0.096655682034677004
20
0.27661282187965486
10
0.095849882034677036
20
0.27656922187965505
10
0.09494918203467706
20
0.2765320218796552
10
0.093591582034677212
20
0.27649172187965476
10
0.092043782034677002
20
0.27646112187965477
10
0.090293782034677195
20
0.27643932187965459
10
0.088329282034677048
20
0.27642532187965474
10
0.086138282034677327
20
0.27641812187965464
10
0.084339082034677326
20
0.27641662187965488
10
0.080797482034676849
20
0.27643242187965489
10
0.077629282034676894
20
0.27647892187965484
10
0.074859482034677072
20
0.27655472187965491
10
0.072513282034676885
20
0.27665842187965473
10
0.070615782034676999
20
0.27678862187965447
10
0.06919178203467713
20
0.27694392187965489
10
0.068266582034677281
20
0.27712312187965493
10
0.067865082034677116
20
0.2773246218796549
10
0.067741982034676962
20
0.27760612187965494
10
0.067607482034677258
20
0.27806002187965473
10
0.067465782034677457
20
0.27866262187965452
10
0.06732128203467691
20
0.27939022187965457
10
0.067178482034677134
20
0.28021942187965443
10
0.067041582034677027
20
0.28112642187965498
10
0.066914982034677051
20
0.28208772187965525
10
0.066803082034677108
20
0.28307962187965496
10
0.066303082034677163
20
0.28792662187965501
10
0.071739082034676938
20
0.28792662187965501
10
0.073440982034677083
20
0.28793572187965466
10
0.074745882034676914
20
0.28797652187965483
10
0.075706382034677056
20
0.28806892187965449
10
0.07637478203467718
20
0.28823282187965482
10
0.076803482034676906
20
0.28848842187965462
10
0.077044882034676965
20
0.28885562187965452
10
0.077151282034677027
20
0.2893543218796546
10
0.077175082034677267
20
0.29000462187965481
10
0.077124882034677045
20
0.29131762187965482
10
0.076982682034676952
20
0.29353442187965484
10
0.07676068203467723
20
0.29652002187965487
10
0.076471382034677404
20
0.30013912187965508
10
0.076127082034677107
20
0.30425672187965436
10
0.075740182034677028
20
0.30873762187965503
10
0.075323082034677302
20
0.31344672187965494
10
0.074888082034677561
20
0.31824872187965481
10
0.074447582034676829
20
0.32300872187965457
10
0.074014082034676854
20
0.32759132187965501
10
0.073599782034676764
20
0.33186162187965496
10
0.07321708203467725
20
0.33568422187965463
10
0.072878382034677336
20
0.33892422187965454
10
0.072596082034677156
20
0.34144642187965479
10
0.072382482034676898
20
0.34311562187965494
10
0.072250082034677199
20
0.34379662187965454
10
0.072173382034677047
20
0.3438775218796547
10
0.072046582034677176
20
0.34395622187965491
10
0.071872482034677221
20
0.34403222187965488
10
0.071654082034677269
20
0.34410522187965475
10
0.071394082034677009
20
0.34417462187965486
10
0.07109558203467703
20
0.34424022187965475
10
0.07076128203467702
20
0.34430142187965473
10
0.070394182034677066
20
0.34435802187965492
10
0.069997182034677308
20
0.34440942187965506
10
0.06957308203467738
20
0.34445532187965477
10
0.069124782034676868
20
0.34449522187965487
10
0.068655282034676968
20
0.34452882187965495
10
0.06816738203467676
20
0.34455572187965522
10
0.067663882034676992
20
0.34457542187965484
10
0.067147882034677142
20
0.34458752187965458
10
0.066622082034676899
20
0.34459162187965464
10
0.06148608203467687
20
0.34459162187965464
10
0.060967082034676934
20
0.34962262187965443
10
0.060800582034676864
20
0.35163302187965484
10
0.060731582034677101
20
0.35338812187965474
10
0.06076228203467704
20
0.35469922187965464
10
0.060895082034677084
20
0.35537762187965505
10
0.061180982034677034
20
0.35545132187965456
10
0.061930282034676765
20
0.35552302187965457
10
0.063118782034677356
20
0.35559222187965478
10
0.064722682034677459
20
0.3556586218796548
10
0.06671788203467699
20
0.35572192187965479
10
0.069080582034677374
20
0.35578162187965501
10
0.071786682034677418
20
0.35583742187965506
10
0.074812282034676936
20
0.35588882187965465
10
0.078133482034676849
20
0.35593572187965494
10
0.081726182034677075
20
0.35597752187965515
10
0.085566482034676872
20
0.35601382187965436
10
0.089630382034677214
20
0.3560444218796549
10
0.093893982034677359
20
0.35606892187965478
10
0.098333282034677172
20
0.35608682187965479
10
0.10292428203467707
20
0.35609782187965455
10
0.10764308203467687
20
0.35610162187965477
10
0.15394208203467707
20
0.35610162187965477
10
0.15740838203467722
20
0.35374172187965458
10
0.15827298203467732
20
0.3531365218796545
10
0.15883278203467688
20
0.35271912187965493
10
0.15934798203467715
20
0.35230042187965493
10
0.15972978203467714
20
0.35195662187965493
10
0.16008658203467696
20
0.35159822187965484
10
0.16041968203467705
20
0.35121912187965454
10
0.16073068203467711
20
0.35081322187965447
10
0.16102118203467686
20
0.35037442187965451
10
0.16129258203467667
20
0.34989652187965459
10
0.16154658203467731
20
0.34937342187965459
10
0.16172658203467694
20
0.3489478218796549
10
0.16189828203467704
20
0.34849072187965457
10
0.16206218203467682
20
0.34799962187965439
10
0.16221918203467689
20
0.34747192187965459
10
0.162369782034677
20
0.34690502187965433
10
0.16251478203467729
20
0.34629632187965498
10
0.16265458203467753
20
0.34564322187965513
10
0.16278998203467732
20
0.34494322187965498
10
0.16292168203467738
20
0.3441937218796548
10
0.16305028203467686
20
0.3433920218796549
10
0.16321798203467686
20
0.34223762187965467
10
0.16338278203467727
20
0.34097982187965503
10
0.16354628203467725
20
0.33961262187965524
10
0.16371008203467707
20
0.33812972187965473
10
0.16387568203467706
20
0.3365250218796545
10
0.16404458203467698
20
0.33479252187965491
10
0.16421828203467714
20
0.33292602187965481
10
0.16444458203467738
20
0.3303951218796547
10
0.16473368203467731
20
0.32705222187965455
10
0.165271082034677
20
0.32068562187965499
10
0.16554678203467676
20
0.31738102187965522
10
0.16580078203467685
20
0.31430482187965458
10
0.166251882034677
20
0.30880492187965458
10
0.16645338203467697
20
0.30636482187965441
10
0.16664168203467722
20
0.30412062187965494
10
0.16681888203467721
20
0.30206382187965453
10
0.16698728203467739
20
0.3001866218796545
10
0.16714878203467731
20
0.29848062187965485
10
0.16730578203467739
20
0.29693772187965484
10
0.16746028203467711
20
0.29554972187965489
10
0.16761438203467705
20
0.29430852187965484
10
0.16777038203467709
20
0.29320602187965505
10
0.16793038203467725
20
0.29223392187965436
0
LWPOLYLINE
5
101
100
AcDbEntity
8
0
100
AcDbPolyline
90
139
70
1
43
0.0
10
0.32838098203467669
20
0.27644412187965484
10
0.32760598203467661
20
0.2764668218796551
10
0.32686608203467638
20
0.27649712187965469
10
0.32615978203467622
20
0.27653552187965447
10
0.32548588203467677
20
0.27658242187965476
10
0.32484278203467665
20
0.27663852187965465
10
0.3242290820346766
20
0.27670422187965449
10
0.3236433820346768
20
0.27677992187965517
10
0.32308428203467632
20
0.27686632187965465
10
0.32255038203467645
20
0.27696372187965501
10
0.32204028203467627
20
0.27707272187965482
10
0.32155238203467662
20
0.27719382187965491
10
0.32108548203467646
20
0.27732752187965504
10
0.32063798203467664
20
0.27747422187965498
10
0.32020858203467673
20
0.27763452187965498
10
0.3197957820346764
20
0.27780892187965478
10
0.3193981820346764
20
0.27799792187965466
10
0.31901438203467636
20
0.27820192187965498
10
0.31864298203467645
20
0.27842152187965485
10
0.31828248203467635
20
0.27865712187965463
10
0.31793158203467675
20
0.27890932187965456
10
0.31758868203467683
20
0.27917862187965437
10
0.31725258203467666
20
0.27946542187965495
10
0.31692168203467708
20
0.27977032187965489
10
0.31659458203467716
20
0.28009372187965453
10
0.31626998203467704
20
0.28043622187965467
10
0.31594628203467701
20
0.28079832187965448
10
0.31562218203467718
20
0.28118032187965492
10
0.31529628203467719
20
0.2815829218796545
10
0.31487138203467713
20
0.28213312187965467
10
0.31451288203467709
20
0.28263202187965464
10
0.31426768203467736
20
0.28300992187965501
10
0.3140404820346776
20
0.28340272187965476
10
0.31382938203467714
20
0.28382132187965481
10
0.31363238203467703
20
0.28427632187965457
10
0.3134476820346771
20
0.28477832187965457
10
0.3132732820346773
20
0.28533802187965474
10
0.31310718203467702
20
0.28596622187965492
10
0.31294758203467721
20
0.28667342187965461
10
0.31279228203467735
20
0.28747052187965472
10
0.31263968203467718
20
0.28836802187965471
10
0.31248748203467736
20
0.28937662187965452
10
0.3123339820346771
20
0.2905070218796546
10
0.31217728203467687
20
0.29176992187965489
10
0.31201518203467671
20
0.29317602187965475
10
0.31184598203467695
20
0.29473592187965469
10
0.31166758203467704
20
0.2964604218796546
10
0.31147818203467736
20
0.29836002187965505
10
0.31127568203467681
20
0.30044562187965473
10
0.31098218203467698
20
0.30353392187965456
10
0.31090408203467701
20
0.30436362187965471
10
0.31054728203467719
20
0.30830362187965477
10
0.31023288203467725
20
0.3120540218796547
10
0.30996648203467703
20
0.31552732187965504
10
0.30975358203467696
20
0.31863612187965462
10
0.30959968203467692
20
0.32129302187965447
10
0.30951048203467668
20
0.32341072187965503
10
0.3094913820346773
20
0.3249017218796546
10
0.30954808203467687
20
0.32567862187965479
10
0.30970598203467703
20
0.32611512187965486
10
0.30997718203467695
20
0.32663102187965476
10
0.31034678203467669
20
0.32720732187965451
10
0.31080008203467735
20
0.32782492187965473
10
0.31132218203467732
20
0.32846472187965492
10
0.31189818203467723
20
0.32910762187965514
10
0.31251348203467699
20
0.32973462187965485
10
0.31315308203467729
20
0.33032662187965467
10
0.31629108203467704
20
0.33308162187965451
10
0.3406080820346763
20
0.33308162187965451
10
0.34706068203467666
20
0.33306922187965493
10
0.35235548203467637
20
0.33302912187965494
10
0.35658478203467625
20
0.33295732187965499
10
0.35984098203467652
20
0.33284952187965455
10
0.36221638203467632
20
0.33270152187965474
10
0.36380348203467638
20
0.33250912187965498
10
0.36469458203467642
20
0.33226822187965521
10
0.36498208203467664
20
0.33197462187965487
10
0.3651768820346768
20
0.32963542187965489
10
0.36569518203467655
20
0.32377552187965508
10
0.36639738203467664
20
0.31596942187965438
10
0.36697408203467674
20
0.30961862187965483
10
0.36890908203467632
20
0.28836962187965498
10
0.37443708203467652
20
0.28810662187965519
10
0.3750025820346764
20
0.28807732187965451
10
0.37553608203467648
20
0.28804432187965467
10
0.37603838203467632
20
0.28800662187965453
10
0.37651048203467652
20
0.28796312187965467
10
0.37695288203467681
20
0.2879128218796545
10
0.3773666820346766
20
0.2878548218796545
10
0.37775258203467665
20
0.28778812187965463
10
0.37811138203467654
20
0.28771152187965499
10
0.37844388203467638
20
0.28762422187965486
10
0.37875088203467633
20
0.2875250218796549
10
0.37903318203467651
20
0.28741312187965495
10
0.37929168203467645
20
0.28728732187965511
10
0.37952718203467684
20
0.28714672187965473
10
0.37974038203467675
20
0.2869903218796549
10
0.37993228203467677
20
0.28681702187965508
10
0.38010348203467659
20
0.28662592187965463
10
0.38025488203467683
20
0.2864159218796547
10
0.38038728203467653
20
0.2861860218796547
10
0.38050158203467632
20
0.28593532187965454
10
0.38059848203467639
20
0.2856626218796543
10
0.38067878203467631
20
0.28536712187965496
10
0.38074338203467617
20
0.28504772187965488
10
0.38079308203467666
20
0.28470332187965464
10
0.38082858203467684
20
0.28433312187965465
10
0.38085088203467621
20
0.28393592187965444
10
0.38086058203467665
20
0.28351072187965454
10
0.38085868203467654
20
0.28305662187965486
10
0.38084588203467662
20
0.28257262187965482
10
0.38082298203467646
20
0.282057621879655
10
0.3807908820346767
20
0.28151062187965481
10
0.38075028203467642
20
0.28093062187965478
10
0.38070208203467626
20
0.28031662187965489
10
0.38041908203467645
20
0.27685962187965485
10
0.3645980820346767
20
0.27661762187965511
10
0.36155868203467667
20
0.27657512187965472
10
0.35887518203467694
20
0.27655002187965461
10
0.35652578203467622
20
0.27654772187965471
10
0.3544881820346768
20
0.2765734218796545
10
0.35274048203467689
20
0.27663242187965509
10
0.35126048203467652
20
0.27673002187965479
10
0.35002618203467672
20
0.27687152187965469
10
0.34901548203467636
20
0.27706212187965484
10
0.34820628203467652
20
0.27730712187965467
10
0.34757668203467651
20
0.27761192187965467
10
0.34710438203467642
20
0.27798162187965492
10
0.34676758203467661
20
0.27842152187965485
10
0.34654388203467668
20
0.27893702187965497
10
0.34641148203467642
20
0.27953342187965469
10
0.34634828203467638
20
0.28021582187965466
10
0.34633208203467658
20
0.28098962187965482
10
0.34633208203467658
20
0.28357462187965476
10
0.3429280820346764
20
0.27999562187965454
10
0.33952308203467618
20
0.27641662187965432
10
0.33093108203467669
20
0.27641662187965488
10
0.33004218203467661
20
0.27641952187965502
10
0.32919258203467638
20
0.27642852187965528
0
LWPOLYLINE
5
102
100
AcDbEntity
8
0
100
AcDbPolyline
90
157
70
1
43
0.0
10
0.28563218203467688
20
0.27641702187965467
10
0.28170158203467688
20
0.27640162187965445
10
0.27764608203467711
20
0.27641172187965468
10
0.27358958203467731
20
0.27644652187965468
10
0.26965588203467727
20
0.27650532187965482
10
0.26596878203467733
20
0.27658752187965485
10
0.26265208203467727
20
0.27669232187965465
10
0.25982968203467738
20
0.27681912187965452
10
0.25762528203467749
20
0.27696722187965428
10
0.2561628820346773
20
0.2771360218796548
10
0.25556608203467723
20
0.2773246218796549
10
0.25544338203467687
20
0.27760612187965494
10
0.25530908203467706
20
0.27806002187965473
10
0.25516758203467715
20
0.27866262187965452
10
0.25502318203467711
20
0.27939022187965457
10
0.25488038203467733
20
0.28021942187965498
10
0.25474358203467717
20
0.28112642187965498
10
0.2546169820346772
20
0.28208772187965525
10
0.25450508203467725
20
0.28307962187965496
10
0.25400508203467731
20
0.28792662187965501
10
0.26487708203467741
20
0.28792662187965501
10
0.26485108203467667
20
0.29080462187965506
10
0.26483208203467723
20
0.29138462187965453
10
0.26478508203467699
20
0.29221732187965477
10
0.26471238203467695
20
0.29327612187965479
10
0.26461618203467707
20
0.29453462187965462
10
0.2644986820346773
20
0.29596642187965483
10
0.26436228203467693
20
0.29754512187965487
10
0.26420908203467708
20
0.29924422187965483
10
0.26404148203467703
20
0.30103732187965471
10
0.2638616820346773
20
0.30289802187965453
10
0.26367198203467723
20
0.30479992187965432
10
0.2632828820346772
20
0.30859822187965458
10
0.2630411820346773
20
0.31100912187965457
10
0.26282148203467692
20
0.31325342187965455
10
0.26262908203467716
20
0.31527412187965453
10
0.2624692820346769
20
0.31701412187965461
10
0.26234748203467662
20
0.31841632187965485
10
0.26226898203467741
20
0.31942382187965468
10
0.26222378203467733
20
0.32019952187965495
10
0.262181182034677
20
0.32039942187965464
10
0.26210758203467688
20
0.32058062187965475
10
0.26199928203467671
20
0.32074412187965473
10
0.26185288203467716
20
0.32089122187965502
10
0.26166468203467741
20
0.32102292187965509
10
0.26143108203467713
20
0.32114052187965481
10
0.26114828203467721
20
0.32124502187965476
10
0.26081298203467718
20
0.32133762187965487
10
0.2604212820346774
20
0.321419621879655
10
0.25996978203467691
20
0.3214919218796547
10
0.25945468203467714
20
0.32155592187965487
10
0.25887248203467716
20
0.321612621879655
10
0.25821958203467721
20
0.32166312187965507
10
0.257492282034677
20
0.32170882187965488
10
0.25668708203467727
20
0.32175062187965509
10
0.2511530820346769
20
0.32201462187965491
10
0.25062708203467676
20
0.32688362187965503
10
0.25045058203467752
20
0.32882672187965478
10
0.25035998203467691
20
0.33051802187965496
10
0.25036058203467715
20
0.33177552187965476
10
0.2504580820346769
20
0.33241762187965485
10
0.25054928203467663
20
0.33248522187965479
10
0.25074548203467717
20
0.33255092187965463
10
0.2510412820346769
20
0.33261442187965451
10
0.25143088203467723
20
0.33267532187965465
10
0.25190878203467715
20
0.33273332187965465
10
0.25246928203467689
20
0.33278812187965467
10
0.25310688203467713
20
0.33283932187965493
10
0.25381598203467692
20
0.33288652187965451
10
0.25459088203467706
20
0.33292942187965469
10
0.25542598203467715
20
0.33296772187965451
10
0.25631578203467731
20
0.33300112187965469
10
0.25725458203467721
20
0.33302922187965489
10
0.25823688203467698
20
0.33305162187965476
10
0.25925688203467689
20
0.33306802187965501
10
0.26030918203467701
20
0.33307822187965519
10
0.26138808203467701
20
0.33308162187965451
10
0.27196008203467681
20
0.33308162187965451
10
0.27196008203467736
20
0.32998262187965477
10
0.27200748203467684
20
0.32877952187965465
10
0.27213648203467666
20
0.32779412187965484
10
0.27232758203467711
20
0.32712822187965451
10
0.27256108203467688
20
0.32688362187965447
10
0.27273988203467714
20
0.32694692187965502
10
0.27301868203467694
20
0.32712822187965507
10
0.27338338203467705
20
0.32741482187965465
10
0.27381978203467716
20
0.32779412187965484
10
0.27431398203467738
20
0.32825322187965467
10
0.27485158203467697
20
0.32877952187965465
10
0.27541868203467712
20
0.32936022187965486
10
0.27600108203467699
20
0.32998262187965477
10
0.278839082034677
20
0.33308162187965451
10
0.30636308203467688
20
0.33308162187965451
10
0.30696308203467693
20
0.32827862187965462
10
0.30714958203467702
20
0.32633892187965474
10
0.30721378203467709
20
0.32460722187965474
10
0.30715548203467724
20
0.3232725218796545
10
0.30697408203467724
20
0.32252362187965455
10
0.30686068203467698
20
0.32241522187965499
10
0.30665938203467691
20
0.32231242187965525
10
0.30637248203467693
20
0.32221552187965463
10
0.30600188203467715
20
0.32212472187965469
10
0.30554998203467743
20
0.32204002187965486
10
0.30501868203467675
20
0.32196182187965494
10
0.30441028203467724
20
0.32189012187965493
10
0.30372678203467729
20
0.32182522187965468
10
0.30297048203467736
20
0.32176732187965462
10
0.302143282034677
20
0.32171652187965472
10
0.30124748203467722
20
0.32167302187965485
10
0.30028508203467696
20
0.32163702187965493
10
0.29925838203467725
20
0.32160862187965489
10
0.29816938203467702
20
0.32158822187965508
10
0.29702018203467684
20
0.32157582187965494
10
0.2958130820346766
20
0.32157162187965493
10
0.29238008203467725
20
0.321566221879655
10
0.28978428203467743
20
0.32153532187965517
10
0.28790888203467702
20
0.32145682187965485
10
0.28663678203467713
20
0.32130872187965509
10
0.28585128203467702
20
0.32106902187965469
10
0.28543528203467727
20
0.32071562187965474
10
0.28527178203467729
20
0.32022652187965461
10
0.28524408203467744
20
0.31957962187965483
10
0.28527658203467698
20
0.31845272187965457
10
0.2853666820346773
20
0.31690492187965491
10
0.28550708203467723
20
0.31500332187965496
10
0.28569048203467728
20
0.31281512187965488
10
0.28590958203467742
20
0.31040742187965487
10
0.28615718203467699
20
0.30784742187965453
10
0.28642588203467712
20
0.30520242187965452
10
0.28670848203467714
20
0.30253952187965449
10
0.28699768203467702
20
0.29992582187965466
10
0.28728618203467726
20
0.29742852187965463
10
0.28756668203467728
20
0.29511492187965505
10
0.28783198203467752
20
0.29305202187965507
10
0.28807478203467685
20
0.29130702187965429
10
0.28828768203467692
20
0.28994722187965449
10
0.28846358203467704
20
0.28903972187965477
10
0.28859508203467721
20
0.28865162187965476
10
0.28882118203467699
20
0.28852082187965478
10
0.28922408203467698
20
0.28838802187965473
10
0.28978138203467674
20
0.28825702187965485
10
0.29047058203467757
20
0.28813132187965496
10
0.29126908203467694
20
0.28801482187965466
10
0.29215428203467675
20
0.28791112187965484
10
0.29310378203467713
20
0.28782382187965472
10
0.29409508203467716
20
0.28775662187965456
10
0.29896408203467728
20
0.28748462187965451
10
0.29949108203467689
20
0.28261462187965491
10
0.29966758203467725
20
0.28067162187965455
10
0.2997581820346773
20
0.27898062187965478
10
0.29975758203467706
20
0.27772312187965498
10
0.29966008203467731
20
0.27708062187965454
10
0.29907878203467742
20
0.27689852187965436
10
0.29762978203467683
20
0.27674592187965474
10
0.2954366820346771
20
0.27662222187965491
10
0.29262358203467731
20
0.27652662187965471
10
0.28931408203467734
20
0.27645842187965453
0
LWPOLYLINE
5
103
100
AcDbEntity
8
0
100
AcDbPolyline
90
157
70
1
43
0.0
10
0.61318488203467636
20
0.27650532187965482
10
0.60949778203467642
20
0.27658752187965485
10
0.60618108203467636
20
0.27669232187965465
10
0.60335868203467646
20
0.27681912187965452
10
0.60115428203467658
20
0.27696722187965483
10
0.59969188203467638
20
0.2771360218796548
10
0.59909508203467632
20
0.2773246218796549
10
0.59897238203467651
20
0.27760612187965494
10
0.5988380820346767
20
0.27806002187965473
10
0.59869658203467679
20
0.27866262187965452
10
0.59855218203467675
20
0.27939022187965457
10
0.59840938203467642
20
0.28021942187965498
10
0.59827258203467626
20
0.28112642187965498
10
0.59814598203467684
20
0.2820877218796547
10
0.59803408203467689
20
0.28307962187965496
10
0.59753408203467639
20
0.28792662187965501
10
0.6084060820346765
20
0.28792662187965501
10
0.60838008203467631
20
0.29080462187965506
10
0.60836108203467631
20
0.29138462187965508
10
0.60831408203467663
20
0.29221732187965477
10
0.60824138203467659
20
0.29327612187965479
10
0.60814518203467671
20
0.29453462187965462
10
0.60802768203467639
20
0.29596642187965483
10
0.60789128203467657
20
0.29754512187965487
10
0.60773808203467672
20
0.29924422187965483
10
0.60757048203467667
20
0.30103732187965471
10
0.60739068203467639
20
0.30289802187965453
10
0.60720098203467632
20
0.30479992187965488
10
0.60681188203467629
20
0.30859822187965513
10
0.60657018203467639
20
0.31100912187965457
10
0.60635048203467656
20
0.31325342187965455
10
0.6061580820346768
20
0.31527412187965453
10
0.60599828203467654
20
0.31701412187965461
10
0.60587648203467626
20
0.31841632187965485
10
0.6057979820346765
20
0.31942382187965468
10
0.60575278203467642
20
0.32019952187965495
10
0.60571018203467664
20
0.32039942187965464
10
0.60563658203467652
20
0.32058062187965475
10
0.60552828203467635
20
0.32074412187965473
10
0.6053818820346768
20
0.32089122187965502
10
0.60519368203467705
20
0.32102292187965509
10
0.60496008203467677
20
0.32114052187965481
10
0.60467728203467686
20
0.32124502187965476
10
0.60434198203467682
20
0.32133762187965487
10
0.60395028203467649
20
0.321419621879655
10
0.60349878203467655
20
0.3214919218796547
10
0.60298368203467678
20
0.32155592187965487
10
0.60240148203467681
20
0.321612621879655
10
0.60174858203467629
20
0.32166312187965451
10
0.60102128203467664
20
0.32170882187965488
10
0.60021608203467691
20
0.32175062187965509
10
0.59468208203467654
20
0.32201462187965491
10
0.5941560820346764
20
0.32688362187965503
10
0.5939795820346766
20
0.32882672187965478
10
0.59388898203467655
20
0.33051802187965496
10
0.59388958203467679
20
0.33177552187965476
10
0.59398708203467654
20
0.33241762187965485
10
0.59407828203467683
20
0.33248522187965479
10
0.59427448203467681
20
0.33255092187965463
10
0.59457028203467654
20
0.33261442187965451
10
0.59495988203467631
20
0.33267532187965465
10
0.59543778203467623
20
0.33273332187965465
10
0.59599828203467653
20
0.33278812187965467
10
0.59663588203467677
20
0.33283932187965493
10
0.59734498203467656
20
0.33288652187965506
10
0.5981198820346767
20
0.33292942187965469
10
0.59895498203467679
20
0.33296772187965451
10
0.59984478203467695
20
0.33300112187965469
10
0.6007835820346763
20
0.33302922187965489
10
0.60176588203467662
20
0.33305162187965476
10
0.60278588203467653
20
0.33306802187965501
10
0.60383818203467665
20
0.33307822187965463
10
0.60491708203467665
20
0.33308162187965451
10
0.61548908203467645
20
0.33308162187965451
10
0.61548908203467645
20
0.32998262187965477
10
0.61553648203467648
20
0.32877952187965465
10
0.6156654820346763
20
0.32779412187965484
10
0.61585658203467675
20
0.32712822187965451
10
0.61609008203467652
20
0.32688362187965447
10
0.61626888203467678
20
0.32694692187965502
10
0.61654768203467658
20
0.32712822187965451
10
0.61691238203467669
20
0.32741482187965465
10
0.6173487820346768
20
0.32779412187965484
10
0.61784298203467702
20
0.32825322187965467
10
0.61838058203467661
20
0.32877952187965465
10
0.61894768203467676
20
0.32936022187965486
10
0.61953008203467663
20
0.32998262187965477
10
0.62236808203467664
20
0.33308162187965451
10
0.64989208203467652
20
0.33308162187965451
10
0.65049208203467657
20
0.32827862187965462
10
0.65067858203467666
20
0.32633892187965474
10
0.65074278203467673
20
0.32460722187965474
10
0.65068448203467688
20
0.3232725218796545
10
0.65050308203467633
20
0.32252362187965455
10
0.65038968203467662
20
0.32241522187965443
10
0.65018838203467655
20
0.3223124218796547
10
0.64990148203467657
20
0.32221552187965463
10
0.64953088203467679
20
0.32212472187965469
10
0.64907898203467707
20
0.32204002187965486
10
0.64854768203467639
20
0.32196182187965494
10
0.64793928203467632
20
0.32189012187965493
10
0.64725578203467637
20
0.32182522187965468
10
0.64649948203467644
20
0.32176732187965462
10
0.64567228203467664
20
0.32171652187965472
10
0.64477648203467686
20
0.32167302187965485
10
0.6438140820346766
20
0.32163702187965493
10
0.64278738203467634
20
0.32160862187965489
10
0.64169838203467611
20
0.32158822187965508
10
0.64054918203467648
20
0.32157582187965494
10
0.63934208203467624
20
0.32157162187965493
10
0.63590938203467617
20
0.321566221879655
10
0.63331368203467631
20
0.32153532187965461
10
0.63143828203467645
20
0.32145682187965485
10
0.63016618203467656
20
0.32130872187965454
10
0.62938048203467656
20
0.32106902187965469
10
0.62896438203467631
20
0.32071562187965474
10
0.62880088203467632
20
0.32022652187965461
10
0.62877308203467652
20
0.31957962187965483
10
0.62880558203467662
20
0.31845272187965457
10
0.62889568203467638
20
0.31690492187965491
10
0.62903608203467631
20
0.31500332187965496
10
0.62921948203467637
20
0.31281512187965488
10
0.62943858203467651
20
0.31040742187965487
10
0.62968618203467663
20
0.30784742187965508
10
0.62995488203467676
20
0.30520242187965452
10
0.63023748203467678
20
0.30253952187965505
10
0.63052668203467666
20
0.29992582187965466
10
0.63081518203467635
20
0.29742852187965463
10
0.63109568203467636
20
0.29511492187965449
10
0.63136098203467661
20
0.29305202187965507
10
0.63160378203467649
20
0.29130702187965485
10
0.63181668203467656
20
0.28994722187965505
10
0.63199258203467668
20
0.28903972187965477
10
0.63212408203467685
20
0.28865162187965476
10
0.63235018203467663
20
0.28852082187965478
10
0.63275308203467662
20
0.28838802187965473
10
0.63331038203467638
20
0.28825702187965485
10
0.63399958203467666
20
0.28813132187965496
10
0.63479808203467658
20
0.28801482187965521
10
0.63568328203467639
20
0.28791112187965484
10
0.63663278203467621
20
0.28782382187965472
10
0.6376240820346768
20
0.28775662187965456
10
0.64249308203467692
20
0.28748462187965451
10
0.64302008203467653
20
0.28261462187965491
10
0.64319658203467633
20
0.28067162187965511
10
0.64328718203467639
20
0.27898062187965478
10
0.64328658203467615
20
0.27772312187965498
10
0.64318908203467695
20
0.2770806218796551
10
0.6426077820346765
20
0.27689852187965491
10
0.64115878203467647
20
0.27674592187965474
10
0.63896568203467674
20
0.27662222187965491
10
0.63615258203467639
20
0.27652662187965471
10
0.63284308203467643
20
0.27645842187965453
10
0.62916118203467652
20
0.27641702187965467
10
0.62523058203467652
20
0.276401621879655
10
0.6211750820346762
20
0.27641172187965524
10
0.6171185820346764
20
0.27644652187965468
0
LWPOLYLINE
5
104
100
AcDbEntity
8
0
100
AcDbPolyline
90
233
70
1
43
0.0
10
0.45245518203467672
20
0.28866482187965503
10
0.45264268203467684
20
0.28855772187965478
10
0.45286898203467651
20
0.28845872187965471
10
0.45313378203467647
20
0.28836782187965482
10
0.45343668203467635
20
0.288285221879655
10
0.45377708203467648
20
0.28821082187965474
10
0.45415458203467651
20
0.28814492187965501
10
0.4545688820346766
20
0.2880875218796547
10
0.45501928203467656
20
0.28803872187965485
10
0.45550548203467656
20
0.28799862187965486
10
0.45602708203467679
20
0.28796722187965473
10
0.45658348203467647
20
0.28794472187965492
10
0.45717428203467636
20
0.28793112187965486
10
0.45779908203467612
20
0.28792662187965501
10
0.46307508203467629
20
0.28792662187965501
10
0.46369208203467682
20
0.28299062187965462
10
0.4638743820346769
20
0.28096112187965483
10
0.46389418203467647
20
0.2792214218796546
10
0.46375748203467682
20
0.27792222187965454
10
0.4634700820346771
20
0.27721462187965451
10
0.46330118203467663
20
0.27712632187965491
10
0.46298108203467636
20
0.27704372187965454
10
0.46251638203467615
20
0.27696702187965438
10
0.46191368203467642
20
0.2768966218796548
10
0.46117948203467651
20
0.27683262187965463
10
0.46032058203467674
20
0.27677522187965486
10
0.45934338203467706
20
0.2767247218796548
10
0.45825458203467673
20
0.27668142187965483
10
0.45706068203467676
20
0.27664532187965496
10
0.45576838203467696
20
0.27661682187965497
10
0.45438418203467668
20
0.27659612187965477
10
0.45291478203467683
20
0.27658352187965474
10
0.45136668203467678
20
0.27657912187965483
10
0.44974638203467643
20
0.27658312187965495
10
0.44806068203467664
20
0.27659592187965487
10
0.44631608203467676
20
0.27661762187965511
10
0.43000108203467668
20
0.27685962187965485
10
0.42972708203467658
20
0.28016162187965488
10
0.4294540820346765
20
0.28346462187965493
10
0.42610108203467667
20
0.27994062187965518
10
0.42274908203467687
20
0.27641662187965488
10
0.41388908203467634
20
0.27641662187965488
10
0.41251088203467678
20
0.27641992187965481
10
0.41126798203467652
20
0.27643092187965457
10
0.41014978203467667
20
0.27645152187965483
10
0.40914538203467687
20
0.27648342187965469
10
0.4082443820346765
20
0.27652862187965477
10
0.40743608203467674
20
0.27658862187965483
10
0.40670968203467661
20
0.27666552187965487
10
0.4060545820346767
20
0.27676092187965462
10
0.40546018203467649
20
0.27687662187965478
10
0.4049157820346766
20
0.27701452187965492
10
0.40441068203467656
20
0.27717652187965514
10
0.40393428203467641
20
0.27736412187965465
10
0.40347588203467621
20
0.27757942187965456
10
0.40302478203467662
20
0.2778240218796546
10
0.40257038203467654
20
0.27809982187965487
10
0.40210208203467657
20
0.27840862187965498
10
0.40130228203467677
20
0.27896042187965486
10
0.40080778203467671
20
0.27931342187965502
10
0.40034268203467671
20
0.27965892187965524
10
0.39990578203467686
20
0.28000082187965458
10
0.39949568203467678
20
0.28034292187965493
10
0.3991112820346765
20
0.28068902187965483
10
0.39875118203467674
20
0.28104292187965452
10
0.39841418203467649
20
0.28140842187965476
10
0.39809898203467642
20
0.28178952187965456
10
0.39780438203467661
20
0.2821898218796548
10
0.39752898203467668
20
0.28261332187965504
10
0.39727168203467667
20
0.28306382187965495
10
0.39703108203467674
20
0.2835450218796548
10
0.39680588203467648
20
0.28406082187965476
10
0.39669868203467629
20
0.28433282187965481
10
0.39659488203467652
20
0.28461502187965504
10
0.39649428203467674
20
0.2849077218796553
10
0.39639688203467638
20
0.28521152187965471
10
0.39630228203467621
20
0.28552682187965472
10
0.39612118203467661
20
0.28619382187965503
10
0.39594988203467629
20
0.28691262187965472
10
0.3957870820346765
20
0.28768712187965451
10
0.39563148203467624
20
0.28852102187965467
10
0.39548178203467677
20
0.28941822187965482
10
0.39533678203467648
20
0.29038252187965463
10
0.39519518203467663
20
0.29141772187965487
10
0.39505568203467678
20
0.29252762187965464
10
0.39491698203467651
20
0.29371622187965463
10
0.3947779820346764
20
0.29498712187965459
10
0.39463728203467663
20
0.29634432187965465
10
0.39449358203467622
20
0.29779152187965452
10
0.39434568203467635
20
0.29933262187965437
10
0.39411308203467665
20
0.30182852187965459
10
0.39370968203467638
20
0.30624622187965467
10
0.39340778203467652
20
0.30956822187965471
10
0.39313308203467678
20
0.31260312187965489
10
0.39289218203467646
20
0.31527652187965494
10
0.39269188203467642
20
0.31751392187965466
10
0.39253878203467651
20
0.31924082187965497
10
0.39243958203467655
20
0.320382921879655
10
3.8254080000000004
20
3.331798
10
0.39236938203467631
20
0.32093032187965498
10
0.39228228203467608
20
0.32099592187965487
10
0.39214258203467689
20
0.3210618218796546
10
0.39195318203467666
20
0.32112782187965483
10
0.39171688203467669
20
0.32119322187965482
10
0.39143658203467657
20
0.32125772187965473
10
0.39111508203467649
20
0.32132082187965483
10
0.39075518203467663
20
0.32138202187965481
10
0.39035988203467653
20
0.3214409218796549
10
0.38993198203467638
20
0.32149702187965479
10
0.38947428203467638
20
0.32155002187965465
10
0.3889896820346761
20
0.32159922187965484
10
0.38848098203467685
20
0.32164442187965492
10
0.38795108203467654
20
0.32168502187965464
10
0.38740288203467643
20
0.32172052187965483
10
0.38683908203467676
20
0.32175062187965453
10
0.38130508203467695
20
0.32201462187965435
10
0.38077808203467622
20
0.32688362187965503
10
0.38060308203467674
20
0.32882822187965455
10
0.38051508203467699
20
0.33052342187965433
10
0.38051928203467644
20
0.33178692187965486
10
0.38062108203467671
20
0.33243662187965484
10
0.3807444820346767
20
0.33250502187965492
10
0.3810327820346765
20
0.33256902187965509
10
0.38147728203467623
20
0.33262842187965436
10
0.3820692820346766
20
0.33268302187965504
10
0.38280018203467658
20
0.33273252187965452
10
0.38366138203467681
20
0.33277682187965452
10
0.38464408203467693
20
0.33281562187965463
10
0.38573958203467651
20
0.33284862187965503
10
0.3869393820346767
20
0.3328757218796552
10
0.38823458203467665
20
0.33289662187965474
10
0.38961678203467631
20
0.33291112187965488
10
0.3910770820346765
20
0.33291892187965466
10
0.3926069820346767
20
0.33292002187965464
10
0.39419768203467653
20
0.33291392187965452
10
0.39584068203467659
20
0.33290052187965491
10
0.39752708203467657
20
0.33287962187965481
10
0.41406408203467637
20
0.33263862187965454
10
0.41598608203467613
20
0.31138962187965469
10
0.41637328203467661
20
0.30709852187965458
10
0.41673738203467647
20
0.30305172187965468
10
0.41707018203467672
20
0.29934072187965455
10
0.41736348203467666
20
0.29605732187965472
10
0.41760908203467673
20
0.29329332187965462
10
0.41779888203467674
20
0.29114022187965438
10
0.41792458203467664
20
0.28968972187965458
10
0.41797808203467679
20
0.28903362187965465
10
0.41800668203467672
20
0.28889672187965454
10
0.41807458203467651
20
0.28876932187965443
10
0.41818228203467644
20
0.28865112187965503
10
0.41833008203467636
20
0.28854212187965467
10
0.41851828203467611
20
0.28844232187965446
10
0.41874738203467654
20
0.28835162187965502
10
0.41901758203467643
20
0.28826982187965478
10
0.41932928203467668
20
0.28819702187965479
10
0.41968298203467647
20
0.28813302187965462
10
0.4200787820346763
20
0.28807782187965481
10
0.42051728203467642
20
0.28803132187965486
10
0.42099868203467672
20
0.28799342187965482
10
0.42152348203467638
20
0.2879641218796547
10
0.4220918820346764
20
0.2879432218796546
10
0.42270428203467658
20
0.28793072187965452
10
0.42393748203467641
20
0.28791992187965465
10
0.42565628203467654
20
0.28786002187965454
10
0.42625708203467672
20
0.28786052187965483
10
0.42669858203467692
20
0.28789382187965507
10
0.42708798203467624
20
0.28796892187965439
10
0.42736328203467622
20
0.28806692187965499
10
0.42760718203467663
20
0.28820472187965518
10
0.42782068203467638
20
0.28838832187965457
10
0.42800448203467678
20
0.28862342187965462
10
0.42815958203467674
20
0.28891592187965442
10
0.42828678203467641
20
0.28927152187965488
10
0.42838688203467645
20
0.2896961218796551
10
0.42846088203467636
20
0.29019552187965481
10
0.42850948203467631
20
0.29077552187965483
10
0.42853368203467634
20
0.29144182187965495
10
0.42853428203467658
20
0.29220042187965478
10
0.42851208203467661
20
0.29305702187965466
10
0.42846808203467646
20
0.29401742187965485
10
0.42840308203467625
20
0.29508752187965503
10
0.42831788203467613
20
0.29627302187965499
10
0.42818448203467641
20
0.29792612187965473
10
0.42798688203467661
20
0.30017592187965458
10
0.42766468203467634
20
0.30365942187965456
10
0.42717718203467647
20
0.30885672187965452
10
0.42690208203467639
20
0.31183262187965466
10
0.42655158203467658
20
0.31567882187965468
10
0.42622398203467637
20
0.31931082187965476
10
0.42592648203467642
20
0.32264572187965468
10
0.42566648203467672
20
0.32560112187965451
10
0.42545098203467691
20
0.32809432187965448
10
0.42528728203467647
20
0.33004272187965478
10
0.42518258203467663
20
0.33136372187965502
10
0.42514408203467691
20
0.33197462187965487
10
0.42517698203467624
20
0.33212362187965472
10
0.42528178203467659
20
0.33226022187965498
10
0.42546268203467685
20
0.33238462187965501
10
0.42572398203467643
20
0.33249732187965508
10
0.4260695820346766
20
0.332598721879655
10
0.42650398203467665
20
0.33268922187965511
10
0.42703108203467677
20
0.33276912187965468
10
0.42765518203467634
20
0.33283902187965453
10
0.42838048203467649
20
0.33289912187965454
10
0.42921118203467667
20
0.332949921879655
10
0.43015128203467645
20
0.33299182187965515
10
0.43120518203467628
20
0.33302522187965478
10
0.43237688203467628
20
0.33305052187965478
10
0.4336706820346764
20
0.33306802187965501
10
0.43509068203467671
20
0.33307832187965458
10
0.43664108203467666
20
0.33308162187965451
10
0.44237688203467684
20
0.3330287218796546
10
0.4458959820346764
20
0.33283612187965439
10
0.4476650820346767
20
0.33245302187965453
10
0.4481510820346768
20
0.33182862187965456
10
0.44819178203467647
20
0.33088832187965489
10
0.44830728203467674
20
0.32921122187965501
10
0.44848748203467625
20
0.3269055218796546
10
0.44872218203467651
20
0.32407962187965489
10
0.4490014820346766
20
0.32084192187965488
10
0.44931518203467635
20
0.3173006218796548
10
0.44965328203467658
20
0.31356432187965466
10
0.4500056820346765
20
0.30974112187965475
10
0.45036238203467638
20
0.30593952187965456
10
0.45071318203467658
20
0.30226782187965484
10
0.45104798203467633
20
0.29883442187965459
10
0.45135688203467639
20
0.29574762187965453
10
0.45162978203467652
20
0.29311582187965479
10
0.4518563820346766
20
0.29104732187965499
10
0.45202688203467678
20
0.28965042187965473
10
0.45213108203467689
20
0.28903362187965465
10
0.45219898203467612
20
0.28890282187965466
10
0.4523071820346769
20
0.2887799218796544
0
LWPOLYLINE
5
105
100
AcDbEntity
8
0
100
AcDbPolyline
90
138
70
1
43
0.0
10
0.22643378203467734
20
0.33295732187965499
10
0.22968978203467716
20
0.33284952187965511
10
0.23206518203467696
20
0.33270152187965474
10
0.23365208203467713
20
0.33250912187965498
10
0.23454288203467732
20
0.33226822187965521
10
0.23483008203467715
20
0.33197462187965487
10
0.23502498203467725
20
0.32963542187965489
10
0.23554358203467685
20
0.32377552187965453
10
0.2362917820346766
20
0.31546082187965452
10
0.23682208203467725
20
0.30961862187965428
10
0.23875808203467686
20
0.28836962187965498
10
0.24428508203467703
20
0.28810662187965463
10
0.24485068203467686
20
0.28807732187965451
10
0.24538418203467693
20
0.28804432187965467
10
0.24588668203467723
20
0.28800662187965453
10
0.24635868203467692
20
0.28796312187965467
10
0.24680128203467711
20
0.2879128218796545
10
0.2472150820346769
20
0.2878548218796545
10
0.24760098203467695
20
0.28778812187965463
10
0.24795978203467683
20
0.28771152187965443
10
0.24829228203467724
20
0.28762422187965486
10
0.24859928203467718
20
0.2875250218796549
10
0.24888168203467731
20
0.28741312187965495
10
0.24914018203467725
20
0.28728732187965456
10
0.24937568203467708
20
0.28714672187965473
10
0.249588882034677
20
0.2869903218796549
10
0.24978078203467702
20
0.28681702187965508
10
0.24995198203467683
20
0.28662592187965463
10
0.25010338203467708
20
0.2864159218796547
10
0.25023578203467733
20
0.2861860218796547
10
0.25035008203467712
20
0.28593532187965454
10
0.25044698203467719
20
0.28566262187965485
10
0.25052728203467711
20
0.28536712187965496
10
0.25059188203467697
20
0.28504772187965488
10
0.2506415820346769
20
0.28470332187965464
10
0.25067718203467704
20
0.28433312187965465
10
0.25069948203467696
20
0.28393592187965444
10
0.25070928203467679
20
0.28351072187965509
10
0.25070738203467724
20
0.28305662187965486
10
0.25069458203467732
20
0.28257262187965482
10
0.2506717820346771
20
0.282057621879655
10
0.25063968203467735
20
0.28151062187965481
10
0.25059918203467701
20
0.28093062187965478
10
0.25055108203467735
20
0.28031662187965489
10
0.25026808203467754
20
0.27685962187965485
10
0.23444708203467723
20
0.27661762187965511
10
0.23140748203467731
20
0.27657512187965472
10
0.22872398203467703
20
0.27655002187965461
10
0.22637438203467697
20
0.27654772187965471
10
0.224336782034677
20
0.2765734218796545
10
0.22258898203467714
20
0.27663242187965453
10
0.22110898203467733
20
0.27673002187965479
10
0.21987468203467697
20
0.27687152187965469
10
0.21886408203467711
20
0.27706212187965484
10
0.21805498203467721
20
0.27730712187965467
10
0.21742538203467721
20
0.27761192187965467
10
0.21695318203467706
20
0.27798162187965492
10
0.21661638203467726
20
0.27842152187965485
10
0.21639288203467721
20
0.27893702187965497
10
0.21626048203467696
20
0.27953342187965469
10
0.21619728203467692
20
0.28021582187965466
10
0.21618108203467712
20
0.28098962187965482
10
0.21618108203467712
20
0.28357462187965476
10
0.21277608203467691
20
0.27999562187965454
10
0.20937208203467672
20
0.27641662187965432
10
0.20078008203467723
20
0.27641662187965488
10
0.1998910820346772
20
0.27641952187965502
10
0.19904148203467698
20
0.27642852187965472
10
0.19822978203467678
20
0.27644412187965484
10
0.19745468203467731
20
0.27646682187965455
10
0.19671468203467712
20
0.27649712187965469
10
0.19600838203467696
20
0.27653552187965502
10
0.19533438203467701
20
0.27658242187965476
10
0.19469118203467695
20
0.27663852187965465
10
0.1940774820346769
20
0.27670422187965449
10
0.1934917820346771
20
0.27677992187965461
10
0.19293268203467717
20
0.27686632187965465
10
0.19239868203467736
20
0.27696372187965501
10
0.19188848203467723
20
0.27707272187965482
10
0.19140068203467697
20
0.27719382187965491
10
0.19093368203467687
20
0.27732752187965504
10
0.19048618203467704
20
0.27747422187965498
10
0.19005678203467713
20
0.27763452187965498
10
0.18964398203467736
20
0.27780892187965478
10
0.18924648203467731
20
0.27799792187965466
10
0.18886268203467727
20
0.27820192187965442
10
0.18849128203467735
20
0.27842152187965485
10
0.1881308820346772
20
0.27865712187965463
10
0.18777998203467705
20
0.27890932187965456
10
0.18743718203467707
20
0.27917862187965437
10
0.1871010820346769
20
0.27946542187965495
10
0.18677018203467677
20
0.27977032187965489
10
0.18644318203467736
20
0.28009372187965509
10
0.18611858203467724
20
0.28043622187965467
10
0.18579508203467709
20
0.28079832187965448
10
0.18547108203467721
20
0.28118032187965492
10
0.18514518203467722
20
0.28158292187965506
10
0.18462718203467732
20
0.28225852187965472
10
0.18427798203467682
20
0.28275692187965495
10
0.18403898203467661
20
0.28313862187965499
10
0.18381728203467729
20
0.28353892187965524
10
0.18361108203467702
20
0.28396842187965454
10
0.18341838203467686
20
0.284437921879655
10
0.18323728203467671
20
0.28495792187965496
10
0.183065882034677
20
0.28553932187965481
10
0.18290208203467717
20
0.28619262187965455
10
0.18274408203467707
20
0.28692862187965462
10
0.18258988203467719
20
0.28775792187965443
10
0.18243758203467741
20
0.28869132187965496
10
0.18228518203467714
20
0.28973932187965457
10
0.18213078203467736
20
0.29091272187965478
10
0.18197248203467686
20
0.29222222187965496
10
0.18180828203467669
20
0.29367832187965515
10
0.18163618203467735
20
0.29529192187965458
10
0.18145448203467696
20
0.29707362187965491
10
0.18126098203467722
20
0.299034021879655
10
0.18098138203467729
20
0.30194452187965459
10
0.18075308203467755
20
0.30436362187965471
10
0.18039628203467717
20
0.30830362187965477
10
0.18008178203467728
20
0.3120540218796547
10
0.17981518203467717
20
0.31552732187965504
10
0.1796020820346772
20
0.31863612187965518
10
0.17944808203467721
20
0.32129302187965503
10
0.17935868203467709
20
0.32341072187965503
10
0.1793394820346772
20
0.3249017218796546
10
0.17939608203467738
20
0.32567862187965479
10
0.17955428203467683
20
0.32611512187965486
10
0.17982568203467664
20
0.32663102187965476
10
0.18019528203467694
20
0.32720732187965451
10
0.18064858203467704
20
0.32782492187965473
10
0.18117068203467701
20
0.32846472187965492
10
0.18174678203467687
20
0.32910762187965514
10
0.18236218203467713
20
0.32973462187965485
10
0.18300208203467727
20
0.33032662187965467
10
0.18613908203467699
20
0.33308162187965451
10
0.21045708203467683
20
0.33308162187965451
10
0.21690968203467664
20
0.33306922187965438
10
0.22220448203467691
20
0.33302912187965494
0
LWPOLYLINE
5
106
100
AcDbEntity
8
0
100
AcDbPolyline
90
232
70
1
43
0.0
10
0.50202378203467624
20
0.27997182187965486
10
0.50179808203467624
20
0.28096862187965477
10
0.50128908203467659
20
0.28330662187965483
10
0.49784408203467634
20
0.27986162187965458
10
0.49440008203467667
20
0.27641662187965488
10
0.48576808203467658
20
0.27641662187965488
10
0.48448088203467687
20
0.2764204218796551
10
0.48330808203467635
20
0.27643282187965468
10
0.4822411820346767
20
0.2764551218796546
10
0.4812717820346768
20
0.27648862187965473
10
0.48039138203467668
20
0.27653462187965494
10
0.47959158203467633
20
0.2765945218796545
10
0.47886398203467628
20
0.27666962187965494
10
0.47820008203467657
20
0.27676122187965502
10
0.47759148203467661
20
0.27687072187965456
10
0.47702958203467649
20
0.27699952187965449
10
0.47650618203467665
20
0.27714872187965478
10
0.47601268203467662
20
0.27731982187965465
10
0.47554058203467642
20
0.27751422187965447
10
0.47508168203467649
20
0.27773302187965476
10
0.47462728203467641
20
0.27797772187965475
10
0.47416908203467667
20
0.27824962187965485
10
0.47336648203467668
20
0.27875442187965505
10
0.47286998203467656
20
0.27908022187965509
10
0.47240278203467656
20
0.27940232187965486
10
0.47196368203467676
20
0.27972472187965502
10
0.47155128203467678
20
0.28005172187965499
10
0.47116428203467675
20
0.28038742187965482
10
0.47080148203467675
20
0.28073592187965457
10
0.47046148203467641
20
0.28110132187965486
10
0.47014308203467636
20
0.2814879218796551
10
0.46999148203467678
20
0.28169042187965454
10
0.46984488203467678
20
0.28189972187965429
10
0.46970288203467658
20
0.28211642187965458
10
0.46956558203467669
20
0.28234092187965465
10
0.46943258203467675
20
0.28257382187965474
10
0.46930388203467677
20
0.28281562187965459
10
0.46917928203467629
20
0.28306682187965504
10
0.46905858203467599
20
0.28332802187965522
10
0.46894168203467645
20
0.28359962187965493
10
0.46882828203467675
20
0.28388222187965495
10
0.46871838203467631
20
0.28417632187965502
10
0.46861178203467635
20
0.28448242187965489
10
0.46850818203467648
20
0.28480102187965484
10
0.46840758203467669
20
0.2851326218796546
10
0.46830978203467655
20
0.28547782187965498
10
0.4682145820346767
20
0.28583712187965515
10
0.46812188203467664
20
0.28621102187965486
10
0.46803148203467648
20
0.28660002187965494
10
0.46794318203467633
20
0.28700462187965514
10
0.46785678203467684
20
0.28742542187965459
10
0.46777228203467691
20
0.28786292187965468
10
0.46768938203467614
20
0.28831752187965465
10
0.46760798203467679
20
0.28878982187965474
10
0.46752798203467671
20
0.28928042187965464
10
0.46744898203467666
20
0.28978962187965474
10
0.46729398203467665
20
0.29086652187965467
10
0.46714158203467693
20
0.29202452187965466
10
0.46699068203467642
20
0.29326782187965472
10
0.46683978203467646
20
0.29460062187965486
10
0.46668758203467664
20
0.29602702187965513
10
0.46653298203467641
20
0.29755112187965449
10
0.46637448203467657
20
0.29917702187965467
10
0.46621088203467664
20
0.30090902187965451
10
0.46604088203467675
20
0.30275122187965464
10
0.46586308203467652
20
0.30470762187965461
10
0.46568798203467654
20
0.30665082187965487
10
0.4655250820346768
20
0.30847692187965459
10
0.46537478203467653
20
0.31019032187965478
10
0.46523768203467653
20
0.31179562187965471
10
0.46511418203467658
20
0.31329732187965476
10
0.46500478203467643
20
0.31469982187965484
10
0.46490998203467637
20
0.31600762187965481
10
0.46483018203467619
20
0.31722532187965502
10
0.46476598203467667
20
0.31835722187965487
10
0.46471778203467651
20
0.31940792187965472
10
0.46468608203467654
20
0.32038202187965492
10
0.46467138203467651
20
0.32128372187965493
10
0.4646741820346767
20
0.32211782187965499
10
0.46469488203467635
20
0.3228886218796545
10
0.46473398203467631
20
0.32360062187965444
10
0.46479198203467631
20
0.32425832187965464
10
0.46486938203467665
20
0.32486632187965492
10
0.46496658203467656
20
0.32542902187965517
10
0.46508418203467627
20
0.32595082187965474
10
0.4652225820346767
20
0.32643642187965505
10
0.46538228203467646
20
0.32689012187965494
10
0.46556378203467641
20
0.32731642187965482
10
0.46576748203467633
20
0.32771992187965504
10
0.46599398203467646
20
0.3281051218796549
10
0.46624368203467659
20
0.32847632187965492
10
0.46651708203467646
20
0.32883822187965484
10
0.46681468203467635
20
0.32919522187965455
10
0.46713688203467663
20
0.32955172187965454
10
0.4674842820346764
20
0.32991242187965453
10
0.46785728203467658
20
0.33028162187965504
10
0.46825638203467634
20
0.33066382187965482
10
0.46886238203467656
20
0.33122922187965476
10
0.46921738203467678
20
0.33153262187965493
10
0.4695787820346764
20
0.3318011218796546
10
0.46996338203467658
20
0.33203732187965462
10
0.47027718203467628
20
0.33219472187965504
10
0.47062068203467644
20
0.33233632187965489
10
0.47100088203467672
20
0.33246332187965466
10
0.47142498203467664
20
0.33257662187965442
10
0.47189998203467642
20
0.33267732187965471
10
0.47243308203467671
20
0.33276652187965494
10
0.47303128203467659
20
0.3328452218796546
10
0.47370178203467672
20
0.33291452187965476
10
0.47445168203467669
20
0.3329754218796549
10
0.4752879820346767
20
0.333029021879655
10
0.47621778203467635
20
0.33307642187965503
10
0.47761538203467624
20
0.33313172187965479
10
0.47920888203467626
20
0.33318022187965479
10
0.48101488203467602
20
0.33322442187965484
10
0.48359708203467633
20
0.3332776218796546
10
0.49640508203467659
20
0.33352462187965504
10
0.49669808203467669
20
0.33609862187965522
10
0.49674588203467651
20
0.33667622187965485
10
0.49676858203467678
20
0.33733172187965454
10
0.49676708203467701
20
0.3380426218796545
10
0.49674268203467653
20
0.33878612187965451
10
0.49669638203467648
20
0.3395395218796543
10
0.49662928203467627
20
0.34028022187965468
10
0.49654248203467644
20
0.34098552187965481
10
0.4964370820346764
20
0.34163262187965504
10
0.49633818203467628
20
0.34215252187965506
10
0.49624368203467661
20
0.34260762187965477
10
0.49614528203467678
20
0.34300222187965468
10
0.49603458203467676
20
0.3433407218796547
10
0.49590328203467648
20
0.34362742187965478
10
0.49574318203467638
20
0.34386662187965489
10
0.49554578203467647
20
0.34406252187965503
10
0.4953027820346767
20
0.3442195218796551
10
0.49500598203467638
20
0.34434192187965451
10
0.49464698203467661
20
0.34443402187965433
10
0.4942173820346768
20
0.34450012187965506
10
0.49370898203467628
20
0.34454452187965501
10
0.49311338203467614
20
0.34457162187965518
10
0.49242218203467691
20
0.34458562187965447
10
0.49162718203467626
20
0.34459082187965451
10
0.49072008203467632
20
0.34459162187965464
10
0.4890405820346766
20
0.34459902187965463
10
0.48776388203467635
20
0.34464162187965497
10
0.48682638203467632
20
0.34475022187965498
10
0.48616458203467661
20
0.34495552187965461
10
0.48571508203467673
20
0.34528822187965436
10
0.48541428203467629
20
0.3457792218796546
10
0.48519878203467648
20
0.34645912187965477
10
0.48500508203467629
20
0.34735862187965483
10
0.48476898203467622
20
0.34871552187965504
10
0.48460188203467647
20
0.350051821879655
10
0.48450388203467643
20
0.35132972187965461
10
0.4844745820346763
20
0.35251102187965455
10
0.48451388203467616
20
0.35355782187965479
10
0.48462178203467654
20
0.35443222187965473
10
0.48479788203467655
20
0.355096121879655
10
0.4850420820346768
20
0.35551162187965502
10
0.48554968203467663
20
0.35566732187965466
10
0.48667598203467666
20
0.35579792187965475
10
0.48833218203467643
20
0.35590412187965492
10
0.49042918203467678
20
0.35598632187965495
10
0.49287808203467676
20
0.35604512187965509
10
0.49558988203467658
20
0.35608112187965446
10
0.49847558203467646
20
0.35609492187965497
10
0.50144628203467656
20
0.35608702187965524
10
0.5044130820346765
20
0.35605792187965501
10
0.50728698203467648
20
0.35600822187965453
10
0.50997898203467673
20
0.35593852187965458
10
0.51240008203467635
20
0.35584922187965495
10
0.51446148203467656
20
0.35574112187965468
10
0.51607408203467653
20
0.35561462187965465
10
0.51714888203467646
20
0.3554702218796546
10
0.51759708203467647
20
0.35530862187965473
10
0.51766108203467665
20
0.35506542187965451
10
0.51775088203467656
20
0.35451052187965459
10
0.51789688203467632
20
0.35340332187965451
10
0.51807728203467629
20
0.35186672187965451
10
0.51828888203467649
20
0.34993292187965486
10
0.51852868203467628
20
0.34763402187965475
10
0.51879338203467684
20
0.34500212187965451
10
0.51907968203467658
20
0.34206942187965439
10
0.51938458203467652
20
0.3388681218796552
10
0.51970478203467674
20
0.3354301218796546
10
0.52003708203467669
20
0.33178782187965439
10
0.52030948203467653
20
0.32874842187965492
10
0.52058598203467643
20
0.32561522187965486
10
0.52107298203467656
20
0.32001472187965507
10
0.52134708203467661
20
0.31688562187965452
10
0.52161598203467663
20
0.31384352187965481
10
0.52187798203467639
20
0.31090532187965481
10
0.52213148203467674
20
0.30808812187965495
10
0.52237488203467686
20
0.30540902187965513
10
0.52260668203467642
20
0.30288502187965471
10
0.52282518203467632
20
0.30053312187965475
10
0.52302888203467623
20
0.29837042187965457
10
0.52321608203467651
20
0.2964140218796546
10
0.52338528203467627
20
0.29468082187965483
10
0.52353488203467635
20
0.29318792187965459
10
0.52366328203467649
20
0.29195242187965487
10
0.52376878203467647
20
0.29099132187965504
10
0.52384988203467653
20
0.29032172187965499
10
0.52390508203467634
20
0.28996062187965521
10
0.52397658203467645
20
0.28965472187965469
10
0.52406158203467668
20
0.28938102187965498
10
0.52416588203467673
20
0.28913732187965502
10
0.5242949820346765
20
0.28892152187965481
10
0.52445458203467632
20
0.28873172187965479
10
0.52465038203467651
20
0.28856552187965456
10
0.52488778203467645
20
0.28842102187965457
10
0.52517268203467637
20
0.28829612187965481
10
0.52551058203467615
20
0.28818862187965477
10
0.52590718203467668
20
0.28809642187965501
10
0.52636808203467667
20
0.2880175218796549
10
0.5268988820346765
20
0.28794972187965451
10
0.52750518203467656
20
0.28789092187965437
10
0.52819278203467657
20
0.28783902187965504
10
0.52896718203467641
20
0.28779192187965486
10
0.52983408203467641
20
0.28774762187965486
10
0.53536208203467661
20
0.28748462187965451
10
0.53536208203467661
20
0.27685962187965429
10
0.51918308203467656
20
0.27661862187965458
10
0.51489768203467678
20
0.27656732187965438
10
0.51136908203467668
20
0.27655562187965499
10
0.50853578203467642
20
0.27658702187965456
10
0.50633668203467652
20
0.27666472187965474
10
0.5047104820346765
20
0.27679192187965496
10
0.50359578203467648
20
0.27697202187965508
10
0.50293138203467647
20
0.2772081218796546
10
0.50265608203467649
20
0.27750362187965505
10
0.5024809820346765
20
0.27812572187965512
10
0.50226078203467639
20
0.27898632187965455
0
LWPOLYLINE
5
107
100
AcDbEntity
8
0
100
AcDbPolyline
90
136
70
1
43
0.0
10
0.55212298203467625
20
0.27665312187965474
10
0.55119268203467631
20
0.27671972187965466
10
0.55032688203467628
20
0.27679762187965473
10
0.54952188203467645
20
0.2768875218796546
10
0.54877398203467653
20
0.27699032187965489
10
0.54807918203467643
20
0.27710692187965458
10
0.54743378203467641
20
0.27723802187965441
10
0.54683408203467621
20
0.27738452187965501
10
0.54627628203467671
20
0.27754732187965481
10
0.54575648203467664
20
0.27772722187965504
10
0.54527098203467683
20
0.27792502187965473
10
0.54481598203467652
20
0.27814172187965447
10
0.54438768203467658
20
0.27837802187965499
10
0.54398228203467625
20
0.27863472187965477
10
0.54359598203467641
20
0.27891282187965494
10
0.54322508203467679
20
0.27921312187965452
10
0.54286568203467667
20
0.27953642187965477
10
0.54251408203467688
20
0.27988352187965471
10
0.5421664820346761
20
0.28025532187965496
10
0.54181908203467688
20
0.28065272187965506
10
0.54146808203467678
20
0.2810765218796546
10
0.54110968203467669
20
0.2815275218796548
10
0.54055118203467645
20
0.28225852187965472
10
0.54020208203467646
20
0.28275692187965495
10
0.5399629820346763
20
0.28313862187965499
10
0.53974138203467636
20
0.28353892187965524
10
0.5395352820346766
20
0.28396842187965454
10
0.53934258203467644
20
0.284437921879655
10
0.53916158203467623
20
0.28495792187965496
10
0.53899008203467658
20
0.28553932187965481
10
0.5388263820346767
20
0.28619262187965455
10
0.5386683820346766
20
0.28692862187965462
10
0.53851428203467666
20
0.28775792187965443
10
0.53836198203467689
20
0.28869132187965496
10
0.53820958203467661
20
0.28973932187965512
10
0.53805518203467684
20
0.29091272187965478
10
0.53789688203467689
20
0.29222222187965496
10
0.53773268203467672
20
0.29367832187965459
10
0.53756058203467683
20
0.29529192187965458
10
0.53737878203467648
20
0.29707362187965491
10
0.53718518203467625
20
0.299034021879655
10
0.53690558203467686
20
0.30194452187965459
10
0.53667708203467668
20
0.30436362187965471
10
0.53632028203467685
20
0.30830362187965477
10
0.53600588203467636
20
0.3120540218796547
10
0.53573948203467614
20
0.31552732187965449
10
0.53552658203467662
20
0.31863612187965462
10
0.53537268203467658
20
0.32129302187965503
10
0.53528348203467635
20
0.32341072187965503
10
0.53526438203467641
20
0.32490172187965516
10
0.53532108203467654
20
0.32567862187965479
10
0.5354789820346767
20
0.32611512187965486
10
0.53575018203467661
20
0.32663102187965476
10
0.53611978203467636
20
0.32720732187965451
10
0.53657308203467646
20
0.32782492187965473
10
0.53709518203467643
20
0.32846472187965492
10
0.53767118203467634
20
0.32910762187965514
10
0.53828648203467666
20
0.32973462187965485
10
0.5389260820346764
20
0.33032662187965467
10
0.54206408203467671
20
0.33308162187965451
10
0.5835840820346766
20
0.33308162187965451
10
0.58803588203467649
20
0.32876652187965427
10
0.58871258203467669
20
0.32809842187965454
10
0.58916248203467692
20
0.32762972187965478
10
0.58943698203467676
20
0.32732462187965494
10
0.58969248203467661
20
0.32702052187965513
10
0.58992988203467656
20
0.32671292187965495
10
0.59015028203467657
20
0.32639772187965488
10
0.59035488203467656
20
0.32607052187965502
10
0.59054468203467658
20
0.3257271218796548
10
0.59072078203467659
20
0.32536332187965478
10
0.59088418203467663
20
0.32497462187965453
10
0.59103598203467667
20
0.32455682187965462
10
0.59117728203467668
20
0.32410572187965447
10
0.59130918203467664
20
0.32361702187965469
10
0.59143268203467658
20
0.3230863218796548
10
0.59154898203467643
20
0.32250942187965481
10
0.59165898203467626
20
0.3218821218796547
10
0.59176378203467606
20
0.32120002187965457
10
0.59186458203467684
20
0.32045882187965502
10
0.59196238203467644
20
0.31965432187965492
10
0.59205828203467648
20
0.31878212187965493
10
0.59215328203467643
20
0.31783812187965499
10
0.59224848203467628
20
0.31681792187965463
10
0.592344982034676
20
0.31571722187965445
10
0.59249448203467669
20
0.31390602187965522
10
0.59265288203467659
20
0.31188962187965463
10
0.59301108203467678
20
0.30718362187965476
10
0.59359808203467646
20
0.29943662187965459
10
0.56652108203467666
20
0.29943662187965459
10
0.56311508203467642
20
0.30312562187965464
10
0.55971008203467676
20
0.30681462187965469
10
0.55979708203467649
20
0.30246162187965442
10
0.55980898203467633
20
0.30199292187965465
10
0.55982638203467605
20
0.30148782187965462
10
0.55987648203467688
20
0.30038732187965489
10
0.55994468203467651
20
0.29919782187965482
10
0.56002818203467641
20
0.29795712187965451
10
0.56012438203467629
20
0.29670312187965453
10
0.56023038203467657
20
0.29547372187965493
10
0.56034348203467643
20
0.29430652187965478
10
0.56040188203467622
20
0.29375822187965472
10
0.56046108203467671
20
0.29323962187965458
10
0.56103808203467664
20
0.28836962187965498
10
0.5721050820346768
20
0.28792662187965501
10
0.58317208203467641
20
0.28748462187965507
10
0.58369908203467658
20
0.28261462187965491
10
0.58387558203467638
20
0.28067162187965455
10
0.58396618203467643
20
0.27898062187965478
10
0.58396558203467674
20
0.27772312187965498
10
0.58386808203467644
20
0.27708062187965454
10
0.5837399820346767
20
0.2770130218796546
10
0.5834351820346767
20
0.27694732187965476
10
0.58296308203467651
20
0.27688382187965488
10
0.58233298203467676
20
0.27682292187965474
10
0.58155398203467656
20
0.27676492187965474
10
0.58063548203467652
20
0.27671012187965471
10
0.57958658203467683
20
0.27665892187965446
10
0.578416682034677
20
0.27661172187965488
10
0.57713498203467661
20
0.2765688218796547
10
0.57575078203467633
20
0.27653052187965488
10
0.57427338203467626
20
0.27649712187965469
10
0.5727118820346766
20
0.2764690218796545
10
0.57107568203467629
20
0.27644662187965463
10
0.56937398203467604
20
0.27643022187965438
10
0.56761598203467656
20
0.27642002187965475
10
0.56581108203467678
20
0.27641662187965488
10
0.56402668203467676
20
0.27641772187965485
10
0.56234478203467664
20
0.27642162187965502
10
0.56076158203467674
20
0.27642902187965501
10
0.55927318203467635
20
0.27644092187965486
10
0.55787588203467631
20
0.27645812187965468
10
0.55656588203467638
20
0.27648152187965458
10
0.55533938203467637
20
0.27651182187965473
10
0.55419258203467658
20
0.27654992187965466
10
0.55312168203467627
20
0.27659672187965445
0
LWPOLYLINE
5
108
100
AcDbEntity
8
0
100
AcDbPolyline
90
22
70
1
43
0.0
10
0.48803978203467657
20
0.31158652187965485
10
0.48851578203467638
20
0.30656912187965457
10
0.48902028203467618
20
0.30118082187965467
10
0.4891820820346765
20
0.29943662187965459
10
0.49020708203467656
20
0.28836962187965443
10
0.50083208203467677
20
0.28836962187965498
10
0.50052208203467674
20
0.29456762187965502
10
0.50046338203467655
20
0.29562592187965475
10
0.50038448203467645
20
0.29686482187965491
10
0.50028758203467638
20
0.29825602187965483
10
0.5001750820346762
20
0.29977112187965504
10
0.50004928203467636
20
0.3013818218796549
10
0.4999122820346763
20
0.30305982187965486
10
0.49976658203467639
20
0.30477672187965488
10
0.49961438203467656
20
0.30650412187965492
10
0.49945788203467678
20
0.30821382187965485
10
0.49929958203467684
20
0.30987722187965472
10
0.4991940820346763
20
0.31094662187965472
10
0.49817608203467645
20
0.32112862187965496
10
0.49261308203467635
20
0.32139362187965481
10
0.48705008203467681
20
0.32165762187965463
10
0.48766588203467687
20
0.31545512187965474
0
LWPOLYLINE
5
109
100
AcDbEntity
8
0
100
AcDbPolyline
90
47
70
1
43
0.0
10
0.21562488203467733
20
0.29010632187965457
10
0.21559808203467756
20
0.29083772187965484
10
0.21555778203467713
20
0.29169302187965485
10
0.21550448203467687
20
0.29266382187965456
10
0.21543888203467698
20
0.29374152187965463
10
0.2153612820346773
20
0.29491762187965453
10
0.21527238203467747
20
0.2961836218796543
10
0.21517268203467721
20
0.29753112187965502
10
0.21506268203467738
20
0.29895142187965518
10
0.21494298203467765
20
0.30043622187965469
10
0.21481418203467717
20
0.3019768218796548
10
0.21467668203467738
20
0.30356482187965494
10
0.21453108203467741
20
0.30519162187965521
10
0.21308208203467682
20
0.32112862187965441
10
0.20183608203467707
20
0.32166062187965472
10
0.20234908203467683
20
0.31741062187965463
10
0.20247268203467672
20
0.31631282187965459
10
0.20262698203467711
20
0.31481702187965477
10
0.20280598203467726
20
0.31298982187965452
10
0.20300328203467721
20
0.31089762187965442
10
0.2032129820346773
20
0.30860682187965505
10
0.20342878203467696
20
0.30618392187965471
10
0.20364458203467717
20
0.30369542187965448
10
0.20385408203467736
20
0.301207621879655
10
0.20406148203467755
20
0.29879302187965473
10
0.20427108203467714
20
0.29651432187965454
10
0.20447718203467691
20
0.29442302187965452
10
0.20467398203467713
20
0.29257112187965451
10
0.20485568203467697
20
0.29101022187965453
10
0.20501658203467721
20
0.28979192187965463
10
0.20515098203467697
20
0.28896822187965465
10
0.20525308203467707
20
0.28859062187965467
10
0.20543218203467717
20
0.28845732187965489
10
0.20578728203467733
20
0.28833292187965487
10
0.20629718203467706
20
0.28822012187965484
10
0.20694068203467697
20
0.28812172187965501
10
0.20769658203467711
20
0.28804052187965501
10
0.20854358203467704
20
0.28797902187965463
10
0.20946048203467682
20
0.28794022187965451
10
0.21042608203467705
20
0.28792662187965501
10
0.21230758203467703
20
0.28797902187965518
10
0.21390758203467697
20
0.28812172187965501
10
0.2150568820346771
20
0.28833292187965487
10
0.21558608203467722
20
0.28859062187965467
10
0.21561878203467721
20
0.28874112187965484
10
0.21563578203467715
20
0.2890495218796546
10
0.21563758203467731
20
0.2895074218796545
0
LWPOLYLINE
5
110
100
AcDbEntity
8
0
100
AcDbPolyline
90
47
70
1
43
0.0
10
0.34573708203467668
20
0.28859062187965467
10
0.34576978203467668
20
0.28874112187965484
10
0.34578678203467661
20
0.2890495218796546
10
0.34578868203467672
20
0.2895074218796545
10
0.34577598203467674
20
0.29010632187965457
10
0.34574928203467692
20
0.29083772187965484
10
0.34570908203467643
20
0.29169302187965485
10
0.34565588203467668
20
0.29266382187965456
10
0.34559028203467679
20
0.29374152187965463
10
0.34551288203467645
20
0.29491762187965453
10
0.34542408203467656
20
0.29618362187965486
10
0.3453243820346763
20
0.29753112187965502
10
0.34521448203467642
20
0.29895142187965462
10
0.34509488203467664
20
0.30043622187965469
10
0.34496608203467671
20
0.3019768218796548
10
0.34482868203467687
20
0.30356482187965494
10
0.34468308203467635
20
0.30519162187965465
10
0.34323308203467628
20
0.32112862187965441
10
0.33198808203467656
20
0.32166062187965472
10
0.33250108203467632
20
0.31741062187965463
10
0.33262428203467642
20
0.31631282187965459
10
0.33277838203467636
20
0.31481702187965477
10
0.33295718203467661
20
0.31298982187965452
10
0.33315448203467657
20
0.31089762187965442
10
0.33336408203467671
20
0.30860682187965505
10
0.33357978203467697
20
0.30618392187965526
10
0.33379558203467663
20
0.30369542187965504
10
0.33400508203467627
20
0.301207621879655
10
0.3342127820346763
20
0.29879302187965473
10
0.33442248203467639
20
0.29651432187965454
10
0.33462858203467671
20
0.29442302187965452
10
0.33482528203467643
20
0.29257112187965451
10
0.33500698203467627
20
0.29101022187965453
10
0.33516778203467656
20
0.28979192187965463
10
0.33530208203467637
20
0.28896822187965465
10
0.33540408203467653
20
0.28859062187965467
10
0.33558348203467647
20
0.28845732187965489
10
0.33593868203467658
20
0.28833292187965487
10
0.33644868203467682
20
0.28822012187965484
10
0.33709208203467678
20
0.28812172187965501
10
0.33784788203467642
20
0.28804052187965501
10
0.33869468203467645
20
0.28797902187965518
10
0.33961148203467628
20
0.28794022187965451
10
0.34057708203467651
20
0.28792662187965501
10
0.3424585820346765
20
0.28797902187965518
10
0.34405858203467643
20
0.28812172187965501
10
0.34520788203467656
20
0.28833292187965487
0
LWPOLYLINE
5
111
100
AcDbEntity
8
0
100
AcDbPolyline
90
292
70
1
43
0.0
10
1.0632154820346762
20
0.062274721879654882
10
1.0623450820346765
20
0.062962521879654787
10
1.0612457820346766
20
0.06388792187965453
10
1.0599193820346764
20
0.065048921879654609
10
1.0583679820346763
20
0.06644372187965486
10
1.0565933820346762
20
0.068070521879655121
10
1.0545976820346765
20
0.069927421879654728
10
1.0523825820346766
20
0.072012621879654626
10
1.0499500820346763
20
0.074324221879654706
10
1.0473022820346762
20
0.076860421879654806
10
1.0444408820346762
20
0.079619321879654814
10
1.0413678820346761
20
0.082599221879655071
10
1.0380852820346764
20
0.085798121879654965
10
1.0345948820346762
20
0.08921412187965494
10
1.0308987820346767
20
0.092845621879654727
10
1.0269987820346764
20
0.096690521879654878
10
1.0228967820346764
20
0.10074712187965462
10
1.0185947820346763
20
0.10501362187965491
10
1.0140947820346762
20
0.10948802187965456
10
1.0093985820346763
20
0.11416852187965454
10
1.0081940820346764
20
0.11537062187965463
10
1.0007540820346765
20
0.12280532187965487
10
0.99398178203467691
20
0.12958932187965511
10
0.9878498820346765
20
0.13575122187965472
10
0.98233108203467645
20
0.14131982187965464
10
0.97739808203467671
20
0.14632372187965481
10
0.9730234820346767
20
0.15079152187965461
10
0.96917998203467637
20
0.15475212187965492
10
0.9658402820346762
20
0.15823402187965518
10
0.96297718203467608
20
0.16126592187965472
10
0.96056328203467656
20
0.16387662187965446
10
0.95857118203467651
20
0.16609462187965496
10
0.95697368203467637
20
0.16794872187965493
10
0.95574338203467668
20
0.16946762187965481
10
0.95485308203467678
20
0.17067992187965453
10
0.9542754820346766
20
0.17161442187965448
10
0.95398308203467619
20
0.17229962187965464
10
0.95382518203467603
20
0.17297512187965436
10
0.95367948203467667
20
0.17381612187965467
10
0.9535458820346765
20
0.17481122187965492
10
0.95342438203467661
20
0.175949021879655
10
0.95331468203467662
20
0.17721802187965485
10
0.95321678203467652
20
0.17860672187965498
10
0.95313058203467638
20
0.18010392187965463
10
0.95305598203467623
20
0.18169802187965489
10
0.95299278203467619
20
0.18337762187965456
10
0.95294088203467631
20
0.18513132187965464
10
0.95290018203467608
20
0.18694762187965452
10
0.95287068203467662
20
0.1888152218796546
10
0.95285218203467636
20
0.19072252187965433
10
0.95284448203467653
20
0.19265832187965515
10
0.95284768203467651
20
0.1946109218796549
10
0.95286148203467647
20
0.19656912187965447
10
0.95288578203467644
20
0.19852142187965438
10
0.95292058203467644
20
0.20045632187965512
10
0.95296578203467652
20
0.20236242187965492
10
0.95302108203467628
20
0.20422842187965473
10
0.95308658203467622
20
0.20604272187965456
10
0.95316208203467645
20
0.20779392187965484
10
0.95324738203467652
20
0.20947062187965493
10
0.95334258203467637
20
0.21106152187965466
10
0.95344728203467621
20
0.21255502187965458
10
0.95356168203467651
20
0.2139397218796546
10
0.95368548203467629
20
0.2152042218796546
10
0.95381858203467673
20
0.21633702187965453
10
0.95396088203467677
20
0.2173268218796548
10
0.95411238203467641
20
0.21816222187965473
10
0.95427278203467636
20
0.21883162187965488
10
0.95444208203467662
20
0.2193236218796546
10
0.95464808203467644
20
0.21968422187965464
10
0.95502078203467622
20
0.22020772187965443
10
0.95555348203467672
20
0.22088712187965487
10
0.95623938203467651
20
0.22171502187965486
10
0.9570718820346763
20
0.22268452187965471
10
0.95804408203467639
20
0.22378832187965492
10
0.95914938203467637
20
0.22501932187965479
10
0.96038098203467648
20
0.22637042187965473
10
0.96173218203467636
20
0.22783442187965464
10
0.96319618203467627
20
0.22940412187965442
10
0.96476638203467635
20
0.23107252187965499
10
0.96643588203467634
20
0.23283232187965519
10
0.96819798203467644
20
0.23467652187965482
10
0.97004608203467624
20
0.23659782187965495
10
0.97197328203467659
20
0.23858922187965481
10
0.97397288203467658
20
0.24064352187965488
10
0.97603828203467635
20
0.24275352187965504
10
0.97816258203467621
20
0.24491212187965461
10
0.98033918203467629
20
0.24711212187965459
10
0.98256118203467635
20
0.24934652187965478
10
0.98482198203467652
20
0.25160802187965459
10
0.98558308203467671
20
0.25236662187965497
10
1.0151660820346771
20
0.28183062187965513
10
1.0151660820346764
20
0.29607362187965447
10
1.0151811820346763
20
0.29883872187965455
10
1.0152285820346763
20
0.30136262187965446
10
1.0153115820346765
20
0.30365712187965466
10
1.0154331820346763
20
0.30573412187965499
10
1.0155965820346764
20
0.30760532187965484
10
1.0158050820346765
20
0.30928252187965466
10
1.0160616820346764
20
0.31077742187965496
10
1.0163696820346764
20
0.31210202187965497
10
1.0167322820346762
20
0.31326792187965469
10
1.0171524820346767
20
0.31428692187965457
10
1.0176335820346765
20
0.3151710218796544
10
1.0181786820346765
20
0.31593172187965479
10
1.0187910820346762
20
0.31658092187965448
10
1.0194737820346766
20
0.31713052187965496
10
1.0202300820346766
20
0.31759212187965513
10
1.0210630820346767
20
0.31797762187965484
10
1.0217229820346767
20
0.31823002187965466
10
1.0223600820346763
20
0.31844552187965447
10
1.0229774820346766
20
0.31862402187965488
10
1.0235778820346764
20
0.31876532187965489
10
1.0241642820346764
20
0.3188694218796545
10
1.024739482034676
20
0.31893602187965442
10
1.0253064820346769
20
0.3189651218796552
10
1.0258680820346766
20
0.31895652187965473
10
1.0264271820346766
20
0.31891002187965478
10
1.0269866820346762
20
0.3188256218796548
10
1.0275494820346764
20
0.31870302187965494
10
1.0281184820346767
20
0.3185422218796552
10
1.0286965820346765
20
0.31834302187965458
10
1.0292865820346764
20
0.31810532187965479
10
1.0298914820346767
20
0.31782882187965489
10
1.0305140820346765
20
0.31751362187965482
10
1.0312279820346766
20
0.31702232187965473
10
1.0323594820346766
20
0.31609252187965453
10
1.0338798820346766
20
0.31475332187965444
10
1.0357605820346767
20
0.31303402187965512
10
1.0379727820346762
20
0.3109635218796547
10
1.0404877820346763
20
0.30857102187965446
10
1.0432768820346765
20
0.30588562187965462
10
1.0463113820346766
20
0.30293642187965486
10
1.0495624820346765
20
0.29975262187965479
10
1.0530015820346765
20
0.29636322187965469
10
1.0565998820346767
20
0.29279742187965474
10
1.0603287820346767
20
0.28908422187965466
10
1.0641593820346762
20
0.28525282187965462
10
1.0680631820346764
20
0.28133232187965485
10
1.0720112820346768
20
0.27735182187965501
10
1.0759750820346765
20
0.27334042187965479
10
1.0799258820346762
20
0.26932722187965497
10
1.0838348820346766
20
0.2653413218796552
10
1.0876733820346769
20
0.26141192187965456
10
1.0914126820346763
20
0.25756812187965494
10
1.0950241820346762
20
0.2538390218796549
10
1.0984789820346763
20
0.25025362187965472
10
1.1017485820346762
20
0.24684112187965457
10
1.1048039820346762
20
0.24363062187965467
10
1.1076167820346767
20
0.24065132187965466
10
1.1101580820346768
20
0.23793222187965479
10
1.1123991820346761
20
0.23550242187965476
10
1.1143113820346762
20
0.23339112187965472
10
1.1158659820346766
20
0.23162732187965496
10
1.1170342820346764
20
0.23024032187965449
10
1.1177875820346768
20
0.22925902187965475
10
1.1180970820346765
20
0.2287126218796548
10
1.1181714820346766
20
0.22836002187965498
10
1.1182390820346766
20
0.22794242187965497
10
1.1182996820346769
20
0.22746532187965518
10
1.1183531820346766
20
0.22693392187965455
10
1.1183992820346766
20
0.22635362187965469
10
1.1184379820346768
20
0.22572982187965496
10
1.1184691820346764
20
0.22506792187965474
10
1.1184925820346763
20
0.22437312187965464
10
1.1185080820346767
20
0.22365092187965452
10
1.1185156820346764
20
0.22290652187965498
10
1.1185149820346763
20
0.2221454218796548
10
1.1185059820346765
20
0.22137282187965457
10
1.1184885820346762
20
0.22059422187965472
10
1.1184625820346761
20
0.21981492187965468
10
1.1184277820346766
20
0.21904032187965494
10
1.1183840820346762
20
0.21827562187965499
10
1.1183068820346764
20
0.21714432187965482
10
1.1182246820346764
20
0.21612062187965464
10
1.1181345820346766
20
0.21519602187965448
10
1.1180333820346766
20
0.21436192187965497
10
1.1179181820346762
20
0.21360972187965455
10
1.1177859820346763
20
0.2129309218796549
10
1.1176335820346761
20
0.21231692187965501
10
1.1174580820346769
20
0.21175922187965435
10
1.1172564820346764
20
0.21124922187965467
10
1.1170255820346764
20
0.2107783218796544
10
1.1167625820346765
20
0.21033792187965472
10
1.1164642820346766
20
0.20991952187965457
10
1.1161276820346766
20
0.20951462187965453
10
1.1157498820346767
20
0.20911452187965474
10
1.1153276820346769
20
0.20871072187965467
10
1.1147237820346763
20
0.20817962187965444
10
1.1142074820346766
20
0.20775322187965461
10
1.1138323820346763
20
0.20746692187965488
10
1.1134572820346766
20
0.20720802187965459
10
1.1130725820346765
20
0.20697502187965455
10
1.1126688820346764
20
0.20676662187965433
10
1.1122367820346764
20
0.20658152187965462
10
1.1117665820346767
20
0.20641822187965453
10
1.1112490820346765
20
0.2062753218796548
10
1.1108730820346768
20
0.20619082187965487
10
1.1104689820346763
20
0.20611442187965512
10
1.1100339820346767
20
0.20604572187965464
10
1.1095652820346769
20
0.20598432187965476
10
1.1090600820346763
20
0.20592982187965458
10
1.1085155820346766
20
0.20588172187965492
10
1.1076189820346767
20
0.20582102187965468
10
1.1066181820346765
20
0.20577252187965467
10
1.1055036820346764
20
0.20573502187965442
10
1.1042660820346761
20
0.20570712187965523
10
1.1028958820346761
20
0.2056874218796545
10
1.1013835820346762
20
0.20567462187965457
10
1.0991297820346762
20
0.20566582187965476
10
1.0965840820346762
20
0.20566362187965481
10
1.0813690820346766
20
0.20566362187965481
10
1.0969090820346765
20
0.19009362187965451
10
1.1124500820346768
20
0.17452362187965476
10
1.1265720820346763
20
0.17452362187965476
10
1.1294659820346764
20
0.17450192187965452
10
1.1322762820346766
20
0.17443962187965456
10
1.1349334820346764
20
0.17434122187965473
10
1.1373681820346766
20
0.17421102187965498
10
1.1395110820346765
20
0.17405332187965472
10
1.1412925820346764
20
0.17387262187965491
10
1.1426433820346764
20
0.1736733218796549
10
1.1434940820346768
20
0.17345962187965469
10
1.1441702820346766
20
0.17314932187965482
10
1.1448262820346766
20
0.17274532187965486
10
1.1454572820346764
20
0.17225712187965481
10
1.1460583820346764
20
0.17169372187965493
10
1.1466247820346764
20
0.17106452187965471
10
1.1471518820346764
20
0.17037882187965481
10
1.1476346820346768
20
0.16964582187965482
10
1.1480684820346765
20
0.16887472187965491
10
1.1484483820346765
20
0.16807492187965511
10
1.1487697820346765
20
0.16725562187965448
10
1.1490276820346768
20
0.16642602187965427
10
1.1492173820346769
20
0.16559542187965459
10
1.1493340820346765
20
0.16477312187965443
10
1.1493729820346765
20
0.16396842187965499
10
1.1493291820346763
20
0.16319052187965477
10
1.1491980820346765
20
0.16244862187965448
10
1.1490857820346767
20
0.16217522187965461
10
1.1488560820346767
20
0.1617894218796545
10
1.1485103820346765
20
0.16129272187965449
10
1.1480501820346767
20
0.16068672187965483
10
1.1474768820346766
20
0.15997302187965468
10
1.1467920820346766
20
0.15915302187965441
10
1.1459970820346765
20
0.15822852187965475
10
1.1450934820346763
20
0.15720082187965445
10
1.1440825820346767
20
0.15607152187965434
10
1.1429659820346765
20
0.15484232187965463
10
1.1417449820346763
20
0.15351462187965459
10
1.1404212820346764
20
0.15209012187965443
10
1.1389961820346768
20
0.15057022187965452
10
1.1374710820346767
20
0.14895652187965458
10
1.1358475820346765
20
0.14725062187965487
10
1.1341270820346767
20
0.14545402187965462
10
1.1323109820346766
20
0.14356832187965463
10
1.1304008820346767
20
0.14159512187965462
10
1.1283981820346767
20
0.13953582187965496
10
1.1263042820346769
20
0.13739202187965482
10
1.1241206820346767
20
0.13516532187965502
10
1.1218487820346768
20
0.13285732187965471
10
1.119490182034677
20
0.13046942187965482
10
1.1170461820346766
20
0.12800332187965446
10
1.1145183820346767
20
0.12546052187965451
10
1.1129620820346764
20
0.1238986218796545
10
1.0774470820346767
20
0.088287621879654665
10
1.0774470820346767
20
0.07985662187965481
10
1.0774227820346765
20
0.078093421879654734
10
1.0773530820346766
20
0.076313921879654911
10
1.0772429820346767
20
0.074566621879654793
10
1.0770972820346763
20
0.072900121879654889
10
1.0769209820346766
20
0.071363021879654598
10
1.0767188820346763
20
0.070003921879654429
10
1.0764959820346764
20
0.068871221879654998
10
1.0762570820346762
20
0.06801362187965454
10
1.0759307820346764
20
0.067242021879654335
10
1.0755039820346761
20
0.066496321879654929
10
1.0749859820346763
20
0.065781521879654803
10
1.0743864820346767
20
0.065102621879654654
10
1.0737147820346764
20
0.064464921879655024
10
1.0729805820346767
20
0.063873321879654998
10
1.0721932820346765
20
0.063332921879654669
10
1.0713622820346762
20
0.062848821879654682
10
1.0704972820346765
20
0.06242622187965452
10
1.0696076820346767
20
0.062069921879654433
10
1.0687028820346767
20
0.061785321879654909
10
1.0677925820346768
20
0.061577221879655086
10
1.0668860820346766
20
0.061450821879654449
10
1.0659930820346764
20
0.061411221879654754
10
1.0651228820346765
20
0.061463421879654478
10
1.0642617820346767
20
0.061618921879654232
10
1.0638549820346765
20
0.061826221879654475
0
LWPOLYLINE
5
112
100
AcDbEntity
8
0
100
AcDbPolyline
90
114
70
1
43
0.0
10
1.0608233820346764
20
0.10083482187965453
10
1.0632897820346765
20
0.10323422187965448
10
1.0661956820346763
20
0.10608202187965432
10
1.0694904820346762
20
0.10932852187965469
10
1.0728092820346764
20
0.11261252187965476
10
1.0763735820346765
20
0.11615182187965478
10
1.0801444820346762
20
0.11990832187965483
10
1.0840829820346765
20
0.12384362187965459
10
1.0855490820346763
20
0.12531162187965461
10
1.1141350820346763
20
0.15394862187965486
10
1.1029640820346764
20
0.15512862187965493
10
1.0751610820346764
20
0.18293162187965506
10
1.0722998820346763
20
0.18579412187965494
10
1.069615182034676
20
0.18848452187965492
10
1.0671024820346764
20
0.19100942187965486
10
1.0647575820346766
20
0.19337562187965507
10
1.0625759820346765
20
0.19558982187965479
10
1.0605532820346764
20
0.19765862187965499
10
1.0586852820346766
20
0.19958902187965477
10
1.0569673820346766
20
0.20138742187965464
10
1.0553953820346762
20
0.20306072187965485
10
1.0539648820346765
20
0.2046157218796546
10
1.0526713820346767
20
0.20605892187965491
10
1.0515106820346765
20
0.20739722187965492
10
1.0504782820346765
20
0.2086372218796545
10
1.0495697820346765
20
0.2097857218796545
10
1.0487809820346765
20
0.21084952187965467
10
1.0481072820346764
20
0.21183512187965492
10
1.0475445820346763
20
0.21274942187965495
10
1.0470881820346767
20
0.21359902187965463
10
1.0467339820346766
20
0.21439082187965475
10
1.0464774820346767
20
0.21513132187965467
10
1.0463142820346767
20
0.21582742187965465
10
1.0462400820346762
20
0.21648572187965454
10
1.0462504820346763
20
0.21711302187965464
10
1.0463410820346764
20
0.21771602187965478
10
1.0465075820346765
20
0.21830152187965468
10
1.0467454820346767
20
0.21887602187965483
10
1.0470505820346765
20
0.21944642187965491
10
1.0474182820346767
20
0.22001942187965473
10
1.0478443820346768
20
0.22060172187965466
10
1.0483244820346767
20
0.22120002187965448
10
1.0488541820346764
20
0.22182112187965453
10
1.0494290820346763
20
0.22247162187965464
10
1.0527930820346765
20
0.22623862187965471
10
1.0723490820346764
20
0.2266086218796548
10
1.0762774820346765
20
0.22669812187965488
10
1.0799423820346765
20
0.22681132187965469
10
1.0832634820346765
20
0.22694362187965444
10
1.0861605820346765
20
0.227090221879655
10
1.0885534820346765
20
0.22724672187965478
10
1.0903619820346766
20
0.22740832187965465
10
1.0915059820346769
20
0.22757052187965476
10
1.0919050820346765
20
0.22772862187965481
10
1.0916827820346764
20
0.22804602187965484
10
1.0910342820346763
20
0.22878592187965507
10
1.0899871820346763
20
0.22991992187965493
10
1.0885690820346765
20
0.23141972187965487
10
1.0866134820346769
20
0.23345822187965493
10
1.0842789820346765
20
0.23586732187965476
10
1.0816023820346765
20
0.23860952187965467
10
1.0786201820346764
20
0.24164702187965459
10
1.075674982034676
20
0.24463292187965446
10
1.0725351820346762
20
0.24780342187965487
10
1.0692284820346765
20
0.25113032187965512
10
1.0657823820346763
20
0.2545852218796546
10
1.0643710820346763
20
0.25599662187965444
10
1.0588230820346762
20
0.26152442187965474
10
1.0536147820346764
20
0.26668142187965482
10
1.0488623820346765
20
0.27135462187965476
10
1.0446822820346764
20
0.27543122187965452
10
1.0411907820346766
20
0.27879842187965465
10
1.0385042820346768
20
0.28134332187965461
10
1.0367388820346761
20
0.28295302187965443
10
4.4690179999999993
20
3.2944469999999999
10
1.0359269820346761
20
0.28348742187965459
10
1.0358452820346764
20
0.28340772187965491
10
1.0357662820346762
20
0.28327812187965484
10
1.0356904820346764
20
0.28310132187965464
10
1.0356182820346764
20
0.28288002187965455
10
1.0355501820346764
20
0.28261702187965476
10
1.0354865820346766
20
0.28231472187965456
10
1.0354278820346763
20
0.2819761218796546
10
1.0353743820346761
20
0.28160372187965466
10
1.0353266820346763
20
0.28120022187965499
10
1.0352851820346765
20
0.28076842187965523
10
1.0352502820346765
20
0.28031092187965456
10
1.0352223820346769
20
0.27983042187965435
10
1.0352019820346765
20
0.27932952187965487
10
1.0351893820346763
20
0.27881102187965467
10
1.0351850820346764
20
0.27827762187965455
10
1.0351850820346764
20
0.27304062187965439
10
0.97401708203467663
20
0.21172862187965491
10
0.97401708203467663
20
0.17848562187965489
10
1.0148830820346766
20
0.13757962187965489
10
1.0190492820346764
20
0.13341252187965447
10
1.0231047820346761
20
0.12936222187965474
10
1.0270284820346764
20
0.12544992187965454
10
1.0307988820346763
20
0.12169632187965462
10
1.0343948820346767
20
0.11812252187965444
10
1.0377951820346765
20
0.1147494218796552
10
1.0409784820346761
20
0.11159812187965468
10
1.0439235820346764
20
0.10868952187965464
10
1.0466091820346763
20
0.10604452187965463
10
1.0490139820346762
20
0.10368422187965465
10
1.0511167820346767
20
0.10162942187965485
10
1.0528962820346766
20
0.099901221879654667
10
1.0543311820346761
20
0.098520621879654713
10
1.0554003820346765
20
0.097508521879654531
10
1.0560823820346765
20
0.096885821879654777
10
1.0563560820346762
20
0.096673621879654892
10
1.0567190820346761
20
0.096952821879655038
10
1.0576106820346765
20
0.097764821879654518
10
1.0589916820346768
20
0.099071521879654512
0
LWPOLYLINE
5
113
100
AcDbEntity
8
0
100
AcDbPolyline
90
31
70
1
43
0.0
10
0.55804238203467638
20
0.32017102187965496
10
0.55801378203467644
20
0.3199206218796552
10
0.55800078203467662
20
0.31964272187965437
10
0.55800228203467639
20
0.31933582187965492
10
0.55801738203467677
20
0.31899862187965478
10
0.55804498203467667
20
0.31862992187965455
10
0.55808408203467663
20
0.31822822187965449
10
0.55813358203467667
20
0.31779242187965462
10
0.55825988203467625
20
0.31681302187965499
10
0.55850208203467644
20
0.31505462187965516
10
0.55906508203467653
20
0.31094662187965472
10
0.56953708203467679
20
0.31094662187965472
10
0.56927208203467694
20
0.31603762187965456
10
0.56900608203467651
20
0.32112862187965496
10
0.56347308203467672
20
0.32139262187965478
10
0.56191118203467671
20
0.32146842187965485
10
0.56104218203467671
20
0.32150082187965501
10
0.56065618203467671
20
0.32150782187965521
10
0.56030128203467644
20
0.32150672187965468
10
0.55997638203467648
20
0.32149642187965455
10
0.5596804820346768
20
0.3214754218796545
10
0.55941238203467691
20
0.32144262187965456
10
0.55917128203467614
20
0.3213965218796544
10
0.55895608203467673
20
0.32133592187965465
10
0.55876568203467647
20
0.3212595218796549
10
0.55859908203467645
20
0.32116592187965476
10
0.5584553820346766
20
0.32105392187965487
10
0.55833328203467647
20
0.32092212187965485
10
0.55823208203467645
20
0.32076922187965484
10
0.55815048203467665
20
0.32059392187965496
10
0.55808758203467645
20
0.32039502187965474
0
ENDSEC
0
SECTION
2
OBJECTS
0
DICTIONARY
5
C
100
AcDbDictionary
3
ACAD_GROUP
350
D
3
ACAD_MLINESTYLE
350
17
0
DICTIONARY
5
D
100
AcDbDictionary
0
DICTIONARY
5
1A
330
C
100
AcDbDictionary
0
DICTIONARY
5
17
100
AcDbDictionary
0
ENDSEC
0
EOF
