#define 1580341212647_width 22
#define 1580341212647_height 22
static char 1580341212647_bits[] = {
  0xFF, 0xFF, 0x3F, 0xFF, 0xFF, 0x3F, 0xFF, 0xFF, 0x37, 0xFF, 0xFF, 0x3A, 
  0xFF, 0xFF, 0x39, 0xFF, 0xBF, 0x3C, 0xFF, 0x7F, 0x3E, 0xFF, 0x2F, 0x3F, 
  0xFF, 0x9F, 0x3F, 0xFF, 0xCB, 0x3F, 0xFF, 0xE7, 0x3F, 0xCF, 0xF2, 0x3F, 
  0xDF, 0xF9, 0x3F, 0xBF, 0xFC, 0x3F, 0x3F, 0xFF, 0x3F, 0x7F, 0xFE, 0x3F, 
  0xDF, 0xF9, 0x3F, 0xCF, 0xFB, 0x3F, 0xE7, 0xFF, 0x3F, 0xF3, 0xFF, 0x3F, 
  0xFF, 0xFF, 0x3F, 0xFF, 0xFF, 0x3F, };
