#define 1617929519824_width 22
#define 1617929519824_height 22
static char 1617929519824_bits[] = {
  0xFF, 0xFF, 0x3F, 0xFF, 0xF3, 0x3F, 0xFF, 0xF3, 0x3F, 0xFF, 0xF3, 0x3F, 
  0xFF, 0xF3, 0x3F, 0xFF, 0x13, 0x3F, 0x7F, 0x13, 0x3F, 0x3F, 0x92, 0x3F, 
  0x3F, 0xB2, 0x3F, 0x7F, 0x93, 0x3F, 0x7F, 0xD3, 0x3F, 0x7F, 0xE3, 0x3F, 
  0x7F, 0xF2, 0x3F, 0xFF, 0xF0, 0x3F, 0xFF, 0xF1, 0x3F, 0xFF, 0xF3, 0x3F, 
  0xFF, 0xF3, 0x3F, 0xFF, 0xF3, 0x3F, 0xFF, 0xE1, 0x3F, 0xFF, 0xE1, 0x3F, 
  0xFF, 0xE1, 0x3F, 0xFF, 0xF3, 0x3F, };
