#define 1589480361777_width 16
#define 1589480361777_height 16
static char 1589480361777_bits[] = {
  0xFF, 0xFF, 0x3F, 0xFC, 0x9F, 0xF9, 0xDF, 0xFB, 0xDF, 0xFB, 0x1F, 0xF8, 
  0x1F, 0xF8, 0x1F, 0xF8, 0x1F, 0xF8, 0x1F, 0xF8, 0x1F, 0xF8, 0x1F, 0xF8, 
  0x1F, 0xF8, 0x1F, 0xF8, 0x1F, 0xF8, 0xFF, 0xFF, };
