#define 1580341218876_width 22
#define 1580341218876_height 22
static char 1580341218876_bits[] = {
  0xBF, 0xDD, 0x3E, 0xDF, 0xBE, 0x3D, 0x5F, 0x6B, 0x3D, 0x5F, 0x5D, 0x3D, 
  0x5F, 0x55, 0x3D, 0xFF, 0xF7, 0x3F, 0xFF, 0xF7, 0x3F, 0xFF, 0xEB, 0x3F, 
  0xFF, 0xEB, 0x3F, 0xFF, 0xEB, 0x3F, 0xFF, 0xDD, 0x3F, 0xFF, 0xD5, 0x3F, 
  0xFF, 0xC9, 0x3F, 0xFF, 0xDD, 0x3F, 0xFF, 0xC9, 0x3F, 0xFF, 0xB6, 0x3F, 
  0xFF, 0xAA, 0x3F, 0xFF, 0x9C, 0x3F, 0xFF, 0xAA, 0x3F, 0x7F, 0x77, 0x3F, 
  0x7F, 0x49, 0x3F, 0x7F, 0x3E, 0x3F, };
