#define 1598678411119_width 22
#define 1598678411119_height 22
static char 1598678411119_bits[] = {
  0xFF, 0xFF, 0x3F, 0xFF, 0xFF, 0x3F, 0xFF, 0xF3, 0x3F, 0xFF, 0xE1, 0x3F, 
  0xFF, 0xDE, 0x3F, 0x1F, 0x12, 0x3E, 0xEF, 0xF3, 0x3D, 0xE7, 0xF3, 0x39, 
  0x37, 0x1E, 0x3B, 0x37, 0x1E, 0x3B, 0xEF, 0xF3, 0x3D, 0xEF, 0xF3, 0x3D, 
  0x37, 0x1E, 0x3B, 0x37, 0x1E, 0x3B, 0xE7, 0xF3, 0x39, 0xEF, 0xF3, 0x3D, 
  0x1F, 0x12, 0x3E, 0xFF, 0xDE, 0x3F, 0xFF, 0xE1, 0x3F, 0xFF, 0xF3, 0x3F, 
  0xFF, 0xFF, 0x3F, 0xFF, 0xFF, 0x3F, };
