#define 1580349899210_width 22
#define 1580349899210_height 22
static char 1580349899210_bits[] = {
  0x2F, 0xE2, 0x25, 0x92, 0x3F, 0x37, 0xFD, 0x7E, 0x3B, 0x97, 0xE6, 0x04, 
  0x7B, 0xFF, 0x3D, 0xCB, 0x55, 0x23, 0x3C, 0xFF, 0x3F, 0xF1, 0xBF, 0x29, 
  0xDF, 0xFF, 0x13, 0xF4, 0xF3, 0x0E, 0xD9, 0xED, 0x1B, 0xF4, 0xED, 0x3F, 
  0xF5, 0xF3, 0x12, 0xDB, 0xFF, 0x2A, 0x66, 0xBF, 0x39, 0x99, 0xFF, 0x13, 
  0x61, 0x5A, 0x1D, 0x0D, 0x77, 0x19, 0xD2, 0xBA, 0x23, 0xAF, 0x45, 0x35, 
  0x6F, 0x99, 0x36, 0x2C, 0xD6, 0x2A, };
