#define 1580341228017_width 22
#define 1580341228017_height 22
static char 1580341228017_bits[] = {
  0xFF, 0xFF, 0x3F, 0xFF, 0xFF, 0x3F, 0xFF, 0xFF, 0x3F, 0xCF, 0xFB, 0x3F, 
  0xF7, 0xF9, 0x3F, 0xDB, 0xFA, 0x3F, 0x6B, 0xFB, 0x3F, 0xAB, 0xDB, 0x3F, 
  0x6B, 0xEB, 0x3F, 0xDB, 0xF2, 0x3F, 0xF7, 0x79, 0x3E, 0xCF, 0xF3, 0x3D, 
  0xFF, 0x69, 0x3B, 0xFF, 0xDA, 0x3A, 0x7F, 0xBB, 0x3A, 0xFF, 0xDB, 0x3A, 
  0xFF, 0x6B, 0x3B, 0xFF, 0xF3, 0x3D, 0xFF, 0x7B, 0x3E, 0xFF, 0xFF, 0x3F, 
  0xFF, 0xFF, 0x3F, 0xFF, 0xFF, 0x3F, };
