#define 1580341223124_width 22
#define 1580341223124_height 22
static char 1580341223124_bits[] = {
  0xFF, 0xFF, 0x3F, 0xFF, 0xFF, 0x3F, 0xFF, 0xFF, 0x3F, 0xFF, 0xFB, 0x3F, 
  0xFF, 0xF3, 0x3F, 0xFF, 0xEB, 0x3F, 0xFF, 0xDB, 0x3F, 0x7F, 0xBB, 0x3F, 
  0xFF, 0xDA, 0x3F, 0xFF, 0xE9, 0x3F, 0xFF, 0xF3, 0x3F, 0xFF, 0xF3, 0x3F, 
  0xFF, 0xE9, 0x3F, 0xFF, 0xDA, 0x3F, 0x7F, 0xBB, 0x3F, 0xFF, 0xDB, 0x3F, 
  0xFF, 0xEB, 0x3F, 0xFF, 0xF3, 0x3F, 0xFF, 0xFB, 0x3F, 0xFF, 0xFF, 0x3F, 
  0xFF, 0xFF, 0x3F, 0xFF, 0xFF, 0x3F, };
