#define 1580341234034_width 22
#define 1580341234034_height 22
static char 1580341234034_bits[] = {
  0xFF, 0xFF, 0x3F, 0xFF, 0xFF, 0x3F, 0xFF, 0xE1, 0x3F, 0x7F, 0x80, 0x3F, 
  0x3F, 0x00, 0x3F, 0x1F, 0x00, 0x3E, 0x1F, 0x00, 0x3E, 0x1F, 0x00, 0x3E, 
  0x1F, 0x00, 0x3E, 0x9F, 0x73, 0x3E, 0xDF, 0xF3, 0x3E, 0x9F, 0x65, 0x3E, 
  0x1F, 0x0C, 0x3E, 0x3F, 0x0C, 0x3F, 0x3F, 0x00, 0x3F, 0x3F, 0x25, 0x3F, 
  0x7F, 0x8C, 0x3F, 0x7F, 0x80, 0x3F, 0xFF, 0xC0, 0x3F, 0xFF, 0xFF, 0x3F, 
  0xFF, 0xFF, 0x3F, 0xFF, 0xFF, 0x3F, };
