#define 1581293373698_width 22
#define 1581293373698_height 22
static char 1581293373698_bits[] = {
  0xFF, 0xFF, 0x3F, 0xFF, 0xFF, 0x3F, 0xFF, 0xFF, 0x3F, 0xFF, 0xFF, 0x3F, 
  0xFF, 0xF1, 0x3F, 0xFF, 0xF1, 0x3F, 0xFF, 0xF1, 0x3F, 0xFF, 0xFF, 0x3F, 
  0xFF, 0xFF, 0x3F, 0x7F, 0xF0, 0x3F, 0xFF, 0xF1, 0x3F, 0xFF, 0xF1, 0x3F, 
  0xFF, 0xF1, 0x3F, 0xFF, 0xF1, 0x3F, 0xFF, 0xF1, 0x3F, 0xFF, 0xF1, 0x3F, 
  0xFF, 0xF1, 0x3F, 0x7F, 0xC0, 0x3F, 0xFF, 0xFF, 0x3F, 0xFF, 0xFF, 0x3F, 
  0xFF, 0xFF, 0x3F, 0xFF, 0xFF, 0x3F, };
