#define 1581293081239_width 22
#define 1581293081239_height 22
static char 1581293081239_bits[] = {
  0xFF, 0xFF, 0x3F, 0xFF, 0xFF, 0x3F, 0xFF, 0xFF, 0x3F, 0x1F, 0x3F, 0x3E, 
  0x1F, 0x3F, 0x3E, 0x1F, 0x3F, 0x3E, 0x1F, 0x3F, 0x3E, 0x1F, 0x1E, 0x3E, 
  0x9F, 0x5E, 0x3E, 0x9F, 0x4C, 0x3E, 0x9F, 0x6D, 0x3E, 0x9F, 0x61, 0x3E, 
  0x9F, 0x73, 0x3E, 0x9F, 0x73, 0x3E, 0x9F, 0x7F, 0x3E, 0x9F, 0x7F, 0x3E, 
  0x9F, 0x7F, 0x3E, 0x9F, 0x7F, 0x3E, 0x9F, 0x7F, 0x3E, 0xFF, 0xFF, 0x3F, 
  0xFF, 0xFF, 0x3F, 0xFF, 0xFF, 0x3F, };
