#define 1580341239824_width 22
#define 1580341239824_height 22
static char 1580341239824_bits[] = {
  0xFF, 0xFF, 0x3F, 0xFF, 0xFF, 0x3F, 0xFF, 0xFF, 0x3D, 0xFF, 0xFF, 0x38, 
  0xFF, 0x7F, 0x3D, 0xFF, 0xBF, 0x3E, 0xFF, 0x5F, 0x3F, 0xFF, 0xAF, 0x3F, 
  0xFF, 0xD7, 0x3F, 0xFF, 0xEB, 0x3F, 0xFF, 0xF5, 0x3F, 0xFF, 0xFA, 0x3F, 
  0x7F, 0xFD, 0x3F, 0xBF, 0xFE, 0x3F, 0x3F, 0xFF, 0x3F, 0xDF, 0xFF, 0x3F, 
  0x1F, 0x00, 0x00, 0xFF, 0xFF, 0x3F, 0xFF, 0xFF, 0x3F, 0xFF, 0xFF, 0x3F, 
  0xFF, 0xFF, 0x3F, 0xFF, 0xFF, 0x3F, };
