#define 1584799606553_width 22
#define 1584799606553_height 22
static char 1584799606553_bits[] = {
  0xFF, 0xFF, 0x3F, 0xFF, 0xFF, 0x3F, 0xFF, 0xFF, 0x3B, 0xFF, 0xFF, 0x39, 
  0xFF, 0xFF, 0x3C, 0xFF, 0x7F, 0x3A, 0xFF, 0x3F, 0x37, 0xFF, 0x9F, 0x3E, 
  0xFF, 0xCF, 0x3D, 0xFF, 0xE7, 0x3F, 0xFF, 0xF3, 0x3F, 0xCF, 0xF9, 0x3F, 
  0xB7, 0xFC, 0x3F, 0x77, 0xFE, 0x3F, 0xF7, 0xFE, 0x3F, 0xEF, 0xFD, 0x3F, 
  0xDF, 0xFB, 0x3F, 0xBF, 0xFB, 0x3F, 0x7F, 0xFC, 0x3F, 0xFF, 0xFF, 0x3F, 
  0xFF, 0xFF, 0x3F, 0xFF, 0xFF, 0x3F, };
