#define 1593729689573_width 22
#define 1593729689573_height 22
static char 1593729689573_bits[] = {
  0xFF, 0xFF, 0x3F, 0xFF, 0xFF, 0x3F, 0xFF, 0xC7, 0x3F, 0x7F, 0x0E, 0x3F, 
  0x2F, 0x30, 0x3E, 0x37, 0x40, 0x3C, 0xF3, 0x83, 0x38, 0x0B, 0x04, 0x39, 
  0x03, 0x18, 0x32, 0x01, 0x20, 0x32, 0xF1, 0x21, 0x34, 0x01, 0x46, 0x34, 
  0x03, 0x84, 0x38, 0x7B, 0x88, 0x38, 0x93, 0x88, 0x38, 0x17, 0x89, 0x3C, 
  0x07, 0x89, 0x3F, 0xCF, 0x89, 0x3D, 0x9F, 0x49, 0x3C, 0x7F, 0x00, 0x3F, 
  0xFF, 0xE3, 0x3F, 0xFF, 0xFF, 0x3F, };
