#define 1580349893651_width 22
#define 1580349893651_height 22
static char 1580349893651_bits[] = {
  0xFF, 0xFF, 0x3F, 0xFF, 0xFF, 0x3F, 0xFF, 0xFB, 0x3F, 0xFF, 0xF5, 0x3F, 
  0xFF, 0xEA, 0x3F, 0x7F, 0xDB, 0x3F, 0xBF, 0xBB, 0x3F, 0xDF, 0x7B, 0x3F, 
  0xEF, 0xFB, 0x3E, 0xCF, 0x7B, 0x3E, 0xAF, 0xB5, 0x3E, 0x6F, 0xEF, 0x3E, 
  0xEF, 0xDE, 0x3E, 0xAF, 0xB5, 0x3E, 0xCF, 0x7B, 0x3E, 0xDF, 0x7B, 0x3F, 
  0xBF, 0xBB, 0x3F, 0x7F, 0xDB, 0x3F, 0xFF, 0xEA, 0x3F, 0xFF, 0xF1, 0x3F, 
  0xFF, 0xFB, 0x3F, 0xFF, 0xFF, 0x3F, };
