#define 1580341245349_width 22
#define 1580341245349_height 22
static char 1580341245349_bits[] = {
  0xFF, 0xFF, 0x3F, 0xFF, 0xFF, 0x3F, 0xFF, 0xFF, 0x3F, 0xFF, 0xBF, 0x3F, 
  0xFF, 0xBF, 0x3F, 0xFF, 0xBF, 0x3F, 0xFF, 0xBF, 0x3F, 0xFF, 0x5E, 0x3F, 
  0xFF, 0x5E, 0x3F, 0x7F, 0x5D, 0x3F, 0x20, 0xED, 0x00, 0xAF, 0xEB, 0x3F, 
  0xDF, 0xEB, 0x3F, 0xDF, 0xEB, 0x3F, 0xFF, 0xF7, 0x3F, 0xFF, 0xF7, 0x3F, 
  0xFF, 0xF7, 0x3F, 0xFF, 0xFF, 0x3F, 0xFF, 0xFF, 0x3F, 0xFF, 0xFF, 0x3F, 
  0xFF, 0xFF, 0x3F, 0xFF, 0xFF, 0x3F, };
