#define 1580341253290_width 22
#define 1580341253290_height 22
static char 1580341253290_bits[] = {
  0xFF, 0xDB, 0x3F, 0xFF, 0xED, 0x3F, 0xFF, 0xB5, 0x3F, 0xFF, 0xD5, 0x3F, 
  0xFF, 0x55, 0x3E, 0xFF, 0xF5, 0x3D, 0xFF, 0xED, 0x3D, 0xFF, 0x7B, 0x3E, 
  0xFF, 0xBF, 0x3F, 0xFF, 0xCF, 0x3F, 0xFF, 0xD7, 0x3F, 0xFF, 0xEB, 0x3F, 
  0xFF, 0xF5, 0x3F, 0xFF, 0xF8, 0x3F, 0x7F, 0xFC, 0x3F, 0x3F, 0xFE, 0x3F, 
  0x1F, 0xFF, 0x3F, 0x8F, 0xFF, 0x3F, 0xCF, 0xFF, 0x3F, 0xFF, 0xFF, 0x3F, 
  0xFF, 0xFF, 0x3F, 0xFF, 0xFF, 0x3F, };
