#define 1592872258566_width 22
#define 1592872258566_height 22
static char 1592872258566_bits[] = {
  0xFF, 0xFF, 0x3F, 0xFF, 0xFF, 0x3F, 0x7F, 0x80, 0x3F, 0xBF, 0x7F, 0x3F, 
  0xDF, 0xC0, 0x3E, 0x6F, 0xBF, 0x3D, 0xBF, 0x61, 0x3F, 0xFF, 0xDE, 0x3F, 
  0xFF, 0xF3, 0x3F, 0xFF, 0xFF, 0x3F, 0xFB, 0xFF, 0x37, 0xFD, 0xFF, 0x2F, 
  0xFE, 0xFF, 0x1F, 0x8E, 0x7F, 0x1C, 0x36, 0xBF, 0x19, 0x16, 0xBF, 0x18, 
  0x06, 0x3F, 0x18, 0x8E, 0x7F, 0x1C, 0xFD, 0xFF, 0x2F, 0xDB, 0xF3, 0x36, 
  0x3F, 0x0C, 0x3F, 0xFF, 0xFF, 0x3F, };
