#define 1580349874702_width 22
#define 1580349874702_height 22
static char 1580349874702_bits[] = {
  0xFF, 0xFF, 0x3F, 0xFF, 0xEF, 0x3F, 0xFF, 0xDF, 0x3F, 0xFF, 0xA0, 0x3F, 
  0x3F, 0x9F, 0x3F, 0xDF, 0xE7, 0x3F, 0xEF, 0xFB, 0x3E, 0xEF, 0xFF, 0x3E, 
  0xF7, 0xFF, 0x3D, 0xF7, 0xFF, 0x3D, 0xF7, 0xFF, 0x3D, 0xF7, 0xFF, 0x3D, 
  0xF7, 0xFF, 0x3D, 0xEF, 0xFF, 0x3E, 0xEF, 0xFB, 0x3E, 0xFF, 0x7C, 0x3F, 
  0x3F, 0x9F, 0x3F, 0xBF, 0xE0, 0x3F, 0x7F, 0xFF, 0x3F, 0xFF, 0xFE, 0x3F, 
  0xFF, 0xFF, 0x3F, 0xFF, 0xFF, 0x3F, };
