#define 1580349866765_width 22
#define 1580349866765_height 22
static char 1580349866765_bits[] = {
  0xFF, 0xFF, 0x3F, 0xFF, 0xFF, 0x3F, 0xFF, 0x87, 0x3F, 0xFF, 0x03, 0x3F, 
  0xFF, 0x13, 0x3F, 0xFF, 0x7B, 0x3F, 0xFF, 0x7B, 0x3E, 0xFF, 0x79, 0x3E, 
  0xFF, 0x7D, 0x3E, 0xFF, 0x3C, 0x3F, 0xFF, 0x8E, 0x3F, 0x7F, 0xE0, 0x3F, 
  0x3F, 0xF3, 0x3F, 0xBF, 0xE7, 0x3F, 0x9F, 0xCF, 0x3F, 0xCF, 0x9F, 0x3B, 
  0xE7, 0x3F, 0x38, 0xC7, 0xFF, 0x3E, 0xFF, 0xFF, 0x3F, 0xFF, 0xFF, 0x3F, 
  0xFF, 0xFF, 0x3F, 0xFF, 0xFF, 0x3F, };
