#define 1580341257981_width 22
#define 1580341257981_height 22
static char 1580341257981_bits[] = {
  0xFF, 0xFF, 0x3F, 0xFF, 0xC0, 0x3F, 0x3F, 0x3F, 0x3F, 0xDF, 0xFF, 0x3E, 
  0xEF, 0xEF, 0x3D, 0xF7, 0xFF, 0x39, 0xFB, 0xE1, 0x36, 0xDB, 0x5E, 0x37, 
  0x7D, 0xBF, 0x2F, 0xBD, 0x5E, 0x2F, 0xBD, 0x63, 0x2F, 0xBD, 0x73, 0x2F, 
  0xBD, 0x7F, 0x2F, 0x7D, 0xBF, 0x2F, 0xFB, 0xDE, 0x37, 0xFB, 0xE1, 0x37, 
  0xF7, 0xFF, 0x3B, 0xEF, 0xFF, 0x3D, 0xDF, 0xFF, 0x3E, 0x3F, 0x3F, 0x3F, 
  0xFF, 0xC0, 0x3F, 0xFF, 0xFF, 0x3F, };
