#define 1589480446253_width 16
#define 1589480446253_height 16
static char 1589480446253_bits[] = {
  0xFF, 0xFF, 0xFF, 0xFF, 0x07, 0xFC, 0x07, 0xF8, 0x07, 0xF0, 0x07, 0xE0, 
  0x67, 0xE7, 0x97, 0xE9, 0x17, 0xE9, 0x67, 0xE9, 0x87, 0xE9, 0x97, 0xE9, 
  0x67, 0xE7, 0x07, 0xE0, 0x07, 0xE0, 0xFF, 0xFF, };
