#define 1583800096004_width 22
#define 1583800096004_height 22
static char 1583800096004_bits[] = {
  0xFF, 0xFF, 0x3F, 0xFF, 0xFF, 0x3F, 0xFF, 0x00, 0x3C, 0x7F, 0xFF, 0x3D, 
  0xBF, 0xFF, 0x3D, 0xDF, 0xFF, 0x3D, 0xEF, 0xFF, 0x3D, 0x6F, 0xC4, 0x3D, 
  0xAF, 0xB7, 0x3D, 0xAF, 0xB7, 0x3D, 0x6F, 0xB6, 0x3D, 0xEF, 0xB5, 0x3D, 
  0xEF, 0xB5, 0x3D, 0x2F, 0xC6, 0x3D, 0xEF, 0xFF, 0x3D, 0xEF, 0xFF, 0x3D, 
  0xEF, 0xFF, 0x3D, 0xEF, 0xFF, 0x3D, 0xEF, 0xFF, 0x3D, 0x0F, 0x00, 0x3C, 
  0xFF, 0xFF, 0x3F, 0xFF, 0xFF, 0x3F, };
