#define 1598662153627_width 22
#define 1598662153627_height 22
static char 1598662153627_bits[] = {
  0xFF, 0xF3, 0x3F, 0xFF, 0xE1, 0x3F, 0xCF, 0xE1, 0x3C, 0x87, 0x61, 0x38, 
  0xC3, 0xE1, 0x30, 0xE1, 0xE1, 0x21, 0xF1, 0xE1, 0x23, 0xF1, 0xE1, 0x23, 
  0xF8, 0xE1, 0x07, 0xF8, 0xE1, 0x07, 0xF8, 0xE1, 0x07, 0xF8, 0xF3, 0x07, 
  0xF8, 0xFF, 0x07, 0xF9, 0xFF, 0x27, 0xF1, 0xFF, 0x23, 0xF1, 0xFF, 0x23, 
  0xE1, 0xFF, 0x21, 0xC3, 0xFF, 0x30, 0x07, 0x3F, 0x38, 0x0F, 0x00, 0x3C, 
  0x1F, 0x00, 0x3E, 0xFF, 0xC1, 0x3F, };
