#define 1580341262404_width 22
#define 1580341262404_height 22
static char 1580341262404_bits[] = {
  0xFF, 0xFF, 0x3F, 0xFF, 0xFF, 0x3F, 0x1F, 0x60, 0x3F, 0x0F, 0xC0, 0x3E, 
  0xEF, 0xDF, 0x3C, 0xEF, 0xDF, 0x38, 0xEF, 0xDF, 0x3A, 0xEF, 0xDF, 0x39, 
  0xEF, 0xDF, 0x3B, 0xEF, 0xDF, 0x3B, 0x0F, 0xC0, 0x3B, 0x0F, 0x80, 0x3B, 
  0x0F, 0x40, 0x3B, 0x0F, 0x40, 0x3B, 0x0F, 0x40, 0x3B, 0x0F, 0x40, 0x3B, 
  0x0F, 0xC0, 0x3C, 0x0F, 0xC0, 0x3F, 0x07, 0x80, 0x3F, 0xFF, 0xFF, 0x3F, 
  0xFF, 0xFF, 0x3F, 0xFF, 0xFF, 0x3F, };
