#define 1580341267143_width 22
#define 1580341267143_height 22
static char 1580341267143_bits[] = {
  0xFF, 0xFF, 0x3F, 0xFF, 0xFF, 0x3F, 0xFF, 0xFB, 0x3F, 0xFF, 0xFB, 0x3F, 
  0xFF, 0xF3, 0x3F, 0xFF, 0xE7, 0x3F, 0xFF, 0xCF, 0x3F, 0xFF, 0x3F, 0x3F, 
  0xFF, 0x7F, 0x3E, 0xFF, 0xFF, 0x3C, 0xFF, 0xFF, 0x3D, 0xFF, 0xFF, 0x39, 
  0xFF, 0xFF, 0x3B, 0x3F, 0xF8, 0x3B, 0x9F, 0xFB, 0x3B, 0xDF, 0xFF, 0x39, 
  0x5F, 0xFC, 0x3C, 0x3F, 0x03, 0x3E, 0xFF, 0xFF, 0x3F, 0xFF, 0xFF, 0x3F, 
  0xFF, 0xFF, 0x3F, 0xFF, 0xFF, 0x3F, };
