#define 1617929836316_width 22
#define 1617929836316_height 22
static char 1617929836316_bits[] = {
  0xFF, 0xFF, 0x3F, 0xFF, 0xFF, 0x3F, 0xFF, 0xFF, 0x3F, 0xFF, 0xFF, 0x3F, 
  0xFF, 0xFF, 0x3F, 0xFF, 0xC1, 0x33, 0xFF, 0xBE, 0x3B, 0x7F, 0xFF, 0x3D, 
  0xBF, 0xFF, 0x3C, 0xDF, 0x7F, 0x3C, 0xDF, 0x3F, 0x3D, 0xEF, 0x9F, 0x3D, 
  0x1F, 0xCE, 0x3D, 0xDF, 0xE4, 0x3D, 0xBF, 0xF1, 0x3E, 0x7F, 0x7F, 0x3F, 
  0xFF, 0xBE, 0x3F, 0xFF, 0xC1, 0x3F, 0xFF, 0xFF, 0x3F, 0xFF, 0xFF, 0x3F, 
  0xFF, 0xFF, 0x3F, 0xFF, 0xFF, 0x3F, };
