#define 1580428515860_width 22
#define 1580428515860_height 22
static char 1580428515860_bits[] = {
  0xFF, 0xFF, 0x3F, 0xFF, 0xFF, 0x3F, 0xFF, 0xE0, 0x3F, 0x3F, 0x80, 0x3F, 
  0x1F, 0x00, 0x3F, 0x0F, 0x00, 0x3E, 0x07, 0x00, 0x3C, 0x07, 0x08, 0x3C, 
  0x03, 0x18, 0x38, 0x03, 0x38, 0x38, 0xC3, 0x7F, 0x38, 0xC3, 0x7F, 0x38, 
  0x03, 0x38, 0x38, 0x03, 0x18, 0x38, 0x07, 0x08, 0x3C, 0x07, 0x00, 0x3C, 
  0x0F, 0x00, 0x3E, 0x1F, 0x00, 0x3F, 0x3F, 0x80, 0x3F, 0xFF, 0xE0, 0x3F, 
  0xFF, 0xFF, 0x3F, 0xFF, 0xFF, 0x3F, };
