#define 1583800128954_width 22
#define 1583800128954_height 22
static char 1583800128954_bits[] = {
  0xFF, 0xFF, 0x3F, 0xFF, 0xC0, 0x3F, 0x3F, 0x23, 0x3F, 0xDF, 0x94, 0x3E, 
  0x6F, 0x55, 0x3D, 0xB7, 0xB6, 0x3A, 0x03, 0x00, 0x30, 0xDB, 0xB6, 0x35, 
  0xDD, 0xB6, 0x2D, 0xED, 0xB6, 0x2B, 0xED, 0xB6, 0x2B, 0x01, 0x00, 0x20, 
  0xED, 0xB6, 0x2B, 0xDD, 0xB6, 0x2D, 0xDB, 0xB6, 0x35, 0xDB, 0x96, 0x35, 
  0x07, 0x00, 0x38, 0x6F, 0x55, 0x3D, 0xDF, 0x94, 0x3E, 0x3F, 0x23, 0x3F, 
  0xFF, 0xC0, 0x3F, 0xFF, 0xFF, 0x3F, };
