#define 1580341271512_width 22
#define 1580341271512_height 22
static char 1580341271512_bits[] = {
  0xFF, 0xFF, 0x3F, 0xFF, 0xFF, 0x3F, 0xFF, 0xFF, 0x3F, 0xFF, 0xFF, 0x3F, 
  0x7F, 0x80, 0x3F, 0x9F, 0x7F, 0x3E, 0xE7, 0xFF, 0x39, 0xFB, 0xFF, 0x37, 
  0xFF, 0xC0, 0x3F, 0x1F, 0x3F, 0x3E, 0xEF, 0xFF, 0x3D, 0xFF, 0xFF, 0x3F, 
  0xFF, 0xE1, 0x3F, 0x7F, 0x9E, 0x3F, 0xBF, 0x7F, 0x3F, 0xFF, 0xFF, 0x3F, 
  0xFF, 0xF3, 0x3F, 0xFF, 0xF3, 0x3F, 0xFF, 0xFF, 0x3F, 0xFF, 0xFF, 0x3F, 
  0xFF, 0xFF, 0x3F, 0xFF, 0xFF, 0x3F, };
